<?xml version="1.0" encoding="UTF-8" standalone="no"?>
<!DOCTYPE svg PUBLIC "-//W3C//DTD SVG 1.1//EN" "http://www.w3.org/Graphics/SVG/1.1/DTD/svg11.dtd">
<svg width="100%" height="100%" viewBox="0 0 20 18" version="1.1" xmlns="http://www.w3.org/2000/svg" xmlns:xlink="http://www.w3.org/1999/xlink" xml:space="preserve" xmlns:serif="http://www.serif.com/" style="fill-rule:evenodd;clip-rule:evenodd;stroke-linejoin:round;stroke-miterlimit:2;">
    <g transform="matrix(1,0,0,1,-195,-810)">
        <g id="_0" serif:id="0" transform="matrix(1,0,0,1,0,773.61)">
            <path d="M206.779,42.65L211.79,42.65L211.79,43.542L206.779,43.542L206.779,42.65ZM206.779,40.729L211.275,40.729L211.275,41.62L206.779,41.62L206.779,40.729ZM208.621,46.413C207.234,45.74 205.967,44.967 205.016,44.155C204.184,44.927 202.996,45.7 201.609,46.413L208.621,46.413ZM198.916,40.729L203.293,40.729L203.293,41.62L198.916,41.62L198.916,40.729ZM198.48,42.65L203.313,42.65L203.313,43.542L198.48,43.542L198.48,42.65ZM211.414,48.73L211.414,51.582C211.414,52.929 210.681,52.969 207.809,52.969C207.75,52.613 207.512,52.197 207.334,51.879C207.947,51.879 208.463,51.899 208.879,51.899C210.107,51.899 210.107,51.879 210.107,51.582L210.107,49.741L204.283,49.741L204.283,53.979L202.996,53.979L202.996,49.741L198.104,49.741L198.104,48.73L211.414,48.73ZM197.866,39.639L197.866,42.155L196.658,42.155L196.658,38.669L204.382,38.669L204.382,37.46L197.787,37.46L197.787,36.411L212.404,36.411L212.404,37.46L205.69,37.46L205.69,38.669L213.572,38.669L213.572,42.155L212.305,42.155L212.305,39.639L205.69,39.639L205.69,42.748L204.382,42.748L204.382,39.639L197.866,39.639ZM201.451,46.493C199.926,47.265 198.183,47.957 196.44,48.473C196.321,48.175 196.064,47.701 195.846,47.443C199.273,46.532 202.679,44.869 204.402,43.125L206.244,43.185C206.205,43.324 206.066,43.403 205.868,43.422C207.888,45.125 211.414,46.551 214.444,47.206C214.186,47.502 213.929,47.978 213.771,48.294C212.186,47.899 210.403,47.265 208.759,46.472L208.759,47.404L201.451,47.404L201.451,46.493Z" style="fill-rule:nonzero;"/>
        </g>
    </g>
</svg>
