<?xml version="1.0" encoding="UTF-8" standalone="no"?>
<!DOCTYPE svg PUBLIC "-//W3C//DTD SVG 1.1//EN" "http://www.w3.org/Graphics/SVG/1.1/DTD/svg11.dtd">
<svg width="100%" height="100%" viewBox="0 0 20 18" version="1.1" xmlns="http://www.w3.org/2000/svg" xmlns:xlink="http://www.w3.org/1999/xlink" xml:space="preserve" xmlns:serif="http://www.serif.com/" style="fill-rule:evenodd;clip-rule:evenodd;stroke-linejoin:round;stroke-miterlimit:2;">
    <g transform="matrix(1,0,0,1,-422,-810)">
        <g id="_5" serif:id="5" transform="matrix(1,0,0,1,436.689,819.087)">
            <path d="M0,-0.947L-6.293,-0.947C-6.843,1.825 -7.415,4.488 -7.877,6.556L0,6.556L0,-0.947ZM1.496,6.556L5.259,6.556L5.259,8.031L-14.566,8.031L-14.566,6.556L-9.527,6.556C-9,4.466 -8.427,1.782 -7.877,-0.947L-12.234,-0.947L-12.234,-2.399L-7.591,-2.399C-7.261,-4.159 -6.953,-5.92 -6.689,-7.504L-13.29,-7.504L-13.29,-8.978L4.092,-8.978L4.092,-7.504L-5.083,-7.504C-5.347,-5.897 -5.677,-4.159 -6.029,-2.399L1.496,-2.399L1.496,6.556Z" style="fill-rule:nonzero;"/>
        </g>
    </g>
</svg>
