<?xml version="1.0" encoding="UTF-8" standalone="no"?>
<!DOCTYPE svg PUBLIC "-//W3C//DTD SVG 1.1//EN" "http://www.w3.org/Graphics/SVG/1.1/DTD/svg11.dtd">
<svg width="100%" height="100%" viewBox="0 0 21 20" version="1.1" xmlns="http://www.w3.org/2000/svg" xmlns:xlink="http://www.w3.org/1999/xlink" xml:space="preserve" xmlns:serif="http://www.serif.com/" style="fill-rule:evenodd;clip-rule:evenodd;stroke-linejoin:round;stroke-miterlimit:2;">
    <g transform="matrix(1,0,0,1,-511,-808)">
        <g id="_7" serif:id="7" transform="matrix(1,0,0,1,519.476,811.54)">
            <path d="M0,13.047C0,14.389 0.308,14.697 1.826,14.697L7.305,14.697C8.823,14.697 9.043,13.883 9.241,10.561C9.637,10.847 10.275,11.133 10.737,11.242C10.451,14.917 9.945,16.15 7.349,16.15L1.782,16.15C-0.793,16.15 -1.562,15.511 -1.562,13.003L-1.562,5.83L-7.613,6.798L-7.878,5.346L-1.562,4.312L-1.562,-3.103L0.439,-2.972C0.418,-2.817 0.308,-2.708 0,-2.664L0,4.069L11.947,2.111L12.189,3.608L0,5.566L0,13.047Z" style="fill-rule:nonzero;"/>
        </g>
    </g>
</svg>
