<?xml version="1.0" encoding="UTF-8" standalone="no"?>
<!DOCTYPE svg PUBLIC "-//W3C//DTD SVG 1.1//EN" "http://www.w3.org/Graphics/SVG/1.1/DTD/svg11.dtd">
<svg width="100%" height="100%" viewBox="0 0 21 20" version="1.1" xmlns="http://www.w3.org/2000/svg" xmlns:xlink="http://www.w3.org/1999/xlink" xml:space="preserve" xmlns:serif="http://www.serif.com/" style="fill-rule:evenodd;clip-rule:evenodd;stroke-linejoin:round;stroke-miterlimit:2;">
    <g transform="matrix(1,0,0,1,-556,-809)">
        <g id="_8" serif:id="8" transform="matrix(1,0,0,1,561.465,828.438)">
            <path d="M0,-18.725L9.153,-18.725C9.857,-10.98 11.42,-4.335 15.49,-1.21C15.072,-0.947 14.435,-0.418 14.082,-0.044C10.121,-3.368 8.516,-9.77 7.789,-17.185L0,-17.185L0,-18.725ZM2.662,-14.259C2.618,-14.061 2.465,-13.973 2.179,-13.951C1.431,-9.198 -0.11,-3.433 -3.74,0C-4.005,-0.309 -4.576,-0.836 -4.929,-1.079C-1.452,-4.269 -0.021,-9.836 0.594,-14.588L2.662,-14.259Z" style="fill-rule:nonzero;"/>
        </g>
    </g>
</svg>
