<?xml version="1.0" encoding="UTF-8" standalone="no"?>
<!DOCTYPE svg PUBLIC "-//W3C//DTD SVG 1.1//EN" "http://www.w3.org/Graphics/SVG/1.1/DTD/svg11.dtd">
<svg width="100%" height="100%" viewBox="0 0 22 22" version="1.1" xmlns="http://www.w3.org/2000/svg" xmlns:xlink="http://www.w3.org/1999/xlink" xml:space="preserve" xmlns:serif="http://www.serif.com/" style="fill-rule:evenodd;clip-rule:evenodd;stroke-linejoin:round;stroke-miterlimit:2;">
    <g transform="matrix(1,0,0,1,-601,-807)">
        <g id="_9" serif:id="9" transform="matrix(1,0,0,1,617.194,810.638)">
            <path d="M0,15.093C0,15.907 0.132,16.039 0.77,16.039L2.838,16.039C3.498,16.039 3.631,15.358 3.696,12.013C4.049,12.299 4.665,12.607 5.083,12.695C4.929,16.348 4.576,17.447 2.948,17.447L0.55,17.447C-1.057,17.447 -1.54,16.942 -1.54,15.093L-1.54,4.29L-6.865,4.422C-7.35,9.658 -8.911,14.785 -14.061,17.756C-14.302,17.382 -14.786,16.898 -15.204,16.655C-10.407,14.037 -8.911,9.395 -8.428,4.466L-14.456,4.62L-14.522,3.146L-8.317,2.991C-8.186,1.1 -8.207,-0.815 -8.186,-2.663L-6.095,-2.553C-6.117,-2.355 -6.293,-2.223 -6.623,-2.179C-6.646,-0.529 -6.646,1.209 -6.755,2.947L-1.188,2.816L-0.968,2.661L0.088,2.904L0,3.278L0,15.093Z" style="fill-rule:nonzero;"/>
        </g>
    </g>
</svg>
