<?xml version="1.0" encoding="UTF-8" standalone="no"?>
<!DOCTYPE svg PUBLIC "-//W3C//DTD SVG 1.1//EN" "http://www.w3.org/Graphics/SVG/1.1/DTD/svg11.dtd">
<svg width="100%" height="100%" viewBox="0 0 18 19" version="1.1" xmlns="http://www.w3.org/2000/svg" xmlns:xlink="http://www.w3.org/1999/xlink" xml:space="preserve" xmlns:serif="http://www.serif.com/" style="fill-rule:evenodd;clip-rule:evenodd;stroke-linejoin:round;stroke-miterlimit:2;">
    <g transform="matrix(1,0,0,1,-476,-238)">
        <g id="a" transform="matrix(1,0,0,1,486.608,248.526)">
            <path d="M0,-1.704C-0.317,-1.724 -1.862,-1.763 -3.348,-1.228C-3.308,0.376 -3.169,1.742 -2.892,2.852C-1.704,1.644 -0.634,0.039 0,-1.704M-4.061,3.862C-4.378,2.634 -4.556,1.069 -4.635,-0.773C-6.794,0.178 -8.478,1.822 -8.478,3.743C-8.478,4.911 -7.824,5.308 -7.11,5.268C-6.18,5.248 -5.11,4.713 -4.061,3.862M2.02,-3.526C1.96,-3.268 1.901,-3.011 1.821,-2.773C5.308,-2.159 6.595,0.019 6.595,2.357C6.595,5.505 3.901,7.407 -1.05,7.962C-1.129,7.684 -1.406,7.09 -1.585,6.773C2.515,6.377 5.149,4.951 5.149,2.396L5.149,2.257C5.05,-0.04 3.505,-1.169 1.386,-1.525C0.534,0.713 -0.911,2.792 -2.556,4.297C-2.417,4.713 -2.238,5.07 -2.04,5.367L-3.209,6.1C-3.388,5.822 -3.546,5.486 -3.685,5.109C-5.269,6.278 -6.536,6.595 -7.428,6.595C-9.012,6.595 -9.824,5.426 -9.824,3.961C-9.824,1.228 -7.566,-0.951 -4.694,-2.1C-4.734,-3.13 -4.734,-4.259 -4.714,-5.427C-8.062,-5.427 -8.418,-5.427 -9.071,-5.467L-9.111,-6.774C-8.101,-6.715 -6.378,-6.715 -4.675,-6.715C-4.655,-7.626 -4.615,-8.735 -4.575,-9.666L-2.595,-9.527C-2.615,-9.329 -2.813,-9.171 -3.11,-9.131C-3.169,-8.398 -3.209,-7.487 -3.269,-6.754C-1.109,-6.814 2.674,-7.071 4.674,-7.586L4.852,-6.239C2.753,-5.725 -1.07,-5.526 -3.328,-5.467C-3.367,-4.437 -3.388,-3.447 -3.367,-2.516C-1.981,-2.952 -0.733,-2.972 -0.396,-2.972C-0.1,-2.972 0.158,-2.972 0.415,-2.952C0.495,-3.268 0.554,-3.565 0.613,-3.882L2.02,-3.526Z" style="fill-rule:nonzero;"/>
        </g>
    </g>
</svg>
