<?xml version="1.0" encoding="UTF-8" standalone="no"?>
<!DOCTYPE svg PUBLIC "-//W3C//DTD SVG 1.1//EN" "http://www.w3.org/Graphics/SVG/1.1/DTD/svg11.dtd">
<svg width="100%" height="100%" viewBox="0 0 19 19" version="1.1" xmlns="http://www.w3.org/2000/svg" xmlns:xlink="http://www.w3.org/1999/xlink" xml:space="preserve" xmlns:serif="http://www.serif.com/" style="fill-rule:evenodd;clip-rule:evenodd;stroke-linejoin:round;stroke-miterlimit:2;">
    <g transform="matrix(1,0,0,1,-642,-237)">
        <g id="ba" transform="matrix(1,0,0,1,659.278,252.485)">
            <path d="M0,-11.21C-0.495,-12.18 -1.268,-13.19 -2.158,-14.062L-1.466,-14.597C-0.495,-13.666 0.258,-12.715 0.772,-11.705L0,-11.21ZM-2.179,-9.784C-2.634,-10.695 -3.426,-11.824 -4.357,-12.695L-3.664,-13.21C-2.713,-12.299 -1.882,-11.23 -1.406,-10.279L-2.179,-9.784ZM-6.199,-0.832C-6.813,-1.03 -7.506,-1.188 -8.16,-1.188C-9.368,-1.188 -10.794,-0.752 -10.794,0.496C-10.794,1.604 -9.626,2.159 -8.16,2.159C-6.694,2.159 -6.159,1.446 -6.18,-0.138C-6.18,-0.297 -6.18,-0.633 -6.199,-0.832M-11.646,-8.477C-11.19,-8.477 -7.981,-8.457 -6.654,-8.536C-6.733,-10.239 -6.793,-11.863 -6.833,-13.329L-4.832,-13.27C-4.853,-13.072 -5.03,-12.913 -5.348,-12.854C-5.348,-11.586 -5.288,-10.16 -5.248,-8.635C-3.703,-8.814 -2.416,-9.071 -1.366,-9.427L-1.188,-8.061C-2.139,-7.744 -3.506,-7.466 -5.209,-7.328L-4.951,-1.703C-3.466,-1.089 -1.94,-0.119 -0.911,0.812L-1.684,2.08C-2.516,1.268 -3.664,0.396 -4.912,-0.178C-4.912,1.446 -5.188,3.387 -8.199,3.387C-10.517,3.387 -12.062,2.278 -12.062,0.535C-12.062,-1.485 -10.041,-2.377 -8.199,-2.377C-7.586,-2.377 -6.952,-2.297 -6.318,-2.119C-6.397,-3.367 -6.496,-5.308 -6.595,-7.249C-7.229,-7.209 -8.041,-7.169 -8.615,-7.169L-11.646,-7.169L-11.646,-8.477ZM-16.122,3.05C-16.735,1.624 -16.974,-1.327 -16.974,-3.921C-16.974,-6.555 -16.558,-9.863 -15.904,-13.17L-13.982,-12.794C-14.022,-12.596 -14.221,-12.458 -14.498,-12.438C-15.211,-9.724 -15.646,-6.199 -15.646,-3.901C-15.646,-2.396 -15.627,-0.891 -15.468,-0.158C-15.032,-1.347 -14.221,-3.248 -13.824,-4.179L-12.933,-3.347C-13.587,-2 -14.973,1.01 -14.973,1.941C-14.973,2.219 -14.914,2.516 -14.775,2.892L-16.122,3.05Z" style="fill-rule:nonzero;"/>
        </g>
    </g>
</svg>
