<?xml version="1.0" encoding="UTF-8" standalone="no"?>
<!DOCTYPE svg PUBLIC "-//W3C//DTD SVG 1.1//EN" "http://www.w3.org/Graphics/SVG/1.1/DTD/svg11.dtd">
<svg width="100%" height="100%" viewBox="0 0 20 16" version="1.1" xmlns="http://www.w3.org/2000/svg" xmlns:xlink="http://www.w3.org/1999/xlink" xml:space="preserve" xmlns:serif="http://www.serif.com/" style="fill-rule:evenodd;clip-rule:evenodd;stroke-linejoin:round;stroke-miterlimit:2;">
    <g transform="matrix(1,0,0,1,-641,-372)">
        <g id="be" transform="matrix(1,0,0,1,656.704,387.915)">
            <path d="M0,-15.429C1.109,-14.597 2.06,-13.646 2.674,-12.696L1.94,-12.062C1.327,-12.993 0.337,-14.023 -0.674,-14.775L0,-15.429ZM-2.437,-13.646C-1.327,-12.834 -0.337,-11.784 0.277,-10.873L-0.476,-10.26C-1.05,-11.131 -2.04,-12.24 -3.109,-13.033L-2.437,-13.646ZM-14.835,-5.843C-14.003,-6.635 -11.963,-8.794 -10.913,-9.923C-9.389,-11.606 -8.636,-11.983 -7.646,-11.983C-6.457,-11.983 -5.605,-11.23 -3.843,-9.131C-2.437,-7.428 0.812,-3.803 3.624,-1.228L2.574,0C-0.139,-2.456 -3.367,-6.16 -4.556,-7.645C-6.239,-9.705 -6.854,-10.497 -7.665,-10.497C-8.457,-10.497 -9.071,-9.844 -10.279,-8.477C-10.953,-7.704 -12.558,-5.942 -13.409,-4.991C-13.389,-4.734 -13.468,-4.535 -13.627,-4.437L-14.835,-5.843Z" style="fill-rule:nonzero;"/>
        </g>
    </g>
</svg>
