<?xml version="1.0" encoding="UTF-8" standalone="no"?>
<!DOCTYPE svg PUBLIC "-//W3C//DTD SVG 1.1//EN" "http://www.w3.org/Graphics/SVG/1.1/DTD/svg11.dtd">
<svg width="100%" height="100%" viewBox="0 0 19 19" version="1.1" xmlns="http://www.w3.org/2000/svg" xmlns:xlink="http://www.w3.org/1999/xlink" xml:space="preserve" xmlns:serif="http://www.serif.com/" style="fill-rule:evenodd;clip-rule:evenodd;stroke-linejoin:round;stroke-miterlimit:2;">
    <g transform="matrix(1,0,0,1,-642,-282)">
        <g id="bi" transform="matrix(1,0,0,1,659.951,297.02)">
            <path d="M0,-11.428C-0.594,-12.379 -1.564,-13.389 -2.574,-14.161L-1.881,-14.795C-0.771,-13.924 0.179,-12.993 0.753,-12.022L0,-11.428ZM-2.634,-10.477C-3.188,-11.349 -4.198,-12.478 -5.229,-13.27L-4.535,-13.865C-3.445,-13.012 -2.436,-11.983 -1.861,-11.072L-2.634,-10.477ZM-17.607,-11.488C-15.369,-11.626 -13.131,-11.963 -12.062,-12.28C-11.388,-12.498 -10.992,-12.696 -10.536,-13.012L-9.526,-12.062C-11.408,-10.814 -14.913,-6.655 -14.913,-2.436C-14.913,0.871 -12.596,2 -10.041,2C-5.109,2 -5.109,-1.723 -5.109,-3.327C-5.109,-5.823 -5.466,-8.774 -6.456,-10.913L-5.188,-11.527C-3.98,-8.656 -1.584,-6.575 0.298,-5.902L-0.276,-4.536C-1.861,-5.09 -3.604,-6.695 -4.277,-7.942L-4.298,-7.942C-3.901,-6.16 -3.763,-4.219 -3.763,-2.733L-3.763,-2.179C-3.882,1.168 -6.04,3.367 -10.041,3.367C-13.507,3.367 -16.28,1.664 -16.28,-2.337C-16.28,-5.071 -14.834,-8.497 -12.517,-10.953C-13.547,-10.636 -15.211,-10.299 -17.072,-10.18C-17.132,-10.022 -17.25,-9.883 -17.429,-9.864L-17.607,-11.488Z" style="fill-rule:nonzero;"/>
        </g>
    </g>
</svg>
