<?xml version="1.0" encoding="UTF-8" standalone="no"?>
<!DOCTYPE svg PUBLIC "-//W3C//DTD SVG 1.1//EN" "http://www.w3.org/Graphics/SVG/1.1/DTD/svg11.dtd">
<svg width="100%" height="100%" viewBox="0 0 19 19" version="1.1" xmlns="http://www.w3.org/2000/svg" xmlns:xlink="http://www.w3.org/1999/xlink" xml:space="preserve" xmlns:serif="http://www.serif.com/" style="fill-rule:evenodd;clip-rule:evenodd;stroke-linejoin:round;stroke-miterlimit:2;">
    <g transform="matrix(1,0,0,1,-643,-416)">
        <g id="bo" transform="matrix(1,0,0,1,661.12,431.43)">
            <path d="M0,-11.35C-0.495,-12.32 -1.287,-13.37 -2.179,-14.242L-1.545,-14.756C-0.595,-13.826 0.218,-12.874 0.713,-11.865L0,-11.35ZM-6.437,0.158C-6.437,-0.08 -6.437,-0.1 -6.477,-0.595C-7.11,-0.832 -7.744,-0.971 -8.318,-0.971C-9.804,-0.971 -10.973,-0.416 -10.973,0.653C-10.973,1.762 -9.844,2.277 -8.378,2.277C-6.873,2.277 -6.437,1.564 -6.437,0.158M-5.269,-10.636C-5.328,-10.518 -5.467,-10.439 -5.625,-10.439C-5.645,-9.686 -5.585,-8.715 -5.486,-6.873C-4.021,-6.993 -2.496,-7.21 -1.466,-7.527L-1.308,-6.22C-2.357,-5.943 -3.902,-5.745 -5.427,-5.625C-5.348,-4.061 -5.249,-2.397 -5.189,-1.486C-3.803,-0.892 -2.416,-0.021 -1.148,1.029L-1.882,2.257C-2.951,1.326 -4.159,0.474 -5.17,-0.04C-5.11,1.584 -5.328,3.406 -8.318,3.406C-10.517,3.406 -12.181,2.435 -12.181,0.653C-12.181,-1.129 -10.398,-2.1 -8.299,-2.1C-7.725,-2.1 -7.13,-2.001 -6.517,-1.843L-6.734,-5.566C-8.259,-5.467 -11.587,-5.507 -11.784,-5.507L-11.784,-6.735L-8.655,-6.735C-8.041,-6.735 -7.407,-6.735 -6.813,-6.775C-6.893,-8.24 -6.972,-9.666 -7.012,-10.716C-7.586,-10.696 -8.279,-10.657 -8.854,-10.657L-11.468,-10.657L-11.468,-11.904L-8.794,-11.904C-6.615,-11.904 -4.754,-12.003 -3.188,-12.261C-3.525,-12.676 -3.902,-13.092 -4.278,-13.449L-3.645,-13.944C-2.693,-13.033 -1.822,-11.924 -1.327,-11.013L-2.04,-10.497C-2.238,-10.855 -2.476,-11.27 -2.773,-11.686L-2.693,-11.052C-3.604,-10.894 -4.714,-10.815 -5.585,-10.755L-5.269,-10.636ZM-14.122,-12.578C-14.182,-12.399 -14.379,-12.261 -14.656,-12.261C-15.35,-9.587 -15.904,-5.824 -15.904,-3.585C-15.904,-2.121 -15.825,-0.714 -15.687,0.019C-15.449,-0.813 -14.656,-2.793 -14.102,-4.041L-13.23,-3.229C-13.924,-1.784 -15.132,0.851 -15.132,2.019C-15.132,2.277 -15.092,2.535 -14.974,2.871L-16.28,3.148C-16.895,1.584 -17.231,-1.031 -17.231,-3.566C-17.231,-6.141 -16.717,-9.705 -16.023,-12.934L-14.122,-12.578Z" style="fill-rule:nonzero;"/>
        </g>
    </g>
</svg>
