<?xml version="1.0" encoding="UTF-8" standalone="no"?>
<!DOCTYPE svg PUBLIC "-//W3C//DTD SVG 1.1//EN" "http://www.w3.org/Graphics/SVG/1.1/DTD/svg11.dtd">
<svg width="100%" height="100%" viewBox="0 0 19 19" version="1.1" xmlns="http://www.w3.org/2000/svg" xmlns:xlink="http://www.w3.org/1999/xlink" xml:space="preserve" xmlns:serif="http://www.serif.com/" style="fill-rule:evenodd;clip-rule:evenodd;stroke-linejoin:round;stroke-miterlimit:2;">
    <g transform="matrix(1,0,0,1,-641,-327)">
        <g id="bu" transform="matrix(1,0,0,1,657.339,345.991)">
            <path d="M0,-18.103C1.069,-17.251 2.06,-16.281 2.634,-15.33L1.881,-14.736C1.287,-15.686 0.316,-16.697 -0.714,-17.509L0,-18.103ZM-2.437,-16.835C-1.367,-16.003 -0.317,-14.914 0.237,-14.023L-0.516,-13.429C-1.09,-14.32 -2.08,-15.449 -3.13,-16.261L-2.437,-16.835ZM-3.387,-8.457C-1.109,-7.566 1.05,-5.665 1.96,-2.991L0.673,-2.278C-0.159,-4.694 -2.1,-6.655 -4.12,-7.428L-3.387,-8.457ZM-7.863,-10.814C-8.2,-10.24 -8.398,-9.765 -8.398,-9.309C-8.398,-8.497 -7.823,-7.804 -6.497,-6.893C-4.893,-5.804 -4.12,-4.457 -4.12,-3.031C-4.12,-1.208 -5.526,0 -7.349,0C-8.339,0 -9.448,-0.416 -11.171,-1.327C-11.013,-1.644 -10.894,-2.06 -10.795,-2.476C-9.131,-1.604 -8.141,-1.308 -7.487,-1.308C-6.239,-1.308 -5.565,-2.041 -5.565,-3.07C-5.565,-3.961 -6.22,-5.15 -7.646,-6.14C-9.091,-7.13 -9.784,-8.081 -9.784,-9.19C-9.784,-9.824 -9.566,-10.498 -9.111,-11.27L-7.863,-10.814ZM-10.458,-17.172C-8.537,-15.944 -5.546,-14.974 -3.011,-14.775L-3.288,-13.488C-3.585,-13.528 -3.862,-13.548 -4.12,-13.548C-5.11,-13.548 -5.883,-13.191 -7.11,-12.062L-8.279,-12.557C-7.744,-13.112 -6.913,-13.766 -6.279,-14.023C-7.685,-14.34 -9.507,-15.013 -11.171,-16.083L-10.458,-17.172ZM-15.983,-2.991C-14.815,-3.744 -12.755,-5.309 -11.151,-6.774L-10.458,-5.705C-11.765,-4.496 -13.646,-2.952 -14.696,-2.14C-14.677,-1.921 -14.756,-1.724 -14.914,-1.604L-15.983,-2.991Z" style="fill-rule:nonzero;"/>
        </g>
    </g>
</svg>
