<?xml version="1.0" encoding="UTF-8" standalone="no"?>
<!DOCTYPE svg PUBLIC "-//W3C//DTD SVG 1.1//EN" "http://www.w3.org/Graphics/SVG/1.1/DTD/svg11.dtd">
<svg width="100%" height="100%" viewBox="0 0 35 20" version="1.1" xmlns="http://www.w3.org/2000/svg" xmlns:xlink="http://www.w3.org/1999/xlink" xml:space="preserve" xmlns:serif="http://www.serif.com/" style="fill-rule:evenodd;clip-rule:evenodd;stroke-linejoin:round;stroke-miterlimit:2;">
    <g transform="matrix(1,0,0,1,-59,-564)">
        <g id="bya">
            <g transform="matrix(1,0,0,1,77.2866,579.293)">
                <path d="M0,-11.428C-0.594,-12.379 -1.564,-13.389 -2.575,-14.161L-1.881,-14.795C-0.772,-13.924 0.178,-12.992 0.752,-12.023L0,-11.428ZM-2.634,-10.478C-3.189,-11.349 -4.199,-12.478 -5.229,-13.27L-4.536,-13.865C-3.446,-13.013 -2.436,-11.983 -1.862,-11.072L-2.634,-10.478ZM-17.607,-11.488C-15.37,-11.626 -13.131,-11.963 -12.062,-12.28C-11.388,-12.497 -10.992,-12.696 -10.537,-13.013L-9.527,-12.062C-11.408,-10.814 -14.914,-6.655 -14.914,-2.436C-14.914,0.872 -12.597,2.001 -10.042,2.001C-5.11,2.001 -5.11,-1.723 -5.11,-3.327C-5.11,-5.824 -5.466,-8.774 -6.457,-10.913L-5.189,-11.528C-3.981,-8.656 -1.584,-6.575 0.297,-5.903L-0.277,-4.535C-1.862,-5.09 -3.604,-6.695 -4.278,-7.943L-4.298,-7.943C-3.902,-6.159 -3.763,-4.219 -3.763,-2.734L-3.763,-2.179C-3.882,1.169 -6.041,3.367 -10.042,3.367C-13.508,3.367 -16.28,1.664 -16.28,-2.337C-16.28,-5.071 -14.834,-8.497 -12.517,-10.952C-13.547,-10.636 -15.211,-10.299 -17.073,-10.18C-17.132,-10.022 -17.251,-9.883 -17.429,-9.864L-17.607,-11.488Z" style="fill-rule:nonzero;"/>
            </g>
            <g transform="matrix(1,0,0,1,79.3809,576.877)">
                <path d="M0,-1.901C0.97,-2.198 2.594,-2.793 3.684,-3.209C3.208,-4.813 2.792,-6.298 2.515,-7.189L4.219,-7.506C4.238,-7.308 4.139,-7.189 3.862,-7.071C4.219,-5.842 4.476,-4.833 4.812,-3.585C6.615,-4.218 8.298,-4.733 9.368,-4.912C8.635,-5.723 7.407,-6.754 6.556,-7.289L7.308,-8.041C8.378,-7.447 9.784,-6.278 10.537,-5.367L10.021,-4.971C10.2,-4.991 10.358,-4.991 10.537,-4.991C12.22,-4.952 13.963,-4.041 13.963,-1.822C13.963,0.396 12.279,1.505 10.438,1.505C9.368,1.505 8.2,1.189 7.11,0.297C7.229,0.079 7.427,-0.356 7.526,-0.653C8.437,0.06 9.526,0.376 10.338,0.376C11.705,0.376 12.735,-0.257 12.735,-1.802C12.735,-3.07 11.765,-3.902 10.398,-3.902C9.051,-3.902 7.13,-3.248 5.11,-2.535C5.843,-0.019 6.893,3.506 7.526,5.863L6.259,6.14C5.783,3.842 4.674,0.218 3.981,-2.119C3.03,-1.762 1.624,-1.248 0.792,-0.911C0.792,-0.772 0.673,-0.594 0.515,-0.535L0,-1.901Z" style="fill-rule:nonzero;"/>
            </g>
        </g>
    </g>
</svg>
