<?xml version="1.0" encoding="UTF-8" standalone="no"?>
<!DOCTYPE svg PUBLIC "-//W3C//DTD SVG 1.1//EN" "http://www.w3.org/Graphics/SVG/1.1/DTD/svg11.dtd">
<svg width="100%" height="100%" viewBox="0 0 33 19" version="1.1" xmlns="http://www.w3.org/2000/svg" xmlns:xlink="http://www.w3.org/1999/xlink" xml:space="preserve" xmlns:serif="http://www.serif.com/" style="fill-rule:evenodd;clip-rule:evenodd;stroke-linejoin:round;stroke-miterlimit:2;">
    <g transform="matrix(1,0,0,1,-60,-654)">
        <g id="byo">
            <g transform="matrix(1,0,0,1,78.3755,668.804)">
                <path d="M0,-11.428C-0.594,-12.379 -1.564,-13.389 -2.575,-14.161L-1.881,-14.795C-0.772,-13.924 0.178,-12.992 0.752,-12.023L0,-11.428ZM-2.634,-10.478C-3.189,-11.349 -4.199,-12.478 -5.229,-13.27L-4.536,-13.865C-3.446,-13.013 -2.436,-11.983 -1.862,-11.072L-2.634,-10.478ZM-17.607,-11.488C-15.37,-11.626 -13.131,-11.963 -12.062,-12.28C-11.388,-12.497 -10.992,-12.696 -10.537,-13.013L-9.527,-12.062C-11.408,-10.814 -14.914,-6.655 -14.914,-2.436C-14.914,0.871 -12.597,2.001 -10.042,2.001C-5.11,2.001 -5.11,-1.723 -5.11,-3.327C-5.11,-5.824 -5.466,-8.774 -6.457,-10.913L-5.189,-11.528C-3.981,-8.656 -1.584,-6.575 0.297,-5.903L-0.277,-4.535C-1.862,-5.09 -3.604,-6.695 -4.278,-7.943L-4.298,-7.943C-3.902,-6.159 -3.763,-4.219 -3.763,-2.734L-3.763,-2.179C-3.882,1.169 -6.041,3.367 -10.042,3.367C-13.508,3.367 -16.28,1.664 -16.28,-2.337C-16.28,-5.071 -14.834,-8.497 -12.517,-10.952C-13.547,-10.636 -15.211,-10.299 -17.073,-10.18C-17.132,-10.022 -17.251,-9.883 -17.429,-9.864L-17.607,-11.488Z" style="fill-rule:nonzero;"/>
            </g>
            <g transform="matrix(1,0,0,1,84.2329,662.743)">
                <path d="M0,5.269C-1.921,5.269 -2.773,6.14 -2.773,7.012C-2.753,8.041 -1.664,8.557 -0.139,8.557C1.703,8.557 1.703,7.111 1.703,6.497C1.703,6.2 1.684,5.863 1.664,5.487C1.129,5.329 0.535,5.269 0,5.269M2.813,4.616C4.674,5.209 6.932,6.417 8.358,7.487L7.566,8.537C6.397,7.546 4.337,6.378 2.872,5.843C2.931,7.249 3.01,9.606 -0.06,9.606C-2,9.606 -3.862,8.854 -3.862,6.932C-3.862,5.348 -2.159,4.279 -0.198,4.259C0.376,4.259 1.05,4.279 1.624,4.397C1.604,3.942 1.584,3.705 1.564,3.348C1.386,1.288 1.268,-2.04 1.268,-4.337L2.951,-4.238C2.951,-4.08 2.813,-3.921 2.535,-3.901C2.535,-3.465 2.575,-1.386 2.575,-0.911C3.862,-0.93 6.08,-1.168 7.744,-1.485L7.843,-0.277C6.199,0 3.981,0.199 2.594,0.238C2.594,1.407 2.693,2.377 2.753,3.447L2.813,4.616Z" style="fill-rule:nonzero;"/>
            </g>
        </g>
    </g>
</svg>
