<?xml version="1.0" encoding="UTF-8" standalone="no"?>
<!DOCTYPE svg PUBLIC "-//W3C//DTD SVG 1.1//EN" "http://www.w3.org/Graphics/SVG/1.1/DTD/svg11.dtd">
<svg width="100%" height="100%" viewBox="0 0 35 19" version="1.1" xmlns="http://www.w3.org/2000/svg" xmlns:xlink="http://www.w3.org/1999/xlink" xml:space="preserve" xmlns:serif="http://www.serif.com/" style="fill-rule:evenodd;clip-rule:evenodd;stroke-linejoin:round;stroke-miterlimit:2;">
    <g transform="matrix(1,0,0,1,-59,-609)">
        <g id="byu">
            <g transform="matrix(1,0,0,1,77.188,624.293)">
                <path d="M0,-11.428C-0.594,-12.379 -1.564,-13.389 -2.575,-14.161L-1.881,-14.795C-0.772,-13.924 0.178,-12.992 0.752,-12.023L0,-11.428ZM-2.634,-10.478C-3.189,-11.349 -4.199,-12.478 -5.229,-13.27L-4.536,-13.865C-3.446,-13.013 -2.436,-11.983 -1.862,-11.072L-2.634,-10.478ZM-17.607,-11.488C-15.37,-11.626 -13.131,-11.963 -12.062,-12.28C-11.388,-12.497 -10.992,-12.696 -10.537,-13.013L-9.527,-12.062C-11.408,-10.814 -14.914,-6.655 -14.914,-2.436C-14.914,0.872 -12.597,2.001 -10.042,2.001C-5.11,2.001 -5.11,-1.723 -5.11,-3.327C-5.11,-5.824 -5.466,-8.774 -6.457,-10.913L-5.189,-11.528C-3.981,-8.656 -1.584,-6.575 0.297,-5.903L-0.277,-4.535C-1.862,-5.09 -3.604,-6.695 -4.278,-7.943L-4.298,-7.943C-3.902,-6.159 -3.763,-4.219 -3.763,-2.734L-3.763,-2.179C-3.882,1.169 -6.041,3.367 -10.042,3.367C-13.508,3.367 -16.28,1.664 -16.28,-2.337C-16.28,-5.071 -14.834,-8.497 -12.517,-10.952C-13.547,-10.636 -15.211,-10.299 -17.073,-10.18C-17.132,-10.022 -17.251,-9.883 -17.429,-9.864L-17.607,-11.488Z" style="fill-rule:nonzero;"/>
            </g>
            <g transform="matrix(1,0,0,1,88.7295,624.332)">
                <path d="M0,-6.793C0.08,-5.446 0.099,-4.139 0.099,-3.069C0.099,-2.198 0.02,-1.128 -0.198,-0.415C2,-0.515 3.328,-1.723 3.328,-3.782C3.328,-5.525 2.298,-6.793 0,-6.793M-7.546,-2.772C-6.318,-5.485 -3.704,-7.387 -1.208,-7.764C-1.248,-8.635 -1.307,-9.665 -1.386,-10.438L0.277,-10.378C0.258,-10.199 0.119,-10.08 -0.158,-10.022C-0.139,-9.506 -0.079,-8.477 -0.059,-7.882C2.555,-7.922 4.496,-6.575 4.496,-3.802C4.496,-1.049 2.615,0.595 -0.495,0.674C-0.99,1.685 -1.861,2.754 -3.525,3.645C-3.763,3.407 -4.179,3.011 -4.396,2.853C-2.951,2.159 -2.159,1.348 -1.723,0.535C-3.208,0.377 -4.456,-0.336 -5.268,-1.762C-5.011,-1.94 -4.634,-2.257 -4.437,-2.475C-3.763,-1.168 -2.575,-0.573 -1.327,-0.515C-1.148,-1.188 -1.01,-2.158 -1.01,-3.089C-1.03,-4.1 -1.03,-5.287 -1.129,-6.674C-3.327,-6.377 -5.625,-4.772 -6.991,-1.742C-7.15,-1.405 -7.229,-0.989 -7.229,-0.494C-7.229,-0.078 -7.169,0.396 -7.07,0.892L-8.199,1.03C-8.497,-0.099 -8.655,-1.564 -8.655,-3.108C-8.655,-4.872 -8.457,-7.288 -7.922,-9.585L-6.417,-9.249C-6.457,-9.09 -6.635,-9.031 -6.813,-9.031C-7.269,-7.269 -7.565,-4.931 -7.565,-2.772L-7.546,-2.772Z" style="fill-rule:nonzero;"/>
            </g>
        </g>
    </g>
</svg>
