<?xml version="1.0" encoding="UTF-8" standalone="no"?>
<!DOCTYPE svg PUBLIC "-//W3C//DTD SVG 1.1//EN" "http://www.w3.org/Graphics/SVG/1.1/DTD/svg11.dtd">
<svg width="100%" height="100%" viewBox="0 0 33 19" version="1.1" xmlns="http://www.w3.org/2000/svg" xmlns:xlink="http://www.w3.org/1999/xlink" xml:space="preserve" xmlns:serif="http://www.serif.com/" style="fill-rule:evenodd;clip-rule:evenodd;stroke-linejoin:round;stroke-miterlimit:2;">
    <g transform="matrix(1,0,0,1,-377,-565)">
        <g id="cha">
            <g transform="matrix(1,0,0,1,392.017,579.234)">
                <path d="M0,-10.201C-2.574,-9.547 -6.159,-9.131 -8.517,-9.052C-8.774,-6.576 -9.13,-4.536 -9.447,-3.804C-7.902,-5.051 -5.506,-5.903 -3.822,-5.903C-0.871,-5.903 0.931,-4.318 0.931,-1.644C0.931,2.297 -3.05,3.624 -9.487,3.782C-9.566,3.406 -9.705,2.812 -9.883,2.475C-4.199,2.357 -0.515,1.386 -0.515,-1.604C-0.515,-3.388 -1.703,-4.615 -4.001,-4.615C-5.764,-4.615 -8.794,-3.546 -10.101,-1.585L-11.487,-2.239C-10.854,-2.952 -10.2,-5.784 -9.903,-9.032L-14.538,-9.032L-14.538,-10.419C-13.706,-10.398 -11.27,-10.398 -9.784,-10.398C-9.705,-11.527 -9.665,-12.795 -9.665,-13.983L-7.566,-13.785C-7.605,-13.449 -7.843,-13.389 -8.2,-13.349C-8.239,-12.359 -8.299,-11.349 -8.378,-10.419C-6.278,-10.477 -2.634,-10.933 -0.258,-11.627L0,-10.201Z" style="fill-rule:nonzero;"/>
            </g>
            <g transform="matrix(1,0,0,1,395.834,576.877)">
                <path d="M0,-1.901C0.971,-2.198 2.595,-2.793 3.685,-3.209C3.209,-4.813 2.793,-6.298 2.516,-7.189L4.219,-7.506C4.239,-7.308 4.14,-7.189 3.862,-7.071C4.219,-5.842 4.477,-4.833 4.813,-3.585C6.615,-4.218 8.299,-4.733 9.368,-4.912C8.636,-5.723 7.408,-6.754 6.556,-7.289L7.309,-8.041C8.378,-7.447 9.784,-6.278 10.537,-5.367L10.022,-4.971C10.2,-4.991 10.358,-4.991 10.537,-4.991C12.221,-4.952 13.964,-4.041 13.964,-1.822C13.964,0.396 12.28,1.505 10.438,1.505C9.368,1.505 8.2,1.189 7.11,0.297C7.229,0.079 7.428,-0.356 7.526,-0.653C8.438,0.06 9.527,0.376 10.339,0.376C11.706,0.376 12.735,-0.257 12.735,-1.802C12.735,-3.07 11.765,-3.902 10.398,-3.902C9.052,-3.902 7.131,-3.248 5.11,-2.535C5.843,-0.019 6.893,3.506 7.526,5.863L6.259,6.14C5.783,3.842 4.675,0.218 3.981,-2.119C3.03,-1.762 1.624,-1.248 0.793,-0.911C0.793,-0.772 0.674,-0.594 0.516,-0.535L0,-1.901Z" style="fill-rule:nonzero;"/>
            </g>
        </g>
    </g>
</svg>
