<?xml version="1.0" encoding="UTF-8" standalone="no"?>
<!DOCTYPE svg PUBLIC "-//W3C//DTD SVG 1.1//EN" "http://www.w3.org/Graphics/SVG/1.1/DTD/svg11.dtd">
<svg width="100%" height="100%" viewBox="0 0 16 18" version="1.1" xmlns="http://www.w3.org/2000/svg" xmlns:xlink="http://www.w3.org/1999/xlink" xml:space="preserve" xmlns:serif="http://www.serif.com/" style="fill-rule:evenodd;clip-rule:evenodd;stroke-linejoin:round;stroke-miterlimit:2;">
    <g transform="matrix(1,0,0,1,-341,-283)">
        <g id="chi" transform="matrix(1,0,0,1,355.899,297.22)">
            <path d="M0,-10.2C-2.575,-9.547 -6.16,-9.131 -8.517,-9.051C-8.774,-6.575 -9.13,-4.535 -9.447,-3.803C-7.902,-5.051 -5.506,-5.902 -3.822,-5.902C-0.872,-5.902 0.931,-4.318 0.931,-1.644C0.931,2.298 -3.05,3.625 -9.487,3.783C-9.566,3.406 -9.705,2.812 -9.883,2.476C-4.199,2.357 -0.515,1.386 -0.515,-1.604C-0.515,-3.387 -1.703,-4.615 -4,-4.615C-5.763,-4.615 -8.794,-3.545 -10.101,-1.584L-11.487,-2.238C-10.854,-2.951 -10.2,-5.783 -9.903,-9.032L-14.538,-9.032L-14.538,-10.418C-13.706,-10.398 -11.27,-10.398 -9.784,-10.398C-9.705,-11.527 -9.665,-12.795 -9.665,-13.983L-7.566,-13.785C-7.605,-13.448 -7.843,-13.389 -8.2,-13.349C-8.239,-12.359 -8.298,-11.349 -8.378,-10.418C-6.278,-10.477 -2.634,-10.933 -0.257,-11.626L0,-10.2Z" style="fill-rule:nonzero;"/>
        </g>
    </g>
</svg>
