<?xml version="1.0" encoding="UTF-8" standalone="no"?>
<!DOCTYPE svg PUBLIC "-//W3C//DTD SVG 1.1//EN" "http://www.w3.org/Graphics/SVG/1.1/DTD/svg11.dtd">
<svg width="100%" height="100%" viewBox="0 0 32 19" version="1.1" xmlns="http://www.w3.org/2000/svg" xmlns:xlink="http://www.w3.org/1999/xlink" xml:space="preserve" xmlns:serif="http://www.serif.com/" style="fill-rule:evenodd;clip-rule:evenodd;stroke-linejoin:round;stroke-miterlimit:2;">
    <g transform="matrix(1,0,0,1,-378,-654)">
        <g id="cho">
            <g transform="matrix(1,0,0,1,393.106,668.745)">
                <path d="M0,-10.201C-2.574,-9.547 -6.159,-9.131 -8.517,-9.052C-8.774,-6.576 -9.13,-4.536 -9.447,-3.804C-7.902,-5.051 -5.506,-5.903 -3.822,-5.903C-0.871,-5.903 0.931,-4.318 0.931,-1.644C0.931,2.297 -3.05,3.624 -9.487,3.782C-9.566,3.406 -9.705,2.812 -9.883,2.475C-4.199,2.357 -0.515,1.386 -0.515,-1.605C-0.515,-3.388 -1.703,-4.615 -4.001,-4.615C-5.764,-4.615 -8.794,-3.546 -10.101,-1.585L-11.487,-2.238C-10.854,-2.952 -10.2,-5.784 -9.903,-9.032L-14.538,-9.032L-14.538,-10.419C-13.706,-10.398 -11.27,-10.398 -9.784,-10.398C-9.705,-11.527 -9.665,-12.795 -9.665,-13.983L-7.565,-13.785C-7.605,-13.449 -7.843,-13.389 -8.2,-13.349C-8.239,-12.359 -8.299,-11.349 -8.378,-10.419C-6.278,-10.478 -2.634,-10.933 -0.258,-11.627L0,-10.201Z" style="fill-rule:nonzero;"/>
            </g>
            <g transform="matrix(1,0,0,1,400.686,662.743)">
                <path d="M0,5.269C-1.921,5.269 -2.772,6.14 -2.772,7.012C-2.753,8.041 -1.664,8.557 -0.139,8.557C1.703,8.557 1.703,7.111 1.703,6.497C1.703,6.2 1.684,5.863 1.663,5.487C1.129,5.329 0.534,5.269 0,5.269M2.813,4.616C4.674,5.209 6.932,6.417 8.358,7.487L7.565,8.537C6.397,7.546 4.337,6.378 2.872,5.843C2.931,7.249 3.011,9.606 -0.06,9.606C-2.001,9.606 -3.862,8.854 -3.862,6.932C-3.862,5.348 -2.159,4.279 -0.198,4.259C0.376,4.259 1.05,4.279 1.624,4.397C1.604,3.942 1.584,3.705 1.564,3.348C1.387,1.288 1.268,-2.04 1.268,-4.337L2.951,-4.238C2.951,-4.08 2.813,-3.921 2.535,-3.901C2.535,-3.465 2.574,-1.386 2.574,-0.911C3.862,-0.93 6.08,-1.168 7.744,-1.485L7.843,-0.277C6.199,0 3.98,0.199 2.595,0.238C2.595,1.407 2.693,2.377 2.753,3.447L2.813,4.616Z" style="fill-rule:nonzero;"/>
            </g>
        </g>
    </g>
</svg>
