<?xml version="1.0" encoding="UTF-8" standalone="no"?>
<!DOCTYPE svg PUBLIC "-//W3C//DTD SVG 1.1//EN" "http://www.w3.org/Graphics/SVG/1.1/DTD/svg11.dtd">
<svg width="100%" height="100%" viewBox="0 0 19 19" version="1.1" xmlns="http://www.w3.org/2000/svg" xmlns:xlink="http://www.w3.org/1999/xlink" xml:space="preserve" xmlns:serif="http://www.serif.com/" style="fill-rule:evenodd;clip-rule:evenodd;stroke-linejoin:round;stroke-miterlimit:2;">
    <g transform="matrix(1,0,0,1,-687,-238)">
        <g id="da" transform="matrix(1,0,0,1,702.563,256.09)">
            <path d="M0,-18.043C0.97,-17.33 2.139,-16.221 2.732,-15.369L2,-14.735C1.445,-15.508 0.276,-16.716 -0.654,-17.429L0,-18.043ZM-2.556,-16.736C-1.585,-16.023 -0.416,-14.874 0.197,-14.043L-0.535,-13.409C-1.109,-14.26 -2.357,-15.488 -3.209,-16.122L-2.556,-16.736ZM-6.041,-9.863C-4.001,-10.517 -1.188,-10.933 1.148,-10.874L1.148,-9.526C-1.09,-9.586 -3.685,-9.269 -5.704,-8.635L-6.041,-9.863ZM1.703,-0.416C0.931,-0.356 0.099,-0.317 -0.714,-0.317C-2.317,-0.317 -3.883,-0.456 -4.833,-0.713C-6.239,-1.109 -7.052,-2.139 -7.031,-3.446C-7.012,-4.318 -6.636,-5.308 -5.804,-6.318L-4.615,-5.803C-5.309,-4.991 -5.646,-4.219 -5.646,-3.605C-5.646,-2.04 -4.14,-1.684 -0.911,-1.684C-0.04,-1.684 0.871,-1.723 1.663,-1.802L1.703,-0.416ZM-3.585,-13.508C-5.269,-12.914 -7.507,-12.537 -9.666,-12.379C-10.497,-7.843 -11.706,-3.327 -13.29,0L-14.716,-0.535C-13.092,-3.724 -11.903,-7.823 -11.132,-12.319C-11.527,-12.299 -14.182,-12.28 -14.775,-12.299L-14.796,-13.647C-14.479,-13.626 -14.063,-13.626 -13.607,-13.626C-13.429,-13.626 -11.448,-13.626 -10.934,-13.647C-10.735,-14.914 -10.537,-16.3 -10.418,-17.508L-8.378,-17.311C-8.398,-17.092 -8.676,-16.934 -8.953,-16.914C-9.071,-16.043 -9.27,-14.973 -9.448,-13.765C-7.507,-13.943 -5.546,-14.28 -3.902,-14.874L-3.585,-13.508Z" style="fill-rule:nonzero;"/>
        </g>
    </g>
</svg>
