<?xml version="1.0" encoding="UTF-8" standalone="no"?>
<!DOCTYPE svg PUBLIC "-//W3C//DTD SVG 1.1//EN" "http://www.w3.org/Graphics/SVG/1.1/DTD/svg11.dtd">
<svg width="100%" height="100%" viewBox="0 0 18 17" version="1.1" xmlns="http://www.w3.org/2000/svg" xmlns:xlink="http://www.w3.org/1999/xlink" xml:space="preserve" xmlns:serif="http://www.serif.com/" style="fill-rule:evenodd;clip-rule:evenodd;stroke-linejoin:round;stroke-miterlimit:2;">
    <g transform="matrix(1,0,0,1,-686,-374)">
        <g id="de" transform="matrix(1,0,0,1,701.257,387.401)">
            <path d="M0,-10.221C0.97,-9.508 2.119,-8.359 2.693,-7.488L1.94,-6.893C1.406,-7.686 0.257,-8.913 -0.674,-9.627L0,-10.221ZM-2.14,-8.478C-1.188,-7.765 -0.06,-6.596 0.555,-5.744L-0.198,-5.131C-0.753,-6.002 -1.961,-7.23 -2.813,-7.884L-2.14,-8.478ZM-14.974,-12.38C-13.488,-12.439 -1.288,-13.31 1.287,-13.33L1.307,-11.845C1.05,-11.865 0.812,-11.865 0.574,-11.865C-0.574,-11.865 -1.545,-11.667 -2.813,-10.855C-5.783,-9.072 -8.655,-5.883 -8.655,-3.328C-8.655,-0.555 -6.715,1.089 -1.803,1.722L-2.456,3.109C-8.081,2.297 -10.181,0.197 -10.181,-3.328C-10.181,-6.121 -7.428,-9.508 -3.803,-11.785C-5.981,-11.627 -11.824,-11.191 -14.38,-10.953C-14.438,-10.795 -14.656,-10.657 -14.815,-10.637L-14.974,-12.38Z" style="fill-rule:nonzero;"/>
        </g>
    </g>
</svg>
