<?xml version="1.0" encoding="UTF-8" standalone="no"?>
<!DOCTYPE svg PUBLIC "-//W3C//DTD SVG 1.1//EN" "http://www.w3.org/Graphics/SVG/1.1/DTD/svg11.dtd">
<svg width="100%" height="100%" viewBox="0 0 19 19" version="1.1" xmlns="http://www.w3.org/2000/svg" xmlns:xlink="http://www.w3.org/1999/xlink" xml:space="preserve" xmlns:serif="http://www.serif.com/" style="fill-rule:evenodd;clip-rule:evenodd;stroke-linejoin:round;stroke-miterlimit:2;">
    <g transform="matrix(1,0,0,1,-687,-282)">
        <g id="di" transform="matrix(1,0,0,1,704.762,297.495)">
            <path d="M0,-11.923C-0.515,-12.814 -1.624,-14.062 -2.476,-14.755L-1.803,-15.33C-0.852,-14.557 0.179,-13.388 0.753,-12.497L0,-11.923ZM-2.516,-10.913C-3.03,-11.764 -4.119,-13.032 -4.991,-13.765L-4.258,-14.34C-3.367,-13.567 -2.298,-12.379 -1.743,-11.487L-2.516,-10.913ZM-3.684,-10.319C-5.744,-9.784 -8.557,-9.506 -11.19,-9.407C-11.448,-6.932 -11.805,-4.892 -12.121,-4.159C-10.576,-5.426 -8.18,-6.278 -6.496,-6.278C-3.545,-6.278 -1.743,-4.694 -1.743,-2.02C-1.743,1.941 -5.724,3.268 -12.161,3.407C-12.24,3.031 -12.379,2.436 -12.557,2.099C-6.873,1.981 -3.188,1.03 -3.188,-1.98C-3.188,-3.763 -4.357,-4.991 -6.675,-4.991C-8.438,-4.991 -11.468,-3.902 -12.774,-1.961L-14.161,-2.614C-13.527,-3.327 -12.874,-6.14 -12.577,-9.388L-17.211,-9.388L-17.211,-10.774C-16.38,-10.755 -13.943,-10.755 -12.478,-10.755C-12.379,-11.883 -12.319,-13.191 -12.339,-14.399L-10.239,-14.181C-10.279,-13.864 -10.517,-13.785 -10.873,-13.745C-10.913,-12.755 -10.973,-11.705 -11.052,-10.774C-8.655,-10.834 -5.922,-11.171 -3.862,-11.764L-3.684,-10.319Z" style="fill-opacity:0.99;fill-rule:nonzero;"/>
        </g>
    </g>
</svg>
