<?xml version="1.0" encoding="UTF-8" standalone="no"?>
<!DOCTYPE svg PUBLIC "-//W3C//DTD SVG 1.1//EN" "http://www.w3.org/Graphics/SVG/1.1/DTD/svg11.dtd">
<svg width="100%" height="100%" viewBox="0 0 16 19" version="1.1" xmlns="http://www.w3.org/2000/svg" xmlns:xlink="http://www.w3.org/1999/xlink" xml:space="preserve" xmlns:serif="http://www.serif.com/" style="fill-rule:evenodd;clip-rule:evenodd;stroke-linejoin:round;stroke-miterlimit:2;">
    <g transform="matrix(1,0,0,1,-687,-417)">
        <g id="do" transform="matrix(1,0,0,1,700.364,435.152)">
            <path d="M0,-18.082C1.03,-17.171 1.922,-16.142 2.477,-15.151L1.664,-14.597C1.109,-15.547 0.219,-16.637 -0.752,-17.488L0,-18.082ZM-2.653,-16.953C-1.624,-16.062 -0.673,-14.934 -0.138,-14.002L-0.99,-13.428C-1.505,-14.339 -2.416,-15.508 -3.426,-16.379L-2.653,-16.953ZM-0.118,-10.774C-0.158,-10.754 -0.218,-10.754 -0.276,-10.754C-0.415,-10.754 -0.574,-10.794 -0.692,-10.873C-6.575,-9.149 -11.903,-6.556 -11.883,-3.901C-11.883,-2 -9.783,-1.347 -6.575,-1.347C-3.387,-1.347 -0.95,-1.584 0.437,-1.802L0.555,-0.356C-1.268,-0.118 -4.218,0 -6.535,0C-10.457,0 -13.31,-0.91 -13.329,-3.822C-13.349,-5.941 -11.229,-7.803 -8.12,-9.407C-8.793,-10.615 -9.031,-12.913 -9.031,-17.389L-6.853,-17.211C-6.872,-16.953 -7.07,-16.795 -7.467,-16.735C-7.486,-13.27 -7.367,-11.11 -6.812,-10.041C-4.951,-10.913 -2.812,-11.705 -0.634,-12.418L-0.118,-10.774Z" style="fill-rule:nonzero;"/>
        </g>
    </g>
</svg>
