<?xml version="1.0" encoding="UTF-8" standalone="no"?>
<!DOCTYPE svg PUBLIC "-//W3C//DTD SVG 1.1//EN" "http://www.w3.org/Graphics/SVG/1.1/DTD/svg11.dtd">
<svg width="100%" height="100%" viewBox="0 0 19 18" version="1.1" xmlns="http://www.w3.org/2000/svg" xmlns:xlink="http://www.w3.org/1999/xlink" xml:space="preserve" xmlns:serif="http://www.serif.com/" style="fill-rule:evenodd;clip-rule:evenodd;stroke-linejoin:round;stroke-miterlimit:2;">
    <g transform="matrix(1,0,0,1,-686,-327)">
        <g id="du" transform="matrix(1,0,0,1,702.326,344.961)">
            <path d="M0,-17.251C1.109,-16.399 2,-15.468 2.634,-14.538L1.842,-13.923C1.208,-14.855 0.237,-15.884 -0.753,-16.657L0,-17.251ZM-2.892,-16.439C-1.822,-15.607 -0.812,-14.538 -0.237,-13.686L-1.03,-13.072C-1.604,-13.923 -2.614,-15.072 -3.624,-15.825L-2.892,-16.439ZM-15.687,-10.814C-15.23,-10.913 -14.577,-11.091 -13.646,-11.388C-10.141,-12.518 -7.012,-13.29 -4.833,-13.29C-1.505,-13.29 1.327,-11.646 1.327,-7.487C1.327,-2.575 -3.525,-0.673 -10.22,0C-10.279,-0.297 -10.537,-0.99 -10.734,-1.347C-4.615,-1.921 -0.218,-3.585 -0.218,-7.407C-0.218,-10.517 -2.356,-11.864 -4.972,-11.864C-7.804,-11.864 -12.894,-10.22 -14.696,-9.447C-14.696,-9.25 -14.874,-9.051 -15.053,-8.992L-15.687,-10.814Z" style="fill-rule:nonzero;"/>
        </g>
    </g>
</svg>
