<?xml version="1.0" encoding="UTF-8" standalone="no"?>
<!DOCTYPE svg PUBLIC "-//W3C//DTD SVG 1.1//EN" "http://www.w3.org/Graphics/SVG/1.1/DTD/svg11.dtd">
<svg width="100%" height="100%" viewBox="0 0 17 18" version="1.1" xmlns="http://www.w3.org/2000/svg" xmlns:xlink="http://www.w3.org/1999/xlink" xml:space="preserve" xmlns:serif="http://www.serif.com/" style="fill-rule:evenodd;clip-rule:evenodd;stroke-linejoin:round;stroke-miterlimit:2;">
    <g transform="matrix(1,0,0,1,-477,-373)">
        <g id="e" transform="matrix(1,0,0,1,489.42,387.619)">
            <path d="M0,-11.804C-2.119,-12.418 -5.843,-13.012 -8.477,-13.131L-8.18,-14.458C-5.446,-14.339 -1.881,-13.804 0.377,-13.151L0,-11.804ZM-4.971,-3.882C-4.298,-4.218 -3.644,-4.337 -3.01,-4.337C-2,-4.337 -1.268,-3.565 -1.268,-2.317C-1.268,-1.802 -1.327,-1.188 -1.327,-0.713C-1.327,1.308 -0.139,1.308 1.564,1.308C2.437,1.308 3.427,1.248 4.14,1.13C4.14,2.021 4.199,2.536 4.199,2.536C3.427,2.615 2.496,2.654 1.624,2.654C0.812,2.654 0.079,2.615 -0.436,2.536C-1.861,2.318 -2.674,1.268 -2.693,0.099C-2.693,-0.356 -2.653,-1.247 -2.653,-1.842C-2.653,-2.673 -2.971,-3.149 -3.664,-3.149C-4.614,-3.149 -6.08,-2.594 -7.209,-1.505C-8.357,-0.376 -10.517,1.803 -11.19,2.595C-11.19,2.595 -11.408,2.318 -12.26,1.546C-10.378,-0.376 -4.159,-6.417 -2.139,-8.377C-3.585,-8.239 -8.08,-7.981 -10.339,-7.863C-10.397,-7.743 -10.497,-7.664 -10.655,-7.645L-10.774,-9.229C-8.001,-9.308 -2.792,-9.566 -0.792,-9.744L-0.495,-9.922L0.654,-8.872C0.535,-8.774 0.396,-8.734 0.179,-8.714C-1.069,-7.546 -3.506,-5.307 -4.971,-3.901L-4.971,-3.882Z" style="fill-rule:nonzero;"/>
        </g>
    </g>
</svg>
