<?xml version="1.0" encoding="UTF-8" standalone="no"?>
<!DOCTYPE svg PUBLIC "-//W3C//DTD SVG 1.1//EN" "http://www.w3.org/Graphics/SVG/1.1/DTD/svg11.dtd">
<svg width="100%" height="100%" viewBox="0 0 19 18" version="1.1" xmlns="http://www.w3.org/2000/svg" xmlns:xlink="http://www.w3.org/1999/xlink" xml:space="preserve" xmlns:serif="http://www.serif.com/" style="fill-rule:evenodd;clip-rule:evenodd;stroke-linejoin:round;stroke-miterlimit:2;">
    <g transform="matrix(1,0,0,1,-249,-329)">
        <g id="fu" transform="matrix(1,0,0,1,262.053,337.555)">
            <path d="M0,0.238C2.278,1.129 4.437,3.03 5.348,5.704L4.06,6.418C3.229,4.001 1.288,2.04 -0.733,1.268L0,0.238ZM-6.952,-8.457C-4.793,-7.189 -1.921,-6.318 0.535,-6.1L0.198,-4.773C-0.06,-4.812 -0.297,-4.832 -0.535,-4.832C-1.584,-4.832 -2.476,-4.436 -3.664,-3.347L-4.853,-3.862C-4.298,-4.416 -3.426,-5.07 -2.792,-5.327C-4.199,-5.644 -5.961,-6.318 -7.665,-7.387L-6.952,-8.457ZM-4.456,-2.119C-4.793,-1.545 -4.991,-1.069 -4.991,-0.614C-4.991,0.198 -4.417,0.892 -3.09,1.803C-1.485,2.892 -0.713,4.239 -0.713,5.665C-0.713,7.487 -2.119,8.695 -3.921,8.695C-4.932,8.695 -6.021,8.279 -7.764,7.368C-7.605,7.051 -7.467,6.635 -7.368,6.219C-5.704,7.091 -4.733,7.388 -4.08,7.388C-2.832,7.388 -2.159,6.655 -2.159,5.625C-2.159,4.734 -2.792,3.546 -4.238,2.555C-5.684,1.565 -6.357,0.594 -6.357,-0.495C-6.357,-1.129 -6.14,-1.822 -5.704,-2.575L-4.456,-2.119ZM-12.597,5.704C-11.428,4.952 -9.368,3.387 -7.764,1.922L-7.071,2.991C-8.378,4.199 -10.259,5.744 -11.309,6.556C-11.29,6.774 -11.369,6.972 -11.527,7.091L-12.597,5.704Z" style="fill-rule:nonzero;"/>
        </g>
    </g>
</svg>
