<?xml version="1.0" encoding="UTF-8" standalone="no"?>
<!DOCTYPE svg PUBLIC "-//W3C//DTD SVG 1.1//EN" "http://www.w3.org/Graphics/SVG/1.1/DTD/svg11.dtd">
<svg width="100%" height="100%" viewBox="0 0 19 19" version="1.1" xmlns="http://www.w3.org/2000/svg" xmlns:xlink="http://www.w3.org/1999/xlink" xml:space="preserve" xmlns:serif="http://www.serif.com/" style="fill-rule:evenodd;clip-rule:evenodd;stroke-linejoin:round;stroke-miterlimit:2;">
    <g transform="matrix(1,0,0,1,-777,-237)">
        <g id="ga" transform="matrix(1,0,0,1,792.266,255.951)">
            <path d="M0,-18.142C0.97,-17.429 2.1,-16.241 2.674,-15.389L1.901,-14.815C1.347,-15.666 0.158,-16.934 -0.713,-17.587L0,-18.142ZM1.445,-5.843C0.792,-8.695 -0.772,-11.091 -2.595,-12.597L-1.446,-13.369C0.515,-11.725 2.218,-9.249 2.871,-6.377L1.445,-5.843ZM-2.991,-17.37C-2.04,-16.637 -0.911,-15.449 -0.337,-14.597L-1.109,-14.042C-1.664,-14.894 -2.853,-16.142 -3.724,-16.795L-2.991,-17.37ZM-7.586,-16.756C-7.626,-16.518 -7.863,-16.419 -8.239,-16.399C-8.457,-15.29 -8.813,-13.369 -9.052,-12.181C-8.16,-12.28 -7.349,-12.359 -6.854,-12.359C-3.843,-12.398 -2.813,-10.398 -2.813,-7.427C-2.813,-5.942 -3.09,-4.179 -3.486,-2.991C-4.101,-0.97 -5.368,0 -7.012,0C-7.823,0 -8.894,-0.336 -10.597,-1.723C-10.379,-2.08 -10.22,-2.515 -10.062,-2.931C-8.478,-1.703 -7.646,-1.426 -7.031,-1.426C-5.902,-1.426 -5.229,-2.139 -4.833,-3.407C-4.417,-4.635 -4.199,-6.456 -4.199,-7.467C-4.219,-9.725 -4.952,-11.071 -6.933,-11.052C-7.526,-11.052 -8.339,-10.973 -9.349,-10.853C-10.339,-6.813 -11.508,-3.347 -13.409,-0.158L-14.716,-0.792C-12.795,-3.862 -11.706,-6.932 -10.774,-10.695C-11.785,-10.576 -13.23,-10.398 -14.3,-10.22L-14.419,-11.606C-13.448,-11.725 -11.824,-11.903 -10.497,-12.061C-10.2,-13.508 -9.884,-15.29 -9.646,-17.033L-7.586,-16.756Z" style="fill-rule:nonzero;"/>
        </g>
    </g>
</svg>
