<?xml version="1.0" encoding="UTF-8" standalone="no"?>
<!DOCTYPE svg PUBLIC "-//W3C//DTD SVG 1.1//EN" "http://www.w3.org/Graphics/SVG/1.1/DTD/svg11.dtd">
<svg width="100%" height="100%" viewBox="0 0 18 19" version="1.1" xmlns="http://www.w3.org/2000/svg" xmlns:xlink="http://www.w3.org/1999/xlink" xml:space="preserve" xmlns:serif="http://www.serif.com/" style="fill-rule:evenodd;clip-rule:evenodd;stroke-linejoin:round;stroke-miterlimit:2;">
    <g transform="matrix(1,0,0,1,-779,-372)">
        <g id="ge" transform="matrix(1,0,0,1,794.563,390.371)">
            <path d="M0,-18.202C0.871,-17.449 1.861,-16.261 2.396,-15.409L1.624,-14.855C1.129,-15.706 0.079,-16.974 -0.713,-17.647L0,-18.202ZM-2.001,-16.637C-1.109,-15.865 -0.1,-14.677 0.396,-13.825L-0.396,-13.29C-0.892,-14.141 -1.922,-15.409 -2.714,-16.083L-2.001,-16.637ZM-9.824,-11.844C-8.181,-11.864 -5.883,-11.884 -4.477,-12.003C-4.575,-14.28 -4.734,-17.093 -4.793,-17.509L-2.753,-17.43C-2.773,-17.212 -2.972,-17.034 -3.288,-16.974C-3.248,-15.885 -3.149,-13.785 -3.07,-12.082C-1.704,-12.201 -0.258,-12.379 0.831,-12.696L0.95,-11.29C-0.139,-11.052 -1.545,-10.834 -3.03,-10.735C-3.011,-10.299 -2.991,-9.685 -2.991,-9.012C-2.991,-4.833 -4.041,-1.902 -7.784,0C-7.942,-0.238 -8.517,-0.753 -8.854,-1.011C-5.269,-2.733 -4.397,-5.268 -4.397,-8.913C-4.397,-9.626 -4.417,-10.299 -4.437,-10.676C-5.744,-10.577 -8.021,-10.537 -9.805,-10.537L-9.824,-11.844ZM-12.616,-16.419C-12.637,-16.241 -12.835,-16.102 -13.132,-16.063C-13.706,-13.567 -14.161,-10.101 -14.161,-7.883C-14.161,-6.516 -14.103,-5.348 -13.943,-4.556C-13.527,-5.447 -12.558,-7.328 -11.943,-8.477L-11.032,-7.546C-11.646,-6.457 -12.835,-4.377 -13.211,-3.327C-13.31,-3.051 -13.369,-2.813 -13.369,-2.535C-13.369,-2.318 -13.33,-2.06 -13.23,-1.743L-14.598,-1.466C-15.132,-2.892 -15.509,-5.071 -15.509,-7.844C-15.509,-10.379 -15.112,-13.785 -14.538,-16.736L-12.616,-16.419Z" style="fill-rule:nonzero;"/>
        </g>
    </g>
</svg>
