<?xml version="1.0" encoding="UTF-8" standalone="no"?>
<!DOCTYPE svg PUBLIC "-//W3C//DTD SVG 1.1//EN" "http://www.w3.org/Graphics/SVG/1.1/DTD/svg11.dtd">
<svg width="100%" height="100%" viewBox="0 0 19 19" version="1.1" xmlns="http://www.w3.org/2000/svg" xmlns:xlink="http://www.w3.org/1999/xlink" xml:space="preserve" xmlns:serif="http://www.serif.com/" style="fill-rule:evenodd;clip-rule:evenodd;stroke-linejoin:round;stroke-miterlimit:2;">
    <g transform="matrix(1,0,0,1,-777,-282)">
        <g id="gi" transform="matrix(1,0,0,1,792.939,300.544)">
            <path d="M0,-18.419C0.832,-17.686 1.842,-16.458 2.317,-15.626L1.505,-15.052C1.05,-15.884 0.06,-17.092 -0.753,-17.844L0,-18.419ZM-2.258,-17.409C-1.426,-16.676 -0.416,-15.448 0.06,-14.636L-0.753,-14.062C-1.188,-14.894 -2.198,-16.082 -2.99,-16.854L-2.258,-17.409ZM-3.208,-0.118C-4.159,-0.059 -5.269,0 -6.813,0C-8.358,0 -13.23,0 -13.23,-3.287C-13.211,-4.337 -12.358,-5.347 -11.21,-6.199L-10.279,-5.347C-11.25,-4.634 -11.805,-3.941 -11.824,-3.307C-11.824,-1.267 -8.338,-1.267 -7.091,-1.267C-5.764,-1.267 -4.377,-1.346 -3.169,-1.425L-3.208,-0.118ZM0.179,-10.655C-1.604,-10.061 -3.743,-9.665 -5.764,-9.447C-5.169,-8.357 -4.021,-6.912 -2.574,-6.357L-3.367,-5.189L-4.476,-5.783C-4.951,-5.961 -5.862,-6.1 -6.793,-6.1C-7.07,-6.1 -7.348,-6.08 -7.625,-6.06L-7.902,-7.149C-7.685,-7.169 -7.427,-7.169 -7.189,-7.169C-6.675,-7.169 -6.159,-7.149 -5.783,-7.09C-6.318,-7.664 -6.873,-8.476 -7.249,-9.288C-9.823,-9.051 -13.27,-9.051 -15.409,-9.09L-15.409,-10.318C-14.181,-10.298 -12.497,-10.298 -11.349,-10.298C-10.318,-10.298 -9.031,-10.358 -7.704,-10.457C-7.902,-11.071 -8.18,-11.942 -8.438,-13.032C-9.229,-12.972 -10.121,-12.913 -12.339,-12.913C-13.032,-12.913 -13.726,-12.933 -14.26,-12.953L-14.26,-14.18C-13.31,-14.141 -12.379,-14.121 -11.606,-14.121C-10.636,-14.121 -9.665,-14.121 -8.694,-14.2C-8.873,-15.111 -9.051,-16.141 -9.21,-17.27L-7.149,-17.27C-7.149,-17.032 -7.348,-16.894 -7.665,-16.815C-7.565,-15.963 -7.427,-15.111 -7.269,-14.319C-5.407,-14.517 -3.604,-14.894 -2.179,-15.468L-1.901,-14.26C-3.268,-13.725 -5.169,-13.329 -7.031,-13.131C-6.773,-12.081 -6.536,-11.21 -6.298,-10.576C-4.238,-10.794 -2,-11.21 -0.099,-11.883L0.179,-10.655Z" style="fill-rule:nonzero;"/>
        </g>
    </g>
</svg>
