<?xml version="1.0" encoding="UTF-8" standalone="no"?>
<!DOCTYPE svg PUBLIC "-//W3C//DTD SVG 1.1//EN" "http://www.w3.org/Graphics/SVG/1.1/DTD/svg11.dtd">
<svg width="100%" height="100%" viewBox="0 0 18 16" version="1.1" xmlns="http://www.w3.org/2000/svg" xmlns:xlink="http://www.w3.org/1999/xlink" xml:space="preserve" xmlns:serif="http://www.serif.com/" style="fill-rule:evenodd;clip-rule:evenodd;stroke-linejoin:round;stroke-miterlimit:2;">
    <g transform="matrix(1,0,0,1,-777,-419)">
        <g id="go" transform="matrix(1,0,0,1,793.296,429.172)">
            <path d="M0,-4.477C-0.554,-5.269 -1.723,-6.457 -2.653,-7.151L-2,-7.785C-1.029,-7.052 0.119,-5.923 0.714,-5.091L0,-4.477ZM-2.079,-2.595C-2.653,-3.467 -3.882,-4.656 -4.733,-5.289L-4.08,-5.903C-3.129,-5.209 -1.98,-4.061 -1.366,-3.229L-2.079,-2.595ZM-10.952,-5.408C-9.923,-6.22 -8.517,-7.17 -7.446,-7.706L-7.446,-7.725C-8.952,-7.547 -12.398,-7.488 -14.597,-7.488C-14.597,-7.864 -14.597,-8.517 -14.616,-8.873L-13.547,-8.873C-11.012,-8.873 -5.822,-8.914 -3.327,-9.507L-3.169,-8.062C-3.822,-7.963 -4.298,-7.864 -5.248,-7.468C-6.357,-7.012 -8.278,-5.943 -9.823,-4.695L-10.952,-5.408ZM-2.06,4.575C-3.803,4.891 -6.12,5.03 -8.14,5.03C-9.764,5.03 -11.19,4.931 -11.962,4.772C-14.358,4.238 -15.389,2.732 -15.389,0.99C-15.389,-0.496 -14.557,-2.04 -13.368,-3.229L-12.22,-2.635C-13.329,-1.506 -13.963,-0.219 -13.963,0.871C-13.963,2.04 -13.19,3.069 -11.487,3.465C-10.813,3.604 -9.665,3.683 -8.318,3.683C-6.396,3.683 -4.06,3.525 -2.158,3.148L-2.06,4.575Z" style="fill-rule:nonzero;"/>
        </g>
    </g>
</svg>
