<?xml version="1.0" encoding="UTF-8" standalone="no"?>
<!DOCTYPE svg PUBLIC "-//W3C//DTD SVG 1.1//EN" "http://www.w3.org/Graphics/SVG/1.1/DTD/svg11.dtd">
<svg width="100%" height="100%" viewBox="0 0 15 19" version="1.1" xmlns="http://www.w3.org/2000/svg" xmlns:xlink="http://www.w3.org/1999/xlink" xml:space="preserve" xmlns:serif="http://www.serif.com/" style="fill-rule:evenodd;clip-rule:evenodd;stroke-linejoin:round;stroke-miterlimit:2;">
    <g transform="matrix(1,0,0,1,-780,-328)">
        <g id="gu" transform="matrix(1,0,0,1,791.394,343.357)">
            <path d="M0,-11.785C0.97,-11.072 2.139,-9.943 2.732,-9.092L2,-8.458C1.445,-9.25 0.276,-10.438 -0.674,-11.151L0,-11.785ZM-2.1,-9.904C-1.129,-9.21 0.02,-8.042 0.634,-7.21L-0.08,-6.576C-0.674,-7.428 -1.901,-8.636 -2.754,-9.289L-2.1,-9.904ZM-2.199,3.129C-4.199,0.792 -7.289,-2.139 -9.963,-4.239C-10.953,-5.031 -11.31,-5.586 -11.31,-6.299C-11.31,-6.873 -10.993,-7.428 -10.26,-8.101C-8.458,-9.765 -5.07,-12.973 -3.169,-14.914L-1.486,-13.806C-1.525,-13.765 -1.664,-13.607 -1.922,-13.607C-2.001,-13.607 -2.08,-13.627 -2.159,-13.647C-4.14,-11.745 -7.229,-9.052 -8.854,-7.527C-9.329,-7.071 -9.705,-6.675 -9.705,-6.358C-9.705,-6.022 -9.349,-5.625 -8.655,-5.111C-6.041,-3.09 -3.249,-0.535 -0.832,2.079L-2.199,3.129Z" style="fill-rule:nonzero;"/>
        </g>
    </g>
</svg>
