<?xml version="1.0" encoding="UTF-8" standalone="no"?>
<!DOCTYPE svg PUBLIC "-//W3C//DTD SVG 1.1//EN" "http://www.w3.org/Graphics/SVG/1.1/DTD/svg11.dtd">
<svg width="100%" height="100%" viewBox="0 0 34 20" version="1.1" xmlns="http://www.w3.org/2000/svg" xmlns:xlink="http://www.w3.org/1999/xlink" xml:space="preserve" xmlns:serif="http://www.serif.com/" style="fill-rule:evenodd;clip-rule:evenodd;stroke-linejoin:round;stroke-miterlimit:2;">
    <g transform="matrix(1,0,0,1,-152,-564)">
        <g id="gya">
            <g transform="matrix(1,0,0,1,168.083,582.818)">
                <path d="M0,-18.419C0.832,-17.687 1.842,-16.459 2.317,-15.627L1.505,-15.053C1.05,-15.884 0.06,-17.093 -0.752,-17.845L0,-18.419ZM-2.258,-17.409C-1.426,-16.677 -0.416,-15.448 0.06,-14.637L-0.752,-14.062C-1.188,-14.894 -2.198,-16.082 -2.991,-16.855L-2.258,-17.409ZM-3.208,-0.118C-4.159,-0.06 -5.268,0 -6.813,0C-8.358,0 -13.23,0 -13.23,-3.288C-13.21,-4.337 -12.359,-5.348 -11.21,-6.199L-10.279,-5.348C-11.25,-4.635 -11.804,-3.941 -11.824,-3.308C-11.824,-1.268 -8.338,-1.268 -7.09,-1.268C-5.763,-1.268 -4.377,-1.347 -3.169,-1.426L-3.208,-0.118ZM0.178,-10.655C-1.604,-10.062 -3.743,-9.665 -5.763,-9.447C-5.169,-8.358 -4.021,-6.912 -2.575,-6.357L-3.367,-5.189L-4.476,-5.783C-4.951,-5.961 -5.862,-6.1 -6.793,-6.1C-7.071,-6.1 -7.348,-6.08 -7.625,-6.061L-7.902,-7.149C-7.685,-7.17 -7.427,-7.17 -7.189,-7.17C-6.674,-7.17 -6.16,-7.149 -5.783,-7.091C-6.318,-7.665 -6.873,-8.477 -7.249,-9.289C-9.824,-9.051 -13.27,-9.051 -15.409,-9.091L-15.409,-10.318C-14.181,-10.299 -12.498,-10.299 -11.349,-10.299C-10.319,-10.299 -9.031,-10.358 -7.705,-10.457C-7.902,-11.071 -8.18,-11.942 -8.437,-13.032C-9.229,-12.973 -10.121,-12.913 -12.339,-12.913C-13.032,-12.913 -13.726,-12.933 -14.26,-12.953L-14.26,-14.181C-13.31,-14.142 -12.378,-14.121 -11.606,-14.121C-10.636,-14.121 -9.665,-14.121 -8.695,-14.2C-8.873,-15.111 -9.051,-16.142 -9.209,-17.271L-7.15,-17.271C-7.15,-17.033 -7.348,-16.895 -7.665,-16.815C-7.566,-15.964 -7.427,-15.111 -7.269,-14.319C-5.407,-14.518 -3.604,-14.894 -2.179,-15.468L-1.901,-14.26C-3.268,-13.726 -5.169,-13.329 -7.031,-13.131C-6.773,-12.081 -6.536,-11.21 -6.298,-10.576C-4.238,-10.794 -2,-11.21 -0.099,-11.884L0.178,-10.655Z" style="fill-rule:nonzero;"/>
            </g>
            <g transform="matrix(1,0,0,1,171.147,576.877)">
                <path d="M0,-1.901C0.97,-2.198 2.594,-2.793 3.684,-3.209C3.208,-4.813 2.792,-6.298 2.515,-7.189L4.219,-7.506C4.238,-7.308 4.139,-7.189 3.862,-7.071C4.219,-5.842 4.476,-4.833 4.812,-3.585C6.615,-4.218 8.298,-4.733 9.368,-4.912C8.635,-5.723 7.407,-6.754 6.556,-7.289L7.308,-8.041C8.378,-7.447 9.784,-6.278 10.537,-5.367L10.021,-4.971C10.2,-4.991 10.358,-4.991 10.537,-4.991C12.22,-4.952 13.963,-4.041 13.963,-1.822C13.963,0.396 12.279,1.505 10.438,1.505C9.368,1.505 8.2,1.189 7.11,0.297C7.229,0.079 7.427,-0.356 7.526,-0.653C8.437,0.06 9.526,0.376 10.338,0.376C11.705,0.376 12.735,-0.257 12.735,-1.802C12.735,-3.07 11.765,-3.902 10.398,-3.902C9.051,-3.902 7.13,-3.248 5.11,-2.535C5.843,-0.019 6.893,3.506 7.526,5.863L6.259,6.14C5.783,3.842 4.674,0.218 3.981,-2.119C3.03,-1.762 1.624,-1.248 0.792,-0.911C0.792,-0.772 0.673,-0.594 0.515,-0.535L0,-1.901Z" style="fill-rule:nonzero;"/>
            </g>
        </g>
    </g>
</svg>
