<?xml version="1.0" encoding="UTF-8" standalone="no"?>
<!DOCTYPE svg PUBLIC "-//W3C//DTD SVG 1.1//EN" "http://www.w3.org/Graphics/SVG/1.1/DTD/svg11.dtd">
<svg width="100%" height="100%" viewBox="0 0 32 20" version="1.1" xmlns="http://www.w3.org/2000/svg" xmlns:xlink="http://www.w3.org/1999/xlink" xml:space="preserve" xmlns:serif="http://www.serif.com/" style="fill-rule:evenodd;clip-rule:evenodd;stroke-linejoin:round;stroke-miterlimit:2;">
    <g transform="matrix(1,0,0,1,-153,-653)">
        <g id="gyo">
            <g transform="matrix(1,0,0,1,169.269,672.329)">
                <path d="M0,-18.419C0.832,-17.687 1.842,-16.459 2.317,-15.627L1.505,-15.053C1.05,-15.884 0.06,-17.093 -0.752,-17.845L0,-18.419ZM-2.258,-17.409C-1.426,-16.677 -0.416,-15.448 0.06,-14.637L-0.752,-14.063C-1.188,-14.894 -2.198,-16.082 -2.991,-16.855L-2.258,-17.409ZM-3.208,-0.119C-4.159,-0.06 -5.268,0 -6.813,0C-8.358,0 -13.23,0 -13.23,-3.287C-13.21,-4.337 -12.359,-5.348 -11.21,-6.199L-10.279,-5.348C-11.25,-4.635 -11.804,-3.941 -11.824,-3.308C-11.824,-1.268 -8.338,-1.268 -7.09,-1.268C-5.764,-1.268 -4.377,-1.347 -3.169,-1.426L-3.208,-0.119ZM0.178,-10.655C-1.604,-10.062 -3.743,-9.665 -5.764,-9.447C-5.169,-8.357 -4.021,-6.912 -2.575,-6.357L-3.367,-5.19L-4.476,-5.783C-4.951,-5.961 -5.862,-6.1 -6.793,-6.1C-7.071,-6.1 -7.348,-6.08 -7.625,-6.061L-7.902,-7.149C-7.685,-7.17 -7.427,-7.17 -7.189,-7.17C-6.674,-7.17 -6.16,-7.149 -5.783,-7.09C-6.318,-7.665 -6.873,-8.477 -7.249,-9.289C-9.824,-9.051 -13.27,-9.051 -15.409,-9.091L-15.409,-10.318C-14.181,-10.299 -12.498,-10.299 -11.349,-10.299C-10.319,-10.299 -9.031,-10.358 -7.705,-10.457C-7.902,-11.071 -8.18,-11.942 -8.437,-13.032C-9.229,-12.973 -10.121,-12.913 -12.339,-12.913C-13.032,-12.913 -13.726,-12.933 -14.26,-12.953L-14.26,-14.181C-13.31,-14.142 -12.378,-14.121 -11.606,-14.121C-10.636,-14.121 -9.665,-14.121 -8.695,-14.2C-8.873,-15.111 -9.051,-16.142 -9.209,-17.271L-7.15,-17.271C-7.15,-17.033 -7.348,-16.895 -7.665,-16.815C-7.566,-15.963 -7.427,-15.111 -7.269,-14.319C-5.407,-14.518 -3.604,-14.894 -2.179,-15.468L-1.901,-14.26C-3.268,-13.726 -5.169,-13.329 -7.031,-13.131C-6.773,-12.081 -6.536,-11.21 -6.298,-10.576C-4.238,-10.794 -2,-11.21 -0.099,-11.884L0.178,-10.655Z" style="fill-rule:nonzero;"/>
            </g>
            <g transform="matrix(1,0,0,1,175.9,662.743)">
                <path d="M0,5.269C-1.921,5.269 -2.773,6.14 -2.773,7.012C-2.753,8.041 -1.664,8.557 -0.139,8.557C1.703,8.557 1.703,7.111 1.703,6.497C1.703,6.2 1.684,5.863 1.664,5.487C1.129,5.329 0.535,5.269 0,5.269M2.813,4.616C4.674,5.209 6.932,6.417 8.358,7.487L7.566,8.537C6.397,7.546 4.337,6.378 2.872,5.843C2.931,7.249 3.01,9.606 -0.06,9.606C-2,9.606 -3.862,8.854 -3.862,6.932C-3.862,5.348 -2.159,4.279 -0.198,4.259C0.376,4.259 1.05,4.279 1.624,4.397C1.604,3.942 1.584,3.705 1.564,3.348C1.386,1.288 1.268,-2.04 1.268,-4.337L2.951,-4.238C2.951,-4.08 2.813,-3.921 2.535,-3.901C2.535,-3.465 2.575,-1.386 2.575,-0.911C3.862,-0.93 6.08,-1.168 7.744,-1.485L7.843,-0.277C6.199,0 3.981,0.199 2.594,0.238C2.594,1.407 2.693,2.377 2.753,3.447L2.813,4.616Z" style="fill-rule:nonzero;"/>
            </g>
        </g>
    </g>
</svg>
