<?xml version="1.0" encoding="UTF-8" standalone="no"?>
<!DOCTYPE svg PUBLIC "-//W3C//DTD SVG 1.1//EN" "http://www.w3.org/Graphics/SVG/1.1/DTD/svg11.dtd">
<svg width="100%" height="100%" viewBox="0 0 33 19" version="1.1" xmlns="http://www.w3.org/2000/svg" xmlns:xlink="http://www.w3.org/1999/xlink" xml:space="preserve" xmlns:serif="http://www.serif.com/" style="fill-rule:evenodd;clip-rule:evenodd;stroke-linejoin:round;stroke-miterlimit:2;">
    <g transform="matrix(1,0,0,1,-152,-609)">
        <g id="gyu">
            <g transform="matrix(1,0,0,1,168.082,627.818)">
                <path d="M0,-18.419C0.832,-17.687 1.842,-16.459 2.317,-15.627L1.505,-15.053C1.05,-15.884 0.06,-17.093 -0.752,-17.845L0,-18.419ZM-2.258,-17.409C-1.426,-16.677 -0.416,-15.448 0.06,-14.637L-0.752,-14.062C-1.188,-14.894 -2.198,-16.082 -2.991,-16.855L-2.258,-17.409ZM-3.208,-0.118C-4.159,-0.06 -5.268,0 -6.813,0C-8.358,0 -13.23,0 -13.23,-3.288C-13.21,-4.337 -12.359,-5.348 -11.21,-6.199L-10.279,-5.348C-11.25,-4.635 -11.804,-3.941 -11.824,-3.308C-11.824,-1.268 -8.338,-1.268 -7.09,-1.268C-5.764,-1.268 -4.377,-1.347 -3.169,-1.426L-3.208,-0.118ZM0.178,-10.655C-1.604,-10.062 -3.743,-9.665 -5.764,-9.447C-5.169,-8.358 -4.021,-6.912 -2.575,-6.357L-3.367,-5.189L-4.476,-5.783C-4.951,-5.961 -5.862,-6.1 -6.793,-6.1C-7.071,-6.1 -7.348,-6.08 -7.625,-6.061L-7.902,-7.149C-7.685,-7.17 -7.427,-7.17 -7.189,-7.17C-6.674,-7.17 -6.16,-7.149 -5.783,-7.091C-6.318,-7.665 -6.873,-8.477 -7.249,-9.289C-9.824,-9.051 -13.27,-9.051 -15.409,-9.091L-15.409,-10.318C-14.181,-10.299 -12.498,-10.299 -11.349,-10.299C-10.319,-10.299 -9.031,-10.358 -7.705,-10.457C-7.902,-11.071 -8.18,-11.942 -8.437,-13.032C-9.229,-12.973 -10.121,-12.913 -12.339,-12.913C-13.032,-12.913 -13.726,-12.933 -14.26,-12.953L-14.26,-14.181C-13.31,-14.142 -12.378,-14.121 -11.606,-14.121C-10.636,-14.121 -9.665,-14.121 -8.695,-14.2C-8.873,-15.111 -9.051,-16.142 -9.209,-17.271L-7.15,-17.271C-7.15,-17.033 -7.348,-16.895 -7.665,-16.815C-7.566,-15.964 -7.427,-15.111 -7.269,-14.319C-5.407,-14.518 -3.604,-14.894 -2.179,-15.468L-1.901,-14.26C-3.268,-13.726 -5.169,-13.329 -7.031,-13.131C-6.773,-12.081 -6.536,-11.21 -6.298,-10.576C-4.238,-10.794 -2,-11.21 -0.099,-11.884L0.178,-10.655Z" style="fill-rule:nonzero;"/>
            </g>
            <g transform="matrix(1,0,0,1,180.397,624.332)">
                <path d="M0,-6.793C0.08,-5.446 0.099,-4.139 0.099,-3.069C0.099,-2.198 0.02,-1.128 -0.198,-0.415C2,-0.515 3.328,-1.723 3.328,-3.782C3.328,-5.525 2.298,-6.793 0,-6.793M-7.546,-2.772C-6.318,-5.485 -3.704,-7.387 -1.208,-7.764C-1.248,-8.635 -1.307,-9.665 -1.386,-10.438L0.277,-10.378C0.258,-10.199 0.119,-10.08 -0.158,-10.022C-0.139,-9.506 -0.079,-8.477 -0.059,-7.882C2.555,-7.922 4.496,-6.575 4.496,-3.802C4.496,-1.049 2.615,0.595 -0.495,0.674C-0.99,1.685 -1.861,2.754 -3.525,3.645C-3.763,3.407 -4.179,3.011 -4.396,2.853C-2.951,2.159 -2.159,1.348 -1.723,0.535C-3.208,0.377 -4.456,-0.336 -5.268,-1.762C-5.011,-1.94 -4.634,-2.257 -4.437,-2.475C-3.763,-1.168 -2.575,-0.573 -1.327,-0.515C-1.148,-1.188 -1.01,-2.158 -1.01,-3.089C-1.03,-4.1 -1.03,-5.287 -1.129,-6.674C-3.327,-6.377 -5.625,-4.772 -6.991,-1.742C-7.15,-1.405 -7.229,-0.989 -7.229,-0.494C-7.229,-0.078 -7.169,0.396 -7.07,0.892L-8.199,1.03C-8.497,-0.099 -8.655,-1.564 -8.655,-3.108C-8.655,-4.872 -8.457,-7.288 -7.922,-9.585L-6.417,-9.249C-6.457,-9.09 -6.635,-9.031 -6.813,-9.031C-7.269,-7.269 -7.565,-4.931 -7.565,-2.772L-7.546,-2.772Z" style="fill-rule:nonzero;"/>
            </g>
        </g>
    </g>
</svg>
