<?xml version="1.0" encoding="UTF-8" standalone="no"?>
<!DOCTYPE svg PUBLIC "-//W3C//DTD SVG 1.1//EN" "http://www.w3.org/Graphics/SVG/1.1/DTD/svg11.dtd">
<svg width="100%" height="100%" viewBox="0 0 17 18" version="1.1" xmlns="http://www.w3.org/2000/svg" xmlns:xlink="http://www.w3.org/1999/xlink" xml:space="preserve" xmlns:serif="http://www.serif.com/" style="fill-rule:evenodd;clip-rule:evenodd;stroke-linejoin:round;stroke-miterlimit:2;">
    <g transform="matrix(1,0,0,1,-250,-239)">
        <g id="ha" transform="matrix(1,0,0,1,261.696,243.634)">
            <path d="M0,8.279C-0.634,8.081 -1.307,7.923 -1.961,7.923C-3.169,7.923 -4.615,8.358 -4.615,9.606C-4.615,10.715 -3.426,11.27 -1.98,11.27C-0.515,11.27 0.02,10.557 0.02,8.972L0,8.279ZM-5.427,0.495C-3.763,0.515 -2.1,0.535 -0.436,0.416C-0.515,-1.287 -0.574,-2.753 -0.614,-4.219L1.386,-4.159C1.367,-3.961 1.188,-3.803 0.872,-3.743C0.891,-2.475 0.931,-1.188 0.971,0.317C2.535,0.158 3.803,-0.118 4.853,-0.475L5.031,0.911C4.08,1.208 2.713,1.486 1.03,1.624C1.109,3.823 1.208,6.14 1.268,7.407C2.773,8.022 4.278,8.992 5.308,9.923L4.536,11.191C3.724,10.379 2.555,9.507 1.327,8.933C1.307,10.616 0.99,12.498 -1.98,12.498C-4.298,12.498 -5.843,11.388 -5.843,9.646C-5.843,7.626 -3.803,6.734 -1.98,6.734C-1.367,6.734 -0.713,6.813 -0.099,6.992C-0.159,5.744 -0.277,3.664 -0.376,1.723C-0.99,1.763 -1.822,1.783 -2.396,1.783L-5.407,1.783L-5.427,0.495ZM-10.458,12.161C-11.071,10.735 -11.309,7.784 -11.309,5.189C-11.309,2.555 -10.893,-0.752 -10.24,-4.06L-8.318,-3.684C-8.358,-3.486 -8.556,-3.347 -8.833,-3.327C-9.546,-0.614 -9.982,2.912 -9.982,5.209C-9.982,6.715 -9.962,8.219 -9.804,8.952C-9.368,7.764 -8.576,5.862 -8.16,4.932L-7.269,5.764C-7.922,7.111 -9.309,10.121 -9.309,11.052C-9.309,11.329 -9.25,11.626 -9.111,12.003L-10.458,12.161Z" style="fill-rule:nonzero;"/>
        </g>
    </g>
</svg>
