<?xml version="1.0" encoding="UTF-8" standalone="no"?>
<!DOCTYPE svg PUBLIC "-//W3C//DTD SVG 1.1//EN" "http://www.w3.org/Graphics/SVG/1.1/DTD/svg11.dtd">
<svg width="100%" height="100%" viewBox="0 0 19 13" version="1.1" xmlns="http://www.w3.org/2000/svg" xmlns:xlink="http://www.w3.org/1999/xlink" xml:space="preserve" xmlns:serif="http://www.serif.com/" style="fill-rule:evenodd;clip-rule:evenodd;stroke-linejoin:round;stroke-miterlimit:2;">
    <g transform="matrix(1,0,0,1,-249,-375)">
        <g id="he" transform="matrix(1,0,0,1,249.278,381.756)">
            <path d="M0,0.298C0.832,-0.494 2.872,-2.653 3.922,-3.782C5.447,-5.466 6.199,-5.842 7.189,-5.842C8.378,-5.842 9.229,-5.089 10.992,-2.99C12.398,-1.286 15.647,2.338 18.459,4.913L17.41,6.14C14.696,3.685 11.468,-0.019 10.279,-1.505C8.596,-3.564 7.982,-4.357 7.17,-4.357C6.377,-4.357 5.764,-3.703 4.556,-2.336C3.882,-1.564 2.278,0.199 1.426,1.15C1.446,1.407 1.367,1.605 1.208,1.704L0,0.298Z" style="fill-rule:nonzero;"/>
        </g>
    </g>
</svg>
