<?xml version="1.0" encoding="UTF-8" standalone="no"?>
<!DOCTYPE svg PUBLIC "-//W3C//DTD SVG 1.1//EN" "http://www.w3.org/Graphics/SVG/1.1/DTD/svg11.dtd">
<svg width="100%" height="100%" viewBox="0 0 19 17" version="1.1" xmlns="http://www.w3.org/2000/svg" xmlns:xlink="http://www.w3.org/1999/xlink" xml:space="preserve" xmlns:serif="http://www.serif.com/" style="fill-rule:evenodd;clip-rule:evenodd;stroke-linejoin:round;stroke-miterlimit:2;">
    <g transform="matrix(1,0,0,1,-249,-284)">
        <g id="hi" transform="matrix(1,0,0,1,249.693,299.121)">
            <path d="M0,-13.329C2.238,-13.448 4.457,-13.785 5.546,-14.121C6.239,-14.339 6.615,-14.537 7.071,-14.854L8.081,-13.903C6.199,-12.656 2.694,-8.496 2.694,-4.278C2.694,-0.97 5.011,0.159 7.566,0.159C12.498,0.159 12.498,-3.584 12.498,-5.328C12.498,-7.823 12.181,-10.754 11.19,-12.853L12.478,-13.468C13.626,-10.675 15.963,-8.496 17.905,-7.823L17.33,-6.436C15.746,-6.991 14.022,-8.635 13.349,-9.883L13.33,-9.883C13.726,-8.12 13.844,-6.199 13.844,-4.733L13.844,-4.1C13.726,-0.713 11.606,1.525 7.566,1.525C4.1,1.525 1.327,-0.178 1.327,-4.179C1.327,-6.912 2.713,-10.239 5.13,-12.794C4.1,-12.477 2.396,-12.141 0.535,-12.022C0.476,-11.863 0.356,-11.725 0.178,-11.705L0,-13.329Z" style="fill-rule:nonzero;"/>
        </g>
    </g>
</svg>
