<?xml version="1.0" encoding="UTF-8" standalone="no"?>
<!DOCTYPE svg PUBLIC "-//W3C//DTD SVG 1.1//EN" "http://www.w3.org/Graphics/SVG/1.1/DTD/svg11.dtd">
<svg width="100%" height="100%" viewBox="0 0 17 18" version="1.1" xmlns="http://www.w3.org/2000/svg" xmlns:xlink="http://www.w3.org/1999/xlink" xml:space="preserve" xmlns:serif="http://www.serif.com/" style="fill-rule:evenodd;clip-rule:evenodd;stroke-linejoin:round;stroke-miterlimit:2;">
    <g transform="matrix(1,0,0,1,-250,-418)">
        <g id="ho" transform="matrix(1,0,0,1,261.498,422.757)">
            <path d="M0,8.337C-0.653,8.1 -1.268,7.961 -1.842,7.961C-3.347,7.961 -4.496,8.516 -4.496,9.585C-4.496,10.694 -3.387,11.209 -1.901,11.209C-0.416,11.209 0.02,10.516 0.02,9.169L0,8.337ZM-5.011,-3.051L-2.337,-3.051C0,-3.051 2.575,-3.209 4.199,-3.585L4.357,-2.318C3.486,-2.14 2.199,-2.021 0.951,-1.942L0.951,-1.922L1.228,-1.902C1.188,-1.744 1.07,-1.664 0.832,-1.624C0.832,-0.813 0.892,0.593 0.971,2.019C2.437,1.88 3.961,1.683 4.991,1.366L5.15,2.653C4.1,2.951 2.555,3.129 1.03,3.248L1.288,7.445C2.654,8.04 4.061,8.911 5.328,9.961L4.595,11.19C3.506,10.258 2.298,9.406 1.288,8.892C1.406,10.991 0.772,12.338 -1.842,12.338C-4.04,12.338 -5.724,11.367 -5.724,9.585C-5.724,7.803 -3.941,6.832 -1.822,6.832C-1.248,6.832 -0.653,6.931 -0.059,7.089C-0.099,6.119 -0.198,4.634 -0.277,3.327C-1.228,3.386 -4.238,3.386 -5.328,3.386L-5.328,2.158L-2.198,2.158C-1.584,2.158 -0.951,2.138 -0.356,2.099C-0.436,0.653 -0.495,-0.813 -0.535,-1.863C-1.109,-1.842 -1.802,-1.803 -2.376,-1.803L-5.011,-1.803L-5.011,-3.051ZM-10.141,12.08C-10.754,10.516 -11.091,7.901 -11.091,5.366C-11.091,2.792 -10.576,-0.773 -9.883,-4.001L-7.981,-3.645C-8.041,-3.466 -8.239,-3.328 -8.517,-3.328C-9.209,-0.655 -9.764,3.109 -9.764,5.347C-9.764,6.813 -9.685,8.218 -9.546,8.951C-9.309,8.119 -8.517,6.139 -7.962,4.891L-7.09,5.703C-7.784,7.149 -8.992,9.783 -8.992,10.951C-8.992,11.209 -8.952,11.467 -8.833,11.803L-10.141,12.08Z" style="fill-rule:nonzero;"/>
        </g>
    </g>
</svg>
