<?xml version="1.0" encoding="UTF-8" standalone="no"?>
<!DOCTYPE svg PUBLIC "-//W3C//DTD SVG 1.1//EN" "http://www.w3.org/Graphics/SVG/1.1/DTD/svg11.dtd">
<svg width="100%" height="100%" viewBox="0 0 34 18" version="1.1" xmlns="http://www.w3.org/2000/svg" xmlns:xlink="http://www.w3.org/1999/xlink" xml:space="preserve" xmlns:serif="http://www.serif.com/" style="fill-rule:evenodd;clip-rule:evenodd;stroke-linejoin:round;stroke-miterlimit:2;">
    <g transform="matrix(1,0,0,1,-286,-566)">
        <g id="hya">
            <g transform="matrix(1,0,0,1,286.009,581.135)">
                <path d="M0,-13.329C2.238,-13.448 4.457,-13.784 5.546,-14.121C6.239,-14.339 6.615,-14.537 7.071,-14.854L8.081,-13.903C6.199,-12.655 2.694,-8.496 2.694,-4.277C2.694,-0.97 5.011,0.159 7.566,0.159C12.498,0.159 12.498,-3.585 12.498,-5.327C12.498,-7.823 12.181,-10.754 11.19,-12.853L12.478,-13.468C13.626,-10.675 15.963,-8.496 17.905,-7.823L17.33,-6.436C15.746,-6.991 14.022,-8.635 13.349,-9.883L13.33,-9.883C13.726,-8.12 13.844,-6.199 13.844,-4.733L13.844,-4.1C13.726,-0.713 11.606,1.525 7.566,1.525C4.1,1.525 1.327,-0.178 1.327,-4.179C1.327,-6.912 2.713,-10.239 5.13,-12.794C4.1,-12.477 2.396,-12.141 0.535,-12.021C0.476,-11.863 0.356,-11.725 0.178,-11.705L0,-13.329Z" style="fill-rule:nonzero;"/>
            </g>
            <g transform="matrix(1,0,0,1,305.671,576.877)">
                <path d="M0,-1.901C0.97,-2.198 2.594,-2.793 3.684,-3.209C3.208,-4.813 2.792,-6.298 2.515,-7.189L4.219,-7.506C4.238,-7.308 4.139,-7.189 3.862,-7.071C4.219,-5.842 4.476,-4.833 4.812,-3.585C6.615,-4.218 8.298,-4.733 9.368,-4.912C8.635,-5.723 7.407,-6.754 6.556,-7.289L7.308,-8.041C8.378,-7.447 9.784,-6.278 10.537,-5.367L10.021,-4.971C10.2,-4.991 10.358,-4.991 10.537,-4.991C12.22,-4.952 13.963,-4.041 13.963,-1.822C13.963,0.396 12.279,1.505 10.438,1.505C9.368,1.505 8.2,1.189 7.11,0.297C7.229,0.079 7.427,-0.356 7.526,-0.653C8.437,0.06 9.526,0.376 10.338,0.376C11.705,0.376 12.735,-0.257 12.735,-1.802C12.735,-3.07 11.765,-3.902 10.398,-3.902C9.051,-3.902 7.13,-3.248 5.11,-2.535C5.843,-0.019 6.893,3.506 7.526,5.863L6.259,6.14C5.783,3.842 4.674,0.218 3.981,-2.119C3.03,-1.762 1.624,-1.248 0.792,-0.911C0.792,-0.772 0.673,-0.594 0.515,-0.535L0,-1.901Z" style="fill-rule:nonzero;"/>
            </g>
        </g>
    </g>
</svg>
