<?xml version="1.0" encoding="UTF-8" standalone="no"?>
<!DOCTYPE svg PUBLIC "-//W3C//DTD SVG 1.1//EN" "http://www.w3.org/Graphics/SVG/1.1/DTD/svg11.dtd">
<svg width="100%" height="100%" viewBox="0 0 32 18" version="1.1" xmlns="http://www.w3.org/2000/svg" xmlns:xlink="http://www.w3.org/1999/xlink" xml:space="preserve" xmlns:serif="http://www.serif.com/" style="fill-rule:evenodd;clip-rule:evenodd;stroke-linejoin:round;stroke-miterlimit:2;">
    <g transform="matrix(1,0,0,1,-287,-655)">
        <g id="hyo">
            <g transform="matrix(1,0,0,1,287.097,670.646)">
                <path d="M0,-13.329C2.238,-13.448 4.457,-13.784 5.546,-14.121C6.239,-14.339 6.615,-14.537 7.071,-14.854L8.081,-13.903C6.199,-12.655 2.694,-8.496 2.694,-4.277C2.694,-0.97 5.011,0.159 7.566,0.159C12.498,0.159 12.498,-3.585 12.498,-5.327C12.498,-7.823 12.181,-10.754 11.19,-12.853L12.478,-13.468C13.626,-10.675 15.963,-8.496 17.905,-7.823L17.33,-6.436C15.746,-6.991 14.022,-8.635 13.349,-9.883L13.33,-9.883C13.726,-8.12 13.844,-6.199 13.844,-4.733L13.844,-4.1C13.726,-0.713 11.606,1.525 7.566,1.525C4.1,1.525 1.327,-0.178 1.327,-4.179C1.327,-6.912 2.713,-10.239 5.13,-12.794C4.1,-12.477 2.396,-12.141 0.535,-12.021C0.476,-11.863 0.356,-11.725 0.178,-11.705L0,-13.329Z" style="fill-rule:nonzero;"/>
            </g>
            <g transform="matrix(1,0,0,1,310.522,662.744)">
                <path d="M0,5.269C-1.921,5.269 -2.773,6.14 -2.773,7.012C-2.753,8.041 -1.664,8.557 -0.139,8.557C1.703,8.557 1.703,7.111 1.703,6.497C1.703,6.2 1.684,5.863 1.664,5.487C1.129,5.329 0.535,5.269 0,5.269M2.813,4.616C4.674,5.209 6.932,6.417 8.358,7.487L7.566,8.537C6.397,7.546 4.337,6.378 2.872,5.843C2.931,7.249 3.01,9.606 -0.06,9.606C-2,9.606 -3.862,8.854 -3.862,6.933C-3.862,5.348 -2.159,4.279 -0.198,4.259C0.376,4.259 1.05,4.279 1.624,4.398C1.604,3.942 1.584,3.705 1.564,3.348C1.386,1.288 1.268,-2.04 1.268,-4.337L2.951,-4.238C2.951,-4.08 2.813,-3.921 2.535,-3.901C2.535,-3.465 2.575,-1.386 2.575,-0.911C3.862,-0.93 6.08,-1.168 7.744,-1.485L7.843,-0.277C6.199,0 3.981,0.199 2.594,0.238C2.594,1.407 2.693,2.377 2.753,3.447L2.813,4.616Z" style="fill-rule:nonzero;"/>
            </g>
        </g>
    </g>
</svg>
