<?xml version="1.0" encoding="UTF-8" standalone="no"?>
<!DOCTYPE svg PUBLIC "-//W3C//DTD SVG 1.1//EN" "http://www.w3.org/Graphics/SVG/1.1/DTD/svg11.dtd">
<svg width="100%" height="100%" viewBox="0 0 35 17" version="1.1" xmlns="http://www.w3.org/2000/svg" xmlns:xlink="http://www.w3.org/1999/xlink" xml:space="preserve" xmlns:serif="http://www.serif.com/" style="fill-rule:evenodd;clip-rule:evenodd;stroke-linejoin:round;stroke-miterlimit:2;">
    <g transform="matrix(1,0,0,1,-285,-611)">
        <g id="hyu">
            <g transform="matrix(1,0,0,1,285.91,626.134)">
                <path d="M0,-13.329C2.238,-13.448 4.457,-13.784 5.546,-14.121C6.239,-14.339 6.615,-14.537 7.071,-14.854L8.081,-13.903C6.199,-12.655 2.694,-8.496 2.694,-4.277C2.694,-0.971 5.011,0.159 7.566,0.159C12.498,0.159 12.498,-3.585 12.498,-5.327C12.498,-7.823 12.181,-10.754 11.19,-12.853L12.478,-13.468C13.626,-10.675 15.963,-8.496 17.905,-7.823L17.33,-6.436C15.746,-6.991 14.022,-8.635 13.349,-9.883L13.33,-9.883C13.726,-8.12 13.844,-6.199 13.844,-4.733L13.844,-4.1C13.726,-0.713 11.606,1.525 7.566,1.525C4.1,1.525 1.327,-0.178 1.327,-4.179C1.327,-6.912 2.713,-10.239 5.13,-12.794C4.1,-12.477 2.396,-12.141 0.535,-12.021C0.476,-11.863 0.356,-11.725 0.178,-11.705L0,-13.329Z" style="fill-rule:nonzero;"/>
            </g>
            <g transform="matrix(1,0,0,1,315.019,624.331)">
                <path d="M0,-6.793C0.08,-5.446 0.099,-4.139 0.099,-3.069C0.099,-2.198 0.02,-1.128 -0.198,-0.415C2,-0.515 3.328,-1.723 3.328,-3.782C3.328,-5.525 2.298,-6.793 0,-6.793M-7.546,-2.772C-6.318,-5.485 -3.704,-7.387 -1.208,-7.764C-1.248,-8.635 -1.307,-9.665 -1.386,-10.438L0.277,-10.378C0.258,-10.199 0.119,-10.08 -0.158,-10.022C-0.139,-9.506 -0.079,-8.477 -0.059,-7.882C2.555,-7.922 4.496,-6.575 4.496,-3.802C4.496,-1.049 2.615,0.595 -0.495,0.674C-0.99,1.685 -1.861,2.754 -3.525,3.645C-3.763,3.407 -4.179,3.011 -4.396,2.853C-2.951,2.159 -2.159,1.348 -1.723,0.535C-3.208,0.377 -4.456,-0.336 -5.268,-1.762C-5.011,-1.94 -4.634,-2.257 -4.437,-2.475C-3.763,-1.168 -2.575,-0.573 -1.327,-0.515C-1.148,-1.188 -1.01,-2.158 -1.01,-3.089C-1.03,-4.1 -1.03,-5.287 -1.129,-6.674C-3.327,-6.377 -5.625,-4.772 -6.991,-1.742C-7.15,-1.405 -7.229,-0.989 -7.229,-0.494C-7.229,-0.078 -7.169,0.396 -7.07,0.892L-8.199,1.03C-8.497,-0.099 -8.655,-1.564 -8.655,-3.108C-8.655,-4.871 -8.457,-7.288 -7.922,-9.585L-6.417,-9.249C-6.457,-9.09 -6.635,-9.031 -6.813,-9.031C-7.269,-7.269 -7.565,-4.931 -7.565,-2.772L-7.546,-2.772Z" style="fill-rule:nonzero;"/>
            </g>
        </g>
    </g>
</svg>
