<?xml version="1.0" encoding="UTF-8" standalone="no"?>
<!DOCTYPE svg PUBLIC "-//W3C//DTD SVG 1.1//EN" "http://www.w3.org/Graphics/SVG/1.1/DTD/svg11.dtd">
<svg width="100%" height="100%" viewBox="0 0 17 15" version="1.1" xmlns="http://www.w3.org/2000/svg" xmlns:xlink="http://www.w3.org/1999/xlink" xml:space="preserve" xmlns:serif="http://www.serif.com/" style="fill-rule:evenodd;clip-rule:evenodd;stroke-linejoin:round;stroke-miterlimit:2;">
    <g transform="matrix(1,0,0,1,-477,-285)">
        <g id="i" transform="matrix(1,0,0,1,492.471,290.346)">
            <path d="M0,4.556C-0.554,1.09 -2.316,-1.406 -4.99,-2.891L-4.119,-3.961C-1.228,-2.416 0.892,0.436 1.466,4.1L0,4.556ZM-13.131,-4.654C-13.171,-4.476 -13.389,-4.357 -13.666,-4.337C-13.903,-2.852 -14.042,-1.069 -14.042,0.595C-14.042,1.327 -14.002,2.04 -13.963,2.674C-13.725,6.041 -12.358,8.081 -10.833,8.061C-10.041,8.061 -9.012,6.041 -8.298,3.823C-8.021,4.1 -7.486,4.477 -7.149,4.675C-8.061,7.348 -9.209,9.527 -10.854,9.567C-13.368,9.606 -15.111,6.556 -15.389,2.754C-15.448,2.001 -15.468,1.169 -15.468,0.278C-15.468,-1.465 -15.369,-3.366 -15.171,-5.05L-13.131,-4.654Z" style="fill-rule:nonzero;"/>
        </g>
    </g>
</svg>
