<?xml version="1.0" encoding="UTF-8" standalone="no"?>
<!DOCTYPE svg PUBLIC "-//W3C//DTD SVG 1.1//EN" "http://www.w3.org/Graphics/SVG/1.1/DTD/svg11.dtd">
<svg width="100%" height="100%" viewBox="0 0 30 19" version="1.1" xmlns="http://www.w3.org/2000/svg" xmlns:xlink="http://www.w3.org/1999/xlink" xml:space="preserve" xmlns:serif="http://www.serif.com/" style="fill-rule:evenodd;clip-rule:evenodd;stroke-linejoin:round;stroke-miterlimit:2;">
    <g transform="matrix(1,0,0,1,-107,-565)">
        <g id="ja">
            <g transform="matrix(1,0,0,1,117.698,582.204)">
                <path d="M0,-15.982C0.951,-15.269 2.119,-14.101 2.713,-13.289L1.961,-12.655C1.426,-13.447 0.258,-14.656 -0.673,-15.369L0,-15.982ZM-2.416,-14.18C-1.485,-13.467 -0.336,-12.279 0.277,-11.447L-0.456,-10.833C-1.05,-11.684 -2.258,-12.913 -3.109,-13.566L-2.416,-14.18ZM-7.784,-16.259C-7.823,-16.022 -8.001,-15.883 -8.397,-15.824C-8.556,-13.527 -8.754,-8.278 -8.754,-5.346C-8.754,-2.396 -7.289,-0.969 -4.793,-0.969C-2.376,-0.969 0.08,-2.177 2.337,-4.733C2.535,-4.416 2.991,-3.782 3.229,-3.564C0.911,-0.93 -1.901,0.456 -4.812,0.456C-8.417,0.456 -10.259,-1.624 -10.259,-5.367C-10.259,-7.862 -10.081,-14.002 -9.942,-16.438L-7.784,-16.259Z" style="fill-rule:nonzero;"/>
            </g>
            <g transform="matrix(1,0,0,1,122.724,576.877)">
                <path d="M0,-1.901C0.97,-2.198 2.594,-2.793 3.684,-3.209C3.208,-4.813 2.792,-6.298 2.515,-7.189L4.219,-7.506C4.238,-7.308 4.139,-7.189 3.862,-7.071C4.219,-5.842 4.476,-4.833 4.812,-3.585C6.615,-4.218 8.298,-4.733 9.368,-4.912C8.635,-5.723 7.407,-6.754 6.556,-7.289L7.308,-8.041C8.378,-7.447 9.784,-6.278 10.537,-5.367L10.021,-4.971C10.2,-4.991 10.358,-4.991 10.537,-4.991C12.22,-4.952 13.963,-4.041 13.963,-1.822C13.963,0.396 12.279,1.505 10.438,1.505C9.368,1.505 8.2,1.189 7.11,0.297C7.229,0.079 7.427,-0.356 7.526,-0.653C8.437,0.06 9.526,0.376 10.338,0.376C11.705,0.376 12.735,-0.257 12.735,-1.802C12.735,-3.07 11.765,-3.902 10.398,-3.902C9.051,-3.902 7.13,-3.248 5.11,-2.535C5.843,-0.019 6.893,3.506 7.526,5.863L6.259,6.14C5.783,3.842 4.674,0.218 3.981,-2.119C3.03,-1.762 1.624,-1.248 0.792,-0.911C0.792,-0.772 0.673,-0.594 0.515,-0.535L0,-1.901Z" style="fill-rule:nonzero;"/>
            </g>
        </g>
    </g>
</svg>
