<?xml version="1.0" encoding="UTF-8" standalone="no"?>
<!DOCTYPE svg PUBLIC "-//W3C//DTD SVG 1.1//EN" "http://www.w3.org/Graphics/SVG/1.1/DTD/svg11.dtd">
<svg width="100%" height="100%" viewBox="0 0 15 18" version="1.1" xmlns="http://www.w3.org/2000/svg" xmlns:xlink="http://www.w3.org/1999/xlink" xml:space="preserve" xmlns:serif="http://www.serif.com/" style="fill-rule:evenodd;clip-rule:evenodd;stroke-linejoin:round;stroke-miterlimit:2;">
    <g transform="matrix(1,0,0,1,-733,-283)">
        <g id="ji" transform="matrix(1,0,0,1,743.969,299.931)">
            <path d="M0,-15.983C0.95,-15.27 2.119,-14.102 2.713,-13.289L1.96,-12.655C1.426,-13.448 0.257,-14.656 -0.674,-15.369L0,-15.983ZM-2.417,-14.181C-1.485,-13.468 -0.337,-12.279 0.277,-11.447L-0.456,-10.834C-1.05,-11.685 -2.258,-12.913 -3.11,-13.566L-2.417,-14.181ZM-7.784,-16.26C-7.823,-16.023 -8.002,-15.884 -8.398,-15.824C-8.557,-13.527 -8.755,-8.278 -8.755,-5.347C-8.755,-2.396 -7.289,-0.97 -4.793,-0.97C-2.377,-0.97 0.079,-2.178 2.337,-4.733C2.535,-4.416 2.99,-3.782 3.228,-3.565C0.911,-0.931 -1.901,0.456 -4.813,0.456C-8.418,0.456 -10.26,-1.624 -10.26,-5.367C-10.26,-7.862 -10.082,-14.003 -9.943,-16.439L-7.784,-16.26Z" style="fill-rule:nonzero;"/>
        </g>
    </g>
</svg>
