<?xml version="1.0" encoding="UTF-8" standalone="no"?>
<!DOCTYPE svg PUBLIC "-//W3C//DTD SVG 1.1//EN" "http://www.w3.org/Graphics/SVG/1.1/DTD/svg11.dtd">
<svg width="100%" height="100%" viewBox="0 0 28 18" version="1.1" xmlns="http://www.w3.org/2000/svg" xmlns:xlink="http://www.w3.org/1999/xlink" xml:space="preserve" xmlns:serif="http://www.serif.com/" style="fill-rule:evenodd;clip-rule:evenodd;stroke-linejoin:round;stroke-miterlimit:2;">
    <g transform="matrix(1,0,0,1,-108,-655)">
        <g id="jo">
            <g transform="matrix(1,0,0,1,118.787,671.716)">
                <path d="M0,-15.984C0.951,-15.27 2.119,-14.102 2.713,-13.29L1.961,-12.656C1.426,-13.449 0.258,-14.657 -0.673,-15.37L0,-15.984ZM-2.416,-14.181C-1.485,-13.468 -0.336,-12.28 0.277,-11.448L-0.456,-10.834C-1.05,-11.685 -2.258,-12.914 -3.109,-13.567L-2.416,-14.181ZM-7.784,-16.26C-7.823,-16.023 -8.001,-15.884 -8.397,-15.825C-8.556,-13.528 -8.754,-8.279 -8.754,-5.347C-8.754,-2.397 -7.289,-0.97 -4.793,-0.97C-2.376,-0.97 0.08,-2.178 2.337,-4.734C2.535,-4.417 2.991,-3.783 3.229,-3.565C0.911,-0.931 -1.901,0.455 -4.812,0.455C-8.417,0.455 -10.259,-1.625 -10.259,-5.368C-10.259,-7.863 -10.081,-14.003 -9.942,-16.439L-7.784,-16.26Z" style="fill-rule:nonzero;"/>
            </g>
            <g transform="matrix(1,0,0,1,127.576,662.743)">
                <path d="M0,5.269C-1.921,5.269 -2.773,6.14 -2.773,7.012C-2.753,8.041 -1.664,8.557 -0.139,8.557C1.703,8.557 1.703,7.111 1.703,6.497C1.703,6.2 1.684,5.863 1.664,5.487C1.129,5.329 0.535,5.269 0,5.269M2.813,4.616C4.674,5.209 6.932,6.417 8.358,7.487L7.566,8.537C6.397,7.546 4.337,6.378 2.872,5.843C2.931,7.249 3.01,9.606 -0.06,9.606C-2,9.606 -3.862,8.854 -3.862,6.932C-3.862,5.348 -2.159,4.279 -0.198,4.259C0.376,4.259 1.05,4.279 1.624,4.397C1.604,3.942 1.584,3.705 1.564,3.348C1.386,1.288 1.268,-2.04 1.268,-4.337L2.951,-4.238C2.951,-4.08 2.813,-3.921 2.535,-3.901C2.535,-3.465 2.575,-1.386 2.575,-0.911C3.862,-0.93 6.08,-1.168 7.744,-1.485L7.843,-0.277C6.199,0 3.981,0.199 2.594,0.238C2.594,1.407 2.693,2.377 2.753,3.447L2.813,4.616Z" style="fill-rule:nonzero;"/>
            </g>
        </g>
    </g>
</svg>
