<?xml version="1.0" encoding="UTF-8" standalone="no"?>
<!DOCTYPE svg PUBLIC "-//W3C//DTD SVG 1.1//EN" "http://www.w3.org/Graphics/SVG/1.1/DTD/svg11.dtd">
<svg width="100%" height="100%" viewBox="0 0 30 18" version="1.1" xmlns="http://www.w3.org/2000/svg" xmlns:xlink="http://www.w3.org/1999/xlink" xml:space="preserve" xmlns:serif="http://www.serif.com/" style="fill-rule:evenodd;clip-rule:evenodd;stroke-linejoin:round;stroke-miterlimit:2;">
    <g transform="matrix(1,0,0,1,-107,-610)">
        <g id="ju">
            <g transform="matrix(1,0,0,1,117.599,627.204)">
                <path d="M0,-15.984C0.951,-15.27 2.119,-14.102 2.713,-13.29L1.961,-12.656C1.426,-13.449 0.258,-14.657 -0.673,-15.37L0,-15.984ZM-2.416,-14.181C-1.485,-13.468 -0.336,-12.28 0.277,-11.448L-0.456,-10.834C-1.05,-11.685 -2.258,-12.914 -3.109,-13.567L-2.416,-14.181ZM-7.784,-16.26C-7.823,-16.023 -8.001,-15.884 -8.397,-15.825C-8.556,-13.528 -8.754,-8.279 -8.754,-5.347C-8.754,-2.397 -7.289,-0.97 -4.793,-0.97C-2.376,-0.97 0.08,-2.178 2.337,-4.734C2.535,-4.417 2.991,-3.783 3.229,-3.565C0.911,-0.931 -1.901,0.455 -4.812,0.455C-8.417,0.455 -10.259,-1.625 -10.259,-5.368C-10.259,-7.863 -10.081,-14.003 -9.942,-16.439L-7.784,-16.26Z" style="fill-rule:nonzero;"/>
            </g>
            <g transform="matrix(1,0,0,1,132.072,624.331)">
                <path d="M0,-6.793C0.08,-5.446 0.099,-4.139 0.099,-3.069C0.099,-2.198 0.02,-1.128 -0.198,-0.415C2,-0.515 3.328,-1.723 3.328,-3.782C3.328,-5.525 2.298,-6.793 0,-6.793M-7.546,-2.772C-6.318,-5.485 -3.704,-7.387 -1.208,-7.764C-1.248,-8.635 -1.307,-9.665 -1.386,-10.438L0.277,-10.378C0.258,-10.199 0.119,-10.08 -0.158,-10.022C-0.139,-9.506 -0.079,-8.477 -0.059,-7.882C2.555,-7.922 4.496,-6.575 4.496,-3.802C4.496,-1.049 2.615,0.595 -0.495,0.674C-0.99,1.685 -1.861,2.754 -3.525,3.645C-3.763,3.407 -4.179,3.011 -4.396,2.853C-2.951,2.159 -2.159,1.348 -1.723,0.535C-3.208,0.377 -4.456,-0.336 -5.268,-1.762C-5.011,-1.94 -4.634,-2.257 -4.437,-2.475C-3.763,-1.168 -2.575,-0.573 -1.327,-0.515C-1.148,-1.188 -1.01,-2.158 -1.01,-3.089C-1.03,-4.1 -1.03,-5.287 -1.129,-6.674C-3.327,-6.377 -5.625,-4.772 -6.991,-1.742C-7.15,-1.405 -7.229,-0.989 -7.229,-0.494C-7.229,-0.078 -7.169,0.396 -7.07,0.892L-8.199,1.03C-8.497,-0.099 -8.655,-1.564 -8.655,-3.108C-8.655,-4.871 -8.457,-7.288 -7.922,-9.585L-6.417,-9.249C-6.457,-9.09 -6.635,-9.031 -6.813,-9.031C-7.269,-7.269 -7.565,-4.931 -7.565,-2.772L-7.546,-2.772Z" style="fill-rule:nonzero;"/>
            </g>
        </g>
    </g>
</svg>
