<?xml version="1.0" encoding="UTF-8" standalone="no"?>
<!DOCTYPE svg PUBLIC "-//W3C//DTD SVG 1.1//EN" "http://www.w3.org/Graphics/SVG/1.1/DTD/svg11.dtd">
<svg width="100%" height="100%" viewBox="0 0 19 18" version="1.1" xmlns="http://www.w3.org/2000/svg" xmlns:xlink="http://www.w3.org/1999/xlink" xml:space="preserve" xmlns:serif="http://www.serif.com/" style="fill-rule:evenodd;clip-rule:evenodd;stroke-linejoin:round;stroke-miterlimit:2;">
    <g transform="matrix(1,0,0,1,-430,-239)">
        <g id="ka" transform="matrix(1,0,0,1,447.183,246.406)">
            <path d="M0,2.575C-0.634,-0.317 -2.516,-2.773 -4.456,-4.199L-3.387,-5.03C-1.287,-3.545 0.792,-0.812 1.426,2.02L0,2.575ZM-9.17,-6.952C-9.21,-6.714 -9.447,-6.615 -9.823,-6.595C-10.041,-5.486 -10.397,-3.565 -10.636,-2.377C-9.744,-2.476 -8.933,-2.555 -8.438,-2.555C-5.427,-2.594 -4.396,-0.594 -4.396,2.377C-4.396,3.862 -4.674,5.625 -5.07,6.813C-5.685,8.834 -6.952,9.804 -8.596,9.804C-9.407,9.804 -10.478,9.468 -12.181,8.081C-11.963,7.724 -11.804,7.289 -11.646,6.873C-10.062,8.101 -9.229,8.378 -8.615,8.378C-7.486,8.378 -6.813,7.665 -6.417,6.397C-6.001,5.169 -5.783,3.347 -5.783,2.337C-5.803,0.079 -6.536,-1.267 -8.517,-1.248C-9.11,-1.248 -9.923,-1.169 -10.933,-1.05C-11.923,2.991 -13.092,6.457 -14.993,9.646L-16.3,9.012C-14.379,5.942 -13.29,2.872 -12.358,-0.891C-13.369,-0.772 -14.814,-0.594 -15.884,-0.416L-16.003,-1.802C-15.032,-1.921 -13.408,-2.099 -12.081,-2.258C-11.784,-3.704 -11.468,-5.486 -11.229,-7.229L-9.17,-6.952Z" style="fill-rule:nonzero;"/>
        </g>
    </g>
</svg>
