<?xml version="1.0" encoding="UTF-8" standalone="no"?>
<!DOCTYPE svg PUBLIC "-//W3C//DTD SVG 1.1//EN" "http://www.w3.org/Graphics/SVG/1.1/DTD/svg11.dtd">
<svg width="100%" height="100%" viewBox="0 0 18 18" version="1.1" xmlns="http://www.w3.org/2000/svg" xmlns:xlink="http://www.w3.org/1999/xlink" xml:space="preserve" xmlns:serif="http://www.serif.com/" style="fill-rule:evenodd;clip-rule:evenodd;stroke-linejoin:round;stroke-miterlimit:2;">
    <g transform="matrix(1,0,0,1,-431,-373)">
        <g id="ke" transform="matrix(1,0,0,1,437.577,385.045)">
            <path d="M0,-6.338C1.584,-6.338 3.922,-6.378 5.348,-6.477C5.229,-8.775 5.09,-11.507 5.03,-11.923L7.07,-11.844C7.051,-11.627 6.853,-11.448 6.536,-11.389C6.575,-10.299 6.675,-8.279 6.754,-6.556C8.101,-6.675 9.547,-6.873 10.636,-7.17L10.774,-5.764C9.665,-5.526 8.259,-5.328 6.793,-5.229C6.793,-5.11 6.813,-4.794 6.813,-3.625C6.813,0.653 5.862,3.683 2.04,5.585C1.882,5.367 1.308,4.832 0.971,4.595C4.635,2.812 5.407,0.218 5.407,-3.506L5.387,-5.15C4.061,-5.07 1.782,-5.011 0.02,-5.011L0,-6.338ZM-2.932,-10.834C-2.971,-10.656 -3.149,-10.517 -3.446,-10.478C-4.021,-7.982 -4.477,-4.516 -4.477,-2.298C-4.477,-0.931 -4.417,0.237 -4.278,1.03C-3.843,0.138 -2.872,-1.743 -2.258,-2.892L-1.347,-1.961C-2.793,0.614 -3.704,2.258 -3.704,3.03C-3.704,3.267 -3.645,3.525 -3.545,3.842L-4.932,4.119C-5.446,2.693 -5.843,0.515 -5.843,-2.258C-5.843,-4.794 -5.427,-8.2 -4.853,-11.151L-2.932,-10.834Z" style="fill-rule:nonzero;"/>
        </g>
    </g>
</svg>
