<?xml version="1.0" encoding="UTF-8" standalone="no"?>
<!DOCTYPE svg PUBLIC "-//W3C//DTD SVG 1.1//EN" "http://www.w3.org/Graphics/SVG/1.1/DTD/svg11.dtd">
<svg width="100%" height="100%" viewBox="0 0 17 18" version="1.1" xmlns="http://www.w3.org/2000/svg" xmlns:xlink="http://www.w3.org/1999/xlink" xml:space="preserve" xmlns:serif="http://www.serif.com/" style="fill-rule:evenodd;clip-rule:evenodd;stroke-linejoin:round;stroke-miterlimit:2;">
    <g transform="matrix(1,0,0,1,-431,-283)">
        <g id="ki" transform="matrix(1,0,0,1,444.055,283.494)">
            <path d="M0,17.092C-1.09,17.171 -2.396,17.211 -4.357,17.211C-7.566,17.191 -10.062,16.161 -10.021,13.923C-10.002,12.755 -8.972,11.507 -7.685,10.794L-6.794,11.705C-7.942,12.319 -8.615,13.151 -8.615,13.904C-8.615,15.31 -6.873,15.924 -4.357,15.944C-2.872,15.944 -1.308,15.864 0.039,15.765L0,17.092ZM3.485,6.615C1.703,7.229 -0.456,7.605 -2.496,7.842C-1.882,8.912 -0.674,10.398 0.772,10.952L-0.02,12.081C-0.297,11.943 -0.812,11.705 -1.169,11.487C-1.604,11.329 -2.575,11.19 -3.506,11.19C-3.783,11.19 -4.061,11.21 -4.317,11.23L-4.595,10.14C-3.922,10.101 -2.951,10.14 -2.377,10.219C-2.911,9.645 -3.545,8.794 -3.941,7.981C-5.269,8.12 -6.734,8.179 -9.249,8.179C-10.22,8.179 -11.31,8.179 -12.2,8.16L-12.221,6.912C-11.329,6.932 -10.181,6.951 -9.19,6.951C-7.566,6.951 -5.962,6.951 -4.357,6.813C-4.575,6.199 -4.893,5.07 -5.13,4.178C-5.922,4.258 -6.813,4.298 -7.625,4.298C-8.695,4.298 -10.062,4.298 -10.992,4.258L-10.992,3.03C-9.804,3.09 -8.497,3.09 -7.646,3.09C-6.932,3.09 -6.12,3.05 -5.367,2.99C-5.546,2.079 -5.744,0.99 -5.902,-0.119L-3.862,-0.099C-3.862,0.138 -4.04,0.277 -4.396,0.336C-4.278,1.188 -4.14,2.099 -3.981,2.871C-2.119,2.693 -0.119,2.297 1.327,1.723L1.664,2.951C0.218,3.486 -1.743,3.862 -3.724,4.08C-3.466,5.129 -3.209,6.06 -2.971,6.674C-0.871,6.456 1.406,6.001 3.209,5.367L3.485,6.615Z" style="fill-rule:nonzero;"/>
        </g>
    </g>
</svg>
