<?xml version="1.0" encoding="UTF-8" standalone="no"?>
<!DOCTYPE svg PUBLIC "-//W3C//DTD SVG 1.1//EN" "http://www.w3.org/Graphics/SVG/1.1/DTD/svg11.dtd">
<svg width="100%" height="100%" viewBox="0 0 12 19" version="1.1" xmlns="http://www.w3.org/2000/svg" xmlns:xlink="http://www.w3.org/1999/xlink" xml:space="preserve" xmlns:serif="http://www.serif.com/" style="fill-rule:evenodd;clip-rule:evenodd;stroke-linejoin:round;stroke-miterlimit:2;">
    <g transform="matrix(1,0,0,1,-434,-328)">
        <g id="ku" transform="matrix(1,0,0,1,443.815,328.702)">
            <path d="M0,18.043C-2,15.706 -5.09,12.775 -7.764,10.675C-8.754,9.883 -9.11,9.329 -9.11,8.616C-9.11,8.041 -8.794,7.487 -8.061,6.813C-6.259,5.149 -2.871,1.941 -0.97,0L0.713,1.109C0.674,1.149 0.535,1.307 0.277,1.307C0.198,1.307 0.119,1.287 0.04,1.268C-1.94,3.169 -5.03,5.862 -6.654,7.388C-7.13,7.843 -7.506,8.239 -7.506,8.556C-7.506,8.893 -7.149,9.289 -6.456,9.804C-3.842,11.824 -1.05,14.379 1.367,16.994L0,18.043Z" style="fill-rule:nonzero;"/>
        </g>
    </g>
</svg>
