<?xml version="1.0" encoding="UTF-8" standalone="no"?>
<!DOCTYPE svg PUBLIC "-//W3C//DTD SVG 1.1//EN" "http://www.w3.org/Graphics/SVG/1.1/DTD/svg11.dtd">
<svg width="100%" height="100%" viewBox="0 0 33 19" version="1.1" xmlns="http://www.w3.org/2000/svg" xmlns:xlink="http://www.w3.org/1999/xlink" xml:space="preserve" xmlns:serif="http://www.serif.com/" style="fill-rule:evenodd;clip-rule:evenodd;stroke-linejoin:round;stroke-miterlimit:2;">
    <g transform="matrix(1,0,0,1,-469,-565)">
        <g id="kya">
            <g transform="matrix(1,0,0,1,482.025,565.509)">
                <path d="M0,17.092C-1.09,17.171 -2.396,17.211 -4.357,17.211C-7.566,17.192 -10.062,16.161 -10.021,13.923C-10.002,12.754 -8.972,11.507 -7.685,10.794L-6.794,11.705C-7.942,12.319 -8.615,13.151 -8.615,13.904C-8.615,15.31 -6.873,15.924 -4.357,15.944C-2.872,15.944 -1.308,15.864 0.039,15.765L0,17.092ZM3.485,6.614C1.703,7.229 -0.456,7.605 -2.496,7.843C-1.882,8.912 -0.674,10.398 0.772,10.952L-0.02,12.081C-0.297,11.943 -0.812,11.705 -1.169,11.487C-1.604,11.328 -2.575,11.19 -3.506,11.19C-3.783,11.19 -4.061,11.21 -4.317,11.23L-4.595,10.14C-3.922,10.101 -2.951,10.14 -2.377,10.219C-2.911,9.645 -3.545,8.793 -3.941,7.982C-5.269,8.12 -6.734,8.18 -9.249,8.18C-10.22,8.18 -11.31,8.18 -12.2,8.159L-12.221,6.912C-11.329,6.932 -10.181,6.951 -9.19,6.951C-7.566,6.951 -5.962,6.951 -4.357,6.813C-4.575,6.198 -4.893,5.07 -5.13,4.179C-5.922,4.258 -6.813,4.297 -7.625,4.297C-8.695,4.297 -10.062,4.297 -10.992,4.258L-10.992,3.029C-9.804,3.089 -8.497,3.089 -7.646,3.089C-6.932,3.089 -6.12,3.05 -5.367,2.99C-5.546,2.079 -5.744,0.989 -5.902,-0.119L-3.862,-0.099C-3.862,0.138 -4.04,0.277 -4.396,0.336C-4.278,1.188 -4.14,2.099 -3.981,2.871C-2.119,2.694 -0.119,2.297 1.327,1.723L1.664,2.95C0.218,3.486 -1.743,3.862 -3.724,4.079C-3.466,5.129 -3.209,6.06 -2.971,6.674C-0.871,6.456 1.406,6.001 3.209,5.367L3.485,6.614Z" style="fill-rule:nonzero;"/>
            </g>
            <g transform="matrix(1,0,0,1,487.803,576.877)">
                <path d="M0,-1.901C0.971,-2.198 2.595,-2.793 3.685,-3.209C3.209,-4.813 2.793,-6.298 2.516,-7.189L4.219,-7.506C4.239,-7.308 4.14,-7.189 3.862,-7.071C4.219,-5.842 4.477,-4.833 4.813,-3.585C6.615,-4.218 8.299,-4.733 9.368,-4.912C8.636,-5.723 7.408,-6.754 6.556,-7.289L7.309,-8.041C8.378,-7.447 9.784,-6.278 10.537,-5.367L10.022,-4.971C10.2,-4.991 10.358,-4.991 10.537,-4.991C12.221,-4.952 13.964,-4.041 13.964,-1.822C13.964,0.396 12.28,1.505 10.438,1.505C9.368,1.505 8.2,1.189 7.11,0.297C7.229,0.079 7.428,-0.356 7.526,-0.653C8.438,0.06 9.527,0.376 10.339,0.376C11.706,0.376 12.735,-0.257 12.735,-1.802C12.735,-3.07 11.765,-3.902 10.398,-3.902C9.052,-3.902 7.131,-3.248 5.11,-2.535C5.843,-0.019 6.893,3.506 7.526,5.863L6.259,6.14C5.783,3.842 4.675,0.218 3.981,-2.119C3.03,-1.762 1.624,-1.248 0.793,-0.911C0.793,-0.772 0.674,-0.594 0.516,-0.535L0,-1.901Z" style="fill-rule:nonzero;"/>
            </g>
        </g>
    </g>
</svg>
