<?xml version="1.0" encoding="UTF-8" standalone="no"?>
<!DOCTYPE svg PUBLIC "-//W3C//DTD SVG 1.1//EN" "http://www.w3.org/Graphics/SVG/1.1/DTD/svg11.dtd">
<svg width="100%" height="100%" viewBox="0 0 32 19" version="1.1" xmlns="http://www.w3.org/2000/svg" xmlns:xlink="http://www.w3.org/1999/xlink" xml:space="preserve" xmlns:serif="http://www.serif.com/" style="fill-rule:evenodd;clip-rule:evenodd;stroke-linejoin:round;stroke-miterlimit:2;">
    <g transform="matrix(1,0,0,1,-470,-654)">
        <g id="kyo">
            <g transform="matrix(1,0,0,1,483.114,655.02)">
                <path d="M0,17.092C-1.09,17.171 -2.396,17.211 -4.357,17.211C-7.565,17.192 -10.062,16.161 -10.021,13.923C-10.002,12.754 -8.972,11.507 -7.685,10.794L-6.794,11.705C-7.942,12.319 -8.615,13.151 -8.615,13.904C-8.615,15.31 -6.873,15.924 -4.357,15.944C-2.872,15.944 -1.308,15.864 0.04,15.765L0,17.092ZM3.485,6.614C1.703,7.229 -0.456,7.605 -2.495,7.843C-1.882,8.912 -0.674,10.398 0.772,10.952L-0.02,12.081C-0.297,11.943 -0.812,11.705 -1.169,11.487C-1.604,11.328 -2.575,11.19 -3.506,11.19C-3.783,11.19 -4.061,11.21 -4.317,11.23L-4.595,10.14C-3.922,10.101 -2.951,10.14 -2.377,10.219C-2.911,9.645 -3.545,8.793 -3.941,7.982C-5.269,8.12 -6.734,8.18 -9.249,8.18C-10.22,8.18 -11.31,8.18 -12.2,8.159L-12.221,6.912C-11.329,6.932 -10.181,6.951 -9.19,6.951C-7.565,6.951 -5.962,6.951 -4.357,6.813C-4.575,6.198 -4.893,5.07 -5.13,4.179C-5.922,4.258 -6.813,4.297 -7.625,4.297C-8.695,4.297 -10.062,4.297 -10.992,4.258L-10.992,3.029C-9.804,3.089 -8.497,3.089 -7.646,3.089C-6.933,3.089 -6.12,3.05 -5.367,2.99C-5.546,2.079 -5.744,0.989 -5.902,-0.119L-3.862,-0.099C-3.862,0.138 -4.04,0.277 -4.397,0.336C-4.278,1.188 -4.14,2.099 -3.981,2.871C-2.119,2.694 -0.119,2.297 1.327,1.723L1.664,2.95C0.218,3.486 -1.743,3.862 -3.724,4.079C-3.466,5.129 -3.209,6.06 -2.971,6.674C-0.871,6.456 1.406,6.001 3.208,5.367L3.485,6.614Z" style="fill-rule:nonzero;"/>
            </g>
            <g transform="matrix(1,0,0,1,492.655,662.744)">
                <path d="M0,5.269C-1.921,5.269 -2.772,6.14 -2.772,7.012C-2.753,8.041 -1.664,8.557 -0.139,8.557C1.703,8.557 1.703,7.111 1.703,6.497C1.703,6.2 1.684,5.863 1.663,5.487C1.129,5.329 0.534,5.269 0,5.269M2.813,4.616C4.674,5.209 6.932,6.417 8.358,7.487L7.565,8.537C6.397,7.546 4.337,6.378 2.872,5.843C2.931,7.249 3.011,9.606 -0.06,9.606C-2.001,9.606 -3.862,8.854 -3.862,6.933C-3.862,5.348 -2.159,4.279 -0.198,4.259C0.376,4.259 1.05,4.279 1.624,4.398C1.604,3.942 1.584,3.705 1.564,3.348C1.387,1.288 1.268,-2.04 1.268,-4.337L2.951,-4.238C2.951,-4.08 2.813,-3.921 2.535,-3.901C2.535,-3.465 2.574,-1.386 2.574,-0.911C3.862,-0.93 6.08,-1.168 7.744,-1.485L7.843,-0.277C6.199,0 3.98,0.199 2.595,0.238C2.595,1.407 2.693,2.377 2.753,3.447L2.813,4.616Z" style="fill-rule:nonzero;"/>
            </g>
        </g>
    </g>
</svg>
