<?xml version="1.0" encoding="UTF-8" standalone="no"?>
<!DOCTYPE svg PUBLIC "-//W3C//DTD SVG 1.1//EN" "http://www.w3.org/Graphics/SVG/1.1/DTD/svg11.dtd">
<svg width="100%" height="100%" viewBox="0 0 33 18" version="1.1" xmlns="http://www.w3.org/2000/svg" xmlns:xlink="http://www.w3.org/1999/xlink" xml:space="preserve" xmlns:serif="http://www.serif.com/" style="fill-rule:evenodd;clip-rule:evenodd;stroke-linejoin:round;stroke-miterlimit:2;">
    <g transform="matrix(1,0,0,1,-469,-610)">
        <g id="kyu">
            <g transform="matrix(1,0,0,1,482.025,610.508)">
                <path d="M0,17.092C-1.09,17.171 -2.396,17.211 -4.357,17.211C-7.566,17.191 -10.062,16.161 -10.021,13.923C-10.002,12.755 -8.972,11.507 -7.685,10.794L-6.794,11.705C-7.942,12.319 -8.615,13.151 -8.615,13.904C-8.615,15.31 -6.873,15.923 -4.357,15.944C-2.872,15.944 -1.308,15.864 0.039,15.765L0,17.092ZM3.485,6.614C1.703,7.229 -0.456,7.605 -2.496,7.843C-1.882,8.912 -0.674,10.398 0.772,10.952L-0.02,12.081C-0.297,11.943 -0.812,11.705 -1.169,11.488C-1.604,11.328 -2.575,11.19 -3.506,11.19C-3.783,11.19 -4.061,11.21 -4.317,11.23L-4.595,10.14C-3.922,10.101 -2.951,10.14 -2.377,10.22C-2.911,9.645 -3.545,8.793 -3.941,7.982C-5.269,8.12 -6.734,8.18 -9.249,8.18C-10.22,8.18 -11.31,8.18 -12.2,8.159L-12.221,6.912C-11.329,6.932 -10.181,6.951 -9.19,6.951C-7.566,6.951 -5.962,6.951 -4.357,6.813C-4.575,6.198 -4.893,5.07 -5.13,4.179C-5.922,4.258 -6.813,4.297 -7.625,4.297C-8.695,4.297 -10.062,4.297 -10.992,4.258L-10.992,3.029C-9.804,3.089 -8.497,3.089 -7.646,3.089C-6.932,3.089 -6.12,3.05 -5.367,2.99C-5.546,2.079 -5.744,0.989 -5.902,-0.119L-3.862,-0.099C-3.862,0.138 -4.04,0.277 -4.396,0.336C-4.278,1.188 -4.14,2.099 -3.981,2.871C-2.119,2.694 -0.119,2.297 1.327,1.723L1.664,2.95C0.218,3.486 -1.743,3.862 -3.724,4.079C-3.466,5.129 -3.209,6.06 -2.971,6.674C-0.871,6.456 1.406,6.001 3.209,5.367L3.485,6.614Z" style="fill-rule:nonzero;"/>
            </g>
            <g transform="matrix(1,0,0,1,497.053,624.331)">
                <path d="M0,-6.793C0.079,-5.446 0.099,-4.139 0.099,-3.069C0.099,-2.198 0.02,-1.128 -0.198,-0.415C2,-0.515 3.327,-1.723 3.327,-3.782C3.327,-5.525 2.297,-6.793 0,-6.793M-7.546,-2.772C-6.318,-5.485 -3.704,-7.387 -1.208,-7.764C-1.248,-8.635 -1.308,-9.665 -1.387,-10.438L0.277,-10.378C0.257,-10.199 0.118,-10.08 -0.159,-10.022C-0.139,-9.506 -0.079,-8.477 -0.06,-7.882C2.555,-7.922 4.496,-6.575 4.496,-3.802C4.496,-1.049 2.614,0.595 -0.495,0.674C-0.99,1.685 -1.862,2.754 -3.525,3.645C-3.764,3.407 -4.18,3.011 -4.397,2.853C-2.951,2.159 -2.159,1.348 -1.724,0.535C-3.209,0.377 -4.457,-0.336 -5.269,-1.762C-5.011,-1.94 -4.635,-2.257 -4.437,-2.475C-3.764,-1.168 -2.575,-0.573 -1.327,-0.515C-1.149,-1.188 -1.011,-2.158 -1.011,-3.089C-1.03,-4.1 -1.03,-5.287 -1.129,-6.674C-3.328,-6.377 -5.625,-4.772 -6.992,-1.742C-7.15,-1.405 -7.229,-0.989 -7.229,-0.494C-7.229,-0.078 -7.17,0.396 -7.071,0.892L-8.2,1.03C-8.497,-0.099 -8.655,-1.564 -8.655,-3.108C-8.655,-4.871 -8.457,-7.288 -7.923,-9.585L-6.417,-9.249C-6.457,-9.09 -6.635,-9.031 -6.813,-9.031C-7.27,-7.269 -7.566,-4.931 -7.566,-2.772L-7.546,-2.772Z" style="fill-rule:nonzero;"/>
            </g>
        </g>
    </g>
</svg>
