<?xml version="1.0" encoding="UTF-8" standalone="no"?>
<!DOCTYPE svg PUBLIC "-//W3C//DTD SVG 1.1//EN" "http://www.w3.org/Graphics/SVG/1.1/DTD/svg11.dtd">
<svg width="100%" height="100%" viewBox="0 0 16 19" version="1.1" xmlns="http://www.w3.org/2000/svg" xmlns:xlink="http://www.w3.org/1999/xlink" xml:space="preserve" xmlns:serif="http://www.serif.com/" style="fill-rule:evenodd;clip-rule:evenodd;stroke-linejoin:round;stroke-miterlimit:2;">
    <g transform="matrix(1,0,0,1,-207,-238)">
        <g id="ma" transform="matrix(1,0,0,1,214.613,243.256)">
            <path d="M0,8.637C-0.792,8.419 -1.525,8.32 -2.218,8.32C-3.723,8.32 -5.249,8.934 -5.249,10.122C-5.249,11.291 -3.862,11.865 -2.139,11.865C-0.574,11.865 0.02,11.172 0.02,9.785L0,8.637ZM-7.328,-1.682C-6.1,-1.603 -4.456,-1.603 -3.109,-1.603C-2.218,-1.603 -1.208,-1.623 -0.376,-1.642C-0.396,-2.593 -0.416,-3.702 -0.416,-4.396L1.584,-4.297C1.565,-4.059 1.387,-3.94 1.05,-3.881C1.03,-3.564 1.05,-2.039 1.05,-1.702C3.367,-1.821 5.665,-2.019 7.625,-2.474L7.804,-1.167C5.863,-0.732 3.565,-0.533 1.05,-0.415C1.07,0.774 1.089,2.002 1.129,3.23C3.05,3.111 5.11,2.853 6.714,2.457L6.873,3.745C5.209,4.101 3.129,4.339 1.149,4.438L1.308,7.745C3.129,8.34 5.07,9.369 7.13,10.835L6.259,12.043C4.477,10.637 2.793,9.686 1.347,9.132C1.347,9.449 1.367,9.805 1.367,10.063C1.347,11.944 0.218,13.033 -2.179,13.033C-4.694,13.033 -6.536,12.004 -6.536,10.142C-6.536,8.241 -4.377,7.191 -2.159,7.191C-1.505,7.191 -0.812,7.25 -0.079,7.429C-0.099,6.577 -0.139,5.547 -0.158,4.477C-0.792,4.497 -1.505,4.517 -2.08,4.517C-5.466,4.517 -6.417,3.982 -6.417,2.834C-6.417,2.081 -5.843,1.467 -4.575,0.655L-3.625,1.269C-4.516,1.764 -4.991,2.2 -4.991,2.596C-4.991,3.19 -4.06,3.309 -1.545,3.309C-1.109,3.309 -0.653,3.309 -0.218,3.289L-0.336,-0.375C-1.188,-0.335 -2.179,-0.335 -3.07,-0.335C-4.337,-0.335 -6.14,-0.335 -7.328,-0.375L-7.328,-1.682Z" style="fill-rule:nonzero;"/>
        </g>
    </g>
</svg>
