<?xml version="1.0" encoding="UTF-8" standalone="no"?>
<!DOCTYPE svg PUBLIC "-//W3C//DTD SVG 1.1//EN" "http://www.w3.org/Graphics/SVG/1.1/DTD/svg11.dtd">
<svg width="100%" height="100%" viewBox="0 0 18 18" version="1.1" xmlns="http://www.w3.org/2000/svg" xmlns:xlink="http://www.w3.org/1999/xlink" xml:space="preserve" xmlns:serif="http://www.serif.com/" style="fill-rule:evenodd;clip-rule:evenodd;stroke-linejoin:round;stroke-miterlimit:2;">
    <g transform="matrix(1,0,0,1,-206,-373)">
        <g id="me" transform="matrix(1,0,0,1,213.326,378.568)">
            <path d="M0,6.239C1.188,4.793 2.218,2.773 3.01,0.099C2.792,0.079 2.535,0.079 2.317,0.079C0.792,0.099 -0.693,0.436 -1.98,1.149C-1.466,3.129 -0.832,4.892 0,6.239M-0.891,7.328C-1.783,5.883 -2.516,4.04 -3.11,1.842C-4.357,2.714 -5.665,4.278 -5.665,6.477C-5.665,7.883 -5.13,8.893 -4.06,8.893C-2.833,8.893 -1.783,8.18 -0.891,7.328M6.12,-5.09C6.081,-4.912 5.862,-4.833 5.605,-4.793C5.387,-3.427 5.11,-2.119 4.793,-0.95C8.259,-0.297 10.18,2.218 10.18,5.268C10.18,8.794 7.506,11.051 2.496,11.765C2.297,11.349 2.08,10.913 1.862,10.556C6.239,9.982 8.734,8.199 8.734,5.308C8.734,2.911 7.209,0.891 4.397,0.357C3.466,3.406 2.198,5.763 0.812,7.407C1.069,7.764 1.406,8.081 1.723,8.378L0.713,9.348C0.416,9.052 0.139,8.735 -0.139,8.378C-1.426,9.606 -2.833,10.22 -4.159,10.22C-5.902,10.22 -6.972,8.735 -6.972,6.575C-6.972,3.882 -5.486,1.802 -3.486,0.495C-3.862,-1.01 -4.179,-2.654 -4.457,-4.436L-2.555,-4.476C-2.575,-4.298 -2.694,-4.1 -2.971,-4.04C-2.773,-2.674 -2.555,-1.347 -2.278,-0.119C-0.099,-1.208 2,-1.208 2.892,-1.208C3.05,-1.208 3.228,-1.208 3.367,-1.188C3.684,-2.495 3.961,-3.961 4.159,-5.526L6.12,-5.09Z" style="fill-rule:nonzero;"/>
        </g>
    </g>
</svg>
