<?xml version="1.0" encoding="UTF-8" standalone="no"?>
<!DOCTYPE svg PUBLIC "-//W3C//DTD SVG 1.1//EN" "http://www.w3.org/Graphics/SVG/1.1/DTD/svg11.dtd">
<svg width="100%" height="100%" viewBox="0 0 20 17" version="1.1" xmlns="http://www.w3.org/2000/svg" xmlns:xlink="http://www.w3.org/1999/xlink" xml:space="preserve" xmlns:serif="http://www.serif.com/" style="fill-rule:evenodd;clip-rule:evenodd;stroke-linejoin:round;stroke-miterlimit:2;">
    <g transform="matrix(1,0,0,1,-205,-284)">
        <g id="mi" transform="matrix(1,0,0,1,212.376,292.447)">
            <path d="M0,-0.04C-2.852,0 -5.13,1.128 -5.13,3.228C-5.13,4.337 -4.595,5.09 -3.664,5.09C-2.218,5.09 -1.268,4.595 0,-0.04M9.804,-3.704C9.745,-3.486 9.526,-3.348 9.229,-3.348C9.012,-1.981 8.695,-0.535 8.358,0.693C9.428,1.148 10.557,1.663 11.686,2.238L11.052,3.564C9.982,3.03 8.952,2.515 7.942,2.079C6.991,4.931 5.625,7.011 3.525,8.398C3.248,8.12 2.753,7.783 2.396,7.565C4.476,6.199 5.764,4.337 6.674,1.505C4.674,0.712 2.852,0.158 1.386,0.039C0.02,5.03 -1.208,6.337 -3.585,6.337C-5.962,6.337 -6.417,4.436 -6.417,3.228C-6.417,0.158 -3.229,-1.268 0.317,-1.288C0.733,-2.873 1.109,-4.813 1.386,-6.873C0.456,-6.794 -2.713,-6.576 -4.219,-6.477C-4.298,-6.338 -4.457,-6.239 -4.635,-6.2L-4.813,-7.804C-3.109,-7.863 0.574,-8.101 1.763,-8.22C1.98,-8.24 2.06,-8.339 2.198,-8.438L3.426,-7.705C3.327,-7.546 3.169,-7.467 2.931,-7.388C2.614,-5.189 2.139,-2.912 1.703,-1.208C3.229,-1.09 5.05,-0.555 7.031,0.198C7.368,-0.991 7.665,-2.516 7.883,-4.12L9.804,-3.704Z" style="fill-rule:nonzero;"/>
        </g>
    </g>
</svg>
