<?xml version="1.0" encoding="UTF-8" standalone="no"?>
<!DOCTYPE svg PUBLIC "-//W3C//DTD SVG 1.1//EN" "http://www.w3.org/Graphics/SVG/1.1/DTD/svg11.dtd">
<svg width="100%" height="100%" viewBox="0 0 16 18" version="1.1" xmlns="http://www.w3.org/2000/svg" xmlns:xlink="http://www.w3.org/1999/xlink" xml:space="preserve" xmlns:serif="http://www.serif.com/" style="fill-rule:evenodd;clip-rule:evenodd;stroke-linejoin:round;stroke-miterlimit:2;">
    <g transform="matrix(1,0,0,1,-207,-418)">
        <g id="mo" transform="matrix(1,0,0,1,217.524,424.895)">
            <path d="M0,3.565C-1.268,3.704 -3.07,3.802 -4.733,3.802C-4.793,4.496 -4.852,5.268 -4.852,5.644C-4.852,8.813 -2.753,9.071 -0.911,9.071C2.199,9.071 3.744,8.179 3.744,6.357C3.744,5.328 3.189,4.04 2.12,2.713C2.496,2.594 3.07,2.377 3.387,2.218C4.595,3.783 5.209,5.288 5.209,6.575C5.209,9.903 1.486,10.398 -0.911,10.398C-2.812,10.398 -6.219,10.259 -6.219,5.644C-6.219,4.753 -6.14,4.099 -6.1,3.763C-7.764,3.704 -10.438,3.604 -10.438,1.565C-10.438,0.674 -9.922,-0.158 -8.754,-0.99L-7.704,-0.376C-8.576,0.158 -9.091,0.813 -9.091,1.347C-9.091,2.396 -7.506,2.436 -6.001,2.475C-5.862,1.148 -5.684,-0.416 -5.506,-1.961C-6.932,-2.119 -8.576,-2.516 -9.665,-3.05L-9.309,-4.337C-8.219,-3.822 -6.833,-3.446 -5.347,-3.268C-5.189,-4.516 -5.05,-5.783 -4.912,-6.833L-2.852,-6.575C-2.911,-6.338 -3.129,-6.199 -3.486,-6.18C-3.624,-5.348 -3.783,-4.258 -3.941,-3.129C-3.367,-3.09 -2.753,-3.069 -2.119,-3.069C-1.366,-3.069 -0.594,-3.09 0.119,-3.149L0.06,-1.842C-0.535,-1.802 -1.208,-1.782 -1.881,-1.782C-2.654,-1.782 -3.426,-1.802 -4.12,-1.842C-4.317,-0.356 -4.496,1.169 -4.634,2.515C-3.07,2.515 -1.327,2.416 -0.02,2.238L0,3.565Z" style="fill-rule:nonzero;"/>
        </g>
    </g>
</svg>
