<?xml version="1.0" encoding="UTF-8" standalone="no"?>
<!DOCTYPE svg PUBLIC "-//W3C//DTD SVG 1.1//EN" "http://www.w3.org/Graphics/SVG/1.1/DTD/svg11.dtd">
<svg width="100%" height="100%" viewBox="0 0 18 18" version="1.1" xmlns="http://www.w3.org/2000/svg" xmlns:xlink="http://www.w3.org/1999/xlink" xml:space="preserve" xmlns:serif="http://www.serif.com/" style="fill-rule:evenodd;clip-rule:evenodd;stroke-linejoin:round;stroke-miterlimit:2;">
    <g transform="matrix(1,0,0,1,-206,-329)">
        <g id="mu" transform="matrix(1,0,0,1,223.546,339.279)">
            <path d="M0,-3.348C-1.485,-4.14 -3.585,-4.655 -5.506,-4.912L-5.209,-6.14C-3.268,-5.923 -1.069,-5.408 0.436,-4.655L0,-3.348ZM-12.438,-0.912C-12.438,-1.823 -12.854,-2.576 -13.726,-2.576C-15.092,-2.576 -15.825,-1.427 -15.825,-0.04C-15.825,1.069 -15.25,1.782 -14.359,1.782C-12.676,1.782 -12.438,-0.496 -12.438,-0.912M-10.022,-9.983C-10.042,-9.765 -10.22,-9.646 -10.576,-9.567C-10.596,-8.814 -10.656,-8.062 -10.695,-7.269C-9.071,-7.428 -7.566,-7.725 -6.397,-8.081L-6.179,-6.755C-7.309,-6.418 -8.972,-6.121 -10.794,-5.982C-10.933,-4.299 -11.091,-2.734 -11.19,-1.764C-11.151,-1.546 -11.151,-1.327 -11.151,-1.09C-11.151,-0.001 -11.487,1.208 -12.082,1.98C-12.478,2.772 -12.676,3.406 -12.676,3.901C-12.676,5.367 -11.032,5.545 -8.893,5.545C-4.872,5.545 -3.109,4.99 -3.109,2.95C-3.109,1.94 -3.644,0.633 -4.932,-0.912C-4.555,-1.051 -4.08,-1.229 -3.724,-1.447C-2.297,0.316 -1.624,1.921 -1.624,3.228C-1.624,4.773 -2.555,5.902 -4.278,6.357C-4.813,6.496 -6.259,6.813 -8.813,6.813C-10.478,6.813 -14.042,6.813 -14.042,4.297C-14.042,3.841 -13.923,3.327 -13.666,2.772C-13.963,2.891 -14.28,2.95 -14.597,2.95C-15.805,2.95 -16.974,2 -16.974,0.079C-16.974,-2.278 -15.409,-3.645 -13.765,-3.645C-13.23,-3.645 -12.735,-3.427 -12.418,-3.071L-12.2,-5.923C-13.805,-5.844 -16.419,-5.883 -16.439,-5.883L-16.439,-7.151C-15.667,-7.131 -12.616,-7.151 -12.141,-7.17C-12.062,-8.26 -12.022,-9.309 -12.022,-10.161L-10.022,-9.983Z" style="fill-rule:nonzero;"/>
        </g>
    </g>
</svg>
