<?xml version="1.0" encoding="UTF-8" standalone="no"?>
<!DOCTYPE svg PUBLIC "-//W3C//DTD SVG 1.1//EN" "http://www.w3.org/Graphics/SVG/1.1/DTD/svg11.dtd">
<svg width="100%" height="100%" viewBox="0 0 35 18" version="1.1" xmlns="http://www.w3.org/2000/svg" xmlns:xlink="http://www.w3.org/1999/xlink" xml:space="preserve" xmlns:serif="http://www.serif.com/" style="fill-rule:evenodd;clip-rule:evenodd;stroke-linejoin:round;stroke-miterlimit:2;">
    <g transform="matrix(1,0,0,1,-244,-566)">
        <g id="mya">
            <g transform="matrix(1,0,0,1,250.948,574.461)">
                <path d="M0,-0.041C-2.852,-0.001 -5.13,1.128 -5.13,3.227C-5.13,4.336 -4.595,5.089 -3.664,5.089C-2.218,5.089 -1.268,4.594 0,-0.041M9.804,-3.705C9.745,-3.487 9.526,-3.349 9.229,-3.349C9.012,-1.982 8.695,-0.536 8.358,0.691C9.428,1.147 10.557,1.662 11.686,2.236L11.052,3.563C9.982,3.029 8.952,2.514 7.942,2.078C6.991,4.931 5.625,7.01 3.525,8.397C3.248,8.119 2.753,7.782 2.396,7.564C4.476,6.198 5.764,4.336 6.674,1.504C4.674,0.712 2.852,0.157 1.386,0.038C0.02,5.029 -1.208,6.337 -3.585,6.337C-5.962,6.337 -6.417,4.435 -6.417,3.227C-6.417,0.157 -3.229,-1.269 0.317,-1.289C0.733,-2.873 1.109,-4.814 1.386,-6.874C0.456,-6.795 -2.713,-6.577 -4.219,-6.478C-4.298,-6.339 -4.457,-6.24 -4.635,-6.201L-4.813,-7.805C-3.109,-7.864 0.574,-8.103 1.763,-8.221C1.98,-8.241 2.06,-8.34 2.198,-8.438L3.426,-7.706C3.327,-7.548 3.169,-7.469 2.931,-7.389C2.614,-5.19 2.139,-2.913 1.703,-1.21C3.229,-1.091 5.05,-0.556 7.031,0.196C7.368,-0.992 7.665,-2.517 7.883,-4.121L9.804,-3.705Z" style="fill-rule:nonzero;"/>
            </g>
            <g transform="matrix(1,0,0,1,264.352,576.876)">
                <path d="M0,-1.901C0.97,-2.198 2.594,-2.793 3.684,-3.209C3.208,-4.813 2.792,-6.298 2.515,-7.189L4.219,-7.506C4.238,-7.308 4.139,-7.189 3.862,-7.071C4.219,-5.842 4.476,-4.833 4.812,-3.585C6.615,-4.218 8.298,-4.733 9.368,-4.912C8.635,-5.723 7.407,-6.754 6.556,-7.289L7.308,-8.041C8.378,-7.447 9.784,-6.278 10.537,-5.367L10.021,-4.971C10.2,-4.991 10.358,-4.991 10.537,-4.991C12.22,-4.951 13.963,-4.041 13.963,-1.822C13.963,0.396 12.279,1.505 10.438,1.505C9.368,1.505 8.2,1.189 7.11,0.297C7.229,0.079 7.427,-0.356 7.526,-0.653C8.437,0.06 9.526,0.376 10.338,0.376C11.705,0.376 12.735,-0.257 12.735,-1.802C12.735,-3.07 11.765,-3.902 10.398,-3.902C9.051,-3.902 7.13,-3.248 5.11,-2.535C5.843,-0.019 6.893,3.506 7.526,5.863L6.259,6.14C5.783,3.842 4.674,0.218 3.981,-2.119C3.03,-1.762 1.624,-1.248 0.792,-0.911C0.792,-0.772 0.673,-0.594 0.515,-0.535L0,-1.901Z" style="fill-rule:nonzero;"/>
            </g>
        </g>
    </g>
</svg>
