<?xml version="1.0" encoding="UTF-8" standalone="no"?>
<!DOCTYPE svg PUBLIC "-//W3C//DTD SVG 1.1//EN" "http://www.w3.org/Graphics/SVG/1.1/DTD/svg11.dtd">
<svg width="100%" height="100%" viewBox="0 0 33 18" version="1.1" xmlns="http://www.w3.org/2000/svg" xmlns:xlink="http://www.w3.org/1999/xlink" xml:space="preserve" xmlns:serif="http://www.serif.com/" style="fill-rule:evenodd;clip-rule:evenodd;stroke-linejoin:round;stroke-miterlimit:2;">
    <g transform="matrix(1,0,0,1,-245,-655)">
        <g id="myo">
            <g transform="matrix(1,0,0,1,252.038,663.973)">
                <path d="M0,-0.041C-2.852,-0.001 -5.13,1.128 -5.13,3.227C-5.13,4.336 -4.595,5.089 -3.664,5.089C-2.218,5.089 -1.268,4.594 0,-0.041M9.804,-3.705C9.745,-3.487 9.526,-3.349 9.229,-3.349C9.012,-1.982 8.695,-0.536 8.358,0.691C9.428,1.147 10.557,1.662 11.686,2.236L11.052,3.563C9.982,3.029 8.952,2.514 7.942,2.078C6.991,4.931 5.625,7.01 3.525,8.397C3.248,8.119 2.753,7.782 2.396,7.564C4.476,6.198 5.763,4.336 6.674,1.504C4.674,0.712 2.852,0.157 1.386,0.038C0.02,5.029 -1.208,6.337 -3.585,6.337C-5.961,6.337 -6.417,4.435 -6.417,3.227C-6.417,0.157 -3.229,-1.269 0.317,-1.289C0.733,-2.873 1.109,-4.814 1.386,-6.874C0.456,-6.795 -2.713,-6.577 -4.219,-6.478C-4.298,-6.339 -4.457,-6.24 -4.635,-6.201L-4.813,-7.805C-3.11,-7.864 0.574,-8.103 1.763,-8.221C1.98,-8.241 2.06,-8.34 2.198,-8.438L3.426,-7.706C3.327,-7.548 3.169,-7.469 2.931,-7.389C2.614,-5.19 2.139,-2.913 1.703,-1.21C3.228,-1.091 5.05,-0.556 7.031,0.196C7.368,-0.992 7.665,-2.517 7.883,-4.121L9.804,-3.705Z" style="fill-rule:nonzero;"/>
            </g>
            <g transform="matrix(1,0,0,1,269.204,662.743)">
                <path d="M0,5.269C-1.921,5.269 -2.773,6.14 -2.773,7.012C-2.753,8.041 -1.664,8.557 -0.139,8.557C1.703,8.557 1.703,7.111 1.703,6.497C1.703,6.2 1.684,5.863 1.664,5.487C1.129,5.329 0.535,5.269 0,5.269M2.813,4.616C4.674,5.209 6.932,6.417 8.358,7.487L7.566,8.537C6.397,7.546 4.337,6.378 2.872,5.843C2.931,7.249 3.01,9.606 -0.06,9.606C-2,9.606 -3.862,8.854 -3.862,6.932C-3.862,5.348 -2.159,4.279 -0.198,4.259C0.376,4.259 1.05,4.279 1.624,4.397C1.604,3.942 1.584,3.705 1.564,3.348C1.386,1.288 1.268,-2.04 1.268,-4.337L2.951,-4.238C2.951,-4.08 2.813,-3.921 2.535,-3.901C2.535,-3.465 2.575,-1.386 2.575,-0.911C3.862,-0.93 6.08,-1.168 7.744,-1.485L7.843,-0.277C6.199,0 3.981,0.199 2.594,0.238C2.594,1.407 2.693,2.377 2.753,3.447L2.813,4.616Z" style="fill-rule:nonzero;"/>
            </g>
        </g>
    </g>
</svg>
