<?xml version="1.0" encoding="UTF-8" standalone="no"?>
<!DOCTYPE svg PUBLIC "-//W3C//DTD SVG 1.1//EN" "http://www.w3.org/Graphics/SVG/1.1/DTD/svg11.dtd">
<svg width="100%" height="100%" viewBox="0 0 35 17" version="1.1" xmlns="http://www.w3.org/2000/svg" xmlns:xlink="http://www.w3.org/1999/xlink" xml:space="preserve" xmlns:serif="http://www.serif.com/" style="fill-rule:evenodd;clip-rule:evenodd;stroke-linejoin:round;stroke-miterlimit:2;">
    <g transform="matrix(1,0,0,1,-244,-611)">
        <g id="myu">
            <g transform="matrix(1,0,0,1,250.85,619.461)">
                <path d="M0,-0.041C-2.852,-0.001 -5.13,1.128 -5.13,3.227C-5.13,4.336 -4.595,5.089 -3.664,5.089C-2.218,5.089 -1.268,4.594 0,-0.041M9.804,-3.705C9.745,-3.487 9.526,-3.349 9.229,-3.349C9.012,-1.982 8.695,-0.536 8.358,0.691C9.428,1.147 10.557,1.662 11.686,2.236L11.052,3.563C9.982,3.029 8.952,2.514 7.942,2.078C6.991,4.931 5.625,7.01 3.525,8.397C3.248,8.119 2.753,7.782 2.396,7.564C4.476,6.198 5.764,4.336 6.674,1.504C4.674,0.712 2.852,0.157 1.386,0.038C0.02,5.029 -1.208,6.337 -3.585,6.337C-5.962,6.337 -6.417,4.435 -6.417,3.227C-6.417,0.157 -3.229,-1.269 0.317,-1.289C0.733,-2.873 1.109,-4.814 1.386,-6.874C0.456,-6.795 -2.713,-6.577 -4.219,-6.478C-4.298,-6.339 -4.457,-6.24 -4.635,-6.201L-4.813,-7.805C-3.109,-7.864 0.574,-8.103 1.763,-8.221C1.98,-8.241 2.06,-8.34 2.198,-8.438L3.426,-7.706C3.327,-7.548 3.169,-7.469 2.931,-7.389C2.614,-5.19 2.139,-2.913 1.703,-1.21C3.229,-1.091 5.05,-0.556 7.031,0.196C7.368,-0.992 7.665,-2.517 7.883,-4.121L9.804,-3.705Z" style="fill-rule:nonzero;"/>
            </g>
            <g transform="matrix(1,0,0,1,273.7,624.331)">
                <path d="M0,-6.793C0.08,-5.446 0.099,-4.139 0.099,-3.069C0.099,-2.198 0.02,-1.128 -0.198,-0.415C2,-0.515 3.328,-1.723 3.328,-3.782C3.328,-5.525 2.298,-6.793 0,-6.793M-7.546,-2.772C-6.318,-5.485 -3.704,-7.387 -1.208,-7.764C-1.248,-8.635 -1.307,-9.665 -1.386,-10.438L0.277,-10.378C0.258,-10.199 0.119,-10.08 -0.158,-10.022C-0.139,-9.506 -0.079,-8.477 -0.059,-7.882C2.555,-7.922 4.496,-6.575 4.496,-3.802C4.496,-1.049 2.615,0.595 -0.495,0.674C-0.99,1.685 -1.861,2.754 -3.525,3.645C-3.763,3.407 -4.179,3.011 -4.396,2.853C-2.951,2.159 -2.159,1.348 -1.723,0.535C-3.208,0.377 -4.456,-0.336 -5.268,-1.762C-5.011,-1.94 -4.634,-2.257 -4.437,-2.475C-3.763,-1.168 -2.575,-0.573 -1.327,-0.515C-1.148,-1.188 -1.01,-2.158 -1.01,-3.089C-1.03,-4.1 -1.03,-5.287 -1.129,-6.674C-3.327,-6.377 -5.625,-4.772 -6.991,-1.742C-7.15,-1.405 -7.229,-0.989 -7.229,-0.494C-7.229,-0.078 -7.169,0.396 -7.07,0.892L-8.199,1.03C-8.497,-0.099 -8.655,-1.564 -8.655,-3.108C-8.655,-4.871 -8.457,-7.288 -7.922,-9.585L-6.417,-9.249C-6.457,-9.09 -6.635,-9.031 -6.813,-9.031C-7.269,-7.269 -7.565,-4.931 -7.565,-2.772L-7.546,-2.772Z" style="fill-rule:nonzero;"/>
            </g>
        </g>
    </g>
</svg>
