<?xml version="1.0" encoding="UTF-8" standalone="no"?>
<!DOCTYPE svg PUBLIC "-//W3C//DTD SVG 1.1//EN" "http://www.w3.org/Graphics/SVG/1.1/DTD/svg11.dtd">
<svg width="100%" height="100%" viewBox="0 0 17 19" version="1.1" xmlns="http://www.w3.org/2000/svg" xmlns:xlink="http://www.w3.org/1999/xlink" xml:space="preserve" xmlns:serif="http://www.serif.com/" style="fill-rule:evenodd;clip-rule:evenodd;stroke-linejoin:round;stroke-miterlimit:2;">
    <g transform="matrix(1,0,0,1,-295,-238)">
        <g id="na" transform="matrix(1,0,0,1,311.705,249.913)">
            <path d="M0,-4.437C-2.238,-4.417 -4.952,-4.061 -7.011,-3.466L-7.229,-4.714C-4.971,-5.368 -2.238,-5.784 -0.08,-5.784L0,-4.437ZM-5.427,2.555C-6.239,2.238 -7.071,2.099 -7.784,2.099C-8.972,2.099 -10.378,2.574 -10.398,3.802C-10.398,4.931 -9.289,5.466 -7.744,5.466C-6.318,5.466 -5.407,4.773 -5.407,3.466C-5.407,3.149 -5.407,2.852 -5.427,2.555M-4.337,-2.397C-4.318,-0.792 -4.199,0.297 -4.08,1.663C-2.813,2.159 -1.168,3.01 0.139,3.961L-0.575,5.229C-1.664,4.396 -3.011,3.624 -4.08,3.149C-4.08,5.129 -4.873,6.674 -7.784,6.674C-9.982,6.674 -11.666,5.684 -11.646,3.822C-11.646,1.842 -9.566,0.891 -7.744,0.891C-7.031,0.891 -6.298,1.029 -5.506,1.248C-5.585,-0.02 -5.685,-1.308 -5.685,-2.238L-4.337,-2.397ZM-9.606,-10.834C-9.666,-10.676 -9.863,-10.517 -10.22,-10.498C-10.358,-9.626 -10.537,-8.596 -10.715,-7.824C-8.774,-7.942 -6.615,-8.279 -4.892,-8.794L-4.674,-7.447C-6.516,-6.992 -8.695,-6.675 -10.973,-6.497C-11.923,-2.694 -13.23,0.396 -15.171,3.248L-16.499,2.713C-14.696,0.119 -13.33,-2.853 -12.478,-6.457L-16.419,-6.457L-16.419,-7.745L-14.063,-7.745C-13.448,-7.745 -12.814,-7.764 -12.24,-7.764C-12.002,-8.814 -11.824,-9.943 -11.686,-11.111L-9.606,-10.834Z" style="fill-rule:nonzero;"/>
        </g>
    </g>
</svg>
