<?xml version="1.0" encoding="UTF-8" standalone="no"?>
<!DOCTYPE svg PUBLIC "-//W3C//DTD SVG 1.1//EN" "http://www.w3.org/Graphics/SVG/1.1/DTD/svg11.dtd">
<svg width="100%" height="100%" viewBox="0 0 19 18" version="1.1" xmlns="http://www.w3.org/2000/svg" xmlns:xlink="http://www.w3.org/1999/xlink" xml:space="preserve" xmlns:serif="http://www.serif.com/" style="fill-rule:evenodd;clip-rule:evenodd;stroke-linejoin:round;stroke-miterlimit:2;">
    <g transform="matrix(1,0,0,1,-294,-373)">
        <g id="ne" transform="matrix(1,0,0,1,309.169,376.844)">
            <path d="M0,10.042C-0.911,9.329 -1.961,8.913 -2.951,8.913C-4.061,8.913 -5.051,9.566 -5.051,10.478C-5.051,11.488 -4.08,12.122 -2.951,12.122C-1.188,12.122 -0.356,10.874 0,10.042M-14.102,0.02C-12.617,0.02 -11.27,0 -10.2,-0.218C-10.18,-0.732 -10.082,-3.208 -10.082,-3.783L-8.121,-3.604C-8.14,-3.387 -8.319,-3.268 -8.655,-3.228C-8.734,-2.376 -8.774,-1.386 -8.814,-0.436L-8.001,-0.158C-8.338,0.496 -8.635,1.525 -8.933,2.496C-8.933,2.753 -8.953,3.031 -8.953,3.288C-6.913,1.505 -4.437,0.396 -2.317,0.396C0.673,0.396 2.139,2.437 2.139,6.14C2.139,7.408 1.98,8.596 1.624,9.646C2.218,10.161 2.872,10.814 3.347,11.369L2.436,12.538C2.08,12.102 1.485,11.488 0.951,10.993C0.178,12.339 -0.99,13.29 -3.011,13.29C-4.873,13.29 -6.219,12.122 -6.219,10.577C-6.219,8.933 -4.773,7.804 -2.971,7.804C-1.723,7.804 -0.614,8.22 0.376,8.854C0.634,8.062 0.733,7.13 0.733,6.12C0.733,3.446 -0.317,1.724 -2.496,1.724C-4.337,1.724 -6.873,2.793 -8.992,4.773C-8.992,6.061 -9.012,12.399 -8.992,13.825L-10.358,13.825C-10.339,12.082 -10.319,7.883 -10.299,5.427L-10.319,5.427C-10.814,6.576 -11.983,8.596 -13.666,10.418L-14.498,9.19C-12.735,7.408 -11.29,5.13 -10.299,2.694L-10.24,1.129C-10.973,1.248 -12.379,1.347 -14.102,1.347L-14.102,0.02Z" style="fill-rule:nonzero;"/>
        </g>
    </g>
</svg>
