<?xml version="1.0" encoding="UTF-8" standalone="no"?>
<!DOCTYPE svg PUBLIC "-//W3C//DTD SVG 1.1//EN" "http://www.w3.org/Graphics/SVG/1.1/DTD/svg11.dtd">
<svg width="100%" height="100%" viewBox="0 0 17 17" version="1.1" xmlns="http://www.w3.org/2000/svg" xmlns:xlink="http://www.w3.org/1999/xlink" xml:space="preserve" xmlns:serif="http://www.serif.com/" style="fill-rule:evenodd;clip-rule:evenodd;stroke-linejoin:round;stroke-miterlimit:2;">
    <g transform="matrix(1,0,0,1,-295,-284)">
        <g id="ni" transform="matrix(1,0,0,1,302.475,297.853)">
            <path d="M0,-10.993C2.555,-11.052 6.001,-11.29 8.635,-11.745L8.754,-10.359C6.298,-9.943 2.317,-9.686 0.04,-9.626L0,-10.993ZM9.17,1.109C8.457,1.148 7.724,1.168 6.991,1.168C5.585,1.168 4.258,1.089 3.308,0.95C0.872,0.593 -0.258,-0.753 -0.258,-2.338C-0.258,-3.704 0.495,-4.853 1.604,-6.16L2.892,-5.606C1.901,-4.576 1.208,-3.625 1.208,-2.496C1.208,-0.199 4.575,-0.199 6.635,-0.199C7.467,-0.199 8.358,-0.238 9.19,-0.298L9.17,1.109ZM-3.446,-13.369C-3.506,-13.152 -3.704,-13.033 -4.1,-13.053C-4.793,-9.824 -5.149,-6.279 -5.149,-4.14C-5.149,-2.655 -5.09,-1.149 -4.892,-0.219C-4.516,-1.189 -3.664,-3.268 -3.387,-3.962L-2.555,-3.09C-3.367,-1.09 -3.961,0.039 -4.239,0.93C-4.337,1.267 -4.397,1.584 -4.397,1.861C-4.397,2.079 -4.357,2.277 -4.298,2.475L-5.704,2.733C-6.338,0.851 -6.576,-1.447 -6.576,-4.08C-6.576,-6.675 -6.16,-10.3 -5.526,-13.726L-3.446,-13.369Z" style="fill-rule:nonzero;"/>
        </g>
    </g>
</svg>
