<?xml version="1.0" encoding="UTF-8" standalone="no"?>
<!DOCTYPE svg PUBLIC "-//W3C//DTD SVG 1.1//EN" "http://www.w3.org/Graphics/SVG/1.1/DTD/svg11.dtd">
<svg width="100%" height="100%" viewBox="0 0 18 17" version="1.1" xmlns="http://www.w3.org/2000/svg" xmlns:xlink="http://www.w3.org/1999/xlink" xml:space="preserve" xmlns:serif="http://www.serif.com/" style="fill-rule:evenodd;clip-rule:evenodd;stroke-linejoin:round;stroke-miterlimit:2;">
    <g transform="matrix(1,0,0,1,-295,-419)">
        <g id="no" transform="matrix(1,0,0,1,302.871,433.688)">
            <path d="M0,-12.735C-4.001,-12.24 -6.477,-8.932 -6.477,-5.467C-6.477,-3.348 -5.565,-2.021 -4.615,-2.021C-2.218,-2.021 -0.495,-7.308 0,-12.735M1.901,-12.477C1.822,-12.299 1.664,-12.161 1.406,-12.161C0.693,-6.001 -1.367,-0.634 -4.654,-0.634C-6.318,-0.634 -7.823,-2.298 -7.823,-5.427C-7.823,-10.18 -4.12,-14.161 1.089,-14.161C6.813,-14.161 9.289,-10.537 9.289,-6.675C9.289,-1.961 6.556,0.317 1.763,1.426C1.584,1.109 1.248,0.574 0.931,0.218C5.486,-0.653 7.823,-2.872 7.823,-6.615C7.823,-9.882 5.724,-12.854 1.089,-12.854C0.891,-12.854 0.673,-12.834 0.495,-12.814L1.901,-12.477Z" style="fill-rule:nonzero;"/>
        </g>
    </g>
</svg>
