<?xml version="1.0" encoding="UTF-8" standalone="no"?>
<!DOCTYPE svg PUBLIC "-//W3C//DTD SVG 1.1//EN" "http://www.w3.org/Graphics/SVG/1.1/DTD/svg11.dtd">
<svg width="100%" height="100%" viewBox="0 0 18 18" version="1.1" xmlns="http://www.w3.org/2000/svg" xmlns:xlink="http://www.w3.org/1999/xlink" xml:space="preserve" xmlns:serif="http://www.serif.com/" style="fill-rule:evenodd;clip-rule:evenodd;stroke-linejoin:round;stroke-miterlimit:2;">
    <g transform="matrix(1,0,0,1,-295,-329)">
        <g id="nu" transform="matrix(1,0,0,1,306.892,330.326)">
            <path d="M0,14.795C0.931,14.795 1.98,14.459 2.575,12.854C1.743,12.28 0.772,11.883 -0.04,11.883C-1.208,11.883 -2.02,12.498 -2.02,13.29C-2.02,14.26 -1.268,14.795 0,14.795M-3.426,4.733C-4.872,5.09 -6.318,5.783 -7.427,6.675C-7.011,8.16 -6.477,9.527 -5.803,10.596C-4.753,8.873 -3.921,7.011 -3.426,4.733M-6.595,11.824C-7.348,10.675 -7.962,9.23 -8.457,7.606C-9.646,8.774 -10.418,10.18 -10.418,11.626C-10.418,12.953 -9.962,13.686 -9.25,13.686C-8.556,13.686 -7.705,13.33 -6.595,11.824M-8.021,0.337C-8.021,0.574 -8.338,0.693 -8.536,0.773C-8.378,2.238 -8.101,3.902 -7.744,5.407C-6.417,4.457 -4.753,3.704 -3.07,3.347C-2.813,2.04 -2.575,0.317 -2.417,-1.188L-0.495,-0.832C-0.515,-0.634 -0.733,-0.515 -1.069,-0.495C-1.228,0.693 -1.505,2.297 -1.664,3.149C-1.208,3.09 -0.772,3.05 -0.356,3.05C2.892,3.01 4.536,5.209 4.536,8.972C4.536,10.022 4.377,11.349 4.12,12.319C4.674,12.775 5.328,13.33 5.803,13.805L4.991,15.052C4.555,14.597 4.041,14.062 3.585,13.686C2.892,15.151 1.743,15.983 0,15.983C-2.139,15.983 -3.169,14.755 -3.169,13.31C-3.169,11.725 -1.664,10.735 0.06,10.735C0.931,10.735 2.04,11.131 2.892,11.626C3.07,10.854 3.169,10.062 3.169,9.269C3.169,6.179 2.04,4.298 -0.475,4.318C-0.971,4.318 -1.466,4.357 -1.961,4.476C-2.713,7.606 -3.585,9.487 -4.991,11.765C-4.714,12.121 -4.417,12.419 -4.1,12.636L-4.912,13.745C-5.229,13.508 -5.545,13.191 -5.823,12.854C-6.893,14.181 -7.982,15.013 -9.408,15.013C-10.814,15.013 -11.686,13.745 -11.686,11.666C-11.686,9.666 -10.596,7.744 -8.913,6.259C-9.368,4.437 -9.745,2.397 -10.022,0.396L-8.021,0.337Z" style="fill-rule:nonzero;"/>
        </g>
    </g>
</svg>
