<?xml version="1.0" encoding="UTF-8" standalone="no"?>
<!DOCTYPE svg PUBLIC "-//W3C//DTD SVG 1.1//EN" "http://www.w3.org/Graphics/SVG/1.1/DTD/svg11.dtd">
<svg width="100%" height="100%" viewBox="0 0 33 18" version="1.1" xmlns="http://www.w3.org/2000/svg" xmlns:xlink="http://www.w3.org/1999/xlink" xml:space="preserve" xmlns:serif="http://www.serif.com/" style="fill-rule:evenodd;clip-rule:evenodd;stroke-linejoin:round;stroke-miterlimit:2;">
    <g transform="matrix(1,0,0,1,-335,-566)">
        <g id="nya">
            <g transform="matrix(1,0,0,1,341.799,579.868)">
                <path d="M0,-10.993C2.555,-11.053 6.001,-11.29 8.635,-11.746L8.754,-10.359C6.298,-9.943 2.317,-9.685 0.04,-9.626L0,-10.993ZM9.17,1.109C8.457,1.149 7.724,1.168 6.991,1.168C5.585,1.168 4.258,1.089 3.308,0.95C0.872,0.594 -0.258,-0.753 -0.258,-2.338C-0.258,-3.704 0.495,-4.853 1.604,-6.16L2.892,-5.605C1.901,-4.576 1.208,-3.625 1.208,-2.496C1.208,-0.199 4.575,-0.199 6.635,-0.199C7.467,-0.199 8.358,-0.238 9.19,-0.298L9.17,1.109ZM-3.446,-13.37C-3.506,-13.151 -3.704,-13.033 -4.1,-13.053C-4.793,-9.824 -5.149,-6.279 -5.149,-4.14C-5.149,-2.654 -5.09,-1.149 -4.892,-0.219C-4.516,-1.189 -3.664,-3.268 -3.387,-3.962L-2.555,-3.091C-3.367,-1.09 -3.961,0.039 -4.239,0.93C-4.337,1.267 -4.397,1.584 -4.397,1.861C-4.397,2.079 -4.357,2.278 -4.298,2.475L-5.704,2.733C-6.338,0.851 -6.576,-1.446 -6.576,-4.081C-6.576,-6.676 -6.16,-10.3 -5.526,-13.726L-3.446,-13.37Z" style="fill-rule:nonzero;"/>
            </g>
            <g transform="matrix(1,0,0,1,353.737,576.877)">
                <path d="M0,-1.901C0.97,-2.198 2.594,-2.793 3.684,-3.209C3.208,-4.813 2.792,-6.298 2.515,-7.189L4.219,-7.506C4.238,-7.308 4.139,-7.189 3.862,-7.071C4.219,-5.842 4.476,-4.833 4.812,-3.585C6.615,-4.218 8.298,-4.733 9.368,-4.912C8.635,-5.723 7.407,-6.754 6.556,-7.289L7.308,-8.041C8.378,-7.447 9.784,-6.278 10.537,-5.367L10.021,-4.971C10.2,-4.991 10.358,-4.991 10.537,-4.991C12.22,-4.952 13.963,-4.041 13.963,-1.822C13.963,0.396 12.28,1.505 10.438,1.505C9.368,1.505 8.2,1.189 7.11,0.297C7.229,0.079 7.427,-0.356 7.526,-0.653C8.437,0.06 9.526,0.376 10.338,0.376C11.705,0.376 12.735,-0.257 12.735,-1.802C12.735,-3.07 11.765,-3.902 10.398,-3.902C9.051,-3.902 7.13,-3.248 5.11,-2.535C5.843,-0.019 6.892,3.506 7.526,5.863L6.258,6.14C5.783,3.842 4.674,0.218 3.981,-2.119C3.03,-1.762 1.624,-1.248 0.792,-0.911C0.792,-0.772 0.673,-0.594 0.515,-0.535L0,-1.901Z" style="fill-rule:nonzero;"/>
            </g>
        </g>
    </g>
</svg>
