<?xml version="1.0" encoding="UTF-8" standalone="no"?>
<!DOCTYPE svg PUBLIC "-//W3C//DTD SVG 1.1//EN" "http://www.w3.org/Graphics/SVG/1.1/DTD/svg11.dtd">
<svg width="100%" height="100%" viewBox="0 0 31 18" version="1.1" xmlns="http://www.w3.org/2000/svg" xmlns:xlink="http://www.w3.org/1999/xlink" xml:space="preserve" xmlns:serif="http://www.serif.com/" style="fill-rule:evenodd;clip-rule:evenodd;stroke-linejoin:round;stroke-miterlimit:2;">
    <g transform="matrix(1,0,0,1,-336,-655)">
        <g id="nyo">
            <g transform="matrix(1,0,0,1,342.888,669.38)">
                <path d="M0,-10.993C2.555,-11.053 6.001,-11.29 8.635,-11.746L8.754,-10.359C6.298,-9.943 2.317,-9.685 0.04,-9.626L0,-10.993ZM9.17,1.109C8.457,1.149 7.724,1.168 6.991,1.168C5.585,1.168 4.258,1.089 3.308,0.95C0.872,0.594 -0.257,-0.753 -0.257,-2.338C-0.257,-3.704 0.495,-4.853 1.604,-6.16L2.892,-5.605C1.901,-4.576 1.208,-3.625 1.208,-2.496C1.208,-0.199 4.575,-0.199 6.635,-0.199C7.467,-0.199 8.358,-0.238 9.19,-0.298L9.17,1.109ZM-3.446,-13.37C-3.506,-13.151 -3.704,-13.033 -4.1,-13.053C-4.793,-9.824 -5.149,-6.279 -5.149,-4.14C-5.149,-2.654 -5.09,-1.149 -4.892,-0.219C-4.516,-1.189 -3.664,-3.268 -3.387,-3.962L-2.555,-3.091C-3.367,-1.09 -3.961,0.039 -4.239,0.93C-4.337,1.267 -4.397,1.584 -4.397,1.861C-4.397,2.079 -4.357,2.278 -4.298,2.475L-5.704,2.733C-6.338,0.851 -6.576,-1.446 -6.576,-4.081C-6.576,-6.676 -6.16,-10.3 -5.526,-13.726L-3.446,-13.37Z" style="fill-rule:nonzero;"/>
            </g>
            <g transform="matrix(1,0,0,1,358.589,662.744)">
                <path d="M0,5.269C-1.921,5.269 -2.773,6.14 -2.773,7.012C-2.753,8.041 -1.664,8.557 -0.139,8.557C1.703,8.557 1.703,7.111 1.703,6.497C1.703,6.2 1.684,5.863 1.664,5.487C1.129,5.329 0.535,5.269 0,5.269M2.813,4.616C4.674,5.209 6.932,6.417 8.358,7.487L7.566,8.537C6.397,7.546 4.337,6.378 2.872,5.843C2.931,7.249 3.01,9.606 -0.06,9.606C-2,9.606 -3.862,8.854 -3.862,6.933C-3.862,5.348 -2.159,4.279 -0.198,4.259C0.376,4.259 1.05,4.279 1.624,4.398C1.604,3.942 1.584,3.705 1.564,3.348C1.386,1.288 1.268,-2.04 1.268,-4.337L2.951,-4.238C2.951,-4.08 2.813,-3.921 2.535,-3.901C2.535,-3.465 2.575,-1.386 2.575,-0.911C3.862,-0.93 6.08,-1.168 7.744,-1.485L7.843,-0.277C6.199,0 3.981,0.199 2.594,0.238C2.594,1.407 2.693,2.377 2.753,3.447L2.813,4.616Z" style="fill-rule:nonzero;"/>
            </g>
        </g>
    </g>
</svg>
