<?xml version="1.0" encoding="UTF-8" standalone="no"?>
<!DOCTYPE svg PUBLIC "-//W3C//DTD SVG 1.1//EN" "http://www.w3.org/Graphics/SVG/1.1/DTD/svg11.dtd">
<svg width="100%" height="100%" viewBox="0 0 33 17" version="1.1" xmlns="http://www.w3.org/2000/svg" xmlns:xlink="http://www.w3.org/1999/xlink" xml:space="preserve" xmlns:serif="http://www.serif.com/" style="fill-rule:evenodd;clip-rule:evenodd;stroke-linejoin:round;stroke-miterlimit:2;">
    <g transform="matrix(1,0,0,1,-335,-611)">
        <g id="nyu">
            <g transform="matrix(1,0,0,1,341.7,624.868)">
                <path d="M0,-10.993C2.555,-11.053 6.001,-11.29 8.635,-11.746L8.754,-10.359C6.298,-9.943 2.317,-9.685 0.04,-9.626L0,-10.993ZM9.17,1.109C8.457,1.149 7.724,1.168 6.991,1.168C5.585,1.168 4.258,1.089 3.308,0.95C0.872,0.594 -0.258,-0.753 -0.258,-2.338C-0.258,-3.704 0.495,-4.853 1.604,-6.16L2.892,-5.605C1.901,-4.576 1.208,-3.625 1.208,-2.496C1.208,-0.199 4.575,-0.199 6.635,-0.199C7.467,-0.199 8.358,-0.238 9.19,-0.298L9.17,1.109ZM-3.446,-13.37C-3.506,-13.151 -3.704,-13.033 -4.1,-13.053C-4.793,-9.824 -5.149,-6.279 -5.149,-4.14C-5.149,-2.654 -5.09,-1.149 -4.892,-0.219C-4.516,-1.189 -3.664,-3.268 -3.387,-3.962L-2.555,-3.091C-3.367,-1.09 -3.961,0.039 -4.239,0.93C-4.337,1.267 -4.397,1.584 -4.397,1.861C-4.397,2.079 -4.357,2.278 -4.298,2.475L-5.704,2.733C-6.338,0.851 -6.576,-1.446 -6.576,-4.081C-6.576,-6.676 -6.16,-10.3 -5.526,-13.726L-3.446,-13.37Z" style="fill-rule:nonzero;"/>
            </g>
            <g transform="matrix(1,0,0,1,363.085,624.332)">
                <path d="M0,-6.793C0.08,-5.446 0.099,-4.139 0.099,-3.069C0.099,-2.198 0.02,-1.128 -0.198,-0.415C2,-0.515 3.328,-1.723 3.328,-3.782C3.328,-5.525 2.298,-6.793 0,-6.793M-7.546,-2.772C-6.318,-5.485 -3.704,-7.387 -1.208,-7.764C-1.248,-8.635 -1.307,-9.665 -1.386,-10.438L0.277,-10.378C0.258,-10.199 0.119,-10.08 -0.158,-10.022C-0.138,-9.506 -0.079,-8.477 -0.059,-7.882C2.555,-7.922 4.496,-6.575 4.496,-3.802C4.496,-1.049 2.615,0.595 -0.495,0.674C-0.99,1.685 -1.861,2.754 -3.525,3.645C-3.763,3.407 -4.179,3.011 -4.396,2.853C-2.951,2.159 -2.159,1.348 -1.723,0.535C-3.208,0.377 -4.456,-0.336 -5.268,-1.762C-5.011,-1.94 -4.634,-2.257 -4.437,-2.475C-3.763,-1.168 -2.575,-0.573 -1.327,-0.515C-1.148,-1.188 -1.01,-2.158 -1.01,-3.089C-1.03,-4.1 -1.03,-5.287 -1.129,-6.674C-3.327,-6.377 -5.625,-4.772 -6.991,-1.742C-7.15,-1.405 -7.229,-0.989 -7.229,-0.494C-7.229,-0.078 -7.169,0.396 -7.07,0.892L-8.199,1.03C-8.497,-0.099 -8.655,-1.564 -8.655,-3.108C-8.655,-4.872 -8.457,-7.288 -7.922,-9.585L-6.417,-9.249C-6.457,-9.09 -6.635,-9.031 -6.813,-9.031C-7.269,-7.269 -7.565,-4.931 -7.565,-2.772L-7.546,-2.772Z" style="fill-rule:nonzero;"/>
            </g>
        </g>
    </g>
</svg>
