<?xml version="1.0" encoding="UTF-8" standalone="no"?>
<!DOCTYPE svg PUBLIC "-//W3C//DTD SVG 1.1//EN" "http://www.w3.org/Graphics/SVG/1.1/DTD/svg11.dtd">
<svg width="100%" height="100%" viewBox="0 0 18 18" version="1.1" xmlns="http://www.w3.org/2000/svg" xmlns:xlink="http://www.w3.org/1999/xlink" xml:space="preserve" xmlns:serif="http://www.serif.com/" style="fill-rule:evenodd;clip-rule:evenodd;stroke-linejoin:round;stroke-miterlimit:2;">
    <g transform="matrix(1,0,0,1,-476,-418)">
        <g id="o" transform="matrix(1,0,0,1,493.124,429.035)">
            <path d="M0,-4.496C-1.011,-5.506 -2.912,-6.655 -4.516,-7.348L-3.823,-8.517C-2.119,-7.784 -0.218,-6.655 0.871,-5.665L0,-4.496ZM-11.19,3.267C-11.19,2.753 -11.21,1.129 -11.21,-0.496C-11.943,-0.159 -12.637,0.257 -13.23,0.672C-14.261,1.406 -15.033,2.515 -15.033,3.386C-15.033,4.417 -14.359,5.268 -13.013,5.268C-12.003,5.268 -11.19,4.575 -11.19,3.288L-11.19,3.267ZM-6.041,-6.852C-7.091,-6.496 -8.398,-6.239 -9.884,-6.06C-9.884,-4.812 -9.903,-3.427 -9.903,-2.277C-8.358,-2.812 -6.694,-3.188 -5.427,-3.188C-2.061,-3.188 0.039,-1.368 0.039,1.425C0.039,4.04 -1.565,6.08 -4.615,6.08C-6.081,6.08 -7.407,5.565 -8.478,4.178C-8.239,3.881 -7.962,3.485 -7.765,3.149C-6.794,4.377 -5.744,4.773 -4.596,4.773C-2.496,4.773 -1.387,3.267 -1.387,1.425C-1.387,-0.496 -2.793,-2 -5.447,-1.981C-6.715,-1.961 -8.358,-1.605 -9.903,-1.031C-9.903,0.435 -9.863,2.793 -9.863,3.346C-9.863,5.129 -11.032,6.496 -12.974,6.496C-14.795,6.496 -16.32,5.367 -16.32,3.446C-16.32,2.178 -15.409,0.753 -13.845,-0.357C-13.132,-0.852 -12.221,-1.368 -11.21,-1.783L-11.21,-5.962C-12.795,-5.823 -14.38,-5.803 -15.964,-5.823L-15.983,-7.17C-14.241,-7.15 -12.656,-7.17 -11.21,-7.289L-11.21,-10.992L-9.21,-10.873C-9.229,-10.636 -9.428,-10.497 -9.765,-10.458C-9.805,-9.685 -9.824,-8.517 -9.844,-7.407C-8.517,-7.566 -7.309,-7.843 -6.278,-8.239L-6.041,-6.852Z" style="fill-rule:nonzero;"/>
        </g>
    </g>
</svg>
