<?xml version="1.0" encoding="UTF-8" standalone="no"?>
<!DOCTYPE svg PUBLIC "-//W3C//DTD SVG 1.1//EN" "http://www.w3.org/Graphics/SVG/1.1/DTD/svg11.dtd">
<svg width="100%" height="100%" viewBox="0 0 18 19" version="1.1" xmlns="http://www.w3.org/2000/svg" xmlns:xlink="http://www.w3.org/1999/xlink" xml:space="preserve" xmlns:serif="http://www.serif.com/" style="fill-rule:evenodd;clip-rule:evenodd;stroke-linejoin:round;stroke-miterlimit:2;">
    <g transform="matrix(1,0,0,1,-596,-237)">
        <g id="pa" transform="matrix(1,0,0,1,613.184,253.634)">
            <path d="M0,-13.607C0,-14.498 -0.713,-15.191 -1.564,-15.191C-2.437,-15.191 -3.13,-14.498 -3.13,-13.607C-3.13,-12.755 -2.437,-12.043 -1.564,-12.043C-0.674,-12.043 0,-12.795 0,-13.607M-1.564,-15.845C-0.337,-15.845 0.653,-14.855 0.653,-13.607C0.653,-12.399 -0.337,-11.409 -1.564,-11.409C-2.793,-11.409 -3.783,-12.399 -3.783,-13.607C-3.783,-14.895 -2.753,-15.845 -1.564,-15.845M-6.101,-1.981C-6.715,-2.179 -7.407,-2.337 -8.062,-2.337C-9.27,-2.337 -10.695,-1.902 -10.695,-0.654C-10.695,0.455 -9.527,1.01 -8.062,1.01C-6.596,1.01 -6.061,0.297 -6.081,-1.288C-6.081,-1.446 -6.081,-1.783 -6.101,-1.981M-11.547,-9.626C-11.092,-9.626 -7.883,-9.606 -6.556,-9.686C-6.635,-11.389 -6.694,-13.013 -6.734,-14.479L-4.733,-14.419C-4.754,-14.221 -4.932,-14.063 -5.249,-14.003C-5.249,-12.735 -5.189,-11.31 -5.149,-9.785C-3.604,-9.963 -2.317,-10.22 -1.268,-10.577L-1.09,-9.21C-2.04,-8.893 -3.407,-8.616 -5.11,-8.477L-4.853,-2.853C-3.367,-2.238 -1.842,-1.268 -0.812,-0.337L-1.585,0.931C-2.417,0.119 -3.565,-0.753 -4.813,-1.327C-4.813,0.297 -5.09,2.238 -8.101,2.238C-10.418,2.238 -11.963,1.128 -11.963,-0.614C-11.963,-2.634 -9.942,-3.526 -8.101,-3.526C-7.487,-3.526 -6.854,-3.447 -6.22,-3.268C-6.299,-4.516 -6.397,-6.457 -6.496,-8.398C-7.13,-8.358 -7.942,-8.319 -8.517,-8.319L-11.547,-8.319L-11.547,-9.626ZM-16.023,1.901C-16.637,0.475 -16.875,-2.476 -16.875,-5.071C-16.875,-7.705 -16.459,-11.012 -15.806,-14.32L-13.884,-13.944C-13.924,-13.746 -14.122,-13.607 -14.399,-13.587C-15.112,-10.874 -15.548,-7.348 -15.548,-5.051C-15.548,-3.545 -15.528,-2.041 -15.369,-1.308C-14.934,-2.496 -14.122,-4.398 -13.726,-5.328L-12.834,-4.496C-13.488,-3.149 -14.874,-0.139 -14.874,0.792C-14.874,1.069 -14.815,1.366 -14.677,1.743L-16.023,1.901Z" style="fill-rule:nonzero;"/>
        </g>
    </g>
</svg>
