<?xml version="1.0" encoding="UTF-8" standalone="no"?>
<!DOCTYPE svg PUBLIC "-//W3C//DTD SVG 1.1//EN" "http://www.w3.org/Graphics/SVG/1.1/DTD/svg11.dtd">
<svg width="100%" height="100%" viewBox="0 0 19 16" version="1.1" xmlns="http://www.w3.org/2000/svg" xmlns:xlink="http://www.w3.org/1999/xlink" xml:space="preserve" xmlns:serif="http://www.serif.com/" style="fill-rule:evenodd;clip-rule:evenodd;stroke-linejoin:round;stroke-miterlimit:2;">
    <g transform="matrix(1,0,0,1,-595,-372)">
        <g id="pe" transform="matrix(1,0,0,1,611.439,385.597)">
            <path d="M0,-10.913C0,-11.785 -0.713,-12.497 -1.564,-12.497C-2.437,-12.497 -3.129,-11.785 -3.129,-10.913C-3.129,-10.061 -2.437,-9.349 -1.564,-9.349C-0.674,-9.349 0,-10.101 0,-10.913M-1.564,-13.131C-0.337,-13.131 0.653,-12.141 0.653,-10.913C0.653,-9.685 -0.337,-8.695 -1.564,-8.695C-2.793,-8.695 -3.783,-9.685 -3.783,-10.913C-3.783,-12.181 -2.753,-13.131 -1.564,-13.131M-16.261,-3.624C-15.429,-4.417 -13.389,-6.576 -12.339,-7.705C-10.814,-9.388 -10.062,-9.765 -9.071,-9.765C-7.883,-9.765 -7.031,-9.012 -5.269,-6.913C-3.862,-5.209 -0.614,-1.584 2.198,0.99L1.148,2.218C-1.564,-0.238 -4.793,-3.941 -5.981,-5.427C-7.665,-7.487 -8.279,-8.279 -9.091,-8.279C-9.883,-8.279 -10.497,-7.625 -11.705,-6.259C-12.379,-5.486 -13.983,-3.724 -14.835,-2.773C-14.814,-2.516 -14.894,-2.317 -15.053,-2.218L-16.261,-3.624Z" style="fill-rule:nonzero;"/>
        </g>
    </g>
</svg>
