<?xml version="1.0" encoding="UTF-8" standalone="no"?>
<!DOCTYPE svg PUBLIC "-//W3C//DTD SVG 1.1//EN" "http://www.w3.org/Graphics/SVG/1.1/DTD/svg11.dtd">
<svg width="100%" height="100%" viewBox="0 0 19 19" version="1.1" xmlns="http://www.w3.org/2000/svg" xmlns:xlink="http://www.w3.org/1999/xlink" xml:space="preserve" xmlns:serif="http://www.serif.com/" style="fill-rule:evenodd;clip-rule:evenodd;stroke-linejoin:round;stroke-miterlimit:2;">
    <g transform="matrix(1,0,0,1,-595,-282)">
        <g id="pi" transform="matrix(1,0,0,1,613.044,298.168)">
            <path d="M0,-13.488C0,-14.36 -0.713,-15.072 -1.564,-15.072C-2.436,-15.072 -3.129,-14.36 -3.129,-13.488C-3.129,-12.636 -2.436,-11.924 -1.564,-11.924C-0.673,-11.924 0,-12.676 0,-13.488M-1.564,-15.706C-0.336,-15.706 0.654,-14.716 0.654,-13.488C0.654,-12.26 -0.336,-11.27 -1.564,-11.27C-2.792,-11.27 -3.782,-12.26 -3.782,-13.488C-3.782,-14.756 -2.753,-15.706 -1.564,-15.706M-17.39,-12.636C-15.27,-12.755 -12.973,-13.092 -11.823,-13.448C-11.17,-13.647 -10.774,-13.844 -10.318,-14.161L-9.309,-13.211C-11.19,-11.963 -14.695,-7.804 -14.695,-3.585C-14.695,-0.278 -12.378,0.851 -9.823,0.851C-4.892,0.851 -4.892,-2.892 -4.892,-4.575C-4.892,-7.091 -5.229,-10.002 -6.238,-12.121L-4.932,-12.736C-3.782,-9.943 -1.366,-7.784 0.516,-7.111L-0.059,-5.744C-1.644,-6.299 -3.387,-7.903 -4.06,-9.151L-4.08,-9.151C-3.684,-7.368 -3.545,-5.447 -3.545,-3.962L-3.545,-3.407C-3.664,-0.02 -5.783,2.218 -9.823,2.218C-13.289,2.218 -16.062,0.514 -16.062,-3.486C-16.062,-6.219 -14.616,-9.646 -12.299,-12.102C-13.349,-11.765 -15.013,-11.448 -16.854,-11.329C-16.914,-11.171 -17.032,-11.032 -17.211,-11.012L-17.39,-12.636Z" style="fill-rule:nonzero;"/>
        </g>
    </g>
</svg>
