<?xml version="1.0" encoding="UTF-8" standalone="no"?>
<!DOCTYPE svg PUBLIC "-//W3C//DTD SVG 1.1//EN" "http://www.w3.org/Graphics/SVG/1.1/DTD/svg11.dtd">
<svg width="100%" height="100%" viewBox="0 0 19 19" version="1.1" xmlns="http://www.w3.org/2000/svg" xmlns:xlink="http://www.w3.org/1999/xlink" xml:space="preserve" xmlns:serif="http://www.serif.com/" style="fill-rule:evenodd;clip-rule:evenodd;stroke-linejoin:round;stroke-miterlimit:2;">
    <g transform="matrix(1,0,0,1,-596,-416)">
        <g id="po" transform="matrix(1,0,0,1,613.52,432.577)">
            <path d="M0,-13.605C0,-14.477 -0.693,-15.19 -1.545,-15.19C-2.417,-15.19 -3.11,-14.477 -3.11,-13.605C-3.11,-12.753 -2.417,-12.041 -1.545,-12.041C-0.654,-12.041 0,-12.793 0,-13.605M-6.22,-1.761C-6.873,-2 -7.487,-2.137 -8.081,-2.137C-9.527,-2.137 -10.695,-1.603 -10.695,-0.513C-10.695,0.595 -9.547,1.09 -8.121,1.09C-6.655,1.09 -6.199,0.417 -6.199,-0.95L-6.22,-1.761ZM-8.458,-12.952C-6.576,-12.952 -4.972,-13.011 -3.744,-13.189C-3.764,-13.328 -3.783,-13.466 -3.783,-13.605C-3.783,-14.873 -2.733,-15.824 -1.545,-15.824C-0.317,-15.824 0.673,-14.834 0.673,-13.605C0.673,-12.377 -0.317,-11.387 -1.545,-11.387C-2.14,-11.387 -2.694,-11.625 -3.11,-12.021C-3.922,-11.863 -4.397,-11.882 -5.289,-11.823L-5.012,-11.763C-5.051,-11.605 -5.17,-11.545 -5.388,-11.505C-5.407,-10.674 -5.348,-9.228 -5.269,-7.862C-3.803,-7.98 -2.456,-8.199 -1.427,-8.515L-1.248,-7.208C-2.298,-6.931 -3.685,-6.733 -5.189,-6.633C-5.11,-5.069 -4.991,-3.564 -4.932,-2.672C-3.565,-2.058 -2.159,-1.187 -0.892,-0.157L-1.624,1.09C-2.714,0.16 -3.922,-0.692 -4.932,-1.207C-4.773,1.269 -5.843,2.219 -8.062,2.219C-10.26,2.219 -11.924,1.269 -11.924,-0.513C-11.924,-2.296 -10.161,-3.287 -8.062,-3.287C-7.467,-3.287 -6.873,-3.187 -6.279,-3.009C-6.318,-3.98 -6.418,-5.248 -6.517,-6.554C-7.744,-6.475 -10.3,-6.475 -11.567,-6.475L-11.567,-7.723L-8.418,-7.723C-7.804,-7.723 -7.17,-7.743 -6.576,-7.762C-6.655,-9.228 -6.734,-10.694 -6.774,-11.744C-7.349,-11.724 -7.923,-11.704 -8.497,-11.704L-11.19,-11.704L-11.19,-12.952L-8.458,-12.952ZM-14.142,-13.684C-14.182,-13.487 -14.38,-13.348 -14.677,-13.348C-15.43,-10.515 -15.865,-6.872 -15.865,-4.772C-15.865,-3.306 -15.786,-1.919 -15.607,-1.207C-15.37,-2.039 -14.696,-3.9 -14.122,-5.227L-13.23,-4.416C-13.845,-3.088 -14.657,-1.048 -14.935,-0.078C-15.014,0.219 -15.053,0.457 -15.053,0.695C-15.053,0.992 -14.993,1.269 -14.875,1.625L-16.222,1.883C-16.855,0.259 -17.212,-2.217 -17.212,-4.752C-17.212,-7.327 -16.717,-10.753 -16.043,-14.001L-14.142,-13.684Z" style="fill-rule:nonzero;"/>
        </g>
    </g>
</svg>
