<?xml version="1.0" encoding="UTF-8" standalone="no"?>
<!DOCTYPE svg PUBLIC "-//W3C//DTD SVG 1.1//EN" "http://www.w3.org/Graphics/SVG/1.1/DTD/svg11.dtd">
<svg width="100%" height="100%" viewBox="0 0 19 18" version="1.1" xmlns="http://www.w3.org/2000/svg" xmlns:xlink="http://www.w3.org/1999/xlink" xml:space="preserve" xmlns:serif="http://www.serif.com/" style="fill-rule:evenodd;clip-rule:evenodd;stroke-linejoin:round;stroke-miterlimit:2;">
    <g transform="matrix(1,0,0,1,-595,-328)">
        <g id="pu" transform="matrix(1,0,0,1,612.906,343.773)">
            <path d="M0,-13.409C0,-14.241 -0.674,-14.914 -1.506,-14.914C-2.337,-14.914 -3.011,-14.241 -3.011,-13.409C-3.011,-12.577 -2.337,-11.884 -1.506,-11.884C-0.634,-11.884 0,-12.617 0,-13.409M-1.506,-15.627C-0.277,-15.627 0.713,-14.637 0.713,-13.409C0.713,-12.181 -0.277,-11.191 -1.506,-11.191C-2.733,-11.191 -3.724,-12.181 -3.724,-13.409C-3.724,-14.677 -2.693,-15.627 -1.506,-15.627M-4.951,-6.239C-2.674,-5.348 -0.515,-3.447 0.396,-0.773L-0.892,-0.059C-1.724,-2.476 -3.664,-4.437 -5.685,-5.209L-4.951,-6.239ZM-9.428,-8.596C-9.765,-8.022 -9.963,-7.546 -9.963,-7.091C-9.963,-6.279 -9.388,-5.585 -8.062,-4.674C-6.457,-3.585 -5.685,-2.238 -5.685,-0.812C-5.685,1.01 -7.091,2.218 -8.913,2.218C-9.903,2.218 -11.013,1.802 -12.735,0.891C-12.577,0.574 -12.458,0.158 -12.359,-0.258C-10.695,0.614 -9.705,0.911 -9.052,0.911C-7.804,0.911 -7.13,0.178 -7.13,-0.852C-7.13,-1.743 -7.784,-2.931 -9.21,-3.922C-10.655,-4.912 -11.349,-5.863 -11.349,-6.972C-11.349,-7.606 -11.131,-8.279 -10.676,-9.052L-9.428,-8.596ZM-12.022,-14.953C-10.102,-13.726 -7.11,-12.755 -4.575,-12.557L-4.853,-11.27C-5.149,-11.309 -5.427,-11.329 -5.685,-11.329C-6.675,-11.329 -7.447,-10.972 -8.675,-9.844L-9.844,-10.339C-9.309,-10.893 -8.478,-11.547 -7.844,-11.805C-9.25,-12.121 -11.071,-12.795 -12.735,-13.865L-12.022,-14.953ZM-17.548,-0.773C-16.38,-1.525 -14.32,-3.09 -12.716,-4.555L-12.022,-3.486C-13.329,-2.278 -15.211,-0.733 -16.261,0.079C-16.241,0.297 -16.32,0.495 -16.479,0.614L-17.548,-0.773Z" style="fill-rule:nonzero;"/>
        </g>
    </g>
</svg>
