<?xml version="1.0" encoding="UTF-8" standalone="no"?>
<!DOCTYPE svg PUBLIC "-//W3C//DTD SVG 1.1//EN" "http://www.w3.org/Graphics/SVG/1.1/DTD/svg11.dtd">
<svg width="100%" height="100%" viewBox="0 0 35 20" version="1.1" xmlns="http://www.w3.org/2000/svg" xmlns:xlink="http://www.w3.org/1999/xlink" xml:space="preserve" xmlns:serif="http://www.serif.com/" style="fill-rule:evenodd;clip-rule:evenodd;stroke-linejoin:round;stroke-miterlimit:2;">
    <g transform="matrix(1,0,0,1,-14,-564)">
        <g id="pya">
            <g transform="matrix(1,0,0,1,32.2021,580.44)">
                <path d="M0,-13.487C0,-14.358 -0.713,-15.072 -1.565,-15.072C-2.436,-15.072 -3.129,-14.358 -3.129,-13.487C-3.129,-12.635 -2.436,-11.923 -1.565,-11.923C-0.673,-11.923 0,-12.675 0,-13.487M-1.565,-15.706C-0.337,-15.706 0.653,-14.716 0.653,-13.487C0.653,-12.259 -0.337,-11.269 -1.565,-11.269C-2.793,-11.269 -3.783,-12.259 -3.783,-13.487C-3.783,-14.755 -2.753,-15.706 -1.565,-15.706M-17.39,-12.635C-15.271,-12.755 -12.973,-13.091 -11.824,-13.448C-11.17,-13.645 -10.774,-13.843 -10.319,-14.161L-9.309,-13.21C-11.19,-11.962 -14.696,-7.802 -14.696,-3.584C-14.696,-0.277 -12.379,0.853 -9.824,0.853C-4.892,0.853 -4.892,-2.891 -4.892,-4.575C-4.892,-7.09 -5.229,-10.002 -6.239,-12.121L-4.932,-12.734C-3.783,-9.942 -1.367,-7.783 0.515,-7.11L-0.06,-5.743C-1.644,-6.298 -3.387,-7.902 -4.061,-9.15L-4.08,-9.15C-3.684,-7.367 -3.545,-5.446 -3.545,-3.961L-3.545,-3.406C-3.664,-0.019 -5.783,2.219 -9.824,2.219C-13.29,2.219 -16.062,0.516 -16.062,-3.485C-16.062,-6.218 -14.617,-9.645 -12.3,-12.1C-13.349,-11.764 -15.013,-11.447 -16.855,-11.328C-16.915,-11.17 -17.033,-11.031 -17.211,-11.011L-17.39,-12.635Z" style="fill-rule:nonzero;"/>
            </g>
            <g transform="matrix(1,0,0,1,34.5142,576.876)">
                <path d="M0,-1.901C0.97,-2.198 2.594,-2.793 3.684,-3.209C3.208,-4.813 2.792,-6.298 2.515,-7.189L4.219,-7.506C4.238,-7.308 4.139,-7.189 3.862,-7.071C4.219,-5.842 4.476,-4.833 4.812,-3.585C6.615,-4.218 8.298,-4.733 9.368,-4.912C8.635,-5.723 7.407,-6.754 6.556,-7.289L7.308,-8.041C8.378,-7.447 9.784,-6.278 10.537,-5.367L10.021,-4.971C10.2,-4.991 10.358,-4.991 10.537,-4.991C12.22,-4.951 13.963,-4.041 13.963,-1.822C13.963,0.396 12.28,1.505 10.438,1.505C9.368,1.505 8.2,1.189 7.11,0.297C7.229,0.079 7.427,-0.356 7.526,-0.653C8.437,0.06 9.526,0.376 10.338,0.376C11.705,0.376 12.735,-0.257 12.735,-1.802C12.735,-3.07 11.765,-3.902 10.398,-3.902C9.051,-3.902 7.13,-3.248 5.11,-2.535C5.843,-0.019 6.892,3.506 7.526,5.863L6.258,6.14C5.783,3.842 4.674,0.218 3.981,-2.119C3.03,-1.762 1.624,-1.248 0.792,-0.911C0.792,-0.772 0.673,-0.594 0.515,-0.535L0,-1.901Z" style="fill-rule:nonzero;"/>
            </g>
        </g>
    </g>
</svg>
