<?xml version="1.0" encoding="UTF-8" standalone="no"?>
<!DOCTYPE svg PUBLIC "-//W3C//DTD SVG 1.1//EN" "http://www.w3.org/Graphics/SVG/1.1/DTD/svg11.dtd">
<svg width="100%" height="100%" viewBox="0 0 33 19" version="1.1" xmlns="http://www.w3.org/2000/svg" xmlns:xlink="http://www.w3.org/1999/xlink" xml:space="preserve" xmlns:serif="http://www.serif.com/" style="fill-rule:evenodd;clip-rule:evenodd;stroke-linejoin:round;stroke-miterlimit:2;">
    <g transform="matrix(1,0,0,1,-15,-654)">
        <g id="pyo">
            <g transform="matrix(1,0,0,1,33.2905,669.952)">
                <path d="M0,-13.487C0,-14.358 -0.713,-15.072 -1.565,-15.072C-2.436,-15.072 -3.129,-14.358 -3.129,-13.487C-3.129,-12.635 -2.436,-11.923 -1.565,-11.923C-0.673,-11.923 0,-12.675 0,-13.487M-1.565,-15.706C-0.337,-15.706 0.653,-14.716 0.653,-13.487C0.653,-12.259 -0.337,-11.269 -1.565,-11.269C-2.792,-11.269 -3.783,-12.259 -3.783,-13.487C-3.783,-14.755 -2.753,-15.706 -1.565,-15.706M-17.39,-12.635C-15.271,-12.755 -12.973,-13.091 -11.824,-13.448C-11.17,-13.645 -10.774,-13.843 -10.319,-14.161L-9.309,-13.21C-11.19,-11.962 -14.696,-7.802 -14.696,-3.584C-14.696,-0.277 -12.379,0.853 -9.824,0.853C-4.892,0.853 -4.892,-2.891 -4.892,-4.575C-4.892,-7.09 -5.229,-10.002 -6.239,-12.121L-4.932,-12.734C-3.783,-9.942 -1.367,-7.783 0.515,-7.11L-0.06,-5.743C-1.644,-6.298 -3.387,-7.902 -4.06,-9.15L-4.08,-9.15C-3.684,-7.367 -3.545,-5.446 -3.545,-3.961L-3.545,-3.406C-3.664,-0.019 -5.783,2.219 -9.824,2.219C-13.29,2.219 -16.062,0.516 -16.062,-3.485C-16.062,-6.218 -14.617,-9.645 -12.299,-12.1C-13.349,-11.764 -15.013,-11.447 -16.855,-11.328C-16.915,-11.17 -17.033,-11.031 -17.211,-11.011L-17.39,-12.635Z" style="fill-rule:nonzero;"/>
            </g>
            <g transform="matrix(1,0,0,1,39.3657,662.743)">
                <path d="M0,5.269C-1.921,5.269 -2.773,6.14 -2.773,7.012C-2.753,8.041 -1.664,8.557 -0.139,8.557C1.703,8.557 1.703,7.111 1.703,6.497C1.703,6.2 1.684,5.863 1.664,5.487C1.129,5.329 0.535,5.269 0,5.269M2.813,4.616C4.674,5.209 6.932,6.417 8.358,7.487L7.566,8.537C6.397,7.546 4.337,6.378 2.872,5.843C2.931,7.249 3.01,9.606 -0.06,9.606C-2,9.606 -3.862,8.854 -3.862,6.932C-3.862,5.348 -2.159,4.279 -0.198,4.259C0.376,4.259 1.05,4.279 1.624,4.397C1.604,3.942 1.584,3.705 1.564,3.348C1.386,1.288 1.268,-2.04 1.268,-4.337L2.951,-4.238C2.951,-4.08 2.813,-3.921 2.535,-3.901C2.535,-3.465 2.575,-1.386 2.575,-0.911C3.862,-0.93 6.08,-1.168 7.744,-1.485L7.843,-0.277C6.199,0 3.981,0.199 2.594,0.238C2.594,1.407 2.693,2.377 2.753,3.447L2.813,4.616Z" style="fill-rule:nonzero;"/>
            </g>
        </g>
    </g>
</svg>
