<?xml version="1.0" encoding="UTF-8" standalone="no"?>
<!DOCTYPE svg PUBLIC "-//W3C//DTD SVG 1.1//EN" "http://www.w3.org/Graphics/SVG/1.1/DTD/svg11.dtd">
<svg width="100%" height="100%" viewBox="0 0 35 19" version="1.1" xmlns="http://www.w3.org/2000/svg" xmlns:xlink="http://www.w3.org/1999/xlink" xml:space="preserve" xmlns:serif="http://www.serif.com/" style="fill-rule:evenodd;clip-rule:evenodd;stroke-linejoin:round;stroke-miterlimit:2;">
    <g transform="matrix(1,0,0,1,-14,-609)">
        <g id="pyu">
            <g transform="matrix(1,0,0,1,32.103,625.441)">
                <path d="M0,-13.487C0,-14.358 -0.713,-15.072 -1.565,-15.072C-2.436,-15.072 -3.129,-14.358 -3.129,-13.487C-3.129,-12.635 -2.436,-11.923 -1.565,-11.923C-0.673,-11.923 0,-12.675 0,-13.487M-1.565,-15.706C-0.337,-15.706 0.653,-14.716 0.653,-13.487C0.653,-12.259 -0.337,-11.269 -1.565,-11.269C-2.792,-11.269 -3.783,-12.259 -3.783,-13.487C-3.783,-14.755 -2.753,-15.706 -1.565,-15.706M-17.39,-12.635C-15.271,-12.755 -12.973,-13.091 -11.824,-13.448C-11.17,-13.645 -10.774,-13.843 -10.319,-14.161L-9.309,-13.21C-11.19,-11.962 -14.696,-7.802 -14.696,-3.584C-14.696,-0.276 -12.379,0.853 -9.824,0.853C-4.892,0.853 -4.892,-2.891 -4.892,-4.575C-4.892,-7.09 -5.229,-10.002 -6.239,-12.121L-4.932,-12.734C-3.783,-9.942 -1.367,-7.783 0.515,-7.11L-0.06,-5.743C-1.644,-6.298 -3.387,-7.902 -4.06,-9.149L-4.08,-9.149C-3.684,-7.367 -3.545,-5.446 -3.545,-3.961L-3.545,-3.406C-3.664,-0.019 -5.783,2.219 -9.824,2.219C-13.29,2.219 -16.062,0.516 -16.062,-3.485C-16.062,-6.218 -14.617,-9.645 -12.299,-12.1C-13.349,-11.764 -15.013,-11.447 -16.855,-11.328C-16.915,-11.17 -17.033,-11.031 -17.211,-11.011L-17.39,-12.635Z" style="fill-rule:nonzero;"/>
            </g>
            <g transform="matrix(1,0,0,1,43.8623,624.332)">
                <path d="M0,-6.793C0.08,-5.446 0.099,-4.139 0.099,-3.069C0.099,-2.198 0.02,-1.128 -0.198,-0.415C2,-0.515 3.328,-1.723 3.328,-3.782C3.328,-5.525 2.298,-6.793 0,-6.793M-7.546,-2.772C-6.318,-5.485 -3.704,-7.387 -1.208,-7.764C-1.248,-8.635 -1.307,-9.665 -1.386,-10.438L0.277,-10.378C0.258,-10.199 0.119,-10.08 -0.158,-10.022C-0.139,-9.506 -0.079,-8.477 -0.059,-7.882C2.555,-7.922 4.496,-6.575 4.496,-3.802C4.496,-1.049 2.615,0.595 -0.495,0.674C-0.99,1.685 -1.861,2.754 -3.525,3.645C-3.763,3.407 -4.179,3.011 -4.396,2.853C-2.951,2.159 -2.159,1.348 -1.723,0.535C-3.208,0.377 -4.456,-0.336 -5.268,-1.762C-5.011,-1.94 -4.634,-2.257 -4.437,-2.475C-3.763,-1.168 -2.575,-0.573 -1.327,-0.515C-1.148,-1.188 -1.01,-2.158 -1.01,-3.089C-1.03,-4.1 -1.03,-5.287 -1.129,-6.674C-3.327,-6.377 -5.625,-4.772 -6.991,-1.742C-7.15,-1.405 -7.229,-0.989 -7.229,-0.494C-7.229,-0.078 -7.169,0.396 -7.07,0.892L-8.199,1.03C-8.497,-0.099 -8.655,-1.564 -8.655,-3.108C-8.655,-4.872 -8.457,-7.288 -7.922,-9.585L-6.417,-9.249C-6.457,-9.09 -6.635,-9.031 -6.813,-9.031C-7.269,-7.269 -7.565,-4.931 -7.565,-2.772L-7.546,-2.772Z" style="fill-rule:nonzero;"/>
            </g>
        </g>
    </g>
</svg>
