<?xml version="1.0" encoding="UTF-8" standalone="no"?>
<!DOCTYPE svg PUBLIC "-//W3C//DTD SVG 1.1//EN" "http://www.w3.org/Graphics/SVG/1.1/DTD/svg11.dtd">
<svg width="100%" height="100%" viewBox="0 0 15 19" version="1.1" xmlns="http://www.w3.org/2000/svg" xmlns:xlink="http://www.w3.org/1999/xlink" xml:space="preserve" xmlns:serif="http://www.serif.com/" style="fill-rule:evenodd;clip-rule:evenodd;stroke-linejoin:round;stroke-miterlimit:2;">
    <g transform="matrix(1,0,0,1,-117,-238)">
        <g id="ra" transform="matrix(1,0,0,1,121.085,256.428)">
            <path d="M0,-17.508C2.693,-17.191 5.744,-16.577 7.685,-15.765L7.189,-14.399C5.149,-15.27 2.198,-15.844 -0.416,-16.201L0,-17.508ZM-0.337,-13.666C-0.416,-13.467 -0.574,-13.368 -0.852,-13.329C-1.01,-10.398 -1.387,-7.902 -1.664,-7.486L-1.644,-7.486C0.297,-8.932 3.327,-9.923 5.645,-9.923C8.695,-9.923 10.596,-8.358 10.557,-5.585C10.497,-1.941 7.486,-0.317 -0.178,0C-0.277,-0.376 -0.456,-0.93 -0.673,-1.307C6.239,-1.604 9.012,-2.733 9.071,-5.565C9.091,-7.466 7.764,-8.615 5.446,-8.615C1.782,-8.615 -1.525,-6.417 -2.08,-5.446L-3.427,-6.1C-3.03,-6.476 -2.337,-10.021 -2.297,-13.904L-0.337,-13.666Z" style="fill-rule:nonzero;"/>
        </g>
    </g>
</svg>
