<?xml version="1.0" encoding="UTF-8" standalone="no"?>
<!DOCTYPE svg PUBLIC "-//W3C//DTD SVG 1.1//EN" "http://www.w3.org/Graphics/SVG/1.1/DTD/svg11.dtd">
<svg width="100%" height="100%" viewBox="0 0 19 18" version="1.1" xmlns="http://www.w3.org/2000/svg" xmlns:xlink="http://www.w3.org/1999/xlink" xml:space="preserve" xmlns:serif="http://www.serif.com/" style="fill-rule:evenodd;clip-rule:evenodd;stroke-linejoin:round;stroke-miterlimit:2;">
    <g transform="matrix(1,0,0,1,-115,-373)">
        <g id="re" transform="matrix(1,0,0,1,116.371,386.531)">
            <path d="M0,-9.389C1.604,-9.389 3.07,-9.528 3.724,-9.686C3.763,-10.874 3.783,-11.528 3.862,-13.33L5.902,-13.172C5.863,-12.954 5.685,-12.815 5.348,-12.776C5.269,-11.904 5.189,-10.676 5.149,-9.944L5.764,-9.706C5.288,-8.755 5.09,-7.587 4.971,-6.873C7.15,-8.913 9.566,-10.36 11.21,-10.36C13.072,-10.36 14.003,-9.052 14.003,-6.755C14.003,-6.497 13.983,-6.24 13.963,-5.982C13.825,-4.24 13.626,-1.764 13.626,-0.179C13.626,1.009 13.765,1.643 14.597,1.643C15.191,1.643 16.379,1.049 17.231,0.316C17.271,0.712 17.429,1.524 17.508,1.821C16.499,2.554 15.31,3.109 14.399,3.109C12.735,3.109 12.181,2.118 12.181,0.058C12.181,-0.972 12.537,-6.418 12.537,-6.438C12.537,-8.161 11.943,-8.933 10.973,-8.933C9.487,-8.933 6.992,-7.329 4.932,-5.151C4.932,-2.279 4.932,1.247 4.952,3.941L3.565,3.941C3.585,2.792 3.565,-2.853 3.585,-4.12C2.892,-2.734 1.545,-0.932 -0.02,0.653L-0.733,-0.595C0.911,-2.14 2.753,-4.536 3.625,-6.576C3.625,-7.151 3.645,-7.686 3.664,-8.32C2.971,-8.161 1.525,-8.003 0.02,-7.983L0,-9.389Z" style="fill-rule:nonzero;"/>
        </g>
    </g>
</svg>
