<?xml version="1.0" encoding="UTF-8" standalone="no"?>
<!DOCTYPE svg PUBLIC "-//W3C//DTD SVG 1.1//EN" "http://www.w3.org/Graphics/SVG/1.1/DTD/svg11.dtd">
<svg width="100%" height="100%" viewBox="0 0 12 18" version="1.1" xmlns="http://www.w3.org/2000/svg" xmlns:xlink="http://www.w3.org/1999/xlink" xml:space="preserve" xmlns:serif="http://www.serif.com/" style="fill-rule:evenodd;clip-rule:evenodd;stroke-linejoin:round;stroke-miterlimit:2;">
    <g transform="matrix(1,0,0,1,-119,-283)">
        <g id="ri" transform="matrix(1,0,0,1,130.235,300.884)">
            <path d="M0,-16.954C-0.02,-16.716 -0.178,-16.617 -0.515,-16.518C-0.376,-14.795 -0.178,-11.923 -0.178,-9.645C-0.198,-5.823 -1.584,-2.377 -7.546,0.099C-7.764,-0.218 -8.239,-0.753 -8.537,-1.05C-3.129,-3.11 -1.684,-6.377 -1.684,-9.626C-1.684,-12.062 -1.921,-14.934 -2.139,-17.053L0,-16.954ZM-10.616,-6.18C-10.992,-7.249 -11.17,-8.794 -11.19,-9.903C-11.19,-11.765 -10.992,-13.924 -10.517,-16.439L-8.537,-16.102C-8.616,-15.845 -8.854,-15.786 -9.111,-15.766C-9.507,-14.121 -9.784,-11.606 -9.784,-10.002C-9.784,-9.566 -9.764,-9.21 -9.725,-8.933C-9.329,-9.903 -8.596,-11.25 -8.18,-12.002C-8.001,-11.745 -7.605,-11.329 -7.407,-11.131C-8.873,-8.497 -9.309,-7.744 -9.309,-6.912C-9.309,-6.754 -9.289,-6.596 -9.25,-6.417L-10.616,-6.18Z" style="fill-rule:nonzero;"/>
        </g>
    </g>
</svg>
