<?xml version="1.0" encoding="UTF-8" standalone="no"?>
<!DOCTYPE svg PUBLIC "-//W3C//DTD SVG 1.1//EN" "http://www.w3.org/Graphics/SVG/1.1/DTD/svg11.dtd">
<svg width="100%" height="100%" viewBox="0 0 17 18" version="1.1" xmlns="http://www.w3.org/2000/svg" xmlns:xlink="http://www.w3.org/1999/xlink" xml:space="preserve" xmlns:serif="http://www.serif.com/" style="fill-rule:evenodd;clip-rule:evenodd;stroke-linejoin:round;stroke-miterlimit:2;">
    <g transform="matrix(1,0,0,1,-116,-329)">
        <g id="ru" transform="matrix(1,0,0,1,124.728,330.802)">
            <path d="M0,14.319C0.594,14.319 1.288,14.24 1.802,14.121C1.584,12.596 0.456,11.309 -1.01,11.309C-2.04,11.309 -2.951,11.863 -2.951,12.774C-2.951,13.983 -1.307,14.319 0,14.319M-2.733,6.397C-1.426,5.723 0.614,5.248 2.179,5.248C5.328,5.248 7.309,7.09 7.309,10.002C7.309,13.586 4.159,15.567 0.178,15.567C-2.396,15.567 -4.159,14.537 -4.159,12.794C-4.159,11.328 -2.713,10.14 -0.911,10.14C1.327,10.14 2.833,11.923 3.129,13.725C4.714,13.131 5.863,11.863 5.863,10.021C5.863,7.882 4.278,6.516 1.783,6.516C-1.188,6.516 -4.1,7.842 -5.407,9.11C-6.001,9.665 -6.773,10.497 -7.308,11.111L-8.318,10.1C-6.536,8.238 -0.872,2.832 1.822,0.317C0.673,0.475 -3.288,0.633 -5.545,0.713C-5.605,0.851 -5.803,0.97 -5.961,1.009L-6.12,-0.674C-3.446,-0.694 1.664,-0.892 3.109,-1.11L3.407,-1.248L4.457,0.039C4.357,0.118 4.179,0.197 3.981,0.217C2.575,1.366 -1.188,4.891 -2.733,6.377L-2.733,6.397Z" style="fill-rule:nonzero;"/>
        </g>
    </g>
</svg>
