<?xml version="1.0" encoding="UTF-8" standalone="no"?>
<!DOCTYPE svg PUBLIC "-//W3C//DTD SVG 1.1//EN" "http://www.w3.org/Graphics/SVG/1.1/DTD/svg11.dtd">
<svg width="100%" height="100%" viewBox="0 0 30 19" version="1.1" xmlns="http://www.w3.org/2000/svg" xmlns:xlink="http://www.w3.org/1999/xlink" xml:space="preserve" xmlns:serif="http://www.serif.com/" style="fill-rule:evenodd;clip-rule:evenodd;stroke-linejoin:round;stroke-miterlimit:2;">
    <g transform="matrix(1,0,0,1,-198,-565)">
        <g id="rya">
            <g transform="matrix(1,0,0,1,209.922,582.897)">
                <path d="M0,-16.953C-0.02,-16.716 -0.178,-16.617 -0.515,-16.517C-0.376,-14.795 -0.178,-11.923 -0.178,-9.645C-0.198,-5.822 -1.584,-2.376 -7.546,0.1C-7.764,-0.218 -8.239,-0.752 -8.537,-1.05C-3.129,-3.109 -1.684,-6.377 -1.684,-9.625C-1.684,-12.061 -1.921,-14.933 -2.139,-17.053L0,-16.953ZM-10.616,-6.179C-10.992,-7.249 -11.17,-8.794 -11.19,-9.902C-11.19,-11.765 -10.992,-13.923 -10.517,-16.438L-8.537,-16.101C-8.616,-15.845 -8.854,-15.785 -9.111,-15.766C-9.507,-14.121 -9.784,-11.605 -9.784,-10.002C-9.784,-9.566 -9.764,-9.209 -9.725,-8.932C-9.329,-9.902 -8.596,-11.249 -8.18,-12.002C-8.001,-11.744 -7.605,-11.329 -7.408,-11.131C-8.873,-8.496 -9.309,-7.744 -9.309,-6.912C-9.309,-6.754 -9.289,-6.595 -9.25,-6.417L-10.616,-6.179Z" style="fill-rule:nonzero;"/>
            </g>
            <g transform="matrix(1,0,0,1,213.047,576.877)">
                <path d="M0,-1.901C0.97,-2.198 2.594,-2.793 3.684,-3.209C3.208,-4.813 2.792,-6.298 2.515,-7.189L4.219,-7.506C4.238,-7.308 4.139,-7.189 3.862,-7.071C4.219,-5.842 4.476,-4.833 4.812,-3.585C6.615,-4.218 8.298,-4.733 9.368,-4.912C8.635,-5.723 7.407,-6.754 6.556,-7.289L7.308,-8.041C8.378,-7.447 9.784,-6.278 10.537,-5.367L10.021,-4.971C10.2,-4.991 10.358,-4.991 10.537,-4.991C12.22,-4.952 13.963,-4.041 13.963,-1.822C13.963,0.396 12.28,1.505 10.438,1.505C9.368,1.505 8.2,1.189 7.11,0.297C7.229,0.079 7.427,-0.356 7.526,-0.653C8.437,0.06 9.526,0.376 10.338,0.376C11.705,0.376 12.735,-0.257 12.735,-1.802C12.735,-3.07 11.765,-3.902 10.398,-3.902C9.051,-3.902 7.13,-3.248 5.11,-2.535C5.843,-0.019 6.892,3.506 7.526,5.863L6.258,6.14C5.783,3.842 4.674,0.218 3.981,-2.119C3.03,-1.762 1.624,-1.248 0.792,-0.911C0.792,-0.772 0.673,-0.594 0.515,-0.535L0,-1.901Z" style="fill-rule:nonzero;"/>
            </g>
        </g>
    </g>
</svg>
