<?xml version="1.0" encoding="UTF-8" standalone="no"?>
<!DOCTYPE svg PUBLIC "-//W3C//DTD SVG 1.1//EN" "http://www.w3.org/Graphics/SVG/1.1/DTD/svg11.dtd">
<svg width="100%" height="100%" viewBox="0 0 28 18" version="1.1" xmlns="http://www.w3.org/2000/svg" xmlns:xlink="http://www.w3.org/1999/xlink" xml:space="preserve" xmlns:serif="http://www.serif.com/" style="fill-rule:evenodd;clip-rule:evenodd;stroke-linejoin:round;stroke-miterlimit:2;">
    <g transform="matrix(1,0,0,1,-199,-655)">
        <g id="ryo">
            <g transform="matrix(1,0,0,1,211.011,672.408)">
                <path d="M0,-16.953C-0.02,-16.716 -0.178,-16.617 -0.515,-16.517C-0.376,-14.795 -0.178,-11.923 -0.178,-9.645C-0.198,-5.822 -1.584,-2.376 -7.546,0.1C-7.764,-0.218 -8.239,-0.752 -8.537,-1.05C-3.129,-3.109 -1.684,-6.377 -1.684,-9.625C-1.684,-12.061 -1.921,-14.933 -2.139,-17.053L0,-16.953ZM-10.616,-6.179C-10.992,-7.249 -11.17,-8.794 -11.19,-9.902C-11.19,-11.765 -10.992,-13.923 -10.517,-16.438L-8.537,-16.101C-8.616,-15.845 -8.854,-15.785 -9.111,-15.766C-9.507,-14.121 -9.784,-11.606 -9.784,-10.002C-9.784,-9.566 -9.764,-9.209 -9.725,-8.932C-9.329,-9.902 -8.596,-11.249 -8.18,-12.002C-8.001,-11.744 -7.605,-11.329 -7.407,-11.131C-8.873,-8.496 -9.309,-7.744 -9.309,-6.912C-9.309,-6.754 -9.289,-6.595 -9.25,-6.417L-10.616,-6.179Z" style="fill-rule:nonzero;"/>
            </g>
            <g transform="matrix(1,0,0,1,217.899,662.743)">
                <path d="M0,5.269C-1.921,5.269 -2.773,6.14 -2.773,7.012C-2.753,8.041 -1.664,8.557 -0.139,8.557C1.703,8.557 1.703,7.111 1.703,6.497C1.703,6.2 1.684,5.863 1.664,5.487C1.129,5.329 0.535,5.269 0,5.269M2.813,4.616C4.674,5.209 6.932,6.417 8.358,7.487L7.566,8.537C6.397,7.546 4.337,6.378 2.872,5.843C2.931,7.249 3.01,9.606 -0.06,9.606C-2,9.606 -3.862,8.854 -3.862,6.932C-3.862,5.348 -2.159,4.279 -0.198,4.259C0.376,4.259 1.05,4.279 1.624,4.397C1.604,3.942 1.584,3.705 1.564,3.348C1.386,1.288 1.268,-2.04 1.268,-4.337L2.951,-4.238C2.951,-4.08 2.813,-3.921 2.535,-3.901C2.535,-3.465 2.575,-1.386 2.575,-0.911C3.862,-0.93 6.08,-1.168 7.744,-1.485L7.843,-0.277C6.199,0 3.981,0.199 2.594,0.238C2.594,1.407 2.693,2.377 2.753,3.447L2.813,4.616Z" style="fill-rule:nonzero;"/>
            </g>
        </g>
    </g>
</svg>
