<?xml version="1.0" encoding="UTF-8" standalone="no"?>
<!DOCTYPE svg PUBLIC "-//W3C//DTD SVG 1.1//EN" "http://www.w3.org/Graphics/SVG/1.1/DTD/svg11.dtd">
<svg width="100%" height="100%" viewBox="0 0 29 18" version="1.1" xmlns="http://www.w3.org/2000/svg" xmlns:xlink="http://www.w3.org/1999/xlink" xml:space="preserve" xmlns:serif="http://www.serif.com/" style="fill-rule:evenodd;clip-rule:evenodd;stroke-linejoin:round;stroke-miterlimit:2;">
    <g transform="matrix(1,0,0,1,-198,-610)">
        <g id="ryu">
            <g transform="matrix(1,0,0,1,209.824,627.896)">
                <path d="M0,-16.953C-0.02,-16.716 -0.178,-16.617 -0.515,-16.517C-0.376,-14.795 -0.178,-11.923 -0.178,-9.645C-0.198,-5.822 -1.584,-2.376 -7.546,0.1C-7.764,-0.218 -8.239,-0.752 -8.537,-1.05C-3.129,-3.109 -1.684,-6.377 -1.684,-9.625C-1.684,-12.061 -1.921,-14.933 -2.139,-17.053L0,-16.953ZM-10.616,-6.179C-10.992,-7.249 -11.17,-8.794 -11.19,-9.902C-11.19,-11.765 -10.992,-13.923 -10.517,-16.438L-8.537,-16.101C-8.616,-15.845 -8.854,-15.785 -9.111,-15.766C-9.507,-14.121 -9.784,-11.606 -9.784,-10.002C-9.784,-9.566 -9.764,-9.209 -9.725,-8.932C-9.329,-9.902 -8.596,-11.249 -8.18,-12.002C-8.001,-11.744 -7.605,-11.329 -7.408,-11.131C-8.873,-8.496 -9.309,-7.744 -9.309,-6.912C-9.309,-6.754 -9.289,-6.595 -9.25,-6.417L-10.616,-6.179Z" style="fill-rule:nonzero;"/>
            </g>
            <g transform="matrix(1,0,0,1,222.395,624.331)">
                <path d="M0,-6.793C0.08,-5.446 0.099,-4.139 0.099,-3.069C0.099,-2.198 0.02,-1.128 -0.198,-0.415C2,-0.515 3.328,-1.723 3.328,-3.782C3.328,-5.525 2.298,-6.793 0,-6.793M-7.546,-2.772C-6.318,-5.485 -3.704,-7.387 -1.208,-7.764C-1.248,-8.635 -1.307,-9.665 -1.386,-10.438L0.277,-10.378C0.258,-10.199 0.119,-10.08 -0.158,-10.022C-0.139,-9.506 -0.079,-8.477 -0.059,-7.882C2.555,-7.922 4.496,-6.575 4.496,-3.802C4.496,-1.049 2.615,0.595 -0.495,0.674C-0.99,1.685 -1.861,2.754 -3.525,3.645C-3.763,3.407 -4.179,3.011 -4.396,2.853C-2.951,2.159 -2.159,1.348 -1.723,0.535C-3.208,0.377 -4.456,-0.336 -5.268,-1.762C-5.011,-1.94 -4.634,-2.257 -4.437,-2.475C-3.763,-1.168 -2.575,-0.573 -1.327,-0.515C-1.148,-1.188 -1.01,-2.158 -1.01,-3.089C-1.03,-4.1 -1.03,-5.287 -1.129,-6.674C-3.327,-6.377 -5.625,-4.772 -6.991,-1.742C-7.15,-1.405 -7.229,-0.989 -7.229,-0.494C-7.229,-0.078 -7.169,0.396 -7.07,0.892L-8.199,1.03C-8.497,-0.099 -8.655,-1.564 -8.655,-3.108C-8.655,-4.871 -8.457,-7.288 -7.922,-9.585L-6.417,-9.249C-6.457,-9.09 -6.635,-9.031 -6.813,-9.031C-7.269,-7.269 -7.565,-4.931 -7.565,-2.772L-7.546,-2.772Z" style="fill-rule:nonzero;"/>
            </g>
        </g>
    </g>
</svg>
