<?xml version="1.0" encoding="UTF-8" standalone="no"?>
<!DOCTYPE svg PUBLIC "-//W3C//DTD SVG 1.1//EN" "http://www.w3.org/Graphics/SVG/1.1/DTD/svg11.dtd">
<svg width="100%" height="100%" viewBox="0 0 17 19" version="1.1" xmlns="http://www.w3.org/2000/svg" xmlns:xlink="http://www.w3.org/1999/xlink" xml:space="preserve" xmlns:serif="http://www.serif.com/" style="fill-rule:evenodd;clip-rule:evenodd;stroke-linejoin:round;stroke-miterlimit:2;">
    <g transform="matrix(1,0,0,1,-386,-238)">
        <g id="sa" transform="matrix(1,0,0,1,399.065,238.92)">
            <path d="M0,17.172C-0.95,17.212 -1.96,17.231 -3.684,17.231C-7.823,17.231 -10.754,15.964 -10.754,13.31C-10.754,12.181 -10.061,11.032 -8.972,9.983L-7.902,10.834C-8.793,11.547 -9.328,12.518 -9.328,13.27C-9.328,15.231 -6.793,15.865 -3.644,15.865C-1.921,15.865 -0.911,15.825 0.1,15.766L0,17.172ZM3.546,4.14C1.743,4.654 -0.673,5.011 -3.05,5.229C-2.277,7.922 -1.445,9.527 0.693,10.458L-0.277,11.666C-1.187,10.973 -2.119,10.438 -4.693,10.299L-4.932,9.13C-3.961,9.21 -3.228,9.329 -2.732,9.428C-3.426,8.596 -3.961,7.328 -4.495,5.328C-5.387,5.407 -6.595,5.447 -7.783,5.447C-9.07,5.447 -11.17,5.427 -12.438,5.387L-12.438,4.041C-11.249,4.1 -9.565,4.1 -7.764,4.1C-6.754,4.1 -5.604,4.08 -4.812,4.001C-5.05,2.931 -5.268,1.466 -5.506,-0.059L-3.387,-0.02C-3.406,0.218 -3.584,0.357 -3.901,0.436C-3.782,1.565 -3.584,2.813 -3.366,3.902C-1.089,3.704 1.486,3.288 3.229,2.734L3.546,4.14Z" style="fill-rule:nonzero;"/>
        </g>
    </g>
</svg>
