<?xml version="1.0" encoding="UTF-8" standalone="no"?>
<!DOCTYPE svg PUBLIC "-//W3C//DTD SVG 1.1//EN" "http://www.w3.org/Graphics/SVG/1.1/DTD/svg11.dtd">
<svg width="100%" height="100%" viewBox="0 0 19 18" version="1.1" xmlns="http://www.w3.org/2000/svg" xmlns:xlink="http://www.w3.org/1999/xlink" xml:space="preserve" xmlns:serif="http://www.serif.com/" style="fill-rule:evenodd;clip-rule:evenodd;stroke-linejoin:round;stroke-miterlimit:2;">
    <g transform="matrix(1,0,0,1,-385,-373)">
        <g id="se" transform="matrix(1,0,0,1,399.184,389.937)">
            <path d="M0,-16.617C0,-16.419 -0.139,-16.32 -0.436,-16.241C-0.356,-14.854 -0.297,-13.23 -0.258,-11.745C1.307,-12.002 2.813,-12.24 3.98,-12.418L4.1,-11.032C2.911,-10.913 1.366,-10.695 -0.237,-10.438C-0.218,-8.616 -0.258,-7.012 -0.456,-6.041C-0.693,-4.872 -1.545,-4.199 -2.674,-4.199C-3.486,-4.199 -4.635,-4.476 -5.724,-5.071C-5.625,-5.367 -5.546,-5.863 -5.486,-6.239C-4.377,-5.645 -3.367,-5.467 -2.892,-5.467C-1.703,-5.467 -1.525,-6.635 -1.624,-10.24C-3.902,-9.864 -6.278,-9.467 -8.081,-9.15C-8.041,-7.269 -8.002,-5.467 -7.923,-4.357C-7.685,-1.347 -6.199,-1.169 -3.348,-1.169C-1.724,-1.169 0.416,-1.268 1.842,-1.466L1.882,-0.119C0.476,0.04 -1.525,0.099 -3.188,0.099C-6.259,0.099 -8.952,0.02 -9.289,-4.239C-9.388,-5.347 -9.428,-7.071 -9.468,-8.913C-10.695,-8.695 -12.319,-8.378 -13.329,-8.18L-13.547,-9.507C-12.498,-9.665 -10.854,-9.963 -9.487,-10.18C-9.507,-11.904 -9.526,-13.765 -9.526,-15.27L-7.566,-15.092C-7.586,-14.874 -7.744,-14.756 -8.062,-14.716C-8.081,-13.508 -8.081,-11.923 -8.062,-10.438L-1.644,-11.507C-1.703,-13.191 -1.782,-15.112 -1.901,-16.716L0,-16.617Z" style="fill-rule:nonzero;"/>
        </g>
    </g>
</svg>
