<?xml version="1.0" encoding="UTF-8" standalone="no"?>
<!DOCTYPE svg PUBLIC "-//W3C//DTD SVG 1.1//EN" "http://www.w3.org/Graphics/SVG/1.1/DTD/svg11.dtd">
<svg width="100%" height="100%" viewBox="0 0 30 19" version="1.1" xmlns="http://www.w3.org/2000/svg" xmlns:xlink="http://www.w3.org/1999/xlink" xml:space="preserve" xmlns:serif="http://www.serif.com/" style="fill-rule:evenodd;clip-rule:evenodd;stroke-linejoin:round;stroke-miterlimit:2;">
    <g transform="matrix(1,0,0,1,-423,-565)">
        <g id="sha">
            <g transform="matrix(1,0,0,1,426.271,582.422)">
                <path d="M0,-16.537C-0.039,-16.3 -0.218,-16.161 -0.614,-16.101C-0.772,-13.804 -0.971,-8.556 -0.971,-5.624C-0.971,-2.673 0.495,-1.247 2.991,-1.247C5.407,-1.247 7.863,-2.455 10.121,-5.011C10.319,-4.693 10.774,-4.059 11.012,-3.842C8.695,-1.208 5.883,0.179 2.971,0.179C-0.634,0.179 -2.476,-1.9 -2.476,-5.644C-2.476,-8.14 -2.298,-14.279 -2.159,-16.716L0,-16.537Z" style="fill-rule:nonzero;"/>
            </g>
            <g transform="matrix(1,0,0,1,438.882,576.877)">
                <path d="M0,-1.901C0.971,-2.198 2.595,-2.793 3.685,-3.209C3.209,-4.813 2.793,-6.298 2.516,-7.189L4.219,-7.506C4.239,-7.308 4.14,-7.189 3.862,-7.071C4.219,-5.842 4.477,-4.833 4.813,-3.585C6.615,-4.218 8.299,-4.733 9.368,-4.912C8.636,-5.723 7.408,-6.754 6.556,-7.289L7.309,-8.041C8.378,-7.447 9.784,-6.278 10.537,-5.367L10.022,-4.971C10.2,-4.991 10.358,-4.991 10.537,-4.991C12.221,-4.952 13.964,-4.041 13.964,-1.822C13.964,0.396 12.28,1.505 10.438,1.505C9.368,1.505 8.2,1.189 7.11,0.297C7.229,0.079 7.428,-0.356 7.526,-0.653C8.438,0.06 9.527,0.376 10.339,0.376C11.706,0.376 12.735,-0.257 12.735,-1.802C12.735,-3.07 11.765,-3.902 10.398,-3.902C9.052,-3.902 7.131,-3.248 5.11,-2.535C5.843,-0.019 6.893,3.506 7.526,5.863L6.259,6.14C5.784,3.842 4.675,0.218 3.981,-2.119C3.03,-1.762 1.624,-1.248 0.793,-0.911C0.793,-0.772 0.674,-0.594 0.516,-0.535L0,-1.901Z" style="fill-rule:nonzero;"/>
            </g>
        </g>
    </g>
</svg>
