<?xml version="1.0" encoding="UTF-8" standalone="no"?>
<!DOCTYPE svg PUBLIC "-//W3C//DTD SVG 1.1//EN" "http://www.w3.org/Graphics/SVG/1.1/DTD/svg11.dtd">
<svg width="100%" height="100%" viewBox="0 0 15 18" version="1.1" xmlns="http://www.w3.org/2000/svg" xmlns:xlink="http://www.w3.org/1999/xlink" xml:space="preserve" xmlns:serif="http://www.serif.com/" style="fill-rule:evenodd;clip-rule:evenodd;stroke-linejoin:round;stroke-miterlimit:2;">
    <g transform="matrix(1,0,0,1,-388,-283)">
        <g id="shi" transform="matrix(1,0,0,1,391.202,300.408)">
            <path d="M0,-16.538C-0.04,-16.3 -0.218,-16.162 -0.614,-16.102C-0.772,-13.805 -0.971,-8.556 -0.971,-5.625C-0.971,-2.674 0.495,-1.247 2.99,-1.247C5.406,-1.247 7.862,-2.456 10.12,-5.011C10.318,-4.694 10.774,-4.06 11.012,-3.842C8.694,-1.208 5.882,0.178 2.971,0.178C-0.634,0.178 -2.477,-1.901 -2.477,-5.644C-2.477,-8.14 -2.298,-14.28 -2.159,-16.716L0,-16.538Z" style="fill-rule:nonzero;"/>
        </g>
    </g>
</svg>
