<?xml version="1.0" encoding="UTF-8" standalone="no"?>
<!DOCTYPE svg PUBLIC "-//W3C//DTD SVG 1.1//EN" "http://www.w3.org/Graphics/SVG/1.1/DTD/svg11.dtd">
<svg width="100%" height="100%" viewBox="0 0 29 18" version="1.1" xmlns="http://www.w3.org/2000/svg" xmlns:xlink="http://www.w3.org/1999/xlink" xml:space="preserve" xmlns:serif="http://www.serif.com/" style="fill-rule:evenodd;clip-rule:evenodd;stroke-linejoin:round;stroke-miterlimit:2;">
    <g transform="matrix(1,0,0,1,-424,-655)">
        <g id="sho">
            <g transform="matrix(1,0,0,1,427.36,671.934)">
                <path d="M0,-16.537C-0.039,-16.3 -0.218,-16.161 -0.614,-16.101C-0.772,-13.804 -0.971,-8.556 -0.971,-5.624C-0.971,-2.673 0.495,-1.247 2.991,-1.247C5.407,-1.247 7.863,-2.455 10.121,-5.011C10.319,-4.693 10.774,-4.059 11.012,-3.842C8.695,-1.208 5.883,0.179 2.971,0.179C-0.634,0.179 -2.476,-1.9 -2.476,-5.644C-2.476,-8.14 -2.298,-14.279 -2.159,-16.716L0,-16.537Z" style="fill-rule:nonzero;"/>
            </g>
            <g transform="matrix(1,0,0,1,443.735,662.744)">
                <path d="M0,5.269C-1.921,5.269 -2.772,6.14 -2.772,7.012C-2.753,8.041 -1.664,8.557 -0.139,8.557C1.703,8.557 1.703,7.111 1.703,6.497C1.703,6.2 1.684,5.863 1.663,5.487C1.129,5.329 0.534,5.269 0,5.269M2.813,4.616C4.674,5.209 6.932,6.417 8.358,7.487L7.565,8.537C6.397,7.546 4.337,6.378 2.872,5.843C2.931,7.249 3.011,9.606 -0.06,9.606C-2.001,9.606 -3.862,8.854 -3.862,6.933C-3.862,5.348 -2.159,4.279 -0.198,4.259C0.376,4.259 1.05,4.279 1.624,4.398C1.604,3.942 1.584,3.705 1.564,3.348C1.387,1.288 1.268,-2.04 1.268,-4.337L2.951,-4.238C2.951,-4.08 2.813,-3.921 2.535,-3.901C2.535,-3.465 2.574,-1.386 2.574,-0.911C3.862,-0.93 6.08,-1.168 7.744,-1.485L7.843,-0.277C6.199,0 3.98,0.199 2.595,0.238C2.595,1.407 2.693,2.377 2.753,3.447L2.813,4.616Z" style="fill-rule:nonzero;"/>
            </g>
        </g>
    </g>
</svg>
