<?xml version="1.0" encoding="UTF-8" standalone="no"?>
<!DOCTYPE svg PUBLIC "-//W3C//DTD SVG 1.1//EN" "http://www.w3.org/Graphics/SVG/1.1/DTD/svg11.dtd">
<svg width="100%" height="100%" viewBox="0 0 30 18" version="1.1" xmlns="http://www.w3.org/2000/svg" xmlns:xlink="http://www.w3.org/1999/xlink" xml:space="preserve" xmlns:serif="http://www.serif.com/" style="fill-rule:evenodd;clip-rule:evenodd;stroke-linejoin:round;stroke-miterlimit:2;">
    <g transform="matrix(1,0,0,1,-423,-610)">
        <g id="shu">
            <g transform="matrix(1,0,0,1,426.173,627.421)">
                <path d="M0,-16.537C-0.039,-16.3 -0.218,-16.161 -0.614,-16.101C-0.772,-13.804 -0.971,-8.556 -0.971,-5.624C-0.971,-2.673 0.495,-1.247 2.991,-1.247C5.407,-1.247 7.863,-2.455 10.121,-5.011C10.319,-4.693 10.774,-4.059 11.012,-3.842C8.695,-1.208 5.883,0.179 2.971,0.179C-0.634,0.179 -2.476,-1.9 -2.476,-5.644C-2.476,-8.14 -2.298,-14.279 -2.159,-16.716L0,-16.537Z" style="fill-rule:nonzero;"/>
            </g>
            <g transform="matrix(1,0,0,1,448.231,624.331)">
                <path d="M0,-6.793C0.079,-5.446 0.099,-4.139 0.099,-3.069C0.099,-2.198 0.02,-1.128 -0.198,-0.415C2,-0.515 3.327,-1.723 3.327,-3.782C3.327,-5.525 2.297,-6.793 0,-6.793M-7.546,-2.772C-6.318,-5.485 -3.704,-7.387 -1.208,-7.764C-1.248,-8.635 -1.308,-9.665 -1.387,-10.438L0.277,-10.378C0.257,-10.199 0.118,-10.08 -0.159,-10.022C-0.139,-9.506 -0.079,-8.477 -0.06,-7.882C2.555,-7.922 4.496,-6.575 4.496,-3.802C4.496,-1.049 2.614,0.595 -0.495,0.674C-0.99,1.685 -1.862,2.754 -3.525,3.645C-3.764,3.407 -4.18,3.011 -4.397,2.853C-2.951,2.159 -2.159,1.348 -1.724,0.535C-3.209,0.377 -4.457,-0.336 -5.269,-1.762C-5.011,-1.94 -4.635,-2.257 -4.437,-2.475C-3.764,-1.168 -2.575,-0.573 -1.327,-0.515C-1.149,-1.188 -1.011,-2.158 -1.011,-3.089C-1.03,-4.1 -1.03,-5.287 -1.129,-6.674C-3.328,-6.377 -5.625,-4.772 -6.992,-1.742C-7.15,-1.405 -7.229,-0.989 -7.229,-0.494C-7.229,-0.078 -7.17,0.396 -7.071,0.892L-8.2,1.03C-8.497,-0.099 -8.655,-1.564 -8.655,-3.108C-8.655,-4.871 -8.457,-7.288 -7.923,-9.585L-6.417,-9.249C-6.457,-9.09 -6.636,-9.031 -6.813,-9.031C-7.269,-7.269 -7.566,-4.931 -7.566,-2.772L-7.546,-2.772Z" style="fill-rule:nonzero;"/>
            </g>
        </g>
    </g>
</svg>
