<?xml version="1.0" encoding="UTF-8" standalone="no"?>
<!DOCTYPE svg PUBLIC "-//W3C//DTD SVG 1.1//EN" "http://www.w3.org/Graphics/SVG/1.1/DTD/svg11.dtd">
<svg width="100%" height="100%" viewBox="0 0 18 18" version="1.1" xmlns="http://www.w3.org/2000/svg" xmlns:xlink="http://www.w3.org/1999/xlink" xml:space="preserve" xmlns:serif="http://www.serif.com/" style="fill-rule:evenodd;clip-rule:evenodd;stroke-linejoin:round;stroke-miterlimit:2;">
    <g transform="matrix(1,0,0,1,-385,-418)">
        <g id="so" transform="matrix(1,0,0,1,388.587,434.779)">
            <path d="M0,-15.707C3.684,-15.707 8.318,-16.083 9.685,-16.538L10.16,-15.291C9.942,-15.231 9.646,-14.974 9.229,-14.617C7.229,-12.953 4.338,-10.874 1.98,-9.25C4.733,-9.824 10.358,-10.676 14.063,-10.616L14.063,-9.21C13.785,-9.23 13.468,-9.23 13.171,-9.23C12.102,-9.23 10.973,-9.15 10.141,-8.933C8.438,-8.458 4.317,-6.022 4.317,-3.309C4.317,-2.081 5.07,-1.665 5.348,-1.526C6.239,-1.031 8.397,-0.674 10.26,-0.555L9.823,0.831C5.03,0.455 2.832,-0.655 2.832,-3.19C2.832,-5.745 5.605,-7.903 7.546,-8.933C4.159,-8.576 0.812,-7.883 -2.476,-7.032L-2.733,-8.379C-1.585,-8.616 -0.772,-8.894 -0.139,-9.27C1.347,-10.142 5.724,-13.35 7.368,-14.914C6.14,-14.717 3.664,-14.519 2.535,-14.459C1.961,-14.419 1.169,-14.399 0.653,-14.359C0.574,-14.261 0.337,-14.122 0.139,-14.122L0,-15.707Z" style="fill-rule:nonzero;"/>
        </g>
    </g>
</svg>
