<?xml version="1.0" encoding="UTF-8" standalone="no"?>
<!DOCTYPE svg PUBLIC "-//W3C//DTD SVG 1.1//EN" "http://www.w3.org/Graphics/SVG/1.1/DTD/svg11.dtd">
<svg width="100%" height="100%" viewBox="0 0 19 19" version="1.1" xmlns="http://www.w3.org/2000/svg" xmlns:xlink="http://www.w3.org/1999/xlink" xml:space="preserve" xmlns:serif="http://www.serif.com/" style="fill-rule:evenodd;clip-rule:evenodd;stroke-linejoin:round;stroke-miterlimit:2;">
    <g transform="matrix(1,0,0,1,-385,-328)">
        <g id="su" transform="matrix(1,0,0,1,395.479,336.782)">
            <path d="M0,1.941C0,1.169 0,-0.634 -2.02,-0.634C-3.387,-0.614 -4.356,0.436 -4.377,1.882C-4.377,3.268 -3.327,4.179 -2.179,4.179C-0.772,4.179 0,3.09 0,1.941M-0.376,-5.011C-0.396,-5.446 -0.455,-7.605 -0.495,-8.101L1.545,-8.021C1.525,-7.863 1.387,-7.664 1.03,-7.605C1.03,-7.368 1.03,-7.13 1.07,-5.05C3.506,-5.129 6.061,-5.189 7.547,-5.209L7.547,-3.842C5.863,-3.882 3.467,-3.842 1.109,-3.763C1.149,-2.218 1.188,-0.792 1.248,0.297C1.446,0.951 1.485,1.545 1.485,2.377C1.485,3.011 1.427,3.744 1.288,4.298C0.772,6.615 -0.931,8.655 -4.416,10.042C-4.674,9.705 -5.109,9.21 -5.427,8.913C-2.396,7.824 -0.772,6.18 -0.277,4.298L-0.297,4.298C-0.713,4.892 -1.445,5.348 -2.337,5.348C-4.1,5.348 -5.664,3.902 -5.664,1.882C-5.684,-0.218 -3.98,-1.822 -2.099,-1.822C-1.386,-1.822 -0.653,-1.564 -0.257,-1.208C-0.257,-1.544 -0.297,-2.871 -0.336,-3.723C-2.396,-3.684 -8.655,-3.466 -9.467,-3.426L-9.507,-4.733L-4.99,-4.852L-0.376,-5.011Z" style="fill-rule:nonzero;"/>
        </g>
    </g>
</svg>
