<?xml version="1.0" encoding="UTF-8" standalone="no"?>
<!DOCTYPE svg PUBLIC "-//W3C//DTD SVG 1.1//EN" "http://www.w3.org/Graphics/SVG/1.1/DTD/svg11.dtd">
<svg width="100%" height="100%" viewBox="0 0 17 19" version="1.1" xmlns="http://www.w3.org/2000/svg" xmlns:xlink="http://www.w3.org/1999/xlink" xml:space="preserve" xmlns:serif="http://www.serif.com/" style="fill-rule:evenodd;clip-rule:evenodd;stroke-linejoin:round;stroke-miterlimit:2;">
    <g transform="matrix(1,0,0,1,-341,-238)">
        <g id="ta" transform="matrix(1,0,0,1,350.195,248.704)">
            <path d="M0,-2.218C2.04,-2.872 4.852,-3.287 7.189,-3.228L7.189,-1.881C4.951,-1.941 2.357,-1.624 0.336,-0.99L0,-2.218ZM7.724,7.328C7.13,7.348 6.516,7.368 5.902,7.368C4.04,7.368 2.277,7.229 1.208,6.932C-0.198,6.536 -1.01,5.506 -0.991,4.199C-0.971,3.327 -0.594,2.337 0.237,1.327L1.426,1.842C0.732,2.654 0.396,3.427 0.396,4.041C0.396,5.605 1.901,6.001 5.506,6.001C6.239,6.001 6.991,5.982 7.724,5.922L7.724,7.328ZM2.456,-5.863C0.772,-5.268 -1.466,-4.892 -3.625,-4.734C-4.457,-0.198 -5.665,4.318 -7.249,7.645L-8.675,7.111C-7.051,3.922 -5.863,-0.178 -5.09,-4.674C-5.486,-4.654 -8.141,-4.635 -8.735,-4.654L-8.754,-6.001C-8.438,-5.981 -8.021,-5.981 -7.566,-5.981C-7.388,-5.981 -5.407,-5.981 -4.892,-6.001C-4.694,-7.269 -4.496,-8.655 -4.377,-9.863L-2.337,-9.665C-2.357,-9.447 -2.634,-9.289 -2.912,-9.269C-3.031,-8.398 -3.229,-7.328 -3.407,-6.12C-1.466,-6.298 0.495,-6.635 2.139,-7.229L2.456,-5.863Z" style="fill-rule:nonzero;"/>
        </g>
    </g>
</svg>
