<?xml version="1.0" encoding="UTF-8" standalone="no"?>
<!DOCTYPE svg PUBLIC "-//W3C//DTD SVG 1.1//EN" "http://www.w3.org/Graphics/SVG/1.1/DTD/svg11.dtd">
<svg width="100%" height="100%" viewBox="0 0 17 17" version="1.1" xmlns="http://www.w3.org/2000/svg" xmlns:xlink="http://www.w3.org/1999/xlink" xml:space="preserve" xmlns:serif="http://www.serif.com/" style="fill-rule:evenodd;clip-rule:evenodd;stroke-linejoin:round;stroke-miterlimit:2;">
    <g transform="matrix(1,0,0,1,-341,-374)">
        <g id="te" transform="matrix(1,0,0,1,341.441,389.817)">
            <path d="M0,-14.537C1.485,-14.597 13.686,-15.468 16.261,-15.488L16.281,-14.002C16.023,-14.022 15.785,-14.022 15.548,-14.022C14.399,-14.022 13.428,-13.824 12.161,-13.012C9.19,-11.229 6.318,-8.04 6.318,-5.486C6.318,-2.713 8.259,-1.069 13.171,-0.435L12.518,0.951C6.893,0.139 4.793,-1.96 4.793,-5.486C4.793,-8.278 7.546,-11.665 11.17,-13.943C9.071,-13.804 3.149,-13.349 0.594,-13.111C0.535,-12.953 0.317,-12.814 0.159,-12.794L0,-14.537Z" style="fill-rule:nonzero;"/>
        </g>
    </g>
</svg>
