<?xml version="1.0" encoding="UTF-8" standalone="no"?>
<!DOCTYPE svg PUBLIC "-//W3C//DTD SVG 1.1//EN" "http://www.w3.org/Graphics/SVG/1.1/DTD/svg11.dtd">
<svg width="100%" height="100%" viewBox="0 0 15 18" version="1.1" xmlns="http://www.w3.org/2000/svg" xmlns:xlink="http://www.w3.org/1999/xlink" xml:space="preserve" xmlns:serif="http://www.serif.com/" style="fill-rule:evenodd;clip-rule:evenodd;stroke-linejoin:round;stroke-miterlimit:2;">
    <g transform="matrix(1,0,0,1,-342,-418)">
        <g id="to" transform="matrix(1,0,0,1,355.899,428.796)">
            <path d="M0,-4.16C-0.04,-4.139 -0.099,-4.139 -0.159,-4.139C-0.297,-4.139 -0.456,-4.18 -0.575,-4.259C-6.457,-2.535 -11.785,0.058 -11.765,2.713C-11.765,4.614 -9.666,5.267 -6.457,5.267C-3.268,5.267 -0.832,5.03 0.554,4.812L0.673,6.257C-1.149,6.496 -4.1,6.614 -6.417,6.614C-10.339,6.614 -13.191,5.704 -13.211,2.792C-13.23,0.673 -11.111,-1.189 -8.002,-2.793C-8.675,-4.001 -8.913,-6.299 -8.913,-10.774L-6.734,-10.597C-6.754,-10.339 -6.952,-10.181 -7.348,-10.121C-7.368,-6.655 -7.249,-4.496 -6.695,-3.427C-4.833,-4.299 -2.694,-5.091 -0.515,-5.804L0,-4.16Z" style="fill-rule:nonzero;"/>
        </g>
    </g>
</svg>
