<?xml version="1.0" encoding="UTF-8" standalone="no"?>
<!DOCTYPE svg PUBLIC "-//W3C//DTD SVG 1.1//EN" "http://www.w3.org/Graphics/SVG/1.1/DTD/svg11.dtd">
<svg width="100%" height="100%" viewBox="0 0 18 14" version="1.1" xmlns="http://www.w3.org/2000/svg" xmlns:xlink="http://www.w3.org/1999/xlink" xml:space="preserve" xmlns:serif="http://www.serif.com/" style="fill-rule:evenodd;clip-rule:evenodd;stroke-linejoin:round;stroke-miterlimit:2;">
    <g transform="matrix(1,0,0,1,-341,-331)">
        <g id="tsu" transform="matrix(1,0,0,1,341.005,342.388)">
            <path d="M0,-8.338C0.456,-8.437 1.109,-8.615 2.04,-8.913C5.545,-10.042 8.675,-10.814 10.854,-10.814C14.181,-10.814 17.013,-9.17 17.013,-5.011C17.013,-0.099 12.161,1.803 5.466,2.476C5.407,2.179 5.149,1.486 4.951,1.129C11.071,0.555 15.468,-1.109 15.468,-4.931C15.468,-8.041 13.329,-9.388 10.715,-9.388C7.882,-9.388 2.792,-7.744 0.99,-6.971C0.99,-6.774 0.812,-6.575 0.634,-6.516L0,-8.338Z" style="fill-rule:nonzero;"/>
        </g>
    </g>
</svg>
