<?xml version="1.0" encoding="UTF-8" standalone="no"?>
<!DOCTYPE svg PUBLIC "-//W3C//DTD SVG 1.1//EN" "http://www.w3.org/Graphics/SVG/1.1/DTD/svg11.dtd">
<svg width="100%" height="100%" viewBox="0 0 14 19" version="1.1" xmlns="http://www.w3.org/2000/svg" xmlns:xlink="http://www.w3.org/1999/xlink" xml:space="preserve" xmlns:serif="http://www.serif.com/" style="fill-rule:evenodd;clip-rule:evenodd;stroke-linejoin:round;stroke-miterlimit:2;">
    <g transform="matrix(1,0,0,1,-478,-328)">
        <g id="u" transform="matrix(1,0,0,1,481.24,346.607)">
            <path d="M0,-17.667C2.713,-17.43 5.843,-16.855 7.962,-16.122L7.546,-14.736C5.446,-15.449 2.238,-16.103 -0.337,-16.32L0,-17.667ZM-2.772,-10.814C0.198,-11.626 3.941,-12.438 5.427,-12.438C8.397,-12.438 10.141,-10.854 10.141,-7.923L10.141,-7.764C10.101,-4.16 7.269,-1.525 1.584,0C1.406,-0.337 0.99,-0.872 0.693,-1.209C5.764,-2.417 8.636,-4.793 8.636,-7.804C8.636,-9.705 7.725,-11.072 5.367,-11.072C3.783,-11.072 0.634,-10.359 -1.803,-9.507C-1.782,-9.349 -1.98,-9.15 -2.179,-9.052L-2.772,-10.814Z" style="fill-rule:nonzero;"/>
        </g>
    </g>
</svg>
