<?xml version="1.0" encoding="UTF-8" standalone="no"?>
<!DOCTYPE svg PUBLIC "-//W3C//DTD SVG 1.1//EN" "http://www.w3.org/Graphics/SVG/1.1/DTD/svg11.dtd">
<svg width="100%" height="100%" viewBox="0 0 19 18" version="1.1" xmlns="http://www.w3.org/2000/svg" xmlns:xlink="http://www.w3.org/1999/xlink" xml:space="preserve" xmlns:serif="http://www.serif.com/" style="fill-rule:evenodd;clip-rule:evenodd;stroke-linejoin:round;stroke-miterlimit:2;">
    <g transform="matrix(1,0,0,1,-68,-239)">
        <g id="wa" transform="matrix(1,0,0,1,73.3057,256.389)">
            <path d="M0,-17.39L2,-17.192C1.941,-16.954 1.763,-16.855 1.426,-16.815C1.347,-15.885 1.287,-14.795 1.248,-13.983C1.367,-13.924 1.564,-13.845 1.961,-13.686C1.723,-13.211 1.327,-12.141 1.148,-11.289C1.129,-10.893 1.109,-10.755 1.089,-10.438C3.229,-12.003 5.466,-12.834 7.566,-12.834C11.032,-12.834 12.854,-10.477 12.854,-7.15C12.854,-2.991 9.586,-1.109 4.238,-0.634C4.12,-1.05 3.941,-1.525 3.743,-1.902C8.655,-2.357 11.428,-3.744 11.428,-7.13C11.428,-9.547 10.18,-11.527 7.467,-11.527C5.387,-11.527 3.308,-10.715 1.069,-8.913C1.069,-6.061 1.069,-2.635 1.089,0L-0.297,0C-0.277,-1.189 -0.297,-7.012 -0.277,-8.319C-0.931,-7.13 -2.476,-5.11 -4.041,-3.724L-4.773,-4.892C-3.208,-6.299 -1.129,-8.656 -0.257,-10.775L-0.198,-12.399C-0.971,-12.26 -2.535,-12.102 -4.1,-12.062L-4.14,-13.429C-2.753,-13.429 -1.129,-13.508 -0.119,-13.726L0,-17.39Z" style="fill-rule:nonzero;"/>
        </g>
    </g>
</svg>
