<?xml version="1.0" encoding="UTF-8" standalone="no"?>
<!DOCTYPE svg PUBLIC "-//W3C//DTD SVG 1.1//EN" "http://www.w3.org/Graphics/SVG/1.1/DTD/svg11.dtd">
<svg width="100%" height="100%" viewBox="0 0 17 18" version="1.1" xmlns="http://www.w3.org/2000/svg" xmlns:xlink="http://www.w3.org/1999/xlink" xml:space="preserve" xmlns:serif="http://www.serif.com/" style="fill-rule:evenodd;clip-rule:evenodd;stroke-linejoin:round;stroke-miterlimit:2;">
    <g transform="matrix(1,0,0,1,-69,-418)">
        <g id="wo" transform="matrix(1,0,0,1,85.9023,427.133)">
            <path d="M0,-1.049C-0.04,-1.029 -0.079,-1.009 -0.119,-1.009C-0.238,-1.009 -0.337,-1.069 -0.416,-1.128C-1.921,-0.633 -4.12,0.178 -5.764,0.892C-5.724,1.347 -5.704,1.862 -5.704,2.437C-5.704,3.07 -5.724,3.784 -5.764,4.556L-7.209,4.635C-7.15,3.922 -7.11,3.011 -7.11,2.239C-7.11,1.941 -7.11,1.664 -7.13,1.446C-9.368,2.535 -11.19,3.863 -11.19,5.051C-11.19,6.2 -9.824,6.754 -7.091,6.754C-5.169,6.754 -3.387,6.714 -2.119,6.556L-2.1,7.883C-3.268,8.002 -5.051,8.041 -7.091,8.041C-10.894,8.041 -12.577,7.13 -12.577,5.11C-12.577,3.368 -10.279,1.684 -7.309,0.199C-7.427,-1.049 -7.982,-1.663 -8.774,-1.663C-10.22,-1.663 -11.725,-0.851 -13.508,1.129C-14.063,1.743 -14.835,2.516 -15.687,3.288L-16.657,2.318C-14.676,0.575 -12.814,-1.089 -11.666,-4.99L-12.775,-4.971L-16.083,-4.971L-16.083,-6.258C-14.875,-6.238 -13.468,-6.238 -12.656,-6.238L-11.309,-6.258C-11.091,-7.169 -10.913,-8.021 -10.774,-9.09L-8.833,-8.853C-8.873,-8.654 -9.032,-8.535 -9.329,-8.496C-9.467,-7.703 -9.646,-7.011 -9.824,-6.298C-8.477,-6.318 -5.585,-6.634 -3.011,-7.446L-2.773,-6.119C-5.249,-5.347 -8.239,-5.07 -10.2,-5.01C-10.675,-3.525 -11.17,-2.336 -11.626,-1.663L-11.606,-1.663C-10.735,-2.436 -9.428,-2.95 -8.417,-2.95C-7.071,-2.95 -6.219,-1.98 -5.962,-0.375C-4.298,-1.128 -2.199,-1.941 -0.614,-2.554L0,-1.049Z" style="fill-rule:nonzero;"/>
        </g>
    </g>
</svg>
