<?xml version="1.0" encoding="UTF-8" standalone="no"?>
<!DOCTYPE svg PUBLIC "-//W3C//DTD SVG 1.1//EN" "http://www.w3.org/Graphics/SVG/1.1/DTD/svg11.dtd">
<svg width="100%" height="100%" viewBox="0 0 19 19" version="1.1" xmlns="http://www.w3.org/2000/svg" xmlns:xlink="http://www.w3.org/1999/xlink" xml:space="preserve" xmlns:serif="http://www.serif.com/" style="fill-rule:evenodd;clip-rule:evenodd;stroke-linejoin:round;stroke-miterlimit:2;">
    <g transform="matrix(1,0,0,1,-160,-238)">
        <g id="ya" transform="matrix(1,0,0,1,173.353,252.706)">
            <path d="M0,-10.082C0.218,-10.102 0.396,-10.122 0.594,-10.122C2.753,-10.122 4.892,-8.834 4.892,-6.16C4.892,-3.585 3.129,-2.08 0.416,-2.08C-0.752,-2.08 -2.297,-2.516 -3.545,-3.506C-3.406,-3.803 -3.248,-4.318 -3.149,-4.695C-2,-3.803 -0.634,-3.388 0.416,-3.388C2.278,-3.388 3.446,-4.397 3.446,-6.18C3.446,-7.646 2.437,-8.794 0.337,-8.794C-1.327,-8.794 -3.941,-7.943 -6.179,-7.15C-5.249,-4.001 -3.981,0.514 -3.208,3.485L-4.733,3.822C-5.347,0.97 -6.655,-3.744 -7.506,-6.655C-8.774,-6.2 -10.556,-5.606 -11.626,-5.209C-11.646,-5.031 -11.784,-4.853 -11.962,-4.774L-12.596,-6.358C-11.329,-6.754 -9.328,-7.408 -7.882,-7.923C-8.477,-9.943 -9.031,-11.726 -9.388,-12.874L-7.348,-13.251C-7.328,-12.993 -7.427,-12.895 -7.764,-12.716C-7.328,-11.191 -6.972,-9.904 -6.536,-8.398C-4.396,-9.131 -2.376,-9.785 -0.832,-10.003C-1.723,-11.013 -3.288,-12.359 -4.377,-13.013L-3.466,-13.904C-2.139,-13.152 -0.376,-11.666 0.555,-10.538L0,-10.082Z" style="fill-rule:nonzero;"/>
        </g>
    </g>
</svg>
