<?xml version="1.0" encoding="UTF-8" standalone="no"?>
<!DOCTYPE svg PUBLIC "-//W3C//DTD SVG 1.1//EN" "http://www.w3.org/Graphics/SVG/1.1/DTD/svg11.dtd">
<svg width="100%" height="100%" viewBox="0 0 17 18" version="1.1" xmlns="http://www.w3.org/2000/svg" xmlns:xlink="http://www.w3.org/1999/xlink" xml:space="preserve" xmlns:serif="http://www.serif.com/" style="fill-rule:evenodd;clip-rule:evenodd;stroke-linejoin:round;stroke-miterlimit:2;">
    <g transform="matrix(1,0,0,1,-161,-418)">
        <g id="yo" transform="matrix(1,0,0,1,166.401,423.431)">
            <path d="M0,6.752C-1.901,6.792 -3.229,7.584 -3.229,8.713C-3.229,10.159 -1.664,10.793 -0.079,10.793C1.307,10.793 2.456,10.298 2.456,8.892C2.456,8.436 2.456,7.624 2.416,7.049C1.624,6.812 0.752,6.752 0,6.752M9.784,10.793C8.081,9.445 5.922,8.158 3.842,7.485C3.882,8.258 3.743,9.268 3.585,9.782C3.426,11.427 1.901,12.061 0.079,12.061C-2.476,12.061 -4.496,10.813 -4.516,8.812C-4.556,6.812 -2.456,5.584 0.04,5.564C0.733,5.564 1.624,5.604 2.357,5.742C2.357,5.207 2.258,4.752 2.238,4.296C2.06,1.702 1.901,-2.457 1.881,-5.309L3.941,-5.19C3.941,-4.993 3.763,-4.814 3.426,-4.774C3.407,-4.24 3.426,-1.625 3.426,-1.031C4.714,-1.031 7.605,-1.248 10.002,-1.665L10.141,-0.258C7.883,0.098 4.951,0.296 3.446,0.316C3.446,1.445 3.486,1.9 3.783,6C6.338,6.752 8.754,8.099 10.695,9.525L9.784,10.793Z" style="fill-rule:nonzero;"/>
        </g>
    </g>
</svg>
