<?xml version="1.0" encoding="UTF-8" standalone="no"?>
<!DOCTYPE svg PUBLIC "-//W3C//DTD SVG 1.1//EN" "http://www.w3.org/Graphics/SVG/1.1/DTD/svg11.dtd">
<svg width="100%" height="100%" viewBox="0 0 18 18" version="1.1" xmlns="http://www.w3.org/2000/svg" xmlns:xlink="http://www.w3.org/1999/xlink" xml:space="preserve" xmlns:serif="http://www.serif.com/" style="fill-rule:evenodd;clip-rule:evenodd;stroke-linejoin:round;stroke-miterlimit:2;">
    <g transform="matrix(1,0,0,1,-161,-329)">
        <g id="yu" transform="matrix(1,0,0,1,172.383,342.15)">
            <path d="M0,-8.595C0.099,-6.912 0.119,-5.208 0.139,-3.901C0.139,-2.693 0.02,-1.445 -0.238,-0.574C2.575,-0.732 4.219,-2.198 4.219,-4.773C4.219,-7.466 2.396,-8.635 0,-8.595M-8.001,-11.625C-8.061,-11.408 -8.299,-11.328 -8.517,-11.328C-9.13,-9.229 -9.447,-5.644 -9.408,-3.426C-7.863,-6.892 -4.615,-9.288 -1.466,-9.744C-1.525,-10.853 -1.604,-12.12 -1.723,-13.091L0.277,-13.032C0.238,-12.814 0.139,-12.675 -0.198,-12.596C-0.178,-11.903 -0.139,-10.853 -0.079,-9.902C3.07,-9.942 5.625,-8.318 5.625,-4.792C5.625,-1.386 3.308,0.654 -0.594,0.734C-1.228,1.981 -2.297,3.407 -4.397,4.496C-4.674,4.199 -5.149,3.744 -5.427,3.546C-3.625,2.675 -2.575,1.565 -2.04,0.535C-3.585,0.357 -5.466,-0.653 -6.457,-2.297C-6.14,-2.515 -5.764,-2.851 -5.506,-3.129C-4.615,-1.643 -2.951,-0.792 -1.545,-0.693C-1.327,-1.524 -1.208,-2.733 -1.208,-3.921C-1.228,-5.169 -1.248,-6.733 -1.367,-8.456C-4.14,-8.08 -7.031,-6.001 -8.734,-2.218C-8.913,-1.822 -8.992,-1.366 -8.992,-0.831C-8.992,-0.277 -8.913,0.357 -8.734,1.03L-10.121,1.248C-10.537,-0.237 -10.755,-2.099 -10.755,-4.02C-10.755,-6.219 -10.458,-9.526 -9.863,-12.022L-8.001,-11.625Z" style="fill-rule:nonzero;"/>
        </g>
    </g>
</svg>
