<?xml version="1.0" encoding="UTF-8" standalone="no"?>
<!DOCTYPE svg PUBLIC "-//W3C//DTD SVG 1.1//EN" "http://www.w3.org/Graphics/SVG/1.1/DTD/svg11.dtd">
<svg width="100%" height="100%" viewBox="0 0 18 20" version="1.1" xmlns="http://www.w3.org/2000/svg" xmlns:xlink="http://www.w3.org/1999/xlink" xml:space="preserve" xmlns:serif="http://www.serif.com/" style="fill-rule:evenodd;clip-rule:evenodd;stroke-linejoin:round;stroke-miterlimit:2;">
    <g transform="matrix(1,0,0,1,-731,-237)">
        <g id="za" transform="matrix(1,0,0,1,746.444,256.03)">
            <path d="M0,-18.459C0.871,-17.687 1.802,-16.597 2.337,-15.746L1.564,-15.171C1.069,-15.983 0.138,-17.132 -0.693,-17.885L0,-18.459ZM-2.754,-17.944C-1.862,-17.132 -0.991,-16.142 -0.437,-15.27L-1.229,-14.716C-1.783,-15.607 -2.694,-16.637 -3.467,-17.39L-2.754,-17.944ZM-2.298,-0.04C-3.249,0 -4.259,0 -5.981,0C-10.121,0 -13.053,-1.268 -13.053,-3.901C-13.053,-5.03 -12.359,-6.199 -11.271,-7.229L-10.2,-6.397C-11.092,-5.684 -11.627,-4.694 -11.627,-3.961C-11.627,-2 -9.092,-1.366 -5.942,-1.366C-4.219,-1.366 -3.209,-1.386 -2.199,-1.446L-2.298,-0.04ZM1.148,-13.111C-0.634,-12.616 -3.03,-12.24 -5.407,-12.042C-4.655,-9.388 -3.803,-7.724 -1.724,-6.813L-2.694,-5.605C-3.704,-6.417 -5.012,-6.892 -7.11,-6.972L-7.349,-8.14C-6.397,-8.061 -5.646,-7.942 -5.15,-7.843C-5.764,-8.576 -6.418,-10.18 -6.873,-11.923C-7.765,-11.864 -8.973,-11.804 -10.161,-11.804C-11.448,-11.804 -13.548,-11.824 -14.815,-11.864L-14.815,-13.21C-13.627,-13.171 -11.943,-13.151 -10.141,-13.151C-9.131,-13.151 -7.982,-13.19 -7.19,-13.25C-7.428,-14.339 -7.646,-15.765 -7.863,-17.291L-5.744,-17.251C-5.764,-17.013 -5.942,-16.875 -6.259,-16.795C-6.16,-15.667 -5.962,-14.438 -5.744,-13.349C-3.388,-13.547 -0.951,-13.923 0.852,-14.498L1.148,-13.111Z" style="fill-rule:nonzero;"/>
        </g>
    </g>
</svg>
