<?xml version="1.0" encoding="UTF-8" standalone="no"?>
<!DOCTYPE svg PUBLIC "-//W3C//DTD SVG 1.1//EN" "http://www.w3.org/Graphics/SVG/1.1/DTD/svg11.dtd">
<svg width="100%" height="100%" viewBox="0 0 20 19" version="1.1" xmlns="http://www.w3.org/2000/svg" xmlns:xlink="http://www.w3.org/1999/xlink" xml:space="preserve" xmlns:serif="http://www.serif.com/" style="fill-rule:evenodd;clip-rule:evenodd;stroke-linejoin:round;stroke-miterlimit:2;">
    <g transform="matrix(1,0,0,1,-731,-371)">
        <g id="ze" transform="matrix(1,0,0,1,749.513,386.389)">
            <path d="M0,-11.091C-0.476,-11.943 -1.387,-13.111 -2.238,-13.943L-1.525,-14.438C-0.674,-13.626 0.297,-12.477 0.772,-11.606L0,-11.091ZM-2.14,-9.586C-2.635,-10.497 -3.585,-11.725 -4.338,-12.438L-3.645,-12.933C-2.793,-12.16 -1.842,-10.972 -1.367,-10.081L-2.14,-9.586ZM-4.615,-13.369C-4.615,-13.171 -4.754,-13.071 -5.051,-12.992C-4.972,-11.606 -4.912,-9.982 -4.872,-8.496C-3.308,-8.754 -1.803,-8.991 -0.634,-9.17L-0.515,-7.783C-1.703,-7.665 -3.248,-7.446 -4.853,-7.189C-4.833,-5.367 -4.872,-3.763 -5.07,-2.792C-5.308,-1.624 -6.16,-0.95 -7.289,-0.95C-8.101,-0.95 -9.249,-1.228 -10.339,-1.822C-10.24,-2.119 -10.16,-2.614 -10.102,-2.99C-8.992,-2.396 -7.981,-2.218 -7.507,-2.218C-6.318,-2.218 -6.14,-3.386 -6.239,-6.991C-8.517,-6.615 -10.894,-6.219 -12.695,-5.902C-12.656,-4.02 -12.616,-2.218 -12.537,-1.109C-12.3,1.902 -10.814,2.08 -7.962,2.08C-6.338,2.08 -4.199,1.981 -2.772,1.783L-2.733,3.13C-4.14,3.288 -6.14,3.347 -7.804,3.347C-10.874,3.347 -13.567,3.268 -13.904,-0.99C-14.003,-2.099 -14.043,-3.822 -14.082,-5.664C-15.311,-5.446 -16.657,-5.189 -17.667,-4.971L-17.846,-6.318C-16.756,-6.476 -15.469,-6.714 -14.102,-6.932C-14.122,-8.655 -14.142,-10.517 -14.142,-12.022L-12.181,-11.843C-12.2,-11.626 -12.359,-11.507 -12.676,-11.467C-12.695,-10.259 -12.695,-8.674 -12.676,-7.189L-6.259,-8.258C-6.318,-9.942 -6.397,-11.863 -6.517,-13.467L-4.615,-13.369Z" style="fill-rule:nonzero;"/>
        </g>
    </g>
</svg>
