<?xml version="1.0" encoding="UTF-8" standalone="no"?>
<!DOCTYPE svg PUBLIC "-//W3C//DTD SVG 1.1//EN" "http://www.w3.org/Graphics/SVG/1.1/DTD/svg11.dtd">
<svg width="100%" height="100%" viewBox="0 0 20 19" version="1.1" xmlns="http://www.w3.org/2000/svg" xmlns:xlink="http://www.w3.org/1999/xlink" xml:space="preserve" xmlns:serif="http://www.serif.com/" style="fill-rule:evenodd;clip-rule:evenodd;stroke-linejoin:round;stroke-miterlimit:2;">
    <g transform="matrix(1,0,0,1,-732,-417)">
        <g id="zo" transform="matrix(1,0,0,1,748.503,435.291)">
            <path d="M0,-17.469C0.971,-16.755 2.12,-15.666 2.714,-14.815L1.961,-14.181C1.427,-14.973 0.258,-16.122 -0.692,-16.815L0,-17.469ZM-2.02,-15.626C-1.069,-14.934 0.08,-13.805 0.714,-12.973L-0.039,-12.339C-0.634,-13.191 -1.842,-14.359 -2.713,-14.992L-2.02,-15.626ZM-12.854,-16.518C-11.031,-16.518 -4.892,-16.755 -3.169,-17.369L-2.693,-16.122C-2.911,-16.042 -3.208,-15.805 -3.624,-15.448C-5.624,-13.784 -8.516,-11.705 -10.873,-10.081C-8.08,-10.636 -2.693,-11.448 1.209,-11.448L1.209,-10.022C0.872,-10.041 0.516,-10.061 0.159,-10.061C-0.852,-10.061 -1.921,-9.962 -2.713,-9.764C-4.396,-9.288 -8.536,-6.813 -8.536,-4.119C-8.536,-3.347 -8.239,-2.733 -7.506,-2.357C-6.614,-1.862 -4.456,-1.486 -2.594,-1.386L-3.03,0C-7.823,-0.376 -10.021,-1.486 -10.021,-4.021C-10.021,-6.912 -6.496,-9.111 -5.308,-9.764C-8.694,-9.368 -12.042,-8.754 -15.329,-7.843L-15.587,-9.209C-14.438,-9.448 -13.626,-9.704 -12.992,-10.081C-11.507,-10.972 -7.13,-14.181 -5.485,-15.745C-6.812,-15.528 -9.823,-15.29 -12.2,-15.191C-12.279,-15.092 -12.517,-14.953 -12.715,-14.953L-12.854,-16.518Z" style="fill-rule:nonzero;"/>
        </g>
    </g>
</svg>
