<?xml version="1.0" encoding="UTF-8" standalone="no"?>
<!DOCTYPE svg PUBLIC "-//W3C//DTD SVG 1.1//EN" "http://www.w3.org/Graphics/SVG/1.1/DTD/svg11.dtd">
<svg width="100%" height="100%" viewBox="0 0 19 20" version="1.1" xmlns="http://www.w3.org/2000/svg" xmlns:xlink="http://www.w3.org/1999/xlink" xml:space="preserve" xmlns:serif="http://www.serif.com/" style="fill-rule:evenodd;clip-rule:evenodd;stroke-linejoin:round;stroke-miterlimit:2;">
    <g transform="matrix(1,0,0,1,-734,-327)">
        <g id="zu" transform="matrix(1,0,0,1,751.87,343.496)">
            <path d="M0,-12.498C-0.495,-13.35 -1.565,-14.578 -2.338,-15.29L-1.624,-15.845C-0.733,-15.053 0.218,-13.963 0.772,-13.092L0,-12.498ZM-2.892,-11.943C-3.407,-12.834 -4.437,-14.042 -5.229,-14.756L-4.496,-15.29C-3.605,-14.498 -2.674,-13.429 -2.1,-12.518L-2.892,-11.943ZM-8.081,-4.615C-8.081,-4.873 -8.101,-5.229 -8.141,-5.605C-8.358,-6.457 -9.071,-7.19 -10.141,-7.19C-11.547,-7.19 -12.479,-6.101 -12.479,-4.655C-12.479,-3.248 -11.35,-2.357 -10.3,-2.357C-8.873,-2.357 -8.081,-3.446 -8.081,-4.615M-6.596,-14.617C-6.615,-14.439 -6.734,-14.28 -7.11,-14.221C-7.11,-13.646 -7.091,-12.538 -7.071,-11.547L-0.634,-11.706L-0.634,-10.378C-2.377,-10.398 -4.793,-10.359 -7.031,-10.299C-7.031,-9.566 -6.933,-6.714 -6.873,-6.18C-6.734,-5.665 -6.596,-4.754 -6.596,-4.001C-6.596,-3.348 -6.655,-2.674 -6.833,-2.179C-7.289,-0.08 -9.111,2.178 -12.577,3.347C-12.795,3.01 -13.271,2.515 -13.567,2.238C-10.735,1.426 -8.834,-0.555 -8.418,-2.258L-8.438,-2.258C-8.794,-1.684 -9.566,-1.248 -10.458,-1.248C-12.24,-1.228 -13.766,-2.615 -13.766,-4.655C-13.785,-6.813 -12.161,-8.378 -10.181,-8.378C-9.448,-8.378 -8.715,-8.101 -8.358,-7.705C-8.358,-8.061 -8.458,-9.864 -8.458,-10.26L-12.934,-10.102C-14.221,-10.081 -16.083,-10.002 -17.39,-9.943L-17.43,-11.25C-16.261,-11.25 -14.538,-11.329 -13.032,-11.369C-12.003,-11.389 -10.379,-11.448 -8.517,-11.507L-8.616,-14.716L-6.596,-14.617Z" style="fill-rule:nonzero;"/>
        </g>
    </g>
</svg>
