<?xml version="1.0" encoding="UTF-8" standalone="no"?>
<!DOCTYPE svg PUBLIC "-//W3C//DTD SVG 1.1//EN" "http://www.w3.org/Graphics/SVG/1.1/DTD/svg11.dtd">
<svg width="100%" height="100%" viewBox="0 0 18 17" version="1.1" xmlns="http://www.w3.org/2000/svg" xmlns:xlink="http://www.w3.org/1999/xlink" xml:space="preserve" xmlns:serif="http://www.serif.com/" style="fill-rule:evenodd;clip-rule:evenodd;stroke-linejoin:round;stroke-miterlimit:2;">
    <g transform="matrix(1,0,0,1,-476,-233)">
        <g id="a" transform="matrix(1,0,0,1,485.301,245.026)">
            <path d="M0,-7.566C-0.021,-7.408 -0.198,-7.269 -0.456,-7.23C-1.03,-2.555 -2.635,1.901 -6.715,4.258C-6.992,4.02 -7.507,3.565 -7.883,3.347C-3.843,1.128 -2.396,-3.011 -1.922,-7.784L0,-7.566ZM7.724,-11.171C7.685,-11.092 7.565,-11.032 7.467,-10.993C6.396,-8.458 4.693,-6.259 2.772,-4.655C2.476,-4.912 1.921,-5.269 1.564,-5.467C3.387,-6.794 4.853,-8.715 5.506,-10.379L-8.676,-10.379L-8.676,-11.726L6.258,-11.726L6.477,-11.824L7.724,-11.171Z" style="fill-rule:nonzero;"/>
        </g>
    </g>
</svg>
