<?xml version="1.0" encoding="UTF-8" standalone="no"?>
<!DOCTYPE svg PUBLIC "-//W3C//DTD SVG 1.1//EN" "http://www.w3.org/Graphics/SVG/1.1/DTD/svg11.dtd">
<svg width="100%" height="100%" viewBox="0 0 20 18" version="1.1" xmlns="http://www.w3.org/2000/svg" xmlns:xlink="http://www.w3.org/1999/xlink" xml:space="preserve" xmlns:serif="http://www.serif.com/" style="fill-rule:evenodd;clip-rule:evenodd;stroke-linejoin:round;stroke-miterlimit:2;">
    <g transform="matrix(1,0,0,1,-641,-230)">
        <g id="ba" transform="matrix(1,0,0,1,657.615,247.877)">
            <path d="M0,-17.073C0.891,-16.241 1.881,-15.053 2.436,-14.161L1.663,-13.587C1.108,-14.478 0.079,-15.746 -0.753,-16.499L0,-17.073ZM-2.615,-16.043C-1.704,-15.231 -0.733,-14.003 -0.198,-13.112L-0.951,-12.557C-1.506,-13.448 -2.535,-14.736 -3.367,-15.489L-2.615,-16.043ZM0.257,-0.119C-0.674,-3.585 -2.972,-9.21 -5.012,-12.874L-3.724,-13.488C-1.645,-9.943 0.673,-4.358 1.703,-0.694L0.257,-0.119ZM-9.705,-12.993C-9.765,-12.835 -9.923,-12.716 -10.221,-12.696C-11.013,-7.943 -12.656,-2.932 -14.974,0C-15.33,-0.278 -15.865,-0.535 -16.301,-0.713C-14.082,-3.407 -12.34,-8.438 -11.706,-13.409L-9.705,-12.993Z" style="fill-rule:nonzero;"/>
        </g>
    </g>
</svg>
