<?xml version="1.0" encoding="UTF-8" standalone="no"?>
<!DOCTYPE svg PUBLIC "-//W3C//DTD SVG 1.1//EN" "http://www.w3.org/Graphics/SVG/1.1/DTD/svg11.dtd">
<svg width="100%" height="100%" viewBox="0 0 20 17" version="1.1" xmlns="http://www.w3.org/2000/svg" xmlns:xlink="http://www.w3.org/1999/xlink" xml:space="preserve" xmlns:serif="http://www.serif.com/" style="fill-rule:evenodd;clip-rule:evenodd;stroke-linejoin:round;stroke-miterlimit:2;">
    <g transform="matrix(1,0,0,1,-641,-365)">
        <g id="be" transform="matrix(1,0,0,1,657.259,381.285)">
            <path d="M0,-15.567C0.911,-14.755 1.94,-13.567 2.515,-12.675L1.763,-12.081C1.188,-12.953 0.118,-14.22 -0.713,-14.953L0,-15.567ZM-2.338,-13.824C-1.427,-13.032 -0.416,-11.804 0.158,-10.932L-0.595,-10.338C-1.169,-11.21 -2.219,-12.497 -3.07,-13.23L-2.338,-13.824ZM-15.469,-5.605C-13.964,-7.189 -10.834,-10.675 -9.705,-11.883C-9.19,-12.398 -8.676,-12.636 -8.16,-12.636C-7.626,-12.636 -7.091,-12.359 -6.556,-11.883C-4.001,-9.546 0.118,-4.971 3.109,-1.089L1.921,0C-0.892,-3.901 -5.031,-8.595 -7.249,-10.655C-7.586,-10.972 -7.844,-11.15 -8.101,-11.15C-8.358,-11.15 -8.596,-10.952 -8.913,-10.655C-9.844,-9.645 -12.735,-6.317 -14.063,-4.892C-14.043,-4.852 -14.043,-4.793 -14.043,-4.753C-14.043,-4.594 -14.122,-4.436 -14.241,-4.337L-15.469,-5.605Z" style="fill-rule:nonzero;"/>
        </g>
    </g>
</svg>
