<?xml version="1.0" encoding="UTF-8" standalone="no"?>
<!DOCTYPE svg PUBLIC "-//W3C//DTD SVG 1.1//EN" "http://www.w3.org/Graphics/SVG/1.1/DTD/svg11.dtd">
<svg width="100%" height="100%" viewBox="0 0 17 18" version="1.1" xmlns="http://www.w3.org/2000/svg" xmlns:xlink="http://www.w3.org/1999/xlink" xml:space="preserve" xmlns:serif="http://www.serif.com/" style="fill-rule:evenodd;clip-rule:evenodd;stroke-linejoin:round;stroke-miterlimit:2;">
    <g transform="matrix(1,0,0,1,-644,-275)">
        <g id="bi" transform="matrix(1,0,0,1,658.248,292.767)">
            <path d="M0,-17.449C0.892,-16.637 1.901,-15.429 2.456,-14.557L1.703,-13.983C1.148,-14.854 0.1,-16.122 -0.713,-16.875L0,-17.449ZM-2.436,-16.261C-1.525,-15.449 -0.534,-14.22 0.02,-13.349L-0.732,-12.775C-1.287,-13.646 -2.317,-14.934 -3.149,-15.686L-2.436,-16.261ZM-4.298,-1.347C-3.506,-1.366 -1.387,-1.446 -0.139,-1.644C-0.119,-1.208 -0.099,-0.654 -0.06,-0.218C-1.366,-0.079 -3.347,0 -4.159,0L-9.11,0C-12.102,0 -13.547,-1.307 -13.547,-4.139L-13.547,-15.686L-11.606,-15.568C-11.646,-15.369 -11.784,-15.251 -12.141,-15.211L-12.141,-8.754C-9.11,-9.705 -4.892,-11.289 -2.317,-12.676L-1.307,-11.309C-1.366,-11.27 -1.466,-11.25 -1.545,-11.25C-1.644,-11.25 -1.723,-11.27 -1.822,-11.309C-4.219,-10.101 -8.734,-8.437 -12.141,-7.407L-12.141,-4.1C-12.141,-2.099 -11.17,-1.347 -9.131,-1.347L-4.298,-1.347Z" style="fill-rule:nonzero;"/>
        </g>
    </g>
</svg>
