<?xml version="1.0" encoding="UTF-8" standalone="no"?>
<!DOCTYPE svg PUBLIC "-//W3C//DTD SVG 1.1//EN" "http://www.w3.org/Graphics/SVG/1.1/DTD/svg11.dtd">
<svg width="100%" height="100%" viewBox="0 0 19 19" version="1.1" xmlns="http://www.w3.org/2000/svg" xmlns:xlink="http://www.w3.org/1999/xlink" xml:space="preserve" xmlns:serif="http://www.serif.com/" style="fill-rule:evenodd;clip-rule:evenodd;stroke-linejoin:round;stroke-miterlimit:2;">
    <g transform="matrix(1,0,0,1,-643,-410)">
        <g id="bo" transform="matrix(1,0,0,1,658.822,428.068)">
            <path d="M0,-18.043C0.911,-17.231 1.941,-16.042 2.496,-15.171L1.743,-14.577C1.169,-15.448 0.1,-16.696 -0.732,-17.448L0,-18.043ZM-2.852,-17.151C-1.961,-16.359 -0.95,-15.151 -0.376,-14.26L-1.129,-13.686C-1.703,-14.557 -2.753,-15.845 -3.604,-16.558L-2.852,-17.151ZM-2.614,-9.091C-1.168,-7.486 0.495,-5.169 1.564,-3.327L0.297,-2.594C-0.673,-4.416 -2.416,-6.951 -3.743,-8.477L-2.614,-9.091ZM-6.159,-11.526L-6.159,-2.158C-6.159,0 -7.685,0 -10.854,0C-10.933,-0.356 -11.091,-0.931 -11.289,-1.326C-10.715,-1.307 -10.081,-1.307 -9.546,-1.307L-8.397,-1.307C-7.843,-1.307 -7.586,-1.663 -7.586,-2.139L-7.586,-11.526L-14.319,-11.526L-14.319,-12.854L-7.586,-12.854L-7.586,-16.974L-5.704,-16.874C-5.724,-16.676 -5.862,-16.537 -6.159,-16.498L-6.159,-12.854L0.535,-12.854L0.535,-11.526L-6.159,-11.526ZM-10.397,-8.477C-11.289,-6.159 -12.597,-4.119 -14.121,-2.614L-15.271,-3.366C-13.785,-4.753 -12.497,-6.654 -11.686,-8.952L-10.397,-8.477Z" style="fill-rule:nonzero;"/>
        </g>
    </g>
</svg>
