<?xml version="1.0" encoding="UTF-8" standalone="no"?>
<!DOCTYPE svg PUBLIC "-//W3C//DTD SVG 1.1//EN" "http://www.w3.org/Graphics/SVG/1.1/DTD/svg11.dtd">
<svg width="100%" height="100%" viewBox="0 0 31 19" version="1.1" xmlns="http://www.w3.org/2000/svg" xmlns:xlink="http://www.w3.org/1999/xlink" xml:space="preserve" xmlns:serif="http://www.serif.com/" style="fill-rule:evenodd;clip-rule:evenodd;stroke-linejoin:round;stroke-miterlimit:2;">
    <g transform="matrix(1,0,0,1,-62,-560)">
        <g id="bya">
            <g transform="matrix(1,0,0,1,75.5835,578.043)">
                <path d="M0,-17.449C0.892,-16.637 1.901,-15.428 2.456,-14.556L1.704,-13.982C1.149,-14.854 0.099,-16.122 -0.713,-16.874L0,-17.449ZM-2.436,-16.261C-1.525,-15.448 -0.535,-14.22 0.02,-13.348L-0.733,-12.774C-1.287,-13.646 -2.317,-14.933 -3.149,-15.686L-2.436,-16.261ZM-4.298,-1.346C-3.505,-1.366 -1.386,-1.445 -0.139,-1.643C-0.119,-1.208 -0.099,-0.653 -0.059,-0.218C-1.367,-0.079 -3.347,0 -4.159,0L-9.111,0C-12.101,0 -13.547,-1.306 -13.547,-4.139L-13.547,-15.686L-11.606,-15.567C-11.646,-15.369 -11.784,-15.25 -12.141,-15.211L-12.141,-8.754C-9.111,-9.705 -4.892,-11.289 -2.317,-12.676L-1.307,-11.308C-1.367,-11.269 -1.465,-11.25 -1.545,-11.25C-1.644,-11.25 -1.723,-11.269 -1.822,-11.308C-4.219,-10.1 -8.734,-8.437 -12.141,-7.407L-12.141,-4.099C-12.141,-2.099 -11.17,-1.346 -9.13,-1.346L-4.298,-1.346Z" style="fill-rule:nonzero;"/>
            </g>
            <g transform="matrix(1,0,0,1,92.6309,575.787)">
                <path d="M0,-7.528C-0.059,-7.468 -0.139,-7.409 -0.218,-7.389C-1.01,-5.349 -2.357,-3.369 -3.783,-1.903C-4.021,-2.121 -4.456,-2.398 -4.773,-2.576C-3.625,-3.626 -2.357,-5.467 -1.802,-6.795L-7.348,-5.567L-5.526,2.89L-6.694,3.148L-8.517,-5.309L-13.032,-4.28L-13.29,-5.388L-8.734,-6.399L-9.625,-10.518L-7.981,-10.676C-7.981,-10.518 -8.081,-10.4 -8.338,-10.281L-7.585,-6.676L-1.069,-8.083L-0.931,-8.181L0,-7.528Z" style="fill-rule:nonzero;"/>
            </g>
        </g>
    </g>
</svg>
