<?xml version="1.0" encoding="UTF-8" standalone="no"?>
<!DOCTYPE svg PUBLIC "-//W3C//DTD SVG 1.1//EN" "http://www.w3.org/Graphics/SVG/1.1/DTD/svg11.dtd">
<svg width="100%" height="100%" viewBox="0 0 31 18" version="1.1" xmlns="http://www.w3.org/2000/svg" xmlns:xlink="http://www.w3.org/1999/xlink" xml:space="preserve" xmlns:serif="http://www.serif.com/" style="fill-rule:evenodd;clip-rule:evenodd;stroke-linejoin:round;stroke-miterlimit:2;">
    <g transform="matrix(1,0,0,1,-379,-651)">
        <g id="cho">
            <g transform="matrix(1,0,0,1,395.601,660.147)">
                <path d="M0,-0.536L-6.912,-0.536C-7.348,3.267 -8.635,6.119 -12.478,8.298C-12.774,7.981 -13.25,7.605 -13.586,7.347C-10.021,5.406 -8.734,2.95 -8.318,-0.536L-16.399,-0.536L-16.399,-1.843L-8.219,-1.843C-8.12,-3.15 -8.12,-4.497 -8.101,-6.081C-10.121,-5.626 -12.735,-5.19 -14.914,-4.952C-15.013,-5.329 -15.151,-5.724 -15.33,-6.101C-8.378,-6.932 -4.277,-8.3 -3.05,-8.834L-2,-7.666C-2.079,-7.626 -2.158,-7.606 -2.258,-7.606C-2.337,-7.606 -2.396,-7.606 -2.476,-7.626C-3.585,-7.21 -5.348,-6.695 -6.912,-6.319L-6.259,-6.26C-6.278,-6.081 -6.417,-5.963 -6.675,-5.923C-6.694,-4.437 -6.714,-3.091 -6.793,-1.843L0,-1.843L0,-0.536Z" style="fill-rule:nonzero;"/>
            </g>
            <g transform="matrix(1,0,0,1,409.023,668.307)">
                <path d="M0,-12.042L0,0L-1.187,0L-1.187,-0.871L-10.081,-0.871L-10.081,-1.98L-1.187,-1.98L-1.187,-6.001L-9.289,-6.001L-9.289,-7.11L-1.187,-7.11L-1.187,-10.953L-9.586,-10.953L-9.586,-12.042L0,-12.042Z" style="fill-rule:nonzero;"/>
            </g>
        </g>
    </g>
</svg>
