<?xml version="1.0" encoding="UTF-8" standalone="no"?>
<!DOCTYPE svg PUBLIC "-//W3C//DTD SVG 1.1//EN" "http://www.w3.org/Graphics/SVG/1.1/DTD/svg11.dtd">
<svg width="100%" height="100%" viewBox="0 0 33 18" version="1.1" xmlns="http://www.w3.org/2000/svg" xmlns:xlink="http://www.w3.org/1999/xlink" xml:space="preserve" xmlns:serif="http://www.serif.com/" style="fill-rule:evenodd;clip-rule:evenodd;stroke-linejoin:round;stroke-miterlimit:2;">
    <g transform="matrix(1,0,0,1,-378,-606)">
        <g id="chu">
            <g transform="matrix(1,0,0,1,394.412,615.637)">
                <path d="M0,-0.536L-6.912,-0.536C-7.348,3.267 -8.635,6.119 -12.478,8.298C-12.774,7.981 -13.25,7.605 -13.586,7.347C-10.021,5.406 -8.734,2.95 -8.318,-0.536L-16.399,-0.536L-16.399,-1.843L-8.219,-1.843C-8.12,-3.15 -8.12,-4.497 -8.101,-6.081C-10.121,-5.626 -12.735,-5.19 -14.914,-4.952C-15.013,-5.329 -15.151,-5.724 -15.33,-6.101C-8.378,-6.932 -4.277,-8.3 -3.05,-8.834L-2,-7.666C-2.079,-7.626 -2.158,-7.606 -2.258,-7.606C-2.337,-7.606 -2.396,-7.606 -2.476,-7.626C-3.585,-7.21 -5.348,-6.695 -6.912,-6.319L-6.259,-6.26C-6.278,-6.081 -6.417,-5.963 -6.674,-5.923C-6.694,-4.437 -6.714,-3.091 -6.793,-1.843L0,-1.843L0,-0.536Z" style="fill-rule:nonzero;"/>
            </g>
            <g transform="matrix(1,0,0,1,410.192,613.102)">
                <path d="M0,8.04L0,9.189L-13.508,9.189L-13.508,8.04L-5.446,8.04C-5.13,6.04 -4.595,2.099 -4.396,0.078L-11.942,0.078L-11.942,-1.07L-4.001,-1.07L-3.763,-1.149L-2.792,-0.675C-2.813,-0.595 -2.911,-0.516 -3.03,-0.496C-3.287,1.584 -3.921,5.921 -4.258,8.04L0,8.04Z" style="fill-rule:nonzero;"/>
            </g>
        </g>
    </g>
</svg>
