<?xml version="1.0" encoding="UTF-8" standalone="no"?>
<!DOCTYPE svg PUBLIC "-//W3C//DTD SVG 1.1//EN" "http://www.w3.org/Graphics/SVG/1.1/DTD/svg11.dtd">
<svg width="100%" height="100%" viewBox="0 0 18 20" version="1.1" xmlns="http://www.w3.org/2000/svg" xmlns:xlink="http://www.w3.org/1999/xlink" xml:space="preserve" xmlns:serif="http://www.serif.com/" style="fill-rule:evenodd;clip-rule:evenodd;stroke-linejoin:round;stroke-miterlimit:2;">
    <g transform="matrix(1,0,0,1,-687,-230)">
        <g id="da" transform="matrix(1,0,0,1,702.127,249.144)">
            <path d="M0,-18.578C0.932,-17.845 2.1,-16.677 2.694,-15.845L1.922,-15.25C1.387,-16.062 0.159,-17.29 -0.692,-17.964L0,-18.578ZM-2.535,-17.845C-1.604,-17.112 -0.495,-15.924 0.1,-15.072L-0.653,-14.458C-1.208,-15.25 -2.376,-16.538 -3.248,-17.231L-2.535,-17.845ZM-0.713,-13.904C-0.732,-13.785 -0.831,-13.745 -0.95,-13.686C-1.663,-11.289 -2.614,-9.051 -3.822,-7.15C-2.971,-6.655 -1.921,-6.041 -1.187,-5.526L-2.02,-4.239C-2.732,-4.793 -3.822,-5.447 -4.654,-5.942C-6.477,-3.427 -8.754,-1.406 -11.765,0C-11.962,-0.337 -12.478,-0.812 -12.834,-1.05C-9.942,-2.357 -7.685,-4.278 -5.882,-6.655C-7.348,-7.467 -8.873,-8.2 -10.318,-8.734L-9.546,-9.824C-8.101,-9.289 -6.556,-8.596 -5.05,-7.804C-4.04,-9.349 -3.208,-11.25 -2.674,-13.052L-9.209,-13.052C-10.477,-10.913 -12.042,-8.972 -13.666,-7.645C-13.903,-7.883 -14.458,-8.318 -14.774,-8.536C-12.2,-10.517 -9.922,-13.983 -8.734,-17.37L-6.892,-16.835C-6.972,-16.617 -7.209,-16.557 -7.446,-16.578C-7.724,-15.865 -8.08,-15.092 -8.457,-14.379L-2.04,-14.379L-1.861,-14.438L-0.713,-13.904Z" style="fill-rule:nonzero;"/>
        </g>
    </g>
</svg>
