<?xml version="1.0" encoding="UTF-8" standalone="no"?>
<!DOCTYPE svg PUBLIC "-//W3C//DTD SVG 1.1//EN" "http://www.w3.org/Graphics/SVG/1.1/DTD/svg11.dtd">
<svg width="100%" height="100%" viewBox="0 0 18 20" version="1.1" xmlns="http://www.w3.org/2000/svg" xmlns:xlink="http://www.w3.org/1999/xlink" xml:space="preserve" xmlns:serif="http://www.serif.com/" style="fill-rule:evenodd;clip-rule:evenodd;stroke-linejoin:round;stroke-miterlimit:2;">
    <g transform="matrix(1,0,0,1,-687,-364)">
        <g id="de" transform="matrix(1,0,0,1,702.346,383.168)">
            <path d="M0,-18.479C0.812,-17.627 1.763,-16.281 2.238,-15.37L1.427,-14.875C1.011,-15.746 0.021,-17.152 -0.752,-17.964L0,-18.479ZM-2.337,-17.806C-1.524,-16.954 -0.613,-15.607 -0.158,-14.676L-0.95,-14.142C-1.366,-15.053 -2.317,-16.459 -3.109,-17.271L-2.337,-17.806ZM-2.594,-14.895L-13.587,-14.895L-13.587,-16.222L-2.594,-16.222L-2.594,-14.895ZM0.317,-9.487L-6.219,-9.487L-5.882,-9.388C-5.901,-9.27 -6.061,-9.17 -6.278,-9.15C-6.793,-5.566 -8.417,-2 -12.398,0C-12.616,-0.258 -13.131,-0.713 -13.468,-0.971C-9.566,-2.912 -8.199,-5.922 -7.744,-9.487L-15.31,-9.487L-15.31,-10.814L0.317,-10.814L0.317,-9.487Z" style="fill-rule:nonzero;"/>
        </g>
    </g>
</svg>
