<?xml version="1.0" encoding="UTF-8" standalone="no"?>
<!DOCTYPE svg PUBLIC "-//W3C//DTD SVG 1.1//EN" "http://www.w3.org/Graphics/SVG/1.1/DTD/svg11.dtd">
<svg width="100%" height="100%" viewBox="0 0 19 18" version="1.1" xmlns="http://www.w3.org/2000/svg" xmlns:xlink="http://www.w3.org/1999/xlink" xml:space="preserve" xmlns:serif="http://www.serif.com/" style="fill-rule:evenodd;clip-rule:evenodd;stroke-linejoin:round;stroke-miterlimit:2;">
    <g transform="matrix(1,0,0,1,-688,-276)">
        <g id="di" transform="matrix(1,0,0,1,703.731,293.638)">
            <path d="M0,-17.211C0.871,-16.439 1.961,-15.25 2.516,-14.359L1.703,-13.824C1.169,-14.636 0.079,-15.923 -0.753,-16.636L0,-17.211ZM-1.842,-14.854C-0.971,-14.121 0.079,-12.873 0.634,-11.982L-0.198,-11.447C-0.693,-12.259 -1.802,-13.566 -2.614,-14.279L-1.842,-14.854ZM0.832,-8.873L-6.1,-8.873C-6.536,-5.07 -7.823,-2.158 -11.666,0C-11.942,-0.316 -12.418,-0.692 -12.774,-0.95C-9.21,-2.891 -7.922,-5.387 -7.526,-8.873L-15.567,-8.873L-15.567,-10.18L-7.407,-10.18C-7.328,-11.487 -7.309,-12.814 -7.288,-14.398C-9.328,-13.962 -11.923,-13.527 -14.121,-13.289C-14.201,-13.646 -14.359,-14.062 -14.518,-14.438C-11.844,-14.755 -9.289,-15.171 -7.051,-15.706C-5.09,-16.181 -3.387,-16.696 -2.377,-17.131L-1.327,-15.963C-1.387,-15.923 -1.485,-15.903 -1.604,-15.903C-1.664,-15.903 -1.723,-15.903 -1.782,-15.923C-2.892,-15.527 -4.556,-15.012 -6.1,-14.636L-5.446,-14.577C-5.467,-14.418 -5.604,-14.279 -5.882,-14.24C-5.882,-12.754 -5.902,-11.427 -6.001,-10.18L0.832,-10.18L0.832,-8.873Z" style="fill-rule:nonzero;"/>
        </g>
    </g>
</svg>
