<?xml version="1.0" encoding="UTF-8" standalone="no"?>
<!DOCTYPE svg PUBLIC "-//W3C//DTD SVG 1.1//EN" "http://www.w3.org/Graphics/SVG/1.1/DTD/svg11.dtd">
<svg width="100%" height="100%" viewBox="0 0 13 19" version="1.1" xmlns="http://www.w3.org/2000/svg" xmlns:xlink="http://www.w3.org/1999/xlink" xml:space="preserve" xmlns:serif="http://www.serif.com/" style="fill-rule:evenodd;clip-rule:evenodd;stroke-linejoin:round;stroke-miterlimit:2;">
    <g transform="matrix(1,0,0,1,-690,-410)">
        <g id="do" transform="matrix(1,0,0,1,699.335,428.108)">
            <path d="M0,-17.687C0.931,-16.915 2.119,-15.667 2.714,-14.795L2.001,-14.181C1.387,-15.034 0.179,-16.34 -0.713,-17.074L0,-17.687ZM-2.654,-15.984C-1.743,-15.231 -0.555,-13.984 0.079,-13.073L-0.673,-12.458C-1.268,-13.31 -2.476,-14.637 -3.367,-15.35L-2.654,-15.984ZM-0.574,-6.656C-2.595,-7.745 -5.367,-9.032 -7.526,-9.883L-7.526,0L-9.012,0L-9.012,-17.212L-7.011,-17.093C-7.031,-16.875 -7.189,-16.737 -7.526,-16.677L-7.526,-10.854L-7.229,-11.29C-4.912,-10.438 -1.842,-9.072 0.218,-7.982L-0.574,-6.656Z" style="fill-rule:nonzero;"/>
        </g>
    </g>
</svg>
