<?xml version="1.0" encoding="UTF-8" standalone="no"?>
<!DOCTYPE svg PUBLIC "-//W3C//DTD SVG 1.1//EN" "http://www.w3.org/Graphics/SVG/1.1/DTD/svg11.dtd">
<svg width="100%" height="100%" viewBox="0 0 18 19" version="1.1" xmlns="http://www.w3.org/2000/svg" xmlns:xlink="http://www.w3.org/1999/xlink" xml:space="preserve" xmlns:serif="http://www.serif.com/" style="fill-rule:evenodd;clip-rule:evenodd;stroke-linejoin:round;stroke-miterlimit:2;">
    <g transform="matrix(1,0,0,1,-686,-320)">
        <g id="du" transform="matrix(1,0,0,1,701.534,338.748)">
            <path d="M0,-18.142C0.872,-17.29 1.843,-16.042 2.357,-15.151L1.565,-14.597C1.109,-15.468 0.04,-16.835 -0.732,-17.587L0,-18.142ZM-3.308,-17.666C-2.436,-16.815 -1.445,-15.547 -0.95,-14.656L-1.723,-14.101C-2.198,-14.973 -3.268,-16.359 -4.021,-17.112L-3.308,-17.666ZM-7.169,-15.369C-6.694,-13.745 -6.238,-11.269 -6.14,-9.744L-7.565,-9.507C-7.664,-11.071 -8.08,-13.448 -8.556,-15.112L-7.169,-15.369ZM1.327,-13.705C1.248,-13.527 1.07,-13.468 0.812,-13.468C-1.208,-6.912 -4.714,-2.455 -10.556,0C-10.734,-0.297 -11.21,-0.792 -11.487,-1.069C-5.684,-3.485 -2.436,-7.585 -0.495,-14.379L1.327,-13.705ZM-13.389,-14.3C-12.636,-12.794 -11.823,-10.398 -11.566,-8.972L-12.894,-8.576C-13.15,-9.962 -13.923,-12.339 -14.676,-13.864L-13.389,-14.3Z" style="fill-rule:nonzero;"/>
        </g>
    </g>
</svg>
