<?xml version="1.0" encoding="UTF-8" standalone="no"?>
<!DOCTYPE svg PUBLIC "-//W3C//DTD SVG 1.1//EN" "http://www.w3.org/Graphics/SVG/1.1/DTD/svg11.dtd">
<svg width="100%" height="100%" viewBox="0 0 19 19" version="1.1" xmlns="http://www.w3.org/2000/svg" xmlns:xlink="http://www.w3.org/1999/xlink" xml:space="preserve" xmlns:serif="http://www.serif.com/" style="fill-rule:evenodd;clip-rule:evenodd;stroke-linejoin:round;stroke-miterlimit:2;">
    <g transform="matrix(1,0,0,1,-777,-230)">
        <g id="ga" transform="matrix(1,0,0,1,792.801,248.926)">
            <path d="M0,-18.063C0.871,-17.231 1.98,-15.924 2.515,-15.033L1.703,-14.479C1.208,-15.31 0.079,-16.716 -0.733,-17.509L0,-18.063ZM-3.09,-17.192C-2.199,-16.399 -1.129,-15.053 -0.595,-14.142L-1.387,-13.587C-1.882,-14.419 -3.011,-15.865 -3.843,-16.657L-3.09,-17.192ZM0.257,-12.418C0.237,-12.339 0.178,-12.24 0.099,-12.181C-0.179,-6.457 -0.733,-2.912 -1.506,-1.505C-2.298,-0.08 -3.525,-0.06 -4.1,-0.06C-4.853,-0.06 -6.259,-0.238 -7.626,-0.535C-7.605,-0.931 -7.646,-1.525 -7.685,-1.921C-6.199,-1.605 -4.675,-1.446 -4.219,-1.446C-3.506,-1.446 -3.109,-1.625 -2.714,-2.377C-2.1,-3.565 -1.624,-6.873 -1.427,-11.329L-7.744,-11.329C-8.755,-6.596 -10.715,-2.714 -14.28,0C-14.538,-0.258 -15.053,-0.654 -15.409,-0.892C-12.003,-3.446 -10.2,-6.813 -9.229,-11.349L-14.696,-11.349L-14.696,-12.676L-8.973,-12.676C-8.734,-14.063 -8.596,-15.35 -8.497,-17.014L-6.536,-16.835C-6.556,-16.637 -6.754,-16.519 -7.031,-16.479C-7.15,-15.033 -7.27,-13.924 -7.487,-12.656L-1.05,-12.656L-0.753,-12.775L0.257,-12.418Z" style="fill-rule:nonzero;"/>
        </g>
    </g>
</svg>
