<?xml version="1.0" encoding="UTF-8" standalone="no"?>
<!DOCTYPE svg PUBLIC "-//W3C//DTD SVG 1.1//EN" "http://www.w3.org/Graphics/SVG/1.1/DTD/svg11.dtd">
<svg width="100%" height="100%" viewBox="0 0 19 20" version="1.1" xmlns="http://www.w3.org/2000/svg" xmlns:xlink="http://www.w3.org/1999/xlink" xml:space="preserve" xmlns:serif="http://www.serif.com/" style="fill-rule:evenodd;clip-rule:evenodd;stroke-linejoin:round;stroke-miterlimit:2;">
    <g transform="matrix(1,0,0,1,-778,-364)">
        <g id="ge" transform="matrix(1,0,0,1,793.494,383.207)">
            <path d="M0,-18.222C0.911,-17.45 1.98,-16.222 2.535,-15.35L1.763,-14.756C1.188,-15.687 0.158,-16.875 -0.713,-17.628L0,-18.222ZM-2.793,-17.113C-1.882,-16.36 -0.812,-15.093 -0.258,-14.221L-1.03,-13.647C-1.604,-14.558 -2.634,-15.766 -3.506,-16.518L-2.793,-17.113ZM1.367,-12.597L1.367,-11.25L-3.545,-11.25C-3.604,-11.132 -3.724,-11.033 -3.901,-11.013C-4.496,-6.418 -6.357,-2.417 -10.537,0C-10.854,-0.298 -11.389,-0.654 -11.765,-0.892C-7.704,-3.09 -5.823,-6.814 -5.328,-11.25L-10.834,-11.25C-11.745,-9.626 -12.894,-8.16 -13.963,-7.17C-14.26,-7.388 -14.814,-7.685 -15.211,-7.864C-13.072,-9.705 -10.774,-13.568 -9.823,-17.251L-7.922,-16.816C-7.962,-16.677 -8.141,-16.518 -8.457,-16.518C-8.873,-15.291 -9.546,-13.785 -10.141,-12.597L1.367,-12.597Z" style="fill-rule:nonzero;"/>
        </g>
    </g>
</svg>
