<?xml version="1.0" encoding="UTF-8" standalone="no"?>
<!DOCTYPE svg PUBLIC "-//W3C//DTD SVG 1.1//EN" "http://www.w3.org/Graphics/SVG/1.1/DTD/svg11.dtd">
<svg width="100%" height="100%" viewBox="0 0 19 19" version="1.1" xmlns="http://www.w3.org/2000/svg" xmlns:xlink="http://www.w3.org/1999/xlink" xml:space="preserve" xmlns:serif="http://www.serif.com/" style="fill-rule:evenodd;clip-rule:evenodd;stroke-linejoin:round;stroke-miterlimit:2;">
    <g transform="matrix(1,0,0,1,-777,-275)">
        <g id="gi" transform="matrix(1,0,0,1,792.959,293.579)">
            <path d="M0,-18.439C0.91,-17.667 2.02,-16.459 2.594,-15.587L1.782,-15.013C1.247,-15.864 0.099,-17.112 -0.733,-17.825L0,-18.439ZM-2.437,-17.152C-1.525,-16.379 -0.476,-15.171 0.099,-14.26L-0.693,-13.706C-1.229,-14.557 -2.317,-15.805 -3.169,-16.558L-2.437,-17.152ZM-6.596,-6.357L-5.883,-0.158L-7.309,0L-7.982,-6.179L-15.409,-5.209L-15.568,-6.536L-8.141,-7.486L-8.655,-11.943L-14.875,-11.131L-15.053,-12.458L-8.794,-13.25L-9.25,-17.211L-7.309,-17.271C-7.309,-17.092 -7.467,-16.934 -7.765,-16.855L-7.388,-13.448L-1.545,-14.201L-1.387,-12.854L-7.229,-12.101L-6.734,-7.665L0.732,-8.615L0.871,-7.308L-6.596,-6.357Z" style="fill-rule:nonzero;"/>
        </g>
    </g>
</svg>
