<?xml version="1.0" encoding="UTF-8" standalone="no"?>
<!DOCTYPE svg PUBLIC "-//W3C//DTD SVG 1.1//EN" "http://www.w3.org/Graphics/SVG/1.1/DTD/svg11.dtd">
<svg width="100%" height="100%" viewBox="0 0 17 19" version="1.1" xmlns="http://www.w3.org/2000/svg" xmlns:xlink="http://www.w3.org/1999/xlink" xml:space="preserve" xmlns:serif="http://www.serif.com/" style="fill-rule:evenodd;clip-rule:evenodd;stroke-linejoin:round;stroke-miterlimit:2;">
    <g transform="matrix(1,0,0,1,-778,-409)">
        <g id="go" transform="matrix(1,0,0,1,792.385,427.257)">
            <path d="M0,-17.548C0.931,-16.796 2,-15.608 2.574,-14.716L1.822,-14.122C1.228,-15.033 0.198,-16.201 -0.693,-16.935L0,-17.548ZM-2.555,-16.954C-1.624,-16.201 -0.555,-14.974 0.039,-14.102L-0.733,-13.508C-1.308,-14.419 -2.357,-15.608 -3.248,-16.34L-2.555,-16.954ZM-0.476,-13.171L-0.476,0L-1.921,0L-1.921,-1.069L-14.359,-1.069L-14.359,-2.417L-1.921,-2.417L-1.921,-11.844L-14.142,-11.844L-14.142,-13.171L-0.476,-13.171Z" style="fill-rule:nonzero;"/>
        </g>
    </g>
</svg>
