<?xml version="1.0" encoding="UTF-8" standalone="no"?>
<!DOCTYPE svg PUBLIC "-//W3C//DTD SVG 1.1//EN" "http://www.w3.org/Graphics/SVG/1.1/DTD/svg11.dtd">
<svg width="100%" height="100%" viewBox="0 0 19 20" version="1.1" xmlns="http://www.w3.org/2000/svg" xmlns:xlink="http://www.w3.org/1999/xlink" xml:space="preserve" xmlns:serif="http://www.serif.com/" style="fill-rule:evenodd;clip-rule:evenodd;stroke-linejoin:round;stroke-miterlimit:2;">
    <g transform="matrix(1,0,0,1,-778,-320)">
        <g id="gu" transform="matrix(1,0,0,1,793.533,339.283)">
            <path d="M0,-18.677C0.932,-17.924 2.021,-16.736 2.595,-15.864L1.862,-15.25C1.268,-16.142 0.238,-17.29 -0.693,-18.043L0,-18.677ZM-2.871,-18.102C-1.94,-17.35 -0.852,-16.142 -0.277,-15.29L-1.01,-14.656C-1.604,-15.567 -2.674,-16.736 -3.564,-17.469L-2.871,-18.102ZM-0.416,-13.547C-0.495,-13.428 -0.594,-13.329 -0.713,-13.25C-2.813,-6.694 -6.061,-2.733 -11.428,0C-11.646,-0.337 -12.042,-0.792 -12.438,-1.089C-7.348,-3.565 -4.159,-7.368 -2.476,-12.755L-9.467,-12.755C-10.615,-10.972 -12.081,-9.309 -13.844,-7.922C-14.102,-8.199 -14.577,-8.576 -14.953,-8.814C-12.26,-10.834 -10.021,-13.963 -8.675,-17.489L-6.812,-16.973C-6.872,-16.776 -7.11,-16.696 -7.367,-16.716C-7.764,-15.825 -8.219,-14.874 -8.675,-14.082L-1.782,-14.082L-1.545,-14.201L-0.416,-13.547Z" style="fill-rule:nonzero;"/>
        </g>
    </g>
</svg>
