<?xml version="1.0" encoding="UTF-8" standalone="no"?>
<!DOCTYPE svg PUBLIC "-//W3C//DTD SVG 1.1//EN" "http://www.w3.org/Graphics/SVG/1.1/DTD/svg11.dtd">
<svg width="100%" height="100%" viewBox="0 0 31 20" version="1.1" xmlns="http://www.w3.org/2000/svg" xmlns:xlink="http://www.w3.org/1999/xlink" xml:space="preserve" xmlns:serif="http://www.serif.com/" style="fill-rule:evenodd;clip-rule:evenodd;stroke-linejoin:round;stroke-miterlimit:2;">
    <g transform="matrix(1,0,0,1,-153,-649)">
        <g id="gyo">
            <g transform="matrix(1,0,0,1,169.29,668.366)">
                <path d="M0,-18.439C0.911,-17.667 2.02,-16.459 2.595,-15.587L1.783,-15.012C1.248,-15.865 0.099,-17.112 -0.733,-17.825L0,-18.439ZM-2.436,-17.152C-1.525,-16.379 -0.475,-15.171 0.099,-14.26L-0.693,-13.706C-1.228,-14.557 -2.317,-15.805 -3.169,-16.557L-2.436,-17.152ZM-6.595,-6.358L-5.882,-0.159L-7.308,0L-7.982,-6.179L-15.409,-5.209L-15.567,-6.536L-8.14,-7.487L-8.655,-11.943L-14.874,-11.13L-15.052,-12.458L-8.794,-13.25L-9.25,-17.211L-7.308,-17.27C-7.308,-17.092 -7.467,-16.934 -7.764,-16.855L-7.388,-13.448L-1.545,-14.201L-1.386,-12.854L-7.229,-12.101L-6.734,-7.665L0.733,-8.616L0.872,-7.308L-6.595,-6.358Z" style="fill-rule:nonzero;"/>
            </g>
            <g transform="matrix(1,0,0,1,183.842,668.307)">
                <path d="M0,-12.042L0,0L-1.188,0L-1.188,-0.871L-10.081,-0.871L-10.081,-1.98L-1.188,-1.98L-1.188,-6.001L-9.289,-6.001L-9.289,-7.11L-1.188,-7.11L-1.188,-10.953L-9.586,-10.953L-9.586,-12.042L0,-12.042Z" style="fill-rule:nonzero;"/>
            </g>
        </g>
    </g>
</svg>
