<?xml version="1.0" encoding="UTF-8" standalone="no"?>
<!DOCTYPE svg PUBLIC "-//W3C//DTD SVG 1.1//EN" "http://www.w3.org/Graphics/SVG/1.1/DTD/svg11.dtd">
<svg width="100%" height="100%" viewBox="0 0 34 19" version="1.1" xmlns="http://www.w3.org/2000/svg" xmlns:xlink="http://www.w3.org/1999/xlink" xml:space="preserve" xmlns:serif="http://www.serif.com/" style="fill-rule:evenodd;clip-rule:evenodd;stroke-linejoin:round;stroke-miterlimit:2;">
    <g transform="matrix(1,0,0,1,-152,-605)">
        <g id="gyu">
            <g transform="matrix(1,0,0,1,168.102,623.855)">
                <path d="M0,-18.439C0.911,-17.667 2.02,-16.459 2.595,-15.587L1.783,-15.012C1.248,-15.865 0.099,-17.112 -0.733,-17.825L0,-18.439ZM-2.436,-17.152C-1.525,-16.379 -0.475,-15.171 0.099,-14.26L-0.693,-13.706C-1.228,-14.557 -2.317,-15.805 -3.169,-16.557L-2.436,-17.152ZM-6.595,-6.358L-5.882,-0.158L-7.308,0L-7.982,-6.179L-15.409,-5.209L-15.567,-6.536L-8.14,-7.487L-8.655,-11.943L-14.874,-11.13L-15.052,-12.458L-8.794,-13.25L-9.25,-17.211L-7.308,-17.271C-7.308,-17.092 -7.467,-16.934 -7.764,-16.855L-7.388,-13.448L-1.545,-14.201L-1.386,-12.854L-7.229,-12.101L-6.734,-7.665L0.733,-8.616L0.872,-7.308L-6.595,-6.358Z" style="fill-rule:nonzero;"/>
            </g>
            <g transform="matrix(1,0,0,1,185.407,613.102)">
                <path d="M0,8.04L0,9.189L-13.508,9.189L-13.508,8.04L-5.447,8.04C-5.13,6.04 -4.595,2.099 -4.397,0.078L-11.943,0.078L-11.943,-1.07L-4.001,-1.07L-3.763,-1.149L-2.793,-0.675C-2.813,-0.595 -2.912,-0.516 -3.031,-0.496C-3.288,1.584 -3.922,5.921 -4.258,8.04L0,8.04Z" style="fill-rule:nonzero;"/>
            </g>
        </g>
    </g>
</svg>
