<?xml version="1.0" encoding="UTF-8" standalone="no"?>
<!DOCTYPE svg PUBLIC "-//W3C//DTD SVG 1.1//EN" "http://www.w3.org/Graphics/SVG/1.1/DTD/svg11.dtd">
<svg width="100%" height="100%" viewBox="0 0 19 15" version="1.1" xmlns="http://www.w3.org/2000/svg" xmlns:xlink="http://www.w3.org/1999/xlink" xml:space="preserve" xmlns:serif="http://www.serif.com/" style="fill-rule:evenodd;clip-rule:evenodd;stroke-linejoin:round;stroke-miterlimit:2;">
    <g transform="matrix(1,0,0,1,-249,-234)">
        <g id="ha" transform="matrix(1,0,0,1,262.152,248.076)">
            <path d="M0,-13.686C2.179,-10.002 4.536,-4.199 5.407,-0.673L3.961,-0.099C3.07,-3.585 0.772,-9.526 -1.347,-13.111L0,-13.686ZM-6.239,-13.052C-6.298,-12.874 -6.457,-12.775 -6.754,-12.735C-7.566,-8.041 -9.091,-3.03 -11.487,0C-11.864,-0.257 -12.418,-0.495 -12.814,-0.673C-10.438,-3.565 -8.933,-8.417 -8.239,-13.488L-6.239,-13.052Z" style="fill-rule:nonzero;"/>
        </g>
    </g>
</svg>
