<?xml version="1.0" encoding="UTF-8" standalone="no"?>
<!DOCTYPE svg PUBLIC "-//W3C//DTD SVG 1.1//EN" "http://www.w3.org/Graphics/SVG/1.1/DTD/svg11.dtd">
<svg width="100%" height="100%" viewBox="0 0 19 14" version="1.1" xmlns="http://www.w3.org/2000/svg" xmlns:xlink="http://www.w3.org/1999/xlink" xml:space="preserve" xmlns:serif="http://www.serif.com/" style="fill-rule:evenodd;clip-rule:evenodd;stroke-linejoin:round;stroke-miterlimit:2;">
    <g transform="matrix(1,0,0,1,-249,-368)">
        <g id="he" transform="matrix(1,0,0,1,249.199,374.355)">
            <path d="M0,1.584C1.505,0 4.417,-3.269 5.545,-4.477C6.199,-5.13 6.714,-5.447 7.309,-5.447C7.982,-5.447 8.438,-5.091 9.21,-4.397C11.547,-2.278 15.468,2.059 18.558,5.941L17.37,7.031C14.438,3.168 10.478,-1.367 8.497,-3.189C8.021,-3.665 7.744,-3.962 7.368,-3.962C7.11,-3.962 6.773,-3.665 6.338,-3.249C5.407,-2.239 2.733,0.871 1.406,2.297C1.426,2.336 1.426,2.396 1.426,2.436C1.426,2.594 1.347,2.752 1.228,2.852L0,1.584Z" style="fill-rule:nonzero;"/>
        </g>
    </g>
</svg>
