<?xml version="1.0" encoding="UTF-8" standalone="no"?>
<!DOCTYPE svg PUBLIC "-//W3C//DTD SVG 1.1//EN" "http://www.w3.org/Graphics/SVG/1.1/DTD/svg11.dtd">
<svg width="100%" height="100%" viewBox="0 0 14 16" version="1.1" xmlns="http://www.w3.org/2000/svg" xmlns:xlink="http://www.w3.org/1999/xlink" xml:space="preserve" xmlns:serif="http://www.serif.com/" style="fill-rule:evenodd;clip-rule:evenodd;stroke-linejoin:round;stroke-miterlimit:2;">
    <g transform="matrix(1,0,0,1,-252,-277)">
        <g id="hi" transform="matrix(1,0,0,1,261.26,278.569)">
            <path d="M0,12.992C0.792,12.972 2.912,12.893 4.159,12.695C4.179,13.131 4.199,13.685 4.239,14.121C2.931,14.26 0.951,14.339 0.139,14.339L-4.813,14.339C-7.803,14.339 -9.25,13.032 -9.25,10.2L-9.25,-1.347L-7.308,-1.229C-7.348,-1.03 -7.486,-0.912 -7.843,-0.872L-7.843,5.584C-4.833,4.674 -0.653,3.089 1.98,1.663L2.991,3.03C2.931,3.069 2.833,3.089 2.753,3.089C2.654,3.089 2.575,3.069 2.476,3.03C0.079,4.238 -4.437,5.901 -7.843,6.931L-7.843,10.239C-7.843,12.239 -6.873,12.992 -4.833,12.992L0,12.992Z" style="fill-rule:nonzero;"/>
        </g>
    </g>
</svg>
