<?xml version="1.0" encoding="UTF-8" standalone="no"?>
<!DOCTYPE svg PUBLIC "-//W3C//DTD SVG 1.1//EN" "http://www.w3.org/Graphics/SVG/1.1/DTD/svg11.dtd">
<svg width="100%" height="100%" viewBox="0 0 31 17" version="1.1" xmlns="http://www.w3.org/2000/svg" xmlns:xlink="http://www.w3.org/1999/xlink" xml:space="preserve" xmlns:serif="http://www.serif.com/" style="fill-rule:evenodd;clip-rule:evenodd;stroke-linejoin:round;stroke-miterlimit:2;">
    <g transform="matrix(1,0,0,1,-288,-562)">
        <g id="hya">
            <g transform="matrix(1,0,0,1,297.576,563.586)">
                <path d="M0,12.991C0.792,12.971 2.912,12.892 4.159,12.694C4.179,13.13 4.199,13.684 4.239,14.12C2.931,14.259 0.951,14.339 0.139,14.339L-4.813,14.339C-7.803,14.339 -9.25,13.031 -9.25,10.199L-9.25,-1.348L-7.308,-1.23C-7.348,-1.031 -7.486,-0.912 -7.843,-0.872L-7.843,5.584C-4.833,4.673 -0.653,3.089 1.98,1.663L2.991,3.029C2.931,3.068 2.833,3.089 2.753,3.089C2.654,3.089 2.575,3.068 2.476,3.029C0.079,4.237 -4.437,5.901 -7.843,6.93L-7.843,10.238C-7.843,12.239 -6.873,12.991 -4.833,12.991L0,12.991Z" style="fill-rule:nonzero;"/>
            </g>
            <g transform="matrix(1,0,0,1,318.129,575.787)">
                <path d="M0,-7.528C-0.059,-7.468 -0.139,-7.409 -0.218,-7.389C-1.01,-5.349 -2.357,-3.369 -3.783,-1.903C-4.021,-2.121 -4.456,-2.398 -4.773,-2.576C-3.625,-3.626 -2.357,-5.467 -1.802,-6.795L-7.348,-5.567L-5.526,2.89L-6.694,3.148L-8.517,-5.309L-13.032,-4.28L-13.29,-5.388L-8.734,-6.399L-9.625,-10.518L-7.981,-10.676C-7.981,-10.518 -8.081,-10.4 -8.338,-10.281L-7.585,-6.676L-1.069,-8.083L-0.931,-8.181L0,-7.528Z" style="fill-rule:nonzero;"/>
            </g>
        </g>
    </g>
</svg>
