<?xml version="1.0" encoding="UTF-8" standalone="no"?>
<!DOCTYPE svg PUBLIC "-//W3C//DTD SVG 1.1//EN" "http://www.w3.org/Graphics/SVG/1.1/DTD/svg11.dtd">
<svg width="100%" height="100%" viewBox="0 0 31 16" version="1.1" xmlns="http://www.w3.org/2000/svg" xmlns:xlink="http://www.w3.org/1999/xlink" xml:space="preserve" xmlns:serif="http://www.serif.com/" style="fill-rule:evenodd;clip-rule:evenodd;stroke-linejoin:round;stroke-miterlimit:2;">
    <g transform="matrix(1,0,0,1,-288,-607)">
        <g id="hyu">
            <g transform="matrix(1,0,0,1,297.477,608.585)">
                <path d="M0,12.991C0.792,12.971 2.912,12.892 4.159,12.694C4.179,13.13 4.199,13.684 4.239,14.12C2.931,14.259 0.951,14.339 0.139,14.339L-4.813,14.339C-7.803,14.339 -9.25,13.031 -9.25,10.199L-9.25,-1.348L-7.308,-1.23C-7.348,-1.031 -7.486,-0.912 -7.843,-0.872L-7.843,5.584C-4.833,4.673 -0.653,3.089 1.98,1.663L2.991,3.029C2.931,3.069 2.833,3.089 2.753,3.089C2.654,3.089 2.575,3.069 2.476,3.029C0.079,4.237 -4.437,5.901 -7.843,6.93L-7.843,10.238C-7.843,12.239 -6.873,12.991 -4.833,12.991L0,12.991Z" style="fill-rule:nonzero;"/>
            </g>
            <g transform="matrix(1,0,0,1,318.051,613.101)">
                <path d="M0,8.04L0,9.189L-13.508,9.189L-13.508,8.04L-5.447,8.04C-5.13,6.04 -4.595,2.099 -4.397,0.078L-11.943,0.078L-11.943,-1.07L-4.001,-1.07L-3.763,-1.149L-2.793,-0.675C-2.813,-0.595 -2.912,-0.516 -3.031,-0.496C-3.288,1.584 -3.922,5.921 -4.258,8.04L0,8.04Z" style="fill-rule:nonzero;"/>
            </g>
        </g>
    </g>
</svg>
