<?xml version="1.0" encoding="UTF-8" standalone="no"?>
<!DOCTYPE svg PUBLIC "-//W3C//DTD SVG 1.1//EN" "http://www.w3.org/Graphics/SVG/1.1/DTD/svg11.dtd">
<svg width="100%" height="100%" viewBox="0 0 17 18" version="1.1" xmlns="http://www.w3.org/2000/svg" xmlns:xlink="http://www.w3.org/1999/xlink" xml:space="preserve" xmlns:serif="http://www.serif.com/" style="fill-rule:evenodd;clip-rule:evenodd;stroke-linejoin:round;stroke-miterlimit:2;">
    <g transform="matrix(1,0,0,1,-476,-276)">
        <g id="i" transform="matrix(1,0,0,1,492.393,292.709)">
            <path d="M0,-14.874C-0.079,-14.775 -0.198,-14.716 -0.376,-14.716C-0.436,-14.716 -0.495,-14.716 -0.574,-14.735C-2.1,-13.19 -4.298,-11.388 -6.219,-10.002C-6.061,-9.942 -5.823,-9.824 -5.744,-9.784C-5.783,-9.665 -5.962,-9.546 -6.18,-9.526L-6.18,1.109L-7.625,1.109L-7.625,-9.071C-9.725,-7.585 -12.458,-5.981 -15.172,-4.654C-15.369,-4.971 -15.726,-5.466 -16.003,-5.744C-10.597,-8.239 -4.674,-12.478 -1.485,-15.983L0,-14.874Z" style="fill-rule:nonzero;"/>
        </g>
    </g>
</svg>
