<?xml version="1.0" encoding="UTF-8" standalone="no"?>
<!DOCTYPE svg PUBLIC "-//W3C//DTD SVG 1.1//EN" "http://www.w3.org/Graphics/SVG/1.1/DTD/svg11.dtd">
<svg width="100%" height="100%" viewBox="0 0 34 19" version="1.1" xmlns="http://www.w3.org/2000/svg" xmlns:xlink="http://www.w3.org/1999/xlink" xml:space="preserve" xmlns:serif="http://www.serif.com/" style="fill-rule:evenodd;clip-rule:evenodd;stroke-linejoin:round;stroke-miterlimit:2;">
    <g transform="matrix(1,0,0,1,-105,-560)">
        <g id="ja">
            <g transform="matrix(1,0,0,1,120.629,578.578)">
                <path d="M0,-18.004C0.812,-17.311 1.941,-16.063 2.575,-15.151L1.802,-14.577C1.208,-15.449 0.099,-16.717 -0.713,-17.43L0,-18.004ZM-2.753,-16.796C-1.941,-16.103 -0.812,-14.874 -0.198,-13.924L-0.97,-13.35C-1.525,-14.201 -2.674,-15.528 -3.486,-16.241L-2.753,-16.796ZM-12.022,-16.142C-10.24,-15.667 -8.061,-14.874 -6.714,-14.201L-7.368,-12.993C-8.774,-13.706 -10.834,-14.498 -12.616,-14.993L-12.022,-16.142ZM-13.012,-1.545C-6.655,-3.684 -2.159,-7.17 0.456,-13.072C0.753,-12.815 1.347,-12.379 1.664,-12.181C-0.99,-6.338 -5.684,-2.614 -11.666,-0.495C-11.606,-0.317 -11.725,-0.079 -11.883,0L-13.012,-1.545ZM-14.201,-11.231C-12.418,-10.834 -10.2,-10.081 -8.873,-9.447L-9.467,-8.2C-10.774,-8.834 -13.052,-9.626 -14.795,-10.022L-14.201,-11.231Z" style="fill-rule:nonzero;"/>
            </g>
            <g transform="matrix(1,0,0,1,138.35,575.787)">
                <path d="M0,-7.528C-0.059,-7.468 -0.139,-7.409 -0.218,-7.389C-1.01,-5.349 -2.357,-3.369 -3.783,-1.903C-4.021,-2.121 -4.456,-2.398 -4.773,-2.576C-3.625,-3.626 -2.357,-5.467 -1.802,-6.795L-7.348,-5.567L-5.526,2.89L-6.694,3.148L-8.517,-5.309L-13.032,-4.28L-13.29,-5.388L-8.734,-6.399L-9.625,-10.518L-7.981,-10.676C-7.981,-10.518 -8.081,-10.4 -8.338,-10.281L-7.585,-6.676L-1.069,-8.083L-0.931,-8.181L0,-7.528Z" style="fill-rule:nonzero;"/>
            </g>
        </g>
    </g>
</svg>
