<?xml version="1.0" encoding="UTF-8" standalone="no"?>
<!DOCTYPE svg PUBLIC "-//W3C//DTD SVG 1.1//EN" "http://www.w3.org/Graphics/SVG/1.1/DTD/svg11.dtd">
<svg width="100%" height="100%" viewBox="0 0 18 19" version="1.1" xmlns="http://www.w3.org/2000/svg" xmlns:xlink="http://www.w3.org/1999/xlink" xml:space="preserve" xmlns:serif="http://www.serif.com/" style="fill-rule:evenodd;clip-rule:evenodd;stroke-linejoin:round;stroke-miterlimit:2;">
    <g transform="matrix(1,0,0,1,-732,-275)">
        <g id="ji" transform="matrix(1,0,0,1,746.899,293.302)">
            <path d="M0,-18.004C0.812,-17.311 1.94,-16.063 2.574,-15.152L1.802,-14.577C1.208,-15.449 0.099,-16.716 -0.714,-17.429L0,-18.004ZM-2.754,-16.796C-1.941,-16.103 -0.812,-14.875 -0.198,-13.924L-0.971,-13.35C-1.525,-14.201 -2.674,-15.528 -3.486,-16.241L-2.754,-16.796ZM-12.022,-16.142C-10.24,-15.667 -8.062,-14.875 -6.715,-14.201L-7.368,-12.993C-8.774,-13.706 -10.834,-14.498 -12.617,-14.993L-12.022,-16.142ZM-13.013,-1.545C-6.655,-3.684 -2.159,-7.17 0.455,-13.072C0.752,-12.815 1.347,-12.379 1.663,-12.181C-0.991,-6.338 -5.685,-2.615 -11.666,-0.495C-11.606,-0.317 -11.726,-0.08 -11.884,0L-13.013,-1.545ZM-14.201,-11.23C-12.419,-10.834 -10.2,-10.082 -8.873,-9.448L-9.468,-8.2C-10.774,-8.834 -13.053,-9.626 -14.796,-10.022L-14.201,-11.23Z" style="fill-rule:nonzero;"/>
        </g>
    </g>
</svg>
