<?xml version="1.0" encoding="UTF-8" standalone="no"?>
<!DOCTYPE svg PUBLIC "-//W3C//DTD SVG 1.1//EN" "http://www.w3.org/Graphics/SVG/1.1/DTD/svg11.dtd">
<svg width="100%" height="100%" viewBox="0 0 33 19" version="1.1" xmlns="http://www.w3.org/2000/svg" xmlns:xlink="http://www.w3.org/1999/xlink" xml:space="preserve" xmlns:serif="http://www.serif.com/" style="fill-rule:evenodd;clip-rule:evenodd;stroke-linejoin:round;stroke-miterlimit:2;">
    <g transform="matrix(1,0,0,1,-105,-605)">
        <g id="ju">
            <g transform="matrix(1,0,0,1,120.53,623.577)">
                <path d="M0,-18.004C0.812,-17.311 1.941,-16.063 2.575,-15.151L1.802,-14.577C1.208,-15.449 0.099,-16.717 -0.713,-17.43L0,-18.004ZM-2.753,-16.796C-1.941,-16.103 -0.812,-14.874 -0.198,-13.924L-0.97,-13.35C-1.525,-14.201 -2.674,-15.528 -3.486,-16.241L-2.753,-16.796ZM-12.022,-16.142C-10.24,-15.667 -8.061,-14.874 -6.714,-14.201L-7.368,-12.993C-8.774,-13.706 -10.834,-14.498 -12.616,-14.993L-12.022,-16.142ZM-13.012,-1.545C-6.655,-3.685 -2.159,-7.17 0.456,-13.072C0.753,-12.815 1.347,-12.379 1.664,-12.181C-0.99,-6.338 -5.684,-2.614 -11.666,-0.495C-11.606,-0.317 -11.725,-0.079 -11.883,0L-13.012,-1.545ZM-14.201,-11.231C-12.418,-10.834 -10.2,-10.081 -8.873,-9.447L-9.467,-8.2C-10.774,-8.834 -13.052,-9.626 -14.795,-10.023L-14.201,-11.231Z" style="fill-rule:nonzero;"/>
            </g>
            <g transform="matrix(1,0,0,1,137.479,613.101)">
                <path d="M0,8.04L0,9.189L-13.508,9.189L-13.508,8.04L-5.447,8.04C-5.13,6.04 -4.595,2.099 -4.397,0.078L-11.943,0.078L-11.943,-1.07L-4.001,-1.07L-3.763,-1.149L-2.793,-0.675C-2.813,-0.595 -2.912,-0.516 -3.031,-0.496C-3.288,1.584 -3.922,5.921 -4.258,8.04L0,8.04Z" style="fill-rule:nonzero;"/>
            </g>
        </g>
    </g>
</svg>
