<?xml version="1.0" encoding="UTF-8" standalone="no"?>
<!DOCTYPE svg PUBLIC "-//W3C//DTD SVG 1.1//EN" "http://www.w3.org/Graphics/SVG/1.1/DTD/svg11.dtd">
<svg width="100%" height="100%" viewBox="0 0 17 18" version="1.1" xmlns="http://www.w3.org/2000/svg" xmlns:xlink="http://www.w3.org/1999/xlink" xml:space="preserve" xmlns:serif="http://www.serif.com/" style="fill-rule:evenodd;clip-rule:evenodd;stroke-linejoin:round;stroke-miterlimit:2;">
    <g transform="matrix(1,0,0,1,-430,-232)">
        <g id="ka" transform="matrix(1,0,0,1,446.352,244.609)">
            <path d="M0,-7.882C-0.04,-7.803 -0.079,-7.704 -0.179,-7.625C-0.436,-1.921 -0.99,1.664 -1.763,3.071C-2.555,4.437 -3.704,4.496 -4.357,4.496C-5.13,4.496 -6.536,4.318 -7.902,4.041C-7.863,3.645 -7.902,3.051 -7.962,2.635C-6.477,2.972 -4.951,3.13 -4.496,3.13C-3.783,3.13 -3.387,2.951 -2.971,2.199C-2.377,0.991 -1.882,-2.337 -1.684,-6.793L-8.021,-6.793C-9.012,-2.059 -10.973,1.862 -14.558,4.556C-14.795,4.299 -15.311,3.922 -15.687,3.684C-12.26,1.11 -10.458,-2.277 -9.507,-6.793L-14.974,-6.793L-14.974,-8.12L-9.229,-8.12C-8.992,-9.526 -8.873,-10.794 -8.774,-12.438L-6.813,-12.279C-6.833,-12.061 -7.012,-11.943 -7.309,-11.923C-7.428,-10.477 -7.526,-9.387 -7.744,-8.12L-1.327,-8.12L-1.011,-8.238L0,-7.882Z" style="fill-rule:nonzero;"/>
        </g>
    </g>
</svg>
