<?xml version="1.0" encoding="UTF-8" standalone="no"?>
<!DOCTYPE svg PUBLIC "-//W3C//DTD SVG 1.1//EN" "http://www.w3.org/Graphics/SVG/1.1/DTD/svg11.dtd">
<svg width="100%" height="100%" viewBox="0 0 18 18" version="1.1" xmlns="http://www.w3.org/2000/svg" xmlns:xlink="http://www.w3.org/1999/xlink" xml:space="preserve" xmlns:serif="http://www.serif.com/" style="fill-rule:evenodd;clip-rule:evenodd;stroke-linejoin:round;stroke-miterlimit:2;">
    <g transform="matrix(1,0,0,1,-430,-366)">
        <g id="ke" transform="matrix(1,0,0,1,447.5,378.812)">
            <path d="M0,-7.943L0,-6.596L-4.911,-6.596C-4.971,-6.477 -5.09,-6.379 -5.268,-6.359C-5.862,-1.764 -7.724,2.237 -11.903,4.654C-12.22,4.356 -12.755,4 -13.131,3.762C-9.07,1.564 -7.189,-2.16 -6.694,-6.596L-12.2,-6.596C-13.111,-4.972 -14.26,-3.506 -15.329,-2.516C-15.626,-2.734 -16.181,-3.031 -16.577,-3.21C-14.438,-5.051 -12.141,-8.914 -11.189,-12.597L-9.288,-12.162C-9.328,-12.023 -9.506,-11.865 -9.823,-11.865C-10.239,-10.637 -10.912,-9.131 -11.507,-7.943L0,-7.943Z" style="fill-rule:nonzero;"/>
        </g>
    </g>
</svg>
