<?xml version="1.0" encoding="UTF-8" standalone="no"?>
<!DOCTYPE svg PUBLIC "-//W3C//DTD SVG 1.1//EN" "http://www.w3.org/Graphics/SVG/1.1/DTD/svg11.dtd">
<svg width="100%" height="100%" viewBox="0 0 18 18" version="1.1" xmlns="http://www.w3.org/2000/svg" xmlns:xlink="http://www.w3.org/1999/xlink" xml:space="preserve" xmlns:serif="http://www.serif.com/" style="fill-rule:evenodd;clip-rule:evenodd;stroke-linejoin:round;stroke-miterlimit:2;">
    <g transform="matrix(1,0,0,1,-431,-276)">
        <g id="ki" transform="matrix(1,0,0,1,440.667,282.944)">
            <path d="M0,4.516L0.713,10.735L-0.713,10.893L-1.406,4.694L-8.833,5.645L-9.012,4.338L-1.545,3.387L-2.06,-1.069L-8.279,-0.257L-8.457,-1.584L-2.218,-2.376L-2.654,-6.298L-0.713,-6.377C-0.713,-6.179 -0.892,-6.021 -1.169,-5.942L-0.812,-2.574L5.209,-3.366L5.367,-2.02L-0.653,-1.247L-0.139,3.189L7.309,2.258L7.486,3.565L0,4.516Z" style="fill-rule:nonzero;"/>
        </g>
    </g>
</svg>
