<?xml version="1.0" encoding="UTF-8" standalone="no"?>
<!DOCTYPE svg PUBLIC "-//W3C//DTD SVG 1.1//EN" "http://www.w3.org/Graphics/SVG/1.1/DTD/svg11.dtd">
<svg width="100%" height="100%" viewBox="0 0 16 19" version="1.1" xmlns="http://www.w3.org/2000/svg" xmlns:xlink="http://www.w3.org/1999/xlink" xml:space="preserve" xmlns:serif="http://www.serif.com/" style="fill-rule:evenodd;clip-rule:evenodd;stroke-linejoin:round;stroke-miterlimit:2;">
    <g transform="matrix(1,0,0,1,-432,-321)">
        <g id="ku" transform="matrix(1,0,0,1,447.639,335.561)">
            <path d="M0,-9.745C-0.079,-9.646 -0.179,-9.547 -0.297,-9.468C-2.377,-3.051 -5.625,1.069 -11.092,3.842C-11.329,3.505 -11.705,3.049 -12.102,2.753C-6.912,0.237 -3.704,-3.724 -2.06,-8.973L-9.131,-8.973C-10.279,-7.19 -11.805,-5.467 -13.567,-4.08C-13.845,-4.358 -14.3,-4.734 -14.696,-4.992C-12.003,-7.071 -9.725,-10.101 -8.378,-13.587L-6.496,-13.053C-6.576,-12.854 -6.813,-12.795 -7.071,-12.795C-7.467,-11.924 -7.883,-11.092 -8.339,-10.3L-1.367,-10.3L-1.129,-10.418L0,-9.745Z" style="fill-rule:nonzero;"/>
        </g>
    </g>
</svg>
