<?xml version="1.0" encoding="UTF-8" standalone="no"?>
<!DOCTYPE svg PUBLIC "-//W3C//DTD SVG 1.1//EN" "http://www.w3.org/Graphics/SVG/1.1/DTD/svg11.dtd">
<svg width="100%" height="100%" viewBox="0 0 34 18" version="1.1" xmlns="http://www.w3.org/2000/svg" xmlns:xlink="http://www.w3.org/1999/xlink" xml:space="preserve" xmlns:serif="http://www.serif.com/" style="fill-rule:evenodd;clip-rule:evenodd;stroke-linejoin:round;stroke-miterlimit:2;">
    <g transform="matrix(1,0,0,1,-469,-561)">
        <g id="kya">
            <g transform="matrix(1,0,0,1,478.638,567.962)">
                <path d="M0,4.516L0.713,10.736L-0.713,10.894L-1.406,4.695L-8.833,5.645L-9.012,4.338L-1.545,3.387L-2.06,-1.069L-8.279,-0.257L-8.457,-1.584L-2.218,-2.377L-2.654,-6.297L-0.713,-6.378C-0.713,-6.179 -0.892,-6.02 -1.169,-5.941L-0.812,-2.575L5.209,-3.367L5.367,-2.02L-0.653,-1.248L-0.139,3.189L7.309,2.258L7.486,3.566L0,4.516Z" style="fill-rule:nonzero;"/>
            </g>
            <g transform="matrix(1,0,0,1,502.241,575.787)">
                <path d="M0,-7.528C-0.06,-7.468 -0.139,-7.409 -0.218,-7.389C-1.01,-5.349 -2.356,-3.369 -3.783,-1.903C-4.021,-2.121 -4.456,-2.398 -4.773,-2.576C-3.624,-3.626 -2.356,-5.467 -1.802,-6.795L-7.348,-5.567L-5.525,2.89L-6.694,3.148L-8.517,-5.309L-13.032,-4.28L-13.29,-5.388L-8.734,-6.399L-9.626,-10.518L-7.981,-10.676C-7.981,-10.518 -8.081,-10.4 -8.338,-10.281L-7.586,-6.676L-1.069,-8.083L-0.931,-8.181L0,-7.528Z" style="fill-rule:nonzero;"/>
            </g>
        </g>
    </g>
</svg>
