<?xml version="1.0" encoding="UTF-8" standalone="no"?>
<!DOCTYPE svg PUBLIC "-//W3C//DTD SVG 1.1//EN" "http://www.w3.org/Graphics/SVG/1.1/DTD/svg11.dtd">
<svg width="100%" height="100%" viewBox="0 0 18 15" version="1.1" xmlns="http://www.w3.org/2000/svg" xmlns:xlink="http://www.w3.org/1999/xlink" xml:space="preserve" xmlns:serif="http://www.serif.com/" style="fill-rule:evenodd;clip-rule:evenodd;stroke-linejoin:round;stroke-miterlimit:2;">
    <g transform="matrix(1,0,0,1,-207,-234)">
        <g id="ma" transform="matrix(1,0,0,1,224.16,247.482)">
            <path d="M0,-12.181C-0.06,-12.082 -0.159,-12.022 -0.297,-11.983C-2.139,-9.17 -5.249,-6.219 -8.299,-4.021C-6.773,-2.793 -5.249,-1.268 -4.238,-0.159L-5.447,0.891C-7.526,-1.545 -11.428,-4.813 -14.775,-6.774L-13.825,-7.784C-12.418,-6.992 -10.834,-5.942 -9.408,-4.853C-6.734,-6.754 -4.021,-9.309 -2.456,-11.606L-16.994,-11.606L-16.994,-12.953L-1.406,-12.953L-1.168,-13.072L0,-12.181Z" style="fill-rule:nonzero;"/>
        </g>
    </g>
</svg>
