<?xml version="1.0" encoding="UTF-8" standalone="no"?>
<!DOCTYPE svg PUBLIC "-//W3C//DTD SVG 1.1//EN" "http://www.w3.org/Graphics/SVG/1.1/DTD/svg11.dtd">
<svg width="100%" height="100%" viewBox="0 0 31 17" version="1.1" xmlns="http://www.w3.org/2000/svg" xmlns:xlink="http://www.w3.org/1999/xlink" xml:space="preserve" xmlns:serif="http://www.serif.com/" style="fill-rule:evenodd;clip-rule:evenodd;stroke-linejoin:round;stroke-miterlimit:2;">
    <g transform="matrix(1,0,0,1,-244,-562)">
        <g id="mya">
            <g transform="matrix(1,0,0,1,247.107,578.518)">
                <path d="M0,-16.419C3.367,-16.063 7.685,-15.271 10.418,-14.3L9.843,-12.913C7.11,-13.943 2.911,-14.716 -0.456,-15.092L0,-16.419ZM-0.08,-10.299C3.07,-9.982 7.031,-9.23 9.487,-8.477L9.031,-7.091C6.714,-7.883 2.713,-8.636 -0.495,-8.952L-0.08,-10.299ZM-1.664,-4.238C2.693,-3.743 7.784,-2.614 10.893,-1.387L10.299,0C7.486,-1.169 2.218,-2.416 -2.139,-2.932L-1.664,-4.238Z" style="fill-rule:nonzero;"/>
            </g>
            <g transform="matrix(1,0,0,1,274.83,575.786)">
                <path d="M0,-7.528C-0.059,-7.468 -0.139,-7.409 -0.218,-7.389C-1.01,-5.349 -2.357,-3.369 -3.783,-1.903C-4.021,-2.121 -4.456,-2.398 -4.773,-2.576C-3.625,-3.626 -2.357,-5.467 -1.802,-6.795L-7.348,-5.567L-5.526,2.89L-6.694,3.148L-8.517,-5.309L-13.032,-4.28L-13.29,-5.388L-8.734,-6.399L-9.625,-10.518L-7.981,-10.676C-7.981,-10.518 -8.081,-10.399 -8.338,-10.281L-7.585,-6.676L-1.069,-8.083L-0.931,-8.181L0,-7.528Z" style="fill-rule:nonzero;"/>
            </g>
        </g>
    </g>
</svg>
