<?xml version="1.0" encoding="UTF-8" standalone="no"?>
<!DOCTYPE svg PUBLIC "-//W3C//DTD SVG 1.1//EN" "http://www.w3.org/Graphics/SVG/1.1/DTD/svg11.dtd">
<svg width="100%" height="100%" viewBox="0 0 17 16" version="1.1" xmlns="http://www.w3.org/2000/svg" xmlns:xlink="http://www.w3.org/1999/xlink" xml:space="preserve" xmlns:serif="http://www.serif.com/" style="fill-rule:evenodd;clip-rule:evenodd;stroke-linejoin:round;stroke-miterlimit:2;">
    <g transform="matrix(1,0,0,1,-24,-233)">
        <g id="n" transform="matrix(1,0,0,1,25.0381,235.202)">
            <path d="M0,12.18C7.031,10.001 11.705,6.06 14.082,0.574C14.498,0.91 14.954,1.168 15.369,1.386C12.894,6.813 8.061,11.032 1.347,13.269C1.327,13.448 1.208,13.646 1.069,13.725L0,12.18ZM0.079,-1.545C2.139,-0.892 4.516,0.138 5.981,1.148L5.229,2.396C3.803,1.386 1.466,0.336 -0.555,-0.357L0.079,-1.545Z" style="fill-rule:nonzero;"/>
        </g>
    </g>
</svg>
