<?xml version="1.0" encoding="UTF-8" standalone="no"?>
<!DOCTYPE svg PUBLIC "-//W3C//DTD SVG 1.1//EN" "http://www.w3.org/Graphics/SVG/1.1/DTD/svg11.dtd">
<svg width="100%" height="100%" viewBox="0 0 18 18" version="1.1" xmlns="http://www.w3.org/2000/svg" xmlns:xlink="http://www.w3.org/1999/xlink" xml:space="preserve" xmlns:serif="http://www.serif.com/" style="fill-rule:evenodd;clip-rule:evenodd;stroke-linejoin:round;stroke-miterlimit:2;">
    <g transform="matrix(1,0,0,1,-294,-232)">
        <g id="na" transform="matrix(1,0,0,1,311.289,242.669)">
            <path d="M0,-3.962L-7.17,-3.962C-7.546,1.128 -8.833,4.218 -13.151,6.694C-13.429,6.377 -13.904,6 -14.28,5.723C-10.18,3.445 -8.972,0.732 -8.596,-3.962L-16.538,-3.962L-16.538,-5.329L-8.537,-5.329C-8.477,-6.874 -8.457,-8.656 -8.457,-10.656L-6.516,-10.538C-6.536,-10.339 -6.714,-10.221 -6.992,-10.181C-7.011,-8.379 -7.011,-6.775 -7.091,-5.329L0,-5.329L0,-3.962Z" style="fill-rule:nonzero;"/>
        </g>
    </g>
</svg>
