<?xml version="1.0" encoding="UTF-8" standalone="no"?>
<!DOCTYPE svg PUBLIC "-//W3C//DTD SVG 1.1//EN" "http://www.w3.org/Graphics/SVG/1.1/DTD/svg11.dtd">
<svg width="100%" height="100%" viewBox="0 0 15 17" version="1.1" xmlns="http://www.w3.org/2000/svg" xmlns:xlink="http://www.w3.org/1999/xlink" xml:space="preserve" xmlns:serif="http://www.serif.com/" style="fill-rule:evenodd;clip-rule:evenodd;stroke-linejoin:round;stroke-miterlimit:2;">
    <g transform="matrix(1,0,0,1,-294,-323)">
        <g id="nu" transform="matrix(1,0,0,1,296.217,338.907)">
            <path d="M0,-15.587L10.735,-15.587L10.992,-15.746L12.2,-15.131C12.161,-15.052 12.062,-14.973 11.943,-14.914C11.131,-12.18 9.923,-9.606 8.437,-7.466C9.942,-6.437 11.27,-5.407 12.26,-4.476L11.29,-3.268C10.299,-4.199 9.012,-5.248 7.546,-6.278C5.367,-3.505 2.614,-1.366 -0.376,0.159C-0.654,-0.198 -1.07,-0.653 -1.406,-0.95C1.525,-2.317 4.318,-4.476 6.377,-7.11C4.733,-8.199 2.971,-9.269 1.248,-10.16L2.139,-11.21C3.842,-10.358 5.625,-9.328 7.229,-8.259C8.437,-10.002 9.428,-11.983 10.101,-14.24L0,-14.24L0,-15.587Z" style="fill-rule:nonzero;"/>
        </g>
    </g>
</svg>
