<?xml version="1.0" encoding="UTF-8" standalone="no"?>
<!DOCTYPE svg PUBLIC "-//W3C//DTD SVG 1.1//EN" "http://www.w3.org/Graphics/SVG/1.1/DTD/svg11.dtd">
<svg width="100%" height="100%" viewBox="0 0 34 15" version="1.1" xmlns="http://www.w3.org/2000/svg" xmlns:xlink="http://www.w3.org/1999/xlink" xml:space="preserve" xmlns:serif="http://www.serif.com/" style="fill-rule:evenodd;clip-rule:evenodd;stroke-linejoin:round;stroke-miterlimit:2;">
    <g transform="matrix(1,0,0,1,-334,-564)">
        <g id="nya">
            <g transform="matrix(1,0,0,1,0,277.094)">
                <path d="M349.167,288.709L336.868,288.709L336.868,287.343L349.167,287.343L349.167,288.709ZM351.107,299.563L334.767,299.563L334.767,298.215L351.107,298.215L351.107,299.563Z" style="fill-rule:nonzero;"/>
            </g>
            <g transform="matrix(1,0,0,1,367.581,575.787)">
                <path d="M0,-7.528C-0.059,-7.468 -0.139,-7.409 -0.218,-7.389C-1.01,-5.349 -2.357,-3.369 -3.783,-1.903C-4.021,-2.121 -4.456,-2.398 -4.773,-2.576C-3.625,-3.626 -2.357,-5.467 -1.802,-6.795L-7.348,-5.567L-5.526,2.89L-6.694,3.148L-8.517,-5.309L-13.032,-4.28L-13.29,-5.388L-8.734,-6.399L-9.625,-10.518L-7.981,-10.676C-7.981,-10.518 -8.081,-10.4 -8.338,-10.281L-7.585,-6.676L-1.069,-8.083L-0.931,-8.181L0,-7.528Z" style="fill-rule:nonzero;"/>
            </g>
        </g>
    </g>
</svg>
