<?xml version="1.0" encoding="UTF-8" standalone="no"?>
<!DOCTYPE svg PUBLIC "-//W3C//DTD SVG 1.1//EN" "http://www.w3.org/Graphics/SVG/1.1/DTD/svg11.dtd">
<svg width="100%" height="100%" viewBox="0 0 31 16" version="1.1" xmlns="http://www.w3.org/2000/svg" xmlns:xlink="http://www.w3.org/1999/xlink" xml:space="preserve" xmlns:serif="http://www.serif.com/" style="fill-rule:evenodd;clip-rule:evenodd;stroke-linejoin:round;stroke-miterlimit:2;">
    <g transform="matrix(1,0,0,1,-335,-653)">
        <g id="nyo">
            <g transform="matrix(1,0,0,1,0,456.117)">
                <path d="M350.256,199.197L337.957,199.197L337.957,197.831L350.256,197.831L350.256,199.197ZM352.197,210.052L335.857,210.052L335.857,208.704L352.197,208.704L352.197,210.052Z" style="fill-rule:nonzero;"/>
            </g>
            <g transform="matrix(1,0,0,1,365.937,668.308)">
                <path d="M0,-12.042L0,0L-1.188,0L-1.188,-0.871L-10.082,-0.871L-10.082,-1.98L-1.188,-1.98L-1.188,-6.001L-9.289,-6.001L-9.289,-7.11L-1.188,-7.11L-1.188,-10.953L-9.586,-10.953L-9.586,-12.042L0,-12.042Z" style="fill-rule:nonzero;"/>
            </g>
        </g>
    </g>
</svg>
