<?xml version="1.0" encoding="UTF-8" standalone="no"?>
<!DOCTYPE svg PUBLIC "-//W3C//DTD SVG 1.1//EN" "http://www.w3.org/Graphics/SVG/1.1/DTD/svg11.dtd">
<svg width="100%" height="100%" viewBox="0 0 18 18" version="1.1" xmlns="http://www.w3.org/2000/svg" xmlns:xlink="http://www.w3.org/1999/xlink" xml:space="preserve" xmlns:serif="http://www.serif.com/" style="fill-rule:evenodd;clip-rule:evenodd;stroke-linejoin:round;stroke-miterlimit:2;">
    <g transform="matrix(1,0,0,1,-475,-411)">
        <g id="o" transform="matrix(1,0,0,1,492.808,422.842)">
            <path d="M0,-6.062L-5.922,-6.062L-5.843,3.564C-5.804,5.564 -7.15,5.624 -10.794,5.584C-10.854,5.228 -10.992,4.673 -11.151,4.296C-9.844,4.317 -8.279,4.317 -7.923,4.277C-7.447,4.217 -7.21,3.901 -7.229,3.544L-7.309,-5.012C-9.329,-2.041 -12.616,1.048 -15.845,2.95C-16.083,2.593 -16.459,2.177 -16.815,1.88C-13.587,0.098 -10.181,-3.011 -8.16,-6.062L-16.043,-6.062L-16.043,-7.409L-7.349,-7.409L-7.388,-11.686L-5.486,-11.607C-5.506,-11.389 -5.704,-11.271 -5.981,-11.231L-5.942,-7.409L0,-7.409L0,-6.062Z" style="fill-rule:nonzero;"/>
        </g>
    </g>
</svg>
