<?xml version="1.0" encoding="UTF-8" standalone="no"?>
<!DOCTYPE svg PUBLIC "-//W3C//DTD SVG 1.1//EN" "http://www.w3.org/Graphics/SVG/1.1/DTD/svg11.dtd">
<svg width="100%" height="100%" viewBox="0 0 19 18" version="1.1" xmlns="http://www.w3.org/2000/svg" xmlns:xlink="http://www.w3.org/1999/xlink" xml:space="preserve" xmlns:serif="http://www.serif.com/" style="fill-rule:evenodd;clip-rule:evenodd;stroke-linejoin:round;stroke-miterlimit:2;">
    <g transform="matrix(1,0,0,1,-595,-230)">
        <g id="pa" transform="matrix(1,0,0,1,613.184,245.639)">
            <path d="M0,-12.478C0,-13.37 -0.713,-14.062 -1.564,-14.062C-2.437,-14.062 -3.13,-13.37 -3.13,-12.478C-3.13,-11.626 -2.437,-10.914 -1.564,-10.914C-0.674,-10.914 0,-11.666 0,-12.478M-1.564,-14.716C-0.337,-14.716 0.653,-13.726 0.653,-12.478C0.653,-11.27 -0.337,-10.26 -1.564,-10.26C-2.793,-10.26 -3.783,-11.27 -3.783,-12.478C-3.783,-13.766 -2.753,-14.716 -1.564,-14.716M-1.308,2.119C-2.238,-1.347 -4.536,-6.972 -6.576,-10.636L-5.288,-11.25C-3.209,-7.705 -0.892,-2.12 0.139,1.544L-1.308,2.119ZM-11.27,-10.755C-11.329,-10.597 -11.487,-10.478 -11.785,-10.458C-12.577,-5.705 -14.221,-0.694 -16.538,2.238C-16.895,1.96 -17.43,1.703 -17.865,1.525C-15.646,-1.169 -13.904,-6.2 -13.271,-11.171L-11.27,-10.755Z" style="fill-rule:nonzero;"/>
        </g>
    </g>
</svg>
