<?xml version="1.0" encoding="UTF-8" standalone="no"?>
<!DOCTYPE svg PUBLIC "-//W3C//DTD SVG 1.1//EN" "http://www.w3.org/Graphics/SVG/1.1/DTD/svg11.dtd">
<svg width="100%" height="100%" viewBox="0 0 19 17" version="1.1" xmlns="http://www.w3.org/2000/svg" xmlns:xlink="http://www.w3.org/1999/xlink" xml:space="preserve" xmlns:serif="http://www.serif.com/" style="fill-rule:evenodd;clip-rule:evenodd;stroke-linejoin:round;stroke-miterlimit:2;">
    <g transform="matrix(1,0,0,1,-595,-365)">
        <g id="pe" transform="matrix(1,0,0,1,611.657,379.067)">
            <path d="M0,-11.21C0,-12.082 -0.693,-12.794 -1.545,-12.794C-2.416,-12.794 -3.129,-12.082 -3.129,-11.21C-3.129,-10.358 -2.416,-9.646 -1.545,-9.646C-0.653,-9.646 0,-10.398 0,-11.21M-1.545,-13.428C-0.337,-13.428 0.653,-12.438 0.653,-11.21C0.653,-9.982 -0.337,-8.992 -1.545,-8.992C-2.793,-8.992 -3.783,-9.982 -3.783,-11.21C-3.783,-12.478 -2.753,-13.428 -1.545,-13.428M-16.558,-3.387C-15.053,-4.971 -11.923,-8.457 -10.794,-9.665C-10.279,-10.18 -9.765,-10.418 -9.249,-10.418C-8.715,-10.418 -8.18,-10.141 -7.645,-9.665C-5.09,-7.328 -0.971,-2.753 2.021,1.129L0.832,2.218C-1.98,-1.684 -6.12,-6.377 -8.338,-8.438C-8.675,-8.754 -8.933,-8.933 -9.189,-8.933C-9.447,-8.933 -9.685,-8.734 -10.002,-8.438C-10.933,-7.427 -13.824,-4.1 -15.151,-2.674C-15.132,-2.634 -15.132,-2.575 -15.132,-2.535C-15.132,-2.377 -15.211,-2.218 -15.33,-2.119L-16.558,-3.387Z" style="fill-rule:nonzero;"/>
        </g>
    </g>
</svg>
