<?xml version="1.0" encoding="UTF-8" standalone="no"?>
<!DOCTYPE svg PUBLIC "-//W3C//DTD SVG 1.1//EN" "http://www.w3.org/Graphics/SVG/1.1/DTD/svg11.dtd">
<svg width="100%" height="100%" viewBox="0 0 16 18" version="1.1" xmlns="http://www.w3.org/2000/svg" xmlns:xlink="http://www.w3.org/1999/xlink" xml:space="preserve" xmlns:serif="http://www.serif.com/" style="fill-rule:evenodd;clip-rule:evenodd;stroke-linejoin:round;stroke-miterlimit:2;">
    <g transform="matrix(1,0,0,1,-598,-275)">
        <g id="pi" transform="matrix(1,0,0,1,612.926,290.49)">
            <path d="M0,-12.696C0,-13.568 -0.693,-14.28 -1.545,-14.28C-2.417,-14.28 -3.11,-13.568 -3.11,-12.696C-3.11,-11.824 -2.417,-11.112 -1.545,-11.112C-0.654,-11.112 0,-11.864 0,-12.696M-1.545,-14.914C-0.317,-14.914 0.673,-13.924 0.673,-12.696C0.673,-11.468 -0.317,-10.478 -1.545,-10.478C-2.773,-10.478 -3.783,-11.468 -3.783,-12.696C-3.783,-13.964 -2.733,-14.914 -1.545,-14.914M-5.665,0.871C-4.873,0.871 -2.754,0.772 -1.506,0.574C-1.486,1.01 -1.466,1.564 -1.427,2C-2.733,2.158 -4.714,2.218 -5.526,2.218L-10.478,2.218C-13.469,2.218 -14.914,0.93 -14.914,-1.902L-14.914,-13.468L-12.974,-13.349C-13.013,-13.152 -13.151,-13.032 -13.508,-12.973L-13.508,-6.536C-10.478,-7.487 -6.259,-9.071 -3.685,-10.458L-2.674,-9.091C-2.733,-9.051 -2.813,-9.032 -2.893,-9.032C-2.991,-9.032 -3.09,-9.051 -3.189,-9.091C-5.586,-7.883 -10.102,-6.199 -13.508,-5.19L-13.508,-1.882C-13.508,0.138 -12.537,0.871 -10.498,0.871L-5.665,0.871Z" style="fill-rule:nonzero;"/>
        </g>
    </g>
</svg>
