<?xml version="1.0" encoding="UTF-8" standalone="no"?>
<!DOCTYPE svg PUBLIC "-//W3C//DTD SVG 1.1//EN" "http://www.w3.org/Graphics/SVG/1.1/DTD/svg11.dtd">
<svg width="100%" height="100%" viewBox="0 0 19 20" version="1.1" xmlns="http://www.w3.org/2000/svg" xmlns:xlink="http://www.w3.org/1999/xlink" xml:space="preserve" xmlns:serif="http://www.serif.com/" style="fill-rule:evenodd;clip-rule:evenodd;stroke-linejoin:round;stroke-miterlimit:2;">
    <g transform="matrix(1,0,0,1,-595,-409)">
        <g id="po" transform="matrix(1,0,0,1,612.748,425.849)">
            <path d="M0,-13.724C0,-14.595 -0.693,-15.309 -1.545,-15.309C-2.417,-15.309 -3.13,-14.595 -3.13,-13.724C-3.13,-12.872 -2.417,-12.16 -1.545,-12.16C-0.654,-12.16 0,-12.912 0,-13.724M-1.545,-15.943C-0.337,-15.943 0.653,-14.953 0.653,-13.724C0.653,-12.496 -0.337,-11.506 -1.545,-11.506C-2.793,-11.506 -3.783,-12.496 -3.783,-13.724C-3.783,-14.992 -2.754,-15.943 -1.545,-15.943M-4.12,-6.812C-2.674,-5.207 -1.011,-2.87 0.059,-1.048L-1.209,-0.316C-2.179,-2.118 -3.922,-4.673 -5.249,-6.178L-4.12,-6.812ZM-7.665,-9.228L-7.665,0.061C-7.665,2.219 -9.21,2.219 -12.379,2.219C-12.458,1.863 -12.617,1.308 -12.795,0.893C-12.221,0.913 -11.587,0.913 -11.052,0.913L-9.903,0.913C-9.349,0.913 -9.092,0.556 -9.092,0.081L-9.092,-9.228L-15.825,-9.228L-15.825,-10.575L-9.092,-10.575L-9.092,-14.754L-7.21,-14.655C-7.229,-14.456 -7.368,-14.318 -7.665,-14.279L-7.665,-10.575L-0.971,-10.575L-0.971,-9.228L-7.665,-9.228ZM-11.903,-6.178C-12.795,-3.861 -14.103,-1.821 -15.627,-0.335L-16.776,-1.088C-15.291,-2.474 -14.003,-4.356 -13.191,-6.673L-11.903,-6.178Z" style="fill-rule:nonzero;"/>
        </g>
    </g>
</svg>
