<?xml version="1.0" encoding="UTF-8" standalone="no"?>
<!DOCTYPE svg PUBLIC "-//W3C//DTD SVG 1.1//EN" "http://www.w3.org/Graphics/SVG/1.1/DTD/svg11.dtd">
<svg width="100%" height="100%" viewBox="0 0 19 19" version="1.1" xmlns="http://www.w3.org/2000/svg" xmlns:xlink="http://www.w3.org/1999/xlink" xml:space="preserve" xmlns:serif="http://www.serif.com/" style="fill-rule:evenodd;clip-rule:evenodd;stroke-linejoin:round;stroke-miterlimit:2;">
    <g transform="matrix(1,0,0,1,-595,-320)">
        <g id="pu" transform="matrix(1,0,0,1,612.589,336.787)">
            <path d="M0,-13.963C0,-14.815 -0.673,-15.488 -1.505,-15.488C-2.337,-15.488 -3.03,-14.815 -3.03,-13.963C-3.03,-13.131 -2.337,-12.438 -1.505,-12.438C-0.634,-12.438 0,-13.171 0,-13.963M-1.505,-16.142C-0.316,-16.142 0.654,-15.171 0.654,-13.963C0.654,-12.775 -0.316,-11.804 -1.505,-11.804C-2.713,-11.804 -3.684,-12.775 -3.684,-13.963C-3.684,-15.211 -2.674,-16.142 -1.505,-16.142M-16.597,-12.596L-4,-12.596L-3.882,-12.656L-2.535,-11.626C-2.594,-11.546 -2.653,-11.487 -2.772,-11.447C-4.377,-4.001 -7.823,-0.119 -13.884,2.179C-14.102,1.823 -14.497,1.308 -14.774,1.011C-9.012,-1.109 -5.684,-4.793 -4.396,-11.23L-16.597,-11.23L-16.597,-12.596Z" style="fill-rule:nonzero;"/>
        </g>
    </g>
</svg>
