<?xml version="1.0" encoding="UTF-8" standalone="no"?>
<!DOCTYPE svg PUBLIC "-//W3C//DTD SVG 1.1//EN" "http://www.w3.org/Graphics/SVG/1.1/DTD/svg11.dtd">
<svg width="100%" height="100%" viewBox="0 0 29 19" version="1.1" xmlns="http://www.w3.org/2000/svg" xmlns:xlink="http://www.w3.org/1999/xlink" xml:space="preserve" xmlns:serif="http://www.serif.com/" style="fill-rule:evenodd;clip-rule:evenodd;stroke-linejoin:round;stroke-miterlimit:2;">
    <g transform="matrix(1,0,0,1,-18,-650)">
        <g id="pyo">
            <g transform="matrix(1,0,0,1,33.1719,665.275)">
                <path d="M0,-12.694C0,-13.566 -0.693,-14.279 -1.545,-14.279C-2.417,-14.279 -3.109,-13.566 -3.109,-12.694C-3.109,-11.823 -2.417,-11.11 -1.545,-11.11C-0.653,-11.11 0,-11.863 0,-12.694M-1.545,-14.913C-0.317,-14.913 0.673,-13.923 0.673,-12.694C0.673,-11.466 -0.317,-10.476 -1.545,-10.476C-2.773,-10.476 -3.783,-11.466 -3.783,-12.694C-3.783,-13.962 -2.733,-14.913 -1.545,-14.913M-5.665,0.872C-4.872,0.872 -2.753,0.774 -1.505,0.576C-1.485,1.011 -1.466,1.566 -1.426,2.001C-2.733,2.16 -4.714,2.219 -5.526,2.219L-10.478,2.219C-13.468,2.219 -14.914,0.932 -14.914,-1.9L-14.914,-13.466L-12.973,-13.348C-13.013,-13.15 -13.151,-13.031 -13.508,-12.971L-13.508,-6.535C-10.478,-7.485 -6.259,-9.07 -3.684,-10.457L-2.674,-9.09C-2.733,-9.05 -2.813,-9.03 -2.892,-9.03C-2.991,-9.03 -3.09,-9.05 -3.188,-9.09C-5.585,-7.882 -10.101,-6.198 -13.508,-5.188L-13.508,-1.881C-13.508,0.14 -12.537,0.872 -10.497,0.872L-5.665,0.872Z" style="fill-rule:nonzero;"/>
            </g>
            <g transform="matrix(1,0,0,1,46.1201,668.307)">
                <path d="M0,-12.042L0,0L-1.188,0L-1.188,-0.871L-10.081,-0.871L-10.081,-1.98L-1.188,-1.98L-1.188,-6.001L-9.289,-6.001L-9.289,-7.11L-1.188,-7.11L-1.188,-10.953L-9.586,-10.953L-9.586,-12.042L0,-12.042Z" style="fill-rule:nonzero;"/>
            </g>
        </g>
    </g>
</svg>
