<?xml version="1.0" encoding="UTF-8" standalone="no"?>
<!DOCTYPE svg PUBLIC "-//W3C//DTD SVG 1.1//EN" "http://www.w3.org/Graphics/SVG/1.1/DTD/svg11.dtd">
<svg width="100%" height="100%" viewBox="0 0 31 18" version="1.1" xmlns="http://www.w3.org/2000/svg" xmlns:xlink="http://www.w3.org/1999/xlink" xml:space="preserve" xmlns:serif="http://www.serif.com/" style="fill-rule:evenodd;clip-rule:evenodd;stroke-linejoin:round;stroke-miterlimit:2;">
    <g transform="matrix(1,0,0,1,-17,-605)">
        <g id="pyu">
            <g transform="matrix(1,0,0,1,31.9844,620.764)">
                <path d="M0,-12.694C0,-13.566 -0.693,-14.279 -1.545,-14.279C-2.417,-14.279 -3.109,-13.566 -3.109,-12.694C-3.109,-11.823 -2.417,-11.11 -1.545,-11.11C-0.653,-11.11 0,-11.863 0,-12.694M-1.545,-14.913C-0.317,-14.913 0.673,-13.923 0.673,-12.694C0.673,-11.466 -0.317,-10.476 -1.545,-10.476C-2.773,-10.476 -3.783,-11.466 -3.783,-12.694C-3.783,-13.962 -2.733,-14.913 -1.545,-14.913M-5.665,0.872C-4.872,0.872 -2.753,0.774 -1.505,0.576C-1.485,1.011 -1.466,1.566 -1.426,2.001C-2.733,2.16 -4.714,2.219 -5.526,2.219L-10.478,2.219C-13.468,2.219 -14.914,0.932 -14.914,-1.9L-14.914,-13.466L-12.973,-13.348C-13.013,-13.15 -13.151,-13.031 -13.508,-12.971L-13.508,-6.535C-10.478,-7.485 -6.259,-9.07 -3.684,-10.457L-2.674,-9.09C-2.733,-9.05 -2.813,-9.03 -2.892,-9.03C-2.991,-9.03 -3.09,-9.05 -3.188,-9.09C-5.585,-7.882 -10.101,-6.198 -13.508,-5.188L-13.508,-1.881C-13.508,0.14 -12.537,0.872 -10.497,0.872L-5.665,0.872Z" style="fill-rule:nonzero;"/>
            </g>
            <g transform="matrix(1,0,0,1,47.4873,613.102)">
                <path d="M0,8.04L0,9.189L-13.507,9.189L-13.507,8.04L-5.446,8.04C-5.129,6.04 -4.595,2.099 -4.396,0.078L-11.943,0.078L-11.943,-1.07L-4,-1.07L-3.763,-1.149L-2.792,-0.675C-2.812,-0.595 -2.911,-0.516 -3.03,-0.496C-3.288,1.584 -3.921,5.921 -4.258,8.04L0,8.04Z" style="fill-rule:nonzero;"/>
            </g>
        </g>
    </g>
</svg>
