<?xml version="1.0" encoding="UTF-8" standalone="no"?>
<!DOCTYPE svg PUBLIC "-//W3C//DTD SVG 1.1//EN" "http://www.w3.org/Graphics/SVG/1.1/DTD/svg11.dtd">
<svg width="100%" height="100%" viewBox="0 0 16 18" version="1.1" xmlns="http://www.w3.org/2000/svg" xmlns:xlink="http://www.w3.org/1999/xlink" xml:space="preserve" xmlns:serif="http://www.serif.com/" style="fill-rule:evenodd;clip-rule:evenodd;stroke-linejoin:round;stroke-miterlimit:2;">
    <g transform="matrix(1,0,0,1,-117,-232)">
        <g id="ra" transform="matrix(1,0,0,1,0,-381.831)">
            <path d="M130.493,616.082L119.203,616.082L119.203,614.775L130.493,614.775L130.493,616.082ZM132.354,620.321C132.314,620.4 132.216,620.479 132.097,620.519C130.473,626.5 127.165,629.412 121.243,631.056C121.065,630.699 120.688,630.204 120.411,629.907C125.798,628.56 129.146,625.787 130.394,621.192L117.282,621.192L117.282,619.845L130.988,619.845L131.186,619.727L132.354,620.321Z" style="fill-rule:nonzero;"/>
        </g>
    </g>
</svg>
