<?xml version="1.0" encoding="UTF-8" standalone="no"?>
<!DOCTYPE svg PUBLIC "-//W3C//DTD SVG 1.1//EN" "http://www.w3.org/Graphics/SVG/1.1/DTD/svg11.dtd">
<svg width="100%" height="100%" viewBox="0 0 12 17" version="1.1" xmlns="http://www.w3.org/2000/svg" xmlns:xlink="http://www.w3.org/1999/xlink" xml:space="preserve" xmlns:serif="http://www.serif.com/" style="fill-rule:evenodd;clip-rule:evenodd;stroke-linejoin:round;stroke-miterlimit:2;">
    <g transform="matrix(1,0,0,1,-119,-277)">
        <g id="ri" transform="matrix(1,0,0,1,130.73,293.798)">
            <path d="M0,-16.676C-0.02,-16.478 -0.159,-16.379 -0.476,-16.34L-0.476,-10.041C-0.476,-5.882 -1.901,-2.079 -7.586,0.119C-7.784,-0.178 -8.279,-0.693 -8.616,-0.95C-3.129,-2.99 -1.901,-6.377 -1.901,-10.041L-1.901,-16.795L0,-16.676ZM-11.032,-6.278L-11.032,-15.904L-9.15,-15.785C-9.17,-15.607 -9.309,-15.468 -9.626,-15.428L-9.626,-6.278L-11.032,-6.278Z" style="fill-rule:nonzero;"/>
        </g>
    </g>
</svg>
