<?xml version="1.0" encoding="UTF-8" standalone="no"?>
<!DOCTYPE svg PUBLIC "-//W3C//DTD SVG 1.1//EN" "http://www.w3.org/Graphics/SVG/1.1/DTD/svg11.dtd">
<svg width="100%" height="100%" viewBox="0 0 19 18" version="1.1" xmlns="http://www.w3.org/2000/svg" xmlns:xlink="http://www.w3.org/1999/xlink" xml:space="preserve" xmlns:serif="http://www.serif.com/" style="fill-rule:evenodd;clip-rule:evenodd;stroke-linejoin:round;stroke-miterlimit:2;">
    <g transform="matrix(1,0,0,1,-116,-322)">
        <g id="ru" transform="matrix(1,0,0,1,126.927,325.242)">
            <path d="M0,11.329C3.308,9.725 5.446,6.833 6.595,3.367C6.893,3.624 7.486,3.961 7.823,4.14C6.417,8.141 3.961,11.092 -0.258,13.092C-0.317,13.25 -0.456,13.409 -0.594,13.488L-1.624,12.181L-1.406,11.884L-1.406,-2.654L0.436,-2.555C0.416,-2.377 0.277,-2.218 0,-2.178L0,11.329ZM-5.13,-0.079C-5.149,0.099 -5.328,0.218 -5.585,0.258C-5.704,5.585 -6.14,10.438 -9.19,13.983C-9.507,13.746 -9.982,13.449 -10.378,13.23C-7.427,10.022 -7.071,5.071 -7.011,-0.257L-5.13,-0.079Z" style="fill-rule:nonzero;"/>
        </g>
    </g>
</svg>
