<?xml version="1.0" encoding="UTF-8" standalone="no"?>
<!DOCTYPE svg PUBLIC "-//W3C//DTD SVG 1.1//EN" "http://www.w3.org/Graphics/SVG/1.1/DTD/svg11.dtd">
<svg width="100%" height="100%" viewBox="0 0 29 17" version="1.1" xmlns="http://www.w3.org/2000/svg" xmlns:xlink="http://www.w3.org/1999/xlink" xml:space="preserve" xmlns:serif="http://www.serif.com/" style="fill-rule:evenodd;clip-rule:evenodd;stroke-linejoin:round;stroke-miterlimit:2;">
    <g transform="matrix(1,0,0,1,-199,-562)">
        <g id="rya">
            <g transform="matrix(1,0,0,1,210.417,578.817)">
                <path d="M0,-16.678C-0.02,-16.48 -0.159,-16.38 -0.476,-16.341L-0.476,-10.042C-0.476,-5.883 -1.901,-2.08 -7.586,0.118C-7.784,-0.179 -8.279,-0.695 -8.616,-0.951C-3.129,-2.991 -1.901,-6.378 -1.901,-10.042L-1.901,-16.796L0,-16.678ZM-11.032,-6.28L-11.032,-15.906L-9.15,-15.786C-9.17,-15.608 -9.309,-15.469 -9.626,-15.43L-9.626,-6.28L-11.032,-6.28Z" style="fill-rule:nonzero;"/>
            </g>
            <g transform="matrix(1,0,0,1,227.485,575.787)">
                <path d="M0,-7.528C-0.059,-7.468 -0.139,-7.409 -0.218,-7.389C-1.01,-5.349 -2.357,-3.369 -3.783,-1.903C-4.021,-2.121 -4.456,-2.398 -4.773,-2.576C-3.625,-3.626 -2.357,-5.467 -1.802,-6.795L-7.348,-5.567L-5.526,2.89L-6.694,3.148L-8.517,-5.309L-13.032,-4.28L-13.29,-5.388L-8.734,-6.399L-9.625,-10.518L-7.981,-10.676C-7.981,-10.518 -8.081,-10.4 -8.338,-10.281L-7.585,-6.676L-1.069,-8.083L-0.931,-8.181L0,-7.528Z" style="fill-rule:nonzero;"/>
            </g>
        </g>
    </g>
</svg>
