<?xml version="1.0" encoding="UTF-8" standalone="no"?>
<!DOCTYPE svg PUBLIC "-//W3C//DTD SVG 1.1//EN" "http://www.w3.org/Graphics/SVG/1.1/DTD/svg11.dtd">
<svg width="100%" height="100%" viewBox="0 0 26 18" version="1.1" xmlns="http://www.w3.org/2000/svg" xmlns:xlink="http://www.w3.org/1999/xlink" xml:space="preserve" xmlns:serif="http://www.serif.com/" style="fill-rule:evenodd;clip-rule:evenodd;stroke-linejoin:round;stroke-miterlimit:2;">
    <g transform="matrix(1,0,0,1,-200,-651)">
        <g id="ryo">
            <g transform="matrix(1,0,0,1,211.506,668.327)">
                <path d="M0,-16.678C-0.02,-16.48 -0.159,-16.38 -0.476,-16.341L-0.476,-10.042C-0.476,-5.883 -1.901,-2.08 -7.586,0.118C-7.784,-0.179 -8.279,-0.695 -8.616,-0.951C-3.129,-2.991 -1.901,-6.378 -1.901,-10.042L-1.901,-16.796L0,-16.678ZM-11.032,-6.28L-11.032,-15.906L-9.15,-15.786C-9.17,-15.608 -9.309,-15.469 -9.626,-15.43L-9.626,-6.28L-11.032,-6.28Z" style="fill-rule:nonzero;"/>
            </g>
            <g transform="matrix(1,0,0,1,225.841,668.307)">
                <path d="M0,-12.042L0,0L-1.188,0L-1.188,-0.871L-10.081,-0.871L-10.081,-1.98L-1.188,-1.98L-1.188,-6.001L-9.289,-6.001L-9.289,-7.11L-1.188,-7.11L-1.188,-10.953L-9.586,-10.953L-9.586,-12.042L0,-12.042Z" style="fill-rule:nonzero;"/>
            </g>
        </g>
    </g>
</svg>
