<?xml version="1.0" encoding="UTF-8" standalone="no"?>
<!DOCTYPE svg PUBLIC "-//W3C//DTD SVG 1.1//EN" "http://www.w3.org/Graphics/SVG/1.1/DTD/svg11.dtd">
<svg width="100%" height="100%" viewBox="0 0 29 17" version="1.1" xmlns="http://www.w3.org/2000/svg" xmlns:xlink="http://www.w3.org/1999/xlink" xml:space="preserve" xmlns:serif="http://www.serif.com/" style="fill-rule:evenodd;clip-rule:evenodd;stroke-linejoin:round;stroke-miterlimit:2;">
    <g transform="matrix(1,0,0,1,-199,-607)">
        <g id="ryu">
            <g transform="matrix(1,0,0,1,210.319,623.816)">
                <path d="M0,-16.678C-0.02,-16.48 -0.159,-16.38 -0.476,-16.341L-0.476,-10.042C-0.476,-5.883 -1.901,-2.08 -7.586,0.118C-7.784,-0.179 -8.279,-0.695 -8.616,-0.951C-3.129,-2.991 -1.901,-6.378 -1.901,-10.042L-1.901,-16.796L0,-16.678ZM-11.032,-6.28L-11.032,-15.906L-9.15,-15.786C-9.17,-15.608 -9.309,-15.469 -9.626,-15.43L-9.626,-6.28L-11.032,-6.28Z" style="fill-rule:nonzero;"/>
            </g>
            <g transform="matrix(1,0,0,1,227.406,613.101)">
                <path d="M0,8.04L0,9.189L-13.507,9.189L-13.507,8.04L-5.446,8.04C-5.129,6.04 -4.595,2.099 -4.396,0.078L-11.943,0.078L-11.943,-1.07L-4,-1.07L-3.763,-1.149L-2.792,-0.675C-2.812,-0.595 -2.911,-0.516 -3.03,-0.496C-3.288,1.584 -3.921,5.921 -4.258,8.04L0,8.04Z" style="fill-rule:nonzero;"/>
            </g>
        </g>
    </g>
</svg>
