<?xml version="1.0" encoding="UTF-8" standalone="no"?>
<!DOCTYPE svg PUBLIC "-//W3C//DTD SVG 1.1//EN" "http://www.w3.org/Graphics/SVG/1.1/DTD/svg11.dtd">
<svg width="100%" height="100%" viewBox="0 0 18 18" version="1.1" xmlns="http://www.w3.org/2000/svg" xmlns:xlink="http://www.w3.org/1999/xlink" xml:space="preserve" xmlns:serif="http://www.serif.com/" style="fill-rule:evenodd;clip-rule:evenodd;stroke-linejoin:round;stroke-miterlimit:2;">
    <g transform="matrix(1,0,0,1,-386,-232)">
        <g id="sa" transform="matrix(1,0,0,1,403.798,243.422)">
            <path d="M0,-5.427L-4.14,-5.427L-4.14,-4.06C-4.14,-0.278 -5.308,3.565 -10.478,5.902C-10.734,5.585 -11.15,5.189 -11.507,4.911C-6.477,2.733 -5.546,-0.793 -5.546,-4.041L-5.546,-5.427L-11.942,-5.427L-11.942,-0.495L-13.349,-0.495L-13.349,-5.427L-17.231,-5.427L-17.231,-6.774L-13.349,-6.774L-13.349,-11.072L-11.447,-10.953C-11.468,-10.755 -11.646,-10.576 -11.942,-10.537L-11.942,-6.774L-5.546,-6.774L-5.546,-11.329L-3.645,-11.21C-3.664,-11.032 -3.822,-10.874 -4.14,-10.834L-4.14,-6.774L0,-6.774L0,-5.427Z" style="fill-rule:nonzero;"/>
        </g>
    </g>
</svg>
