<?xml version="1.0" encoding="UTF-8" standalone="no"?>
<!DOCTYPE svg PUBLIC "-//W3C//DTD SVG 1.1//EN" "http://www.w3.org/Graphics/SVG/1.1/DTD/svg11.dtd">
<svg width="100%" height="100%" viewBox="0 0 18 17" version="1.1" xmlns="http://www.w3.org/2000/svg" xmlns:xlink="http://www.w3.org/1999/xlink" xml:space="preserve" xmlns:serif="http://www.serif.com/" style="fill-rule:evenodd;clip-rule:evenodd;stroke-linejoin:round;stroke-miterlimit:2;">
    <g transform="matrix(1,0,0,1,-385,-366)">
        <g id="se" transform="matrix(1,0,0,1,402.373,378.792)">
            <path d="M0,-8.121C-0.06,-8.022 -0.179,-7.943 -0.317,-7.883C-1.209,-5.744 -2.773,-3.051 -4.457,-1.427C-4.754,-1.644 -5.269,-1.941 -5.646,-2.14C-4.14,-3.486 -2.912,-5.467 -2.259,-7.051L-9.844,-5.071L-9.844,0.059C-9.844,2 -8.676,2.653 -7.091,2.653L-3.862,2.653C-3.051,2.653 -1.684,2.535 -0.911,2.436C-0.911,2.871 -0.892,3.406 -0.872,3.822C-1.664,3.921 -3.051,3.981 -3.803,3.981L-7.11,3.981C-9.606,3.981 -11.271,2.812 -11.271,0.079L-11.271,-4.714L-16.261,-3.427L-16.598,-4.754L-11.271,-6.081L-11.271,-12.102L-9.349,-12.023C-9.389,-11.785 -9.566,-11.666 -9.844,-11.626L-9.844,-6.457L-1.466,-8.616L-1.248,-8.774L0,-8.121Z" style="fill-rule:nonzero;"/>
        </g>
    </g>
</svg>
