<?xml version="1.0" encoding="UTF-8" standalone="no"?>
<!DOCTYPE svg PUBLIC "-//W3C//DTD SVG 1.1//EN" "http://www.w3.org/Graphics/SVG/1.1/DTD/svg11.dtd">
<svg width="100%" height="100%" viewBox="0 0 33 17" version="1.1" xmlns="http://www.w3.org/2000/svg" xmlns:xlink="http://www.w3.org/1999/xlink" xml:space="preserve" xmlns:serif="http://www.serif.com/" style="fill-rule:evenodd;clip-rule:evenodd;stroke-linejoin:round;stroke-miterlimit:2;">
    <g transform="matrix(1,0,0,1,-422,-562)">
        <g id="sha">
            <g transform="matrix(1,0,0,1,424.964,578.499)">
                <path d="M0,-16.143C1.782,-15.667 3.961,-14.875 5.308,-14.202L4.654,-12.994C3.248,-13.706 1.188,-14.498 -0.595,-14.994L0,-16.143ZM-0.99,-1.545C5.446,-3.705 9.844,-7.131 12.478,-13.073C12.774,-12.815 13.389,-12.399 13.686,-12.202C11.032,-6.319 6.417,-2.655 0.356,-0.496C0.396,-0.318 0.297,-0.08 0.119,0L-0.99,-1.545ZM-2.179,-11.231C-0.396,-10.834 1.822,-10.081 3.149,-9.448L2.555,-8.201C1.248,-8.834 -1.03,-9.626 -2.773,-10.023L-2.179,-11.231Z" style="fill-rule:nonzero;"/>
            </g>
            <g transform="matrix(1,0,0,1,454.509,575.787)">
                <path d="M0,-7.528C-0.06,-7.468 -0.139,-7.409 -0.218,-7.389C-1.01,-5.349 -2.356,-3.369 -3.783,-1.903C-4.021,-2.121 -4.456,-2.398 -4.773,-2.576C-3.624,-3.626 -2.356,-5.467 -1.802,-6.795L-7.348,-5.567L-5.525,2.89L-6.694,3.148L-8.517,-5.309L-13.032,-4.28L-13.29,-5.388L-8.734,-6.399L-9.626,-10.518L-7.981,-10.676C-7.981,-10.518 -8.081,-10.4 -8.338,-10.281L-7.586,-6.676L-1.069,-8.083L-0.931,-8.181L0,-7.528Z" style="fill-rule:nonzero;"/>
            </g>
        </g>
    </g>
</svg>
