<?xml version="1.0" encoding="UTF-8" standalone="no"?>
<!DOCTYPE svg PUBLIC "-//W3C//DTD SVG 1.1//EN" "http://www.w3.org/Graphics/SVG/1.1/DTD/svg11.dtd">
<svg width="100%" height="100%" viewBox="0 0 17 17" version="1.1" xmlns="http://www.w3.org/2000/svg" xmlns:xlink="http://www.w3.org/1999/xlink" xml:space="preserve" xmlns:serif="http://www.serif.com/" style="fill-rule:evenodd;clip-rule:evenodd;stroke-linejoin:round;stroke-miterlimit:2;">
    <g transform="matrix(1,0,0,1,-387,-277)">
        <g id="shi" transform="matrix(1,0,0,1,389.894,293.482)">
            <path d="M0,-16.142C1.782,-15.667 3.961,-14.874 5.308,-14.201L4.654,-12.993C3.248,-13.706 1.188,-14.498 -0.595,-14.993L0,-16.142ZM-0.99,-1.545C5.446,-3.704 9.844,-7.13 12.478,-13.072C12.774,-12.815 13.389,-12.399 13.686,-12.201C11.031,-6.318 6.417,-2.654 0.356,-0.496C0.396,-0.317 0.297,-0.08 0.119,0L-0.99,-1.545ZM-2.179,-11.23C-0.396,-10.834 1.822,-10.081 3.149,-9.448L2.555,-8.2C1.248,-8.834 -1.03,-9.626 -2.773,-10.022L-2.179,-11.23Z" style="fill-rule:nonzero;"/>
        </g>
    </g>
</svg>
