<?xml version="1.0" encoding="UTF-8" standalone="no"?>
<!DOCTYPE svg PUBLIC "-//W3C//DTD SVG 1.1//EN" "http://www.w3.org/Graphics/SVG/1.1/DTD/svg11.dtd">
<svg width="100%" height="100%" viewBox="0 0 16 16" version="1.1" xmlns="http://www.w3.org/2000/svg" xmlns:xlink="http://www.w3.org/1999/xlink" xml:space="preserve" xmlns:serif="http://www.serif.com/" style="fill-rule:evenodd;clip-rule:evenodd;stroke-linejoin:round;stroke-miterlimit:2;">
    <g transform="matrix(1,0,0,1,-386,-412)">
        <g id="so" transform="matrix(1,0,0,1,401.461,427.318)">
            <path d="M0,-13.904C-0.06,-13.726 -0.198,-13.647 -0.515,-13.647C-2.516,-6.259 -6.318,-1.922 -11.884,0.614C-12.102,0.317 -12.557,-0.179 -12.894,-0.436C-7.447,-2.833 -3.783,-6.953 -1.901,-14.518L0,-13.904ZM-13.864,-14.142C-12.478,-12.518 -11.071,-10.122 -10.457,-8.517L-11.824,-7.824C-12.379,-9.388 -13.785,-11.864 -15.111,-13.489L-13.864,-14.142Z" style="fill-rule:nonzero;"/>
        </g>
    </g>
</svg>
