<?xml version="1.0" encoding="UTF-8" standalone="no"?>
<!DOCTYPE svg PUBLIC "-//W3C//DTD SVG 1.1//EN" "http://www.w3.org/Graphics/SVG/1.1/DTD/svg11.dtd">
<svg width="100%" height="100%" viewBox="0 0 18 16" version="1.1" xmlns="http://www.w3.org/2000/svg" xmlns:xlink="http://www.w3.org/1999/xlink" xml:space="preserve" xmlns:serif="http://www.serif.com/" style="fill-rule:evenodd;clip-rule:evenodd;stroke-linejoin:round;stroke-miterlimit:2;">
    <g transform="matrix(1,0,0,1,-385,-323)">
        <g id="su" transform="matrix(1,0,0,1,399.065,338.233)">
            <path d="M0,-14.141C-0.04,-14.042 -0.139,-13.963 -0.258,-13.923C-1.327,-11.408 -2.595,-9.229 -4.219,-7.11C-2.061,-5.387 1.187,-2.436 3.03,-0.396L1.821,0.654C0.079,-1.366 -3.11,-4.377 -5.13,-6.001C-6.873,-3.882 -9.884,-0.99 -12.756,0.654C-12.974,0.357 -13.448,-0.138 -13.785,-0.415C-8.299,-3.426 -3.962,-9.051 -2.179,-13.349L-11.903,-13.349L-11.903,-14.696L-1.406,-14.696L-1.149,-14.795L0,-14.141Z" style="fill-rule:nonzero;"/>
        </g>
    </g>
</svg>
