<?xml version="1.0" encoding="UTF-8" standalone="no"?>
<!DOCTYPE svg PUBLIC "-//W3C//DTD SVG 1.1//EN" "http://www.w3.org/Graphics/SVG/1.1/DTD/svg11.dtd">
<svg width="100%" height="100%" viewBox="0 0 16 19" version="1.1" xmlns="http://www.w3.org/2000/svg" xmlns:xlink="http://www.w3.org/1999/xlink" xml:space="preserve" xmlns:serif="http://www.serif.com/" style="fill-rule:evenodd;clip-rule:evenodd;stroke-linejoin:round;stroke-miterlimit:2;">
    <g transform="matrix(1,0,0,1,-340,-231)">
        <g id="ta" transform="matrix(1,0,0,1,355.186,245.916)">
            <path d="M0,-10.516C-0.02,-10.417 -0.119,-10.338 -0.237,-10.298C-0.97,-7.842 -1.96,-5.584 -3.149,-3.743C-2.297,-3.247 -1.327,-2.633 -0.594,-2.099L-1.426,-0.791C-2.139,-1.346 -3.149,-1.999 -3.981,-2.515C-5.803,0.021 -8.14,2.061 -11.131,3.506C-11.349,3.17 -11.864,2.694 -12.22,2.477C-9.329,1.13 -7.011,-0.87 -5.208,-3.227C-6.674,-4.039 -8.12,-4.733 -9.586,-5.287L-8.833,-6.396C-7.387,-5.881 -5.902,-5.208 -4.377,-4.396C-3.347,-6.02 -2.535,-7.743 -1.98,-9.644L-8.695,-9.644C-9.903,-7.624 -11.527,-5.624 -13.27,-4.198C-13.527,-4.435 -14.062,-4.871 -14.399,-5.089C-11.804,-7.07 -9.348,-10.635 -8.16,-14.022L-6.278,-13.586C-6.357,-13.368 -6.556,-13.308 -6.813,-13.329C-7.09,-12.675 -7.546,-11.704 -7.922,-10.972L-1.347,-10.972L-1.069,-11.051L0,-10.516Z" style="fill-rule:nonzero;"/>
        </g>
    </g>
</svg>
