<?xml version="1.0" encoding="UTF-8" standalone="no"?>
<!DOCTYPE svg PUBLIC "-//W3C//DTD SVG 1.1//EN" "http://www.w3.org/Graphics/SVG/1.1/DTD/svg11.dtd">
<svg width="100%" height="100%" viewBox="0 0 17 17" version="1.1" xmlns="http://www.w3.org/2000/svg" xmlns:xlink="http://www.w3.org/1999/xlink" xml:space="preserve" xmlns:serif="http://www.serif.com/" style="fill-rule:evenodd;clip-rule:evenodd;stroke-linejoin:round;stroke-miterlimit:2;">
    <g transform="matrix(1,0,0,1,-341,-367)">
        <g id="te" transform="matrix(1,0,0,1,0,-113.647)">
            <path d="M355.938,482L343.777,482L343.777,480.673L355.938,480.673L355.938,482ZM357.899,487.585L351.205,487.585L351.542,487.685C351.502,487.803 351.363,487.902 351.146,487.922C350.611,491.606 349.264,494.894 345.025,496.974C344.788,496.716 344.293,496.241 343.956,495.983C348.076,494.002 349.225,491.23 349.68,487.585L341.976,487.585L341.976,486.258L357.899,486.258L357.899,487.585Z" style="fill-rule:nonzero;"/>
        </g>
    </g>
</svg>
