<?xml version="1.0" encoding="UTF-8" standalone="no"?>
<!DOCTYPE svg PUBLIC "-//W3C//DTD SVG 1.1//EN" "http://www.w3.org/Graphics/SVG/1.1/DTD/svg11.dtd">
<svg width="100%" height="100%" viewBox="0 0 18 18" version="1.1" xmlns="http://www.w3.org/2000/svg" xmlns:xlink="http://www.w3.org/1999/xlink" xml:space="preserve" xmlns:serif="http://www.serif.com/" style="fill-rule:evenodd;clip-rule:evenodd;stroke-linejoin:round;stroke-miterlimit:2;">
    <g transform="matrix(1,0,0,1,-160,-232)">
        <g id="ya" transform="matrix(1,0,0,1,177.948,245.244)">
            <path d="M0,-9.17C-0.04,-9.071 -0.159,-9.011 -0.277,-8.972C-1.169,-6.378 -2.852,-3.723 -4.674,-2C-4.972,-2.277 -5.506,-2.634 -5.843,-2.832C-4.278,-4.199 -2.912,-6.417 -2.159,-8.279L-9.566,-6.853L-7.566,3.763L-8.992,4.021L-10.973,-6.575L-16.697,-5.486L-16.974,-6.813L-11.23,-7.902L-12.201,-13.032L-10.2,-13.191C-10.181,-12.973 -10.339,-12.814 -10.656,-12.715L-9.824,-8.18L-1.327,-9.784L-1.149,-9.903L0,-9.17Z" style="fill-rule:nonzero;"/>
        </g>
    </g>
</svg>
