<?xml version="1.0" encoding="UTF-8" standalone="no"?>
<!DOCTYPE svg PUBLIC "-//W3C//DTD SVG 1.1//EN" "http://www.w3.org/Graphics/SVG/1.1/DTD/svg11.dtd">
<svg width="100%" height="100%" viewBox="0 0 20 20" version="1.1" xmlns="http://www.w3.org/2000/svg" xmlns:xlink="http://www.w3.org/1999/xlink" xml:space="preserve" xmlns:serif="http://www.serif.com/" style="fill-rule:evenodd;clip-rule:evenodd;stroke-linejoin:round;stroke-miterlimit:2;">
    <g transform="matrix(1,0,0,1,-731,-230)">
        <g id="za" transform="matrix(1,0,0,1,747.771,249.065)">
            <path d="M0,-18.162C0.892,-17.37 1.842,-16.241 2.377,-15.33L1.684,-14.795C1.109,-15.686 0.139,-16.875 -0.674,-17.608L0,-18.162ZM-1.961,-16.518C-1.109,-15.746 -0.139,-14.597 0.396,-13.706L-0.317,-13.171C-0.871,-14.062 -1.842,-15.251 -2.634,-15.964L-1.961,-16.518ZM1.089,-11.289L-3.149,-11.289L-3.149,-9.962C-3.149,-6.18 -4.317,-2.337 -9.507,0C-9.765,-0.317 -10.181,-0.713 -10.517,-0.991C-5.486,-3.169 -4.556,-6.695 -4.556,-9.943L-4.556,-11.289L-10.854,-11.289L-10.854,-6.397L-12.26,-6.397L-12.26,-11.289L-16.142,-11.289L-16.142,-12.636L-12.26,-12.636L-12.26,-16.974L-10.358,-16.855C-10.378,-16.657 -10.557,-16.478 -10.854,-16.439L-10.854,-12.636L-4.556,-12.636L-4.556,-17.211L-2.674,-17.093C-2.693,-16.934 -2.853,-16.756 -3.149,-16.716L-3.149,-12.636L1.089,-12.636L1.089,-11.289Z" style="fill-rule:nonzero;"/>
        </g>
    </g>
</svg>
