<?xml version="1.0" encoding="UTF-8" standalone="no"?>
<!DOCTYPE svg PUBLIC "-//W3C//DTD SVG 1.1//EN" "http://www.w3.org/Graphics/SVG/1.1/DTD/svg11.dtd">
<svg width="100%" height="100%" viewBox="0 0 19 19" version="1.1" xmlns="http://www.w3.org/2000/svg" xmlns:xlink="http://www.w3.org/1999/xlink" xml:space="preserve" xmlns:serif="http://www.serif.com/" style="fill-rule:evenodd;clip-rule:evenodd;stroke-linejoin:round;stroke-miterlimit:2;">
    <g transform="matrix(1,0,0,1,-731,-364)">
        <g id="ze" transform="matrix(1,0,0,1,747.076,382.474)">
            <path d="M0,-17.647C0.931,-16.835 1.941,-15.647 2.516,-14.755L1.763,-14.181C1.188,-15.053 0.158,-16.281 -0.713,-17.053L0,-17.647ZM-2.852,-16.736C-2.021,-15.964 -0.95,-14.716 -0.376,-13.825L-1.109,-13.25C-1.703,-14.122 -2.713,-15.35 -3.585,-16.142L-2.852,-16.736ZM1.367,-12.042C1.308,-11.943 1.188,-11.864 1.05,-11.824C0.158,-9.666 -1.406,-6.972 -3.09,-5.348C-3.387,-5.565 -3.901,-5.863 -4.278,-6.061C-2.772,-7.408 -1.545,-9.388 -0.892,-10.973L-8.497,-8.992L-8.497,-3.922C-8.497,-1.961 -7.309,-1.327 -5.724,-1.327L-2.495,-1.327C-1.684,-1.327 -0.316,-1.426 0.456,-1.525C0.456,-1.109 0.476,-0.555 0.495,-0.139C-0.297,-0.06 -1.684,0 -2.436,0L-5.743,0C-8.239,0 -9.903,-1.149 -9.903,-3.882L-9.903,-8.635L-14.894,-7.348L-15.23,-8.675L-9.903,-10.002L-9.903,-16.083L-8.002,-15.983C-8.021,-15.746 -8.22,-15.647 -8.497,-15.607L-8.497,-10.358L-0.099,-12.537L0.119,-12.696L1.367,-12.042Z" style="fill-rule:nonzero;"/>
        </g>
    </g>
</svg>
