<?xml version="1.0" encoding="UTF-8" standalone="no"?>
<!DOCTYPE svg PUBLIC "-//W3C//DTD SVG 1.1//EN" "http://www.w3.org/Graphics/SVG/1.1/DTD/svg11.dtd">
<svg width="100%" height="100%" viewBox="0 0 19 19" version="1.1" xmlns="http://www.w3.org/2000/svg" xmlns:xlink="http://www.w3.org/1999/xlink" xml:space="preserve" xmlns:serif="http://www.serif.com/" style="fill-rule:evenodd;clip-rule:evenodd;stroke-linejoin:round;stroke-miterlimit:2;">
    <g transform="matrix(1,0,0,1,-733,-320)">
        <g id="zu" transform="matrix(1,0,0,1,749.632,338.848)">
            <path d="M0,-18.182C0.693,-17.469 1.743,-16.082 2.219,-15.191L1.406,-14.696C0.99,-15.568 -0.079,-16.994 -0.753,-17.687L0,-18.182ZM-2.437,-17.231C-1.604,-16.399 -0.673,-15.132 -0.158,-14.141L-0.971,-13.646C-1.426,-14.538 -2.356,-15.865 -3.188,-16.716L-2.437,-17.231ZM-2.535,-14.578C-2.575,-14.518 -2.654,-14.458 -2.753,-14.439C-3.645,-12.28 -5.03,-9.804 -6.575,-7.764C-4.437,-6.061 -1.129,-3.07 0.732,-1.01L-0.535,-0.02C-2.317,-2.08 -5.427,-5.011 -7.467,-6.635C-9.189,-4.516 -12.161,-1.644 -15.032,0C-15.271,-0.297 -15.706,-0.773 -16.062,-1.07C-10.576,-4.08 -6.397,-9.586 -4.635,-13.904L-14.398,-13.904L-14.398,-15.251L-3.901,-15.251L-3.645,-15.35L-2.535,-14.578Z" style="fill-rule:nonzero;"/>
        </g>
    </g>
</svg>
